<?xml version="1.0" encoding="UTF-8"?>
<!DOCTYPE svg PUBLIC "-//W3C//DTD SVG 1.1//EN" "http://www.w3.org/Graphics/SVG/1.1/DTD/svg11.dtd">
<!-- Creator: CorelDRAW -->
<svg xmlns="http://www.w3.org/2000/svg" xml:space="preserve" width="1.66666in" height="0.666661in" style="shape-rendering:geometricPrecision; text-rendering:geometricPrecision; image-rendering:optimizeQuality; fill-rule:evenodd; clip-rule:evenodd"
viewBox="0 0 1.66666 0.666661"
 xmlns:xlink="http://www.w3.org/1999/xlink">
 <defs>
  <style type="text/css">
   <![CDATA[
    .fil1 {fill:black}
    .fil5 {fill:#CD4D50}
    .fil3 {fill:#D13645}
    .fil4 {fill:#D82735}
    .fil2 {fill:#E72534}
    .fil0 {fill:#EB1D25}
   ]]>
  </style>
 </defs>
 <g id="Layer_x0020_1">
  <metadata id="CorelCorpID_0Corel-Layer"/>
  <g id="_246377208">
   <path id="_246383880" class="fil0" d="M0.820488 0.124689l-0.339732 0c0,0.0201654 0.00610236,0.0926063 0.0205906,0.0926063l0.319142 0 0 -0.0926063z"/>
   <path id="_246383352" class="fil1" d="M0.923437 0.16928l0 0.0137165c0,0.00825984 0.0123268,0.0205787 0.0205906,0.0205787 0.011563,0 0.0240197,-0.00605906 0.0240197,-0.0171457l0 -0.0171496c0,-0.00973622 -0.0118425,-0.0171496 -0.0205866,-0.0171496 -0.0115669,0 -0.0240236,0.00605906 -0.0240236,0.0171496z"/>
   <path id="_246383832" class="fil1" d="M1.18424 0.179567c0,0.0112283 0.0128898,0.0240079 0.0274528,0.0240079 0.00825984,0 0.0205906,-0.0123189 0.0205906,-0.0205787l0 -0.00685827c0,-0.0131575 -0.00990551,-0.0240079 -0.0205906,-0.0240079 -0.0165984,0 -0.0274528,0.0108465 -0.0274528,0.027437z"/>
   <path id="_246383136" class="fil1" d="M1.28376 0.275602l0.0053937 0.00342913 0.00154331 0.0139094 -0.0104094 0.00326772 0.00687008 0.0135276 0.020626 -0.00326378c0.0123504,-0.0142047 0.0241772,-0.0420394 0.0617677,-0.0240079l0.00987008 -0.00237402 0.0291654 0.00945669 -0.0115827 0.0512244c0.00240551,0.00484252 0.00343307,0.00569291 0.00343307,0.0137165l0 0.0068622c0,0.00801969 -0.00707087,0.0101811 -0.00988189,0.0245039l0.0107441 -0.00809449 0.0162953 0.0178858 0 -0.14748 -0.0274528 0 -0.000299213 0.0175039 -0.0202913 -0.0175039c-0.00769685,-0.00179134 -0.00788976,-0.00342913 -0.0171575,-0.00342913l-0.0240236 0c-0.0205669,0 -0.0372008,0.016874 -0.0446102,0.0308661z"/>
   <polygon id="_246383160" class="fil1" points="0.343492,0.392217 0.357217,0.426516 0.363465,0.426256 0.436055,0.258469 0.460165,0.416228 0.498598,0.416118 0.473894,0.248165 0.456736,0.15213 0.452531,0.135126 0.446441,0.13498 0.364236,0.330547 0.360173,0.332087 0.277303,0.130547 0.223106,0.416177 0.264563,0.416228 0.288185,0.25839 "/>
   <path id="_246382752" class="fil2" d="M0.789602 0.289323l0 0.0308701 -0.0274528 0 0 0.027437 0.0274528 0 0 0.0342992 0.0240236 0 0 -0.0377283 0.0308819 0 0 -0.0137205c0,-0.00790157 -0.00238583,-0.0102874 -0.0102913,-0.0102874l-0.0205906 0 0 -0.0308701c0,-0.00790157 -0.00238976,-0.0102913 -0.0102953,-0.0102913l-0.00343307 0c-0.00790551,0 -0.0102953,0.00238976 -0.0102953,0.0102913z"/>
   <path id="_246382728" class="fil1" d="M1.36955 0.282465c0.00983465,0.00854331 0.0240236,0.0230512 0.0240236,0.0411575l0 0.0137165c0,0.0209606 -0.0179055,0.0480197 -0.0411811,0.0480197l-0.0102953 0c-0.0254134,0 -0.037748,-0.0317559 -0.037748,-0.0583071 0,-0.0129173 0.00225984,-0.00648425 0.00343307,-0.0205787l-0.020626 0.00326378 -0.00687008 -0.0135276 0.0104094 -0.00326772 -0.00154331 -0.0139094 -0.0053937 -0.00342913c-0.0108543,0.0124843 -0.0171575,0.0281693 -0.0171575,0.0514488l0 0.0205787c0,0.0124606 0.00407087,0.0120315 0.0068622,0.0240079 0.012752,0.0200866 0.0231693,0.0480197 0.0549055,0.0480197l0.0205906 0c0.0203504,0 0.0290906,-0.00905906 0.0411811,-0.0171496l0 0.0137205 0.037748 0 0 -0.168063 -0.0102953 0 0 0.14748 -0.0162953 -0.0178858 -0.0107441 0.00809449c0.00281102,-0.0143228 0.00988189,-0.0164843 0.00988189,-0.0245039l0 -0.0068622c0,-0.00802362 -0.00102756,-0.00887402 -0.00343307,-0.0137165l0.0115827 -0.0512244 -0.0291654 -0.00945669 -0.00987008 0.00237402z"/>
   <polygon id="_246383448" class="fil1" points="0.92687,0.416228 0.964618,0.416228 0.964618,0.248165 0.92687,0.248165 "/>
   <polygon id="_246382296" class="fil1" points="1.22199,0.244736 1.19111,0.248165 1.19111,0.416228 1.22885,0.416228 1.22885,0.244736 "/>
   <path id="_246382416" class="fil1" d="M0.580272 0.309902c0.00145669,-0.0174803 0.0123622,-0.0308701 0.0308858,-0.0308701l0.0137283 0c0.0135709,0 0.023689,0.0160315 0.0240197,0.0308701l-0.0686339 0zm-0.00342913 -0.0583071c-0.020811,0.0139291 -0.037748,0.0339449 -0.037748,0.0685984l0 0.0342953c0,0.00926378 0.0016378,0.00945669 0.00343307,0.0171496 0.0309252,0.035563 0.0160472,0.0480197 0.0892205,0.0480197l0.0411811 -0.0205787 0.0180118 -0.0268819 -0.0314567 -0.0181929c-0.00863386,0.0129488 -0.0177677,0.0313543 -0.0380315,0.0313543l-0.00343307 0c-0.0285984,0 -0.040563,-0.0169094 -0.0411772,-0.0445866l0.113244 0c0,-0.0465866 -0.0191102,-0.0960354 -0.0617717,-0.0960354l-0.0240197 0c-0.0124409,0 -0.0191535,0.00287795 -0.0274528,0.00685827z"/>
   <polygon id="_246382488" class="fil1" points="1.00923,0.388787 0.995504,0.416228 1.15679,0.416228 1.15679,0.378496 1.14993,0.378496 1.06757,0.378496 1.16431,0.248669 1.01266,0.248165 1.01266,0.285894 1.08816,0.285894 "/>
   <path id="_246382656" class="fil1" d="M0.755287 0.333909c0,-0.0282205 0.0147087,-0.0583071 0.0411811,-0.0583071l0.0102953 0c0.0178504,0 0.0411772,0.0250433 0.0411772,0.0377283l0 0.0205787c0,0.0279764 -0.0147244,0.054878 -0.0411772,0.054878l-0.0102953 0c-0.0212205,0 -0.0411811,-0.0277717 -0.0411811,-0.0480157l0 -0.0068622zm0.0583386 -0.0891732c-0.038,0 -0.046185,-0.00155906 -0.0667677,0.0190118 -0.0114882,0.0114803 -0.0258858,0.0352874 -0.0258858,0.0564449l0 0.0137165c0,0.0302835 0.0152756,0.0572323 0.0308819,0.0720276 0.00799606,0.00535039 0.0179134,0.0137205 0.0308858,0.0137205l0.0274528 0c0.0149291,0 0.0217205,-0.0104882 0.034315,-0.0171496l0 0.0137205 0.0308858 0 0.00686614 0 0 -0.0068622 0 -0.288106 -0.037752 0 0 0.140626 -0.0308819 -0.0171496z"/>
   <path id="_246382704" class="fil3" d="M1.19111 0.453957c-0.00179134,0.00768898 -0.00343307,0.00788583 -0.00343307,0.0171457l0 0.0377283c0,0.0118268 0.00253937,0.0132795 0.00343307,0.0240118 0.00769685,0.00179134 0.00788976,0.00342913 0.0171575,0.00342913l0.0480433 0c0.0080315,0 0.0137283,-0.00569291 0.0137283,-0.0137205l0 -0.0205787 -0.0171614 0 0 0.0171496 -0.0446102 0 0 -0.0514488 0.0446102 0 0 0.0137205c0.011,-0.000244094 0.0171614,0.00111811 0.0171614,-0.0102913 0,-0.00925984 -0.00164173,-0.00945669 -0.00343307,-0.0171457 -0.00769685,-0.00179528 -0.00788976,-0.00343307 -0.0171575,-0.00343307l-0.0411811 0c-0.00540551,0 -0.0130039,0.0018189 -0.0171575,0.00343307z"/>
   <path id="_246381888" class="fil3" d="M0.54939 0.498543l0.0446102 0 0 0.0205787 -0.0446102 0 0 -0.0205787zm-0.00343307 -0.0342992l0.0480433 0 0 0.0205787 -0.0480433 0 0 -0.0205787zm-0.0171575 0.0720276l0.0789291 -0.00342913c0.00179134,-0.00769291 0.00342913,-0.00788583 0.00342913,-0.0171496l0 -0.0102913c0,-0.00768898 -0.00271654,-0.00752756 -0.0068622,-0.0137205 0.00356693,-0.00673622 0.0068622,-0.0101142 0.0068622,-0.0205787l0 -0.00685827c0,-0.00802756 -0.00569291,-0.0137205 -0.0137244,-0.0137205l-0.0686339 0 0 0.085748z"/>
   <path id="_246381696" class="fil3" d="M0.78274 0.467673l0.0549055 0 0 0.0514488 -0.0549055 0 0 -0.0514488zm-0.0171575 -0.00342913l0 0.0583071c0,0.00790157 0.00238583,0.0102913 0.0102953,0.0102913l0.0686299 0c0.00803543,0 0.0137283,-0.00569291 0.0137283,-0.0137205l0 -0.0617362 -0.0068622 0 0 -0.0068622 -0.0652008 0c-0.0105394,0 -0.0205906,0.00317717 -0.0205906,0.0137205z"/>
   <polygon id="_246377352" class="fil4" points="1.42789,0.532843 1.42789,0.450524 1.41073,0.450524 1.41073,0.484823 1.35583,0.484823 1.35583,0.450524 1.33867,0.450524 1.33867,0.532843 1.35583,0.532843 1.35583,0.498543 1.41073,0.498543 1.41073,0.532843 "/>
   <polygon id="_246377256" class="fil3" points="0.90628,0.467673 0.940594,0.467673 0.940594,0.536272 0.961185,0.532843 0.961185,0.467673 0.995504,0.467673 0.995504,0.450524 0.90628,0.450524 "/>
   <polygon id="_246377376" class="fil1" points="0.223382,0.532843 0.497913,0.532843 0.497913,0.450524 0.223382,0.450524 "/>
   <polygon id="_246377904" class="fil5" points="0.676358,0.536272 0.696949,0.536272 0.696949,0.450524 0.676358,0.450524 "/>
   <polygon id="_246376728" class="fil3" points="1.06757,0.467673 1.12591,0.467673 1.12591,0.450524 1.04698,0.450524 1.04698,0.536272 1.12591,0.536272 1.12591,0.519122 1.06757,0.519122 1.06757,0.498543 1.10188,0.498543 1.10188,0.481394 1.06757,0.481394 "/>
   <path id="_95545144" class="fil1" d="M1.29004 0.266039c0,0 -0.0178425,0.0227087 -0.0195827,0.033189l0.0339213 0.0258583c0,0 -0.00157874,-0.0177047 0.0160472,-0.0345866l-0.0303858 -0.0244606z"/>
   <path id="_97542760" class="fil1" d="M1.365 0.280449c0,0 0.0257362,0.0117047 0.0285039,0.0409882 0.00276378,0.0292874 0.00737402,0.0397874 -0.0208425,0.0567126l0.0487953 0.0331535 0.00127953 -0.163142 -0.0203898 0 0.000870079 0.0266181 -0.0382165 0.00566929z"/>
  </g>
 </g>
</svg>
