<?xml version="1.0" encoding="UTF-8"?>
<!DOCTYPE svg PUBLIC "-//W3C//DTD SVG 1.1//EN" "http://www.w3.org/Graphics/SVG/1.1/DTD/svg11.dtd">
<!-- Creator: CorelDRAW -->
<svg xmlns="http://www.w3.org/2000/svg" xml:space="preserve" width="1.66666in" height="0.666661in" style="shape-rendering:geometricPrecision; text-rendering:geometricPrecision; image-rendering:optimizeQuality; fill-rule:evenodd; clip-rule:evenodd"
viewBox="0 0 1.66666 0.666661"
 xmlns:xlink="http://www.w3.org/1999/xlink">
 <defs>
  <style type="text/css">
   <![CDATA[
    .fil6 {fill:#1F1A17}
    .fil2 {fill:#605D5C}
    .fil0 {fill:#D82C26}
    .fil1 {fill:#E1661B}
    .fil5 {fill:#605D5C;fill-rule:nonzero}
    .fil3 {fill:#D82C26;fill-rule:nonzero}
    .fil4 {fill:#E1661B;fill-rule:nonzero}
   ]]>
  </style>
 </defs>
 <g id="Layer_x0020_1">
  <metadata id="CorelCorpID_0Corel-Layer"/>
  <g id="_95544784">
   <path id="_96357096" class="fil0" d="M0.273756 0.133083c-0.025,7.08661e-005 -0.0499409,0.000192913 -0.0748661,0.000267717l0 0.0359764c0.000133858,0.00810236 -0.0165118,0.00841732 -0.0161181,0 0,-0.0146024 0.000255906,-0.0291378 0,-0.0437441 -7.87402e-005,-0.00408661 0.00209843,-0.00783071 0.00690157,-0.00835039l0.086378 0c0.00486614,0.000393701 0.00751575,0.00288976 0.0100669,0.00604724 0.0199252,0.036626 0.0398701,0.0732835 0.059874,0.109933 0.0199331,-0.0370433 0.0398661,-0.0740748 0.0598661,-0.111114 0.00229921,-0.00288976 0.00479528,-0.00441339 0.00921654,-0.00486614l0.0857165 0c0.00480315,5.90551e-005 0.00775197,0.00354331 0.00809055,0.00860236l0 0.294138c0.000188976,0.00645276 -0.00204724,0.0108504 -0.00750394,0.0112598l-0.0725157 0c-0.00951575,-0.000129921 -0.00906693,-0.0159213 0,-0.0161339l0.0644252 0 0 -0.282016 -0.0754016 0c-0.0215748,0.0397953 -0.0431496,0.0795984 -0.0647283,0.119413 -0.00439764,0.00690551 -0.0103307,0.00683858 -0.0152598,0 -0.0213858,-0.039815 -0.042748,-0.0796181 -0.0641417,-0.119413z"/>
   <path id="_96357024" class="fil0" d="M0.269606 0.42413c0.000125984,-0.0150748 0.000204724,-0.0301339 0.000338583,-0.0452087 -0.00126772,-0.00776772 -0.0142126,-0.00836614 -0.016122,0l0 0.0362402 -0.0555315 0c0,-0.0043189 -6.69291e-005,-0.00866929 0,-0.0130748 0.000125984,-0.00724803 -0.0148661,-0.00835039 -0.0153307,0l0 0.0217047c0,0.00480709 0.00225197,0.00724409 0.00698819,0.00744094l0.0732835 0c0.00479528,-0.000409449 0.00625197,-0.00276378 0.00637402,-0.00710236z"/>
   <path id="_96356952" class="fil1" d="M0.261909 0.175972c-0.00453937,0 -0.00823228,-0.00368898 -0.00823228,-0.00822441 0,-0.00453543 0.00369291,-0.00821654 0.00823228,-0.00821654 0.00454331,0 0.00824016,0.0036811 0.00824016,0.00821654 0,0.00453543 -0.00369685,0.00822441 -0.00824016,0.00822441z"/>
   <path id="_96356880" class="fil1" d="M0.251724 0.207165c-0.00456299,0 -0.00823228,-0.00367717 -0.00823228,-0.00822835 0,-0.00454331 0.00366929,-0.00822835 0.00823228,-0.00822835 0.00452756,0 0.00822047,0.00368504 0.00822047,0.00822835 0,0.00455118 -0.00369291,0.00822835 -0.00822047,0.00822835z"/>
   <path id="_96356808" class="fil1" d="M0.226394 0.230193c-0.00520079,0 -0.00941339,-0.0042126 -0.00941339,-0.00941339 0,-0.00520866 0.0042126,-0.00941339 0.00941339,-0.00941339 0.00519685,0 0.00940551,0.00420472 0.00940551,0.00941339 0,0.00520079 -0.00420866,0.00941339 -0.00940551,0.00941339z"/>
   <path id="_96356736" class="fil1" d="M0.201059 0.253815c-0.00592126,0 -0.0108031,-0.00487795 -0.0108031,-0.0108622 0,-0.00591339 0.00488189,-0.0107874 0.0108031,-0.0107874 0.00598425,0 0.0108504,0.00487402 0.0108504,0.0107874 0,0.00598425 -0.00486614,0.0108622 -0.0108504,0.0108622z"/>
   <path id="_96356664" class="fil1" d="M0.190535 0.286102c-0.00666535,0 -0.0119764,-0.00538976 -0.0119764,-0.0119646 0,-0.00659843 0.00531102,-0.0119685 0.0119764,-0.0119685 0.00657874,0 0.0118976,0.00537008 0.0118976,0.0119685 0,0.0065748 -0.0053189,0.0119646 -0.0118976,0.0119646z"/>
   <path id="_96356592" class="fil1" d="M0.226319 0.336488c-0.00512598,0 -0.00940551,-0.00419685 -0.00940551,-0.0093937 0,-0.00520079 0.00427953,-0.00940551 0.00940551,-0.00940551 0.00520472,0 0.00948031,0.00420472 0.00948031,0.00940551 0,0.00519685 -0.00427559,0.0093937 -0.00948031,0.0093937z"/>
   <path id="_96356520" class="fil1" d="M0.201512 0.316031c-0.00599213,0 -0.0107835,-0.0048622 -0.0107835,-0.0107717 0,-0.00599606 0.00479134,-0.0108661 0.0107835,-0.0108661 0.006,0 0.0108543,0.00487008 0.0108543,0.0108661 0,0.00590945 -0.00485433,0.0107717 -0.0108543,0.0107717z"/>
   <path id="_96356448" class="fil1" d="M0.25152 0.358067c-0.00455118,0 -0.00822441,-0.00367323 -0.00822441,-0.00820472 0,-0.00448425 0.00367323,-0.00817323 0.00822441,-0.00817323 0.00454331,0 0.00823228,0.00368898 0.00823228,0.00817323 0,0.0045315 -0.00368898,0.00820472 -0.00823228,0.00820472z"/>
   <path id="_73243680" class="fil0" d="M0.19085 0.388587c-0.00446063,0 -0.00815748,-0.00367323 -0.00815748,-0.00821654 0,-0.0045315 0.00369685,-0.00822047 0.00815748,-0.00822047 0.00455512,0 0.00823228,0.00368898 0.00823228,0.00822047 0,0.00454331 -0.00367717,0.00821654 -0.00823228,0.00821654z"/>
   <path id="_95255144" class="fil0" d="M0.201457 0.357886c-0.0045315,0 -0.00822441,-0.00368898 -0.00822441,-0.00822441 0,-0.00456299 0.00369291,-0.00825197 0.00822441,-0.00825197 0.00446063,0 0.00814567,0.00368898 0.00814567,0.00825197 0,0.00453543 -0.00368504,0.00822441 -0.00814567,0.00822441z"/>
   <path id="_96286496" class="fil0" d="M0.251331 0.315642c-0.00593307,0 -0.0107953,-0.00487795 -0.0107953,-0.0107953 0,-0.00597244 0.0048622,-0.0108425 0.0107953,-0.0108425 0.0059685,0 0.0108504,0.00487008 0.0108504,0.0108425 0,0.00591732 -0.00488189,0.0107953 -0.0108504,0.0107953z"/>
   <path id="_96845992" class="fil0" d="M0.262244 0.286102c-0.00658661,0 -0.0119843,-0.00538976 -0.0119843,-0.0119646 0,-0.00659843 0.00539764,-0.0119685 0.0119843,-0.0119685 0.00656693,0 0.0119646,0.00537008 0.0119646,0.0119685 0,0.0065748 -0.00539764,0.0119646 -0.0119646,0.0119646z"/>
   <path id="_96845872" class="fil0" d="M0.251453 0.254004c-0.00598819,0 -0.0107874,-0.0048622 -0.0107874,-0.0108583 0,-0.00592126 0.00479921,-0.0107913 0.0107874,-0.0107913 0.00598425,0 0.0108583,0.00487008 0.0108583,0.0107913 0,0.00599606 -0.00487402,0.0108583 -0.0108583,0.0108583z"/>
   <path id="_96845896" class="fil0" d="M0.201114 0.206961c-0.00451969,0 -0.00821654,-0.00367717 -0.00821654,-0.00822835 0,-0.00446063 0.00369685,-0.00814567 0.00821654,-0.00814567 0.00447638,0 0.00816535,0.00368504 0.00816535,0.00814567 0,0.00455118 -0.00368898,0.00822835 -0.00816535,0.00822835z"/>
   <path id="_96751920" class="fil2" d="M0.421378 0.399524c0.000318898,0.00998425 0.0159961,0.0104764 0.0161181,0.000271654l0 -0.159606c-5.51181e-005,-0.00749606 -0.0124291,-0.00689764 -0.0163858,0l-0.0753898 0.132898c-0.0177559,-0.0325 -0.0355039,-0.0619764 -0.0532795,-0.0944055 -0.00507087,-0.00723622 -0.0191417,-0.00113386 -0.0147953,0.00801575 0.0205827,0.0368504 0.0412441,0.0706024 0.0618268,0.107445 0.00329134,0.00493701 0.0092874,0.00461811 0.0127598,0l0.0691457 -0.12198 0 0.127362z"/>
   <path id="_96755544" class="fil2" d="M0.235594 0.239063l-0.0186811 0c-0.0016378,0 -0.00303937,0.00138583 -0.00303937,0.00302756 0,0.00172047 0.00140157,0.00309449 0.00303937,0.00309449l0.0186811 0c0.00171654,0 0.00310236,-0.00137402 0.00310236,-0.00309449 0,-0.00164173 -0.00138583,-0.00302756 -0.00310236,-0.00302756z"/>
   <path id="_96755592" class="fil2" d="M0.244409 0.271039l-0.0370984 0c-0.0017126,0 -0.00309055,0.00138189 -0.00309055,0.00301181 0,0.00172047 0.00137795,0.00310236 0.00309055,0.00310236l0.0370984 0c0.0016378,0 0.00301969,-0.00138189 0.00301969,-0.00310236 0,-0.00162992 -0.00138189,-0.00301181 -0.00301969,-0.00301181z"/>
   <path id="_96752328" class="fil2" d="M0.235594 0.302555l-0.0186811 0c-0.0016378,0 -0.00303937,0.0013622 -0.00303937,0.00301969 0,0.00170472 0.00140157,0.00301969 0.00303937,0.00301969l0.0186811 0c0.00171654,0 0.00310236,-0.00131496 0.00310236,-0.00301969 0,-0.00165748 -0.00138583,-0.00301969 -0.00310236,-0.00301969z"/>
   <polygon id="_96755352" class="fil3" points="0.542043,0.429933 0.542043,0.26176 0.669811,0.26176 0.669811,0.296228 0.585106,0.296228 0.585106,0.325925 0.662492,0.325925 0.662492,0.359606 0.585106,0.359606 0.585106,0.395571 0.672543,0.395571 0.672543,0.429933 "/>
   <path id="_96755424" class="fil3" d="M0.698232 0.429933l0 -0.168173 0.071811 0c0.0248858,0 0.0439646,0.00724016 0.0572362,0.0217559 0.0132913,0.0144882 0.0199252,0.0353307 0.0199252,0.0625118 0,0.0280709 -0.00687795,0.0490748 -0.0205748,0.0630118 -0.0137402,0.0139213 -0.0344764,0.0208937 -0.0621772,0.0208937l-0.0662205 0zm0.0432677 -0.0352874l0 0 0.0234094 0c0.0133031,0 0.0230591,-0.00391339 0.0292992,-0.0117441 0.00619685,-0.00784646 0.00927559,-0.0201457 0.00927559,-0.036874 0,-0.0168386 -0.00307874,-0.0291575 -0.00927559,-0.0369409 -0.00624016,-0.00780709 -0.0159961,-0.0117126 -0.0292992,-0.0117126l-0.0234094 0 0 0.0972717z"/>
   <polygon id="_95577960" class="fil3" points="0.874382,0.26176 0.917311,0.26176 0.917311,0.429933 0.874382,0.429933 "/>
   <path id="_95576184" class="fil4" d="M0.951417 0.429933l0 -0.168173 0.0718228 0c0.0248898,0 0.0439764,0.00724016 0.0572638,0.0217559 0.0132756,0.0144882 0.0199173,0.0353307 0.0199173,0.0625118 0,0.0280709 -0.00685433,0.0490748 -0.0206142,0.0630118 -0.0137283,0.0139213 -0.0344567,0.0208937 -0.0621654,0.0208937l-0.0662244 0zm0.0432835 -0.0352874l0 0 0.0233898 0c0.0133228,0 0.0231181,-0.00391339 0.0292953,-0.0117441 0.00618504,-0.00784646 0.0092874,-0.0201457 0.0092874,-0.036874 0,-0.0168386 -0.00310236,-0.0291575 -0.0092874,-0.0369409 -0.00617717,-0.00780709 -0.0159724,-0.0117126 -0.0292953,-0.0117126l-0.0233898 0 0 0.0972717z"/>
   <path id="_95576688" class="fil4" d="M1.16868 0.26176l0.0470315 0 0.0593898 0.168173 -0.046248 0 -0.0102717 -0.0308346 -0.0561535 0 -0.00959843 0.0308346 -0.0446614 0 0.0605118 -0.168173zm0.00401181 0.102524l0 0 0.0367638 0 -0.0187323 -0.0579921 -0.0180315 0.0579921z"/>
   <polygon id="_95579376" class="fil4" points="1.31719,0.429933 1.31719,0.366563 1.2591,0.26176 1.3074,0.26176 1.33836,0.329579 1.36916,0.26176 1.4178,0.26176 1.35911,0.366563 1.35911,0.429933 "/>
   <polygon id="_95577576" class="fil5" points="0.178567,0.547102 0.178567,0.46372 0.186213,0.46372 0.186213,0.499898 0.233874,0.499898 0.233874,0.46372 0.241622,0.46372 0.241622,0.547102 0.233874,0.547102 0.233874,0.506736 0.186213,0.506736 0.186213,0.547102 "/>
   <polygon id="_95579304" class="fil5" points="0.260201,0.547102 0.260201,0.46372 0.314764,0.46372 0.314764,0.470575 0.267843,0.470575 0.267843,0.500953 0.310752,0.500953 0.310752,0.507579 0.267843,0.507579 0.267843,0.540248 0.316189,0.540248 0.316189,0.547102 "/>
   <path id="_95576304" class="fil5" d="M0.320476 0.547091l0.0316457 -0.0833701 0.00917717 0 0.0316417 0.0833701 -0.00804724 0 -0.00943307 -0.0256378 -0.0373701 0 -0.00961417 0.0256378 -0.008 0zm0.0200197 -0.0323307l0 0 0.0323661 0 -0.0162205 -0.0428504 -0.0161457 0.0428504z"/>
   <polygon id="_95579448" class="fil5" points="0.401772,0.547102 0.401772,0.46372 0.409642,0.46372 0.409642,0.540248 0.452213,0.540248 0.452213,0.547102 "/>
   <polygon id="_95576496" class="fil5" points="0.47022,0.547102 0.47022,0.470575 0.444343,0.470575 0.444343,0.46372 0.503961,0.46372 0.503961,0.470575 0.478083,0.470575 0.478083,0.547102 "/>
   <polygon id="_95576736" class="fil5" points="0.514315,0.547102 0.514315,0.46372 0.521957,0.46372 0.521957,0.499898 0.569622,0.499898 0.569622,0.46372 0.577378,0.46372 0.577378,0.547102 0.569622,0.547102 0.569622,0.506736 0.521957,0.506736 0.521957,0.547102 "/>
   <path id="_95576136" class="fil5" d="M0.654366 0.519878l0.00752756 0c-0.000645669,0.00924016 -0.00389764,0.0164764 -0.00976378,0.0217047 -0.00586614,0.00522835 -0.0137126,0.00784646 -0.0235236,0.00784646 -0.0112087,0 -0.0200472,-0.00394882 -0.0265433,-0.011815 -0.0065,-0.00787795 -0.00973622,-0.0186457 -0.00973622,-0.0323543 0,-0.0135866 0.00327165,-0.0242559 0.00981102,-0.0320354 0.00654331,-0.00776772 0.0154488,-0.0116654 0.0267087,-0.0116654 0.0094252,0 0.017063,0.00240157 0.022878,0.00723228 0.00584646,0.00479134 0.00896457,0.0112559 0.00937402,0.0193268l-0.00751969 0c-0.000645669,-0.00612598 -0.00316929,-0.0109291 -0.00759843,-0.0144685 -0.00440945,-0.00352756 -0.0101299,-0.00528346 -0.0171339,-0.00528346 -0.00902756,0 -0.0160472,0.00320079 -0.021063,0.00964961 -0.00502756,0.00643307 -0.00754331,0.0154646 -0.00754331,0.0271457 0,0.0117244 0.00257087,0.0209213 0.00767323,0.027563 0.00511811,0.00662992 0.012189,0.00996063 0.0211969,0.00996063 0.00737008,0 0.0132835,-0.00202756 0.017748,-0.00605906 0.00448425,-0.00404724 0.00697638,-0.00961417 0.00750787,-0.016748z"/>
   <path id="_95579664" class="fil5" d="M0.666768 0.547091l0.0316417 -0.0833701 0.00917323 0 0.0316535 0.0833701 -0.00806693 0 -0.00943307 -0.0256378 -0.0373661 0 -0.00962205 0.0256378 -0.00798031 0zm0.0200118 -0.0323307l0 0 0.0323583 0 -0.0162205 -0.0428504 -0.0161378 0.0428504z"/>
   <path id="_95579328" class="fil5" d="M0.748055 0.547091l0 -0.0833701 0.0277874 0c0.00646063,0 0.011126,0.000259843 0.0140157,0.000795276 0.00288583,0.000523622 0.00540551,0.00139764 0.00755118,0.00261417 0.0032874,0.00183465 0.00582677,0.00438583 0.00759055,0.00765354 0.00177953,0.00324803 0.00266535,0.0069685 0.00266535,0.0111299 0,0.00512992 -0.00115354,0.00945276 -0.00346063,0.0129606 -0.00229528,0.00348819 -0.00564567,0.00600787 -0.0100197,0.00752362 0.00340945,0.00113386 0.00583858,0.00287402 0.00730709,0.0052126 0.00148031,0.00233858 0.00250787,0.00705118 0.00311811,0.0141457l0.00106693 0.0125118c0.00015748,0.00196457 0.000456693,0.00358661 0.000909449,0.00487402 0.000452756,0.00128346 0.00103543,0.00222835 0.00175197,0.00282677l0 0.00112205 -0.00848819 0c-0.000456693,-0.000846457 -0.000826772,-0.00198819 -0.00113386,-0.00338189 -0.000283465,-0.00141339 -0.000523622,-0.00311811 -0.000677165,-0.00516535l-0.00096063 -0.0110315c-0.000566929,-0.00763386 -0.00193307,-0.0124921 -0.0040748,-0.0145709 -0.00215354,-0.00209449 -0.00646457,-0.00314961 -0.0129606,-0.00314961l-0.0243465 0 0 0.0372992 -0.00764173 0zm0.00764173 -0.0441378l0 0 0.0221339 0c0.00777559,0 0.0133701,-0.0013189 0.0167835,-0.00396457 0.00341732,-0.00266535 0.00513386,-0.00693701 0.00513386,-0.0128701 0,-0.00270866 -0.000547244,-0.00516142 -0.00161811,-0.00733858 -0.00107874,-0.0022126 -0.00261417,-0.00394882 -0.00461811,-0.00526378 -0.00153937,-0.00107087 -0.00339764,-0.0018189 -0.00555118,-0.00225984 -0.00214961,-0.000468504 -0.00566929,-0.000681102 -0.0105709,-0.000681102l-0.00323228 0 -0.0184606 0 0 0.032378z"/>
   <polygon id="_95576472" class="fil5" points="0.823055,0.547102 0.823055,0.46372 0.87763,0.46372 0.87763,0.470575 0.830709,0.470575 0.830709,0.500953 0.873618,0.500953 0.873618,0.507579 0.830709,0.507579 0.830709,0.540248 0.879055,0.540248 0.879055,0.547102 "/>
   <path id="_95577816" class="fil5" d="M0.924055 0.547102l0 -0.0833819 0.0290984 0c0.00909055,0 0.0159291,0.00194882 0.0204921,0.00588189 0.00456299,0.00392913 0.00684252,0.00977953 0.00684252,0.0175394 0,0.00804724 -0.00255118,0.0140236 -0.00766929,0.0179213 -0.00510236,0.00391732 -0.0129134,0.00586614 -0.0234094,0.00586614l-0.0177244 0 0 0.0361732 -0.00762992 0zm0.00762992 -0.0431457l0 0 0.0178386 0c0.00822047,0 0.0141496,-0.00131496 0.0177244,-0.00398031 0.00358661,-0.00266142 0.00537402,-0.00698819 0.00537402,-0.0129449 0,-0.00565354 -0.0016063,-0.00981496 -0.00482283,-0.0124803 -0.00319685,-0.00266142 -0.00819685,-0.00397638 -0.0149843,-0.00397638l-0.0211299 0 0 0.0333819z"/>
   <polygon id="_95579544" class="fil5" points="1.01366,0.547102 0.984791,0.46372 0.992638,0.46372 1.01785,0.537421 1.04301,0.46372 1.05075,0.46372 1.02188,0.547102 "/>
   <polygon id="_95576568" class="fil5" points="1.07752,0.547102 1.07752,0.470575 1.05166,0.470575 1.05166,0.46372 1.11126,0.46372 1.11126,0.470575 1.08538,0.470575 1.08538,0.547102 "/>
   <polygon id="_95545816" class="fil5" points="1.1069,0.536791 1.11454,0.536791 1.11454,0.547102 1.1069,0.547102 "/>
   <polygon id="_95545264" class="fil5" points="1.16628,0.547102 1.16628,0.46372 1.17416,0.46372 1.17416,0.540248 1.21672,0.540248 1.21672,0.547102 "/>
   <polygon id="_95543584" class="fil5" points="1.23472,0.547102 1.23472,0.470575 1.20886,0.470575 1.20886,0.46372 1.26846,0.46372 1.26846,0.470575 1.24259,0.470575 1.24259,0.547102 "/>
   <path id="_95543872" class="fil5" d="M1.29841 0.46372l0.00565748 0c0.00687008,0 0.0120157,0.00034252 0.0154606,0.00105906 0.0034252,0.000744094 0.00638189,0.00188189 0.00888583,0.00347244 0.00513386,0.00325197 0.00905118,0.00802756 0.011748,0.0143583 0.00269291,0.00630709 0.00403937,0.013874 0.00403937,0.0226614 0,0.00945669 -0.00146063,0.0174331 -0.00441732,0.0238819 -0.00293701,0.00644882 -0.00729134,0.0112402 -0.0130551,0.014374 -0.00244094,0.00130315 -0.00539764,0.00219291 -0.00890945,0.00275197 -0.00350787,0.000551181 -0.00887008,0.000822835 -0.0160787,0.000822835l-0.0229213 0 0 -0.0833819 0.0195906 0zm-0.011937 0.0765276l0 0 0.0161102 0c0.0063189,0 0.0109173,-0.000228346 0.0138268,-0.00069685 0.00288976,-0.000488189 0.00531102,-0.00128346 0.00724409,-0.00242126 0.00422441,-0.00253543 0.00737402,-0.00638583 0.00945276,-0.0115669 0.00207874,-0.0051811 0.00312205,-0.011874 0.00312205,-0.0200787 0,-0.00779921 -0.00100787,-0.0142953 -0.00300787,-0.0194764 -0.00199606,-0.00519685 -0.00498425,-0.00909843 -0.00894882,-0.0117126 -0.00202756,-0.00136614 -0.0045315,-0.00230709 -0.00748819,-0.00287402 -0.00297244,-0.000570866 -0.00798031,-0.000846457 -0.0150433,-0.000846457l-0.00180709 0 -0.0134606 0 0 0.0696732z"/>
   <polygon id="_95545144" class="fil5" points="1.35779,0.536791 1.36544,0.536791 1.36544,0.547102 1.35779,0.547102 "/>
   <path id="_95546008" class="fil6" d="M1.4671 0.244512l0.0106575 0c0.00509449,0 0.00857087,-0.000755906 0.0104252,-0.00225591 0.00185433,-0.00151181 0.00277559,-0.00352756 0.00277559,-0.00599606 0,-0.00159843 -0.000437008,-0.00304724 -0.00134252,-0.00429921 -0.00088189,-0.00127165 -0.00211811,-0.0022126 -0.00369291,-0.00283071 -0.0016063,-0.00061811 -0.0045315,-0.000944882 -0.00883465,-0.000944882l-0.00998819 0 0 0.0163268zm-0.00877559 0.0305945l0 0 0 -0.0543268 0.0186969 0c0.00640157,0 0.0110157,0.000503937 0.013874,0.00151181 0.0028937,0.00100394 0.00515354,0.00273622 0.00685433,0.00526378 0.00170866,0.00248425 0.00255118,0.0051378 0.00255118,0.00794882 0,0.00396457 -0.00140945,0.00743307 -0.00427165,0.0103543 -0.00284252,0.00295669 -0.00661024,0.00459843 -0.0113228,0.00496457 0.00192126,0.00080315 0.00347638,0.00176378 0.00461024,0.00288189 0.00219291,0.00212992 0.00487795,0.00572047 0.00805906,0.0107717l0.00662992 0.0106299 -0.0106535 0 -0.00484646 -0.00855118c-0.00379921,-0.00674016 -0.00688583,-0.0109724 -0.00922441,-0.0126693 -0.00159055,-0.00122835 -0.00392913,-0.00184646 -0.00701969,-0.00182677l-0.00516142 0 0 0.0230472 -0.00877559 0zm0.022189 -0.0701024l0 0c-0.00709449,0 -0.0140315,0.00182677 -0.0207559,0.00546063 -0.00672835,0.0036378 -0.0119764,0.00885039 -0.0157756,0.015626 -0.00380315,0.00676772 -0.00570079,0.0137992 -0.00570079,0.0211181 0,0.00729134 0.00187795,0.0142795 0.0056063,0.0209528 0.00373228,0.00667323 0.00894882,0.0118898 0.0156378,0.0156142 0.00669291,0.00372047 0.0136969,0.00559449 0.0209882,0.00559449 0.00728346,0 0.0142638,-0.00187402 0.0209764,-0.00559449 0.00668898,-0.00372441 0.0119055,-0.00894094 0.0156063,-0.0156142 0.00372441,-0.00667323 0.00555906,-0.0136614 0.00555906,-0.0209528 0,-0.0073189 -0.00188583,-0.0143504 -0.00567323,-0.0211181 -0.00376772,-0.00677559 -0.00902756,-0.0119882 -0.0157717,-0.015626 -0.00673622,-0.00363386 -0.0136457,-0.00546063 -0.0206969,-0.00546063zm0 -0.0083622l0 0c0.0085,0 0.0167638,0.00216535 0.0248543,0.00653543 0.0080748,0.00433465 0.0143976,0.0105748 0.0188976,0.0186811 0.00449606,0.00811417 0.00677165,0.0165709 0.00677165,0.0253504 0,0.00871654 -0.00222835,0.0171063 -0.00667323,0.0251417 -0.00443701,0.00803937 -0.0106614,0.0142874 -0.018685,0.0187205 -0.00804331,0.00446063 -0.0164213,0.00667717 -0.0251654,0.00667717 -0.00875591,0 -0.0171378,-0.00221654 -0.0251614,-0.00667717 -0.00802362,-0.00443307 -0.0142795,-0.0106811 -0.0187323,-0.0187205 -0.00446457,-0.00803543 -0.00669291,-0.0164252 -0.00669291,-0.0251417 0,-0.00877953 0.00225984,-0.0172362 0.00679134,-0.0253504 0.00453543,-0.0081063 0.0108504,-0.0143465 0.0189291,-0.0186811 0.00808661,-0.00437008 0.016374,-0.00653543 0.0248661,-0.00653543z"/>
  </g>
 </g>
</svg>
