<?xml version="1.0" encoding="UTF-8"?>
<!DOCTYPE svg PUBLIC "-//W3C//DTD SVG 1.1//EN" "http://www.w3.org/Graphics/SVG/1.1/DTD/svg11.dtd">
<!-- Creator: CorelDRAW -->
<svg xmlns="http://www.w3.org/2000/svg" xml:space="preserve" width="1.83333in" height="0.833331in" style="shape-rendering:geometricPrecision; text-rendering:geometricPrecision; image-rendering:optimizeQuality; fill-rule:evenodd; clip-rule:evenodd"
viewBox="0 0 1.83333 0.833331"
 xmlns:xlink="http://www.w3.org/1999/xlink">
 <defs>
  <style type="text/css">
   <![CDATA[
    .fil3 {fill:black;fill-rule:nonzero}
    .fil4 {fill:#084F77;fill-rule:nonzero}
    .fil0 {fill:url(#id0)}
    .fil2 {fill:url(#id1)}
    .fil1 {fill:url(#id2)}
   ]]>
  </style>
  <linearGradient id="id0" gradientUnits="userSpaceOnUse" x1="0.0429016" y1="0.438083" x2="0.330398" y2="0.438083">
   <stop offset="0" style="stop-color:#6555C3"/>
   <stop offset="1" style="stop-color:#00C8CB"/>
  </linearGradient>
  <linearGradient id="id1" gradientUnits="userSpaceOnUse" xlink:href="#id0" x1="0.240157" y1="0.273504" x2="0.42028" y2="0.273504">
  </linearGradient>
  <linearGradient id="id2" gradientUnits="userSpaceOnUse" xlink:href="#id0" x1="0.448417" y1="0.348831" x2="0.269181" y2="0.528063">
  </linearGradient>
 </defs>
 <g id="Layer_x0020_1">
  <metadata id="CorelCorpID_0Corel-Layer"/>
  <g id="_100452464">
   <path id="_100450664" class="fil0" d="M0.251776 0.64989l0.078622 0 0 -0.136122 0 -0.21474c0,-0.0401811 -0.0325748,-0.0727559 -0.0727559,-0.0727559l0 0 -0.078622 0 0 0.136122 -0.0633622 0c-0.0401811,0 -0.0727559,0.0325709 -0.0727559,0.072752l0 0.078622 0.136118 0 0 0.0633661c0,0.0401811 0.0325748,0.0727559 0.0727559,0.0727559z"/>
   <path id="_100459136" class="fil1" d="M0.392839 0.514819l0.0841732 0c0.000129921,0 0.00023622,-0.000106299 0.00023622,-0.00023622l0 0 0 -0.0787047c0,-0.0407598 -0.0330433,-0.0738031 -0.0738031,-0.0738031l0 0 -0.162858 0c-0.000129921,0 -0.00023622,0.000106299 -0.00023622,0.00023622 0,0.0842205 0.0682677,0.152496 0.152488,0.152508z"/>
   <path id="_100459184" class="fil2" d="M0.330217 0.183441l-0.0900591 0 0 0.180126 0.0900591 0c0.0497441,0 0.090063,-0.0403228 0.090063,-0.090063l0 0c0,-0.0497402 -0.0403189,-0.090063 -0.090063,-0.090063z"/>
   <path id="_100459112" class="fil3" d="M0.688626 0.375339c0,-0.00880315 -0.0028189,-0.0156142 -0.00844882,-0.0204331 -0.0056378,-0.00481102 -0.014189,-0.00722047 -0.0256575,-0.00722047l-0.0387126 0 -0.0129055 0.0731299 0.0387126 0c0.0131102,0 0.0236063,-0.00327559 0.0314961,-0.00983465 0.00788189,-0.00655118 0.012752,-0.0154646 0.0145945,-0.0267323 0.000614173,-0.00307087 0.00092126,-0.00603937 0.00092126,-0.00890945zm0.0196654 -0.0405551c0.011063,0.00962992 0.0165906,0.022122 0.0165906,0.0374843 0,0.00266535 -0.000413386,0.00665748 -0.00122835,0.0119803 -0.00245669,0.0137283 -0.00875591,0.0263268 -0.0188976,0.0377953 -0.0101378,0.0114724 -0.0239173,0.0192559 -0.0413268,0.0233504l0.0371811 0.0884921 -0.0417874 0 -0.0337992 -0.0854173 -0.0270394 0 -0.0150551 0.0854173 -0.0350276 0 0.0377913 -0.213547 0.0737441 0c0.0215079,0 0.0377913,0.0048189 0.0488543,0.0144449z"/>
   <path id="_100458848" class="fil3" d="M0.906776 0.364587l-0.0298031 0.169299 -0.0350276 0 0.00337795 -0.0199724c-0.00675591,0.00696457 -0.0149016,0.0124449 -0.0244252,0.016437 -0.00952756,0.00399606 -0.019311,0.00599213 -0.0293425,0.00599213 -0.0178228,0 -0.032063,-0.00481102 -0.0427087,-0.0144409 -0.0106535,-0.00962598 -0.0159803,-0.0232441 -0.0159803,-0.0408661 0,-0.00470866 0.000511811,-0.0103386 0.00153937,-0.0168976l0.0175118 -0.0995512 0.0347205 0 -0.0165906 0.0943268c-0.000822835,0.00573622 -0.00122835,0.00983465 -0.00122835,0.0122913 0,0.0112677 0.00311811,0.0198701 0.00937008,0.0258071 0.00624409,0.00594488 0.0149016,0.00891339 0.0259646,0.00891339 0.0129016,0 0.0238583,-0.00384252 0.032874,-0.0115236 0.00901181,-0.0076811 0.0149528,-0.0187913 0.0178228,-0.0333346l0.0168976 -0.0964803 0.0350276 0z"/>
   <path id="_333778408" class="fil3" d="M1.06301 0.376106c0.0105472,0.00952362 0.0158268,0.0232008 0.0158268,0.0410197 0,0.00450787 -0.000515748,0.0101417 -0.00153937,0.0169016l-0.0178189 0.0998583 -0.0347205 0 0.0168976 -0.0946378c0.000818898,-0.00573228 0.00122835,-0.00983071 0.00122835,-0.0122913 0,-0.0112598 -0.00312205,-0.0198661 -0.00937008,-0.0258071 -0.00624803,-0.00594094 -0.0149016,-0.00891339 -0.0259646,-0.00891339 -0.013315,0 -0.0245315,0.00405118 -0.0336417,0.0121378 -0.00911811,0.00809449 -0.0149055,0.0197205 -0.0173622,0.034874l0 -0.00092126 -0.0168976 0.0955591 -0.0350276 0 0.0298031 -0.169299 0.0350276 0 -0.00337795 0.0196654c0.00696063,-0.00696457 0.0152087,-0.0124449 0.0247323,-0.0164409 0.00952362,-0.00399606 0.0194055,-0.00599213 0.0296496,-0.00599213 0.0178228,0 0.0320039,0.00476378 0.0425551,0.0142874z"/>
   <path id="_333779704" class="fil3" d="M1.11601 0.530657c-0.00962992,-0.00399213 -0.0172087,-0.00962598 -0.0227402,-0.0168976 -0.00552756,-0.00726772 -0.00829134,-0.0156181 -0.00829134,-0.0250433 0,-0.0016378 0.00019685,-0.00388583 0.000614173,-0.00675984l0.0341024 0c-0.000818898,0.0077874 0.00153937,0.0142402 0.00706693,0.0193583 0.0055315,0.00512205 0.013315,0.0076811 0.0233543,0.0076811 0.00983071,0 0.0179213,-0.00173622 0.0242717,-0.00522441 0.00634646,-0.00348031 0.00952362,-0.00860236 0.00952362,-0.0153622 0,-0.00573228 -0.00261024,-0.0103386 -0.00783465,-0.0138268 -0.00522047,-0.00348031 -0.0135709,-0.00737402 -0.0250394,-0.0116732 -0.0108583,-0.00430315 -0.0196654,-0.00829528 -0.0264252,-0.0119843 -0.00675984,-0.00368898 -0.0125984,-0.00875591 -0.0175118,-0.0152087 -0.00491732,-0.00645276 -0.00737795,-0.0144921 -0.00737795,-0.024122 0,-0.00983071 0.00281496,-0.0184843 0.00845276,-0.0259606 0.00562992,-0.00747638 0.0135197,-0.013315 0.0236575,-0.0175157 0.0101378,-0.00419685 0.0217638,-0.00629921 0.034874,-0.00629921 0.011878,0 0.0224764,0.002 0.0317992,0.00599213 0.00932283,0.00399606 0.0165945,0.00962992 0.0218189,0.0169016 0.00522441,0.00727165 0.00783465,0.015622 0.00783465,0.0250394 0,0.00287008 -0.000106299,0.00502362 -0.000307087,0.00645276l-0.033185 0c0.000814961,-0.00798819 -0.00148819,-0.0144409 -0.00691339,-0.0193583 -0.00542913,-0.00491732 -0.0131654,-0.00737402 -0.0231969,-0.00737402 -0.00881102,0 -0.0159291,0.00184646 -0.0213543,0.0055315 -0.00542913,0.00368504 -0.00814173,0.00870866 -0.00814173,0.0150551 0,0.00635039 0.00276378,0.0114213 0.00829528,0.0152087 0.00552756,0.00379528 0.0140276,0.00794094 0.0255,0.0124449 0.0104488,0.00409843 0.0189449,0.00798819 0.0255039,0.0116772 0.00655118,0.00368504 0.012185,0.00860236 0.0168976,0.014748 0.0047126,0.00614567 0.00706693,0.0138268 0.00706693,0.0230433 0,0.0100394 -0.00302362,0.0187953 -0.00906299,0.0262717 -0.00604331,0.00748031 -0.0143937,0.0132126 -0.0250433,0.0172047 -0.0106496,0.00399606 -0.0227362,0.00599213 -0.0362559,0.00599213 -0.0116732,0 -0.0223268,-0.00199606 -0.0319528,-0.00599213z"/>
   <path id="_333778792" class="fil3" d="M1.34169 0.497165c0.00972441,-0.00665354 0.0173583,-0.0154606 0.0228898,-0.0264213 0.0055315,-0.0109567 0.00829528,-0.022685 0.00829528,-0.0351811 0,-0.0141339 -0.00399213,-0.0250433 -0.0119843,-0.0327244 -0.00798819,-0.0076811 -0.0180276,-0.0115236 -0.0301102,-0.0115236 -0.0118819,0 -0.0224803,0.00333465 -0.0317992,0.00998819 -0.00932677,0.00665748 -0.0165945,0.0155709 -0.021815,0.0267323 -0.00522441,0.0111654 -0.00783858,0.0230945 -0.00783858,0.0357953 0,0.0137244 0.00373622,0.024378 0.0112165,0.0319528 0.00747638,0.00758268 0.0171535,0.0113701 0.0290354,0.0113701 0.0116772,0 0.022378,-0.00332677 0.0321102,-0.00998819zm-0.0742047 0.0305748c-0.0108583,-0.00594094 -0.0193071,-0.0143386 -0.0253465,-0.0251969 -0.00604724,-0.0108543 -0.00906693,-0.0232441 -0.00906693,-0.0371772 0,-0.0190512 0.00445669,-0.0364567 0.0133661,-0.0522323 0.00890945,-0.0157717 0.0212008,-0.0282677 0.0368701,-0.0374882 0.0156732,-0.00921654 0.0331339,-0.0138268 0.0523898,-0.0138268 0.0143346,0 0.0270394,0.00302756 0.0380984,0.00906693 0.011063,0.00604331 0.0197126,0.0144409 0.0259646,0.0251929 0.00624409,0.010752 0.00937008,0.0231969 0.00937008,0.0373346 0,0.0190472 -0.0046063,0.0364606 -0.0138268,0.0522323 -0.00921654,0.0157756 -0.0217126,0.0282205 -0.0374843,0.0373307 -0.0157756,0.00911811 -0.0332874,0.0136732 -0.0525433,0.0136732 -0.0143386,0 -0.026937,-0.0029685 -0.0377913,-0.00890945z"/>
   <polygon id="_333777688" class="fil3" points="1.4841,0.306516 1.44385,0.533886 1.40882,0.533886 1.44907,0.306516 "/>
   <path id="_333778624" class="fil3" d="M1.5096 0.336933c-0.00348819,-0.00348031 -0.00522441,-0.00788583 -0.00522441,-0.0132126 0,-0.00716929 0.0027126,-0.0133661 0.00814173,-0.0185906 0.0054252,-0.00522441 0.011622,-0.00783465 0.0185906,-0.00783465 0.00552756,0 0.00998425,0.00174409 0.0133661,0.00522441 0.00337795,0.00348425 0.00506693,0.00788583 0.00506693,0.0132126 0,0.00717323 -0.00266142,0.0133661 -0.00798819,0.0185866 -0.00532677,0.00522441 -0.0114724,0.00783465 -0.0184331,0.00783465 -0.0055315,0 -0.0100394,-0.00173622 -0.0135197,-0.00522047zm0.0267283 0.0276535l-0.0298031 0.169299 -0.0350276 0 0.0298071 -0.169299 0.0350236 0z"/>
   <path id="_333778312" class="fil3" d="M1.61591 0.332016c-0.00512205,0.00409843 -0.0085,0.0109606 -0.0101378,0.0205866l-0.00215354 0.0119843 0.0313425 0 -0.00491732 0.0285748 -0.0313386 0 -0.0248898 0.140724 -0.0353346 0 0.0248898 -0.140724 -0.0199724 0 0.00491732 -0.0285748 0.0199685 0 0.00215354 -0.0119843c0.00348031,-0.0194567 0.0111614,-0.0336457 0.0230433,-0.0425551 0.011878,-0.00890945 0.0288819,-0.0133661 0.0510039,-0.0133661l-0.00491339 0.029189c-0.0106535,0 -0.0185433,0.00205118 -0.0236614,0.00614567z"/>
   <path id="_333778648" class="fil3" d="M1.75448 0.427882c0,-0.0112638 -0.00374016,-0.0201732 -0.0112165,-0.0267323 -0.00748031,-0.00655512 -0.0171575,-0.00983071 -0.0290354,-0.00983071 -0.0124961,0 -0.0237638,0.00399213 -0.0337992,0.0119803 -0.0100394,0.00798819 -0.0168976,0.0188504 -0.0205866,0.0325709l0.0940236 0c0.000405512,-0.00368898 0.000614173,-0.00634646 0.000614173,-0.00798819zm0.0170512 -0.0482402c0.0125984,0.0118819 0.0188976,0.0278583 0.0188976,0.0479331 0,0.0047126 -0.000511811,0.0103465 -0.00153543,0.0168976 -0.000822835,0.00450787 -0.00225591,0.0100394 -0.00430315,0.0165906l-0.129354 0c-0.000208661,0.00143701 -0.000307087,0.00358661 -0.000307087,0.00645276 0,0.0120906 0.00373228,0.0217165 0.0112126,0.0288819 0.00747638,0.00717323 0.0172559,0.0107559 0.0293425,0.0107559 0.0190512,0 0.0336929,-0.00788189 0.0439409,-0.0236575l0.0377913 0c-0.0077874,0.0155669 -0.0192559,0.0283189 -0.0344134,0.038252 -0.0151614,0.00993701 -0.0326732,0.0149016 -0.0525394,0.0149016 -0.0141339,0 -0.0265315,-0.00276378 -0.0371811,-0.00829528 -0.0106496,-0.0055315 -0.0189488,-0.0134685 -0.0248858,-0.023811 -0.00594488,-0.0103425 -0.00890945,-0.0224803 -0.00890945,-0.0364094 0,-0.00594094 0.000614173,-0.0122913 0.00184252,-0.0190512 0.00307087,-0.0174094 0.0093189,-0.0327244 0.0187402,-0.045937 0.00942126,-0.0132126 0.0211496,-0.0233976 0.035185,-0.0305709 0.0140276,-0.00716929 0.0293425,-0.0107559 0.0459331,-0.0107559 0.0210945,0 0.0379488,0.00594488 0.0505433,0.0178228z"/>
   <path id="_333777304" class="fil4" d="M0.688626 0.375339c0,-0.00880315 -0.0028189,-0.0156142 -0.00844882,-0.0204331 -0.0056378,-0.00481102 -0.014189,-0.00722047 -0.0256575,-0.00722047l-0.0387126 0 -0.0129055 0.0731299 0.0387126 0c0.0131102,0 0.0236063,-0.00327559 0.0314961,-0.00983465 0.00788189,-0.00655118 0.012752,-0.0154646 0.0145945,-0.0267323 0.000614173,-0.00307087 0.00092126,-0.00603937 0.00092126,-0.00890945zm0.0196654 -0.0405551c0.011063,0.00962992 0.0165906,0.022122 0.0165906,0.0374843 0,0.00266535 -0.000413386,0.00665748 -0.00122835,0.0119803 -0.00245669,0.0137283 -0.00875591,0.0263268 -0.0188976,0.0377953 -0.0101378,0.0114724 -0.0239173,0.0192559 -0.0413268,0.0233504l0.0371811 0.0884921 -0.0417874 0 -0.0337992 -0.0854173 -0.0270394 0 -0.0150551 0.0854173 -0.0350276 0 0.0377913 -0.213547 0.0737441 0c0.0215079,0 0.0377913,0.0048189 0.0488543,0.0144449z"/>
   <path id="_333780160" class="fil4" d="M0.906776 0.364587l-0.0298031 0.169299 -0.0350276 0 0.00337795 -0.0199724c-0.00675591,0.00696457 -0.0149016,0.0124449 -0.0244252,0.016437 -0.00952756,0.00399606 -0.019311,0.00599213 -0.0293425,0.00599213 -0.0178228,0 -0.032063,-0.00481102 -0.0427087,-0.0144409 -0.0106535,-0.00962598 -0.0159803,-0.0232441 -0.0159803,-0.0408661 0,-0.00470866 0.000511811,-0.0103386 0.00153937,-0.0168976l0.0175118 -0.0995512 0.0347205 0 -0.0165906 0.0943268c-0.000822835,0.00573622 -0.00122835,0.00983465 -0.00122835,0.0122913 0,0.0112677 0.00311811,0.0198701 0.00937008,0.0258071 0.00624409,0.00594488 0.0149016,0.00891339 0.0259646,0.00891339 0.0129016,0 0.0238583,-0.00384252 0.032874,-0.0115236 0.00901181,-0.0076811 0.0149528,-0.0187913 0.0178228,-0.0333346l0.0168976 -0.0964803 0.0350276 0z"/>
   <path id="_333780232" class="fil4" d="M1.06301 0.376106c0.0105472,0.00952362 0.0158268,0.0232008 0.0158268,0.0410197 0,0.00450787 -0.000515748,0.0101417 -0.00153937,0.0169016l-0.0178189 0.0998583 -0.0347205 0 0.0168976 -0.0946378c0.000818898,-0.00573228 0.00122835,-0.00983071 0.00122835,-0.0122913 0,-0.0112598 -0.00312205,-0.0198661 -0.00937008,-0.0258071 -0.00624803,-0.00594094 -0.0149016,-0.00891339 -0.0259646,-0.00891339 -0.013315,0 -0.0245315,0.00405118 -0.0336417,0.0121378 -0.00911811,0.00809449 -0.0149055,0.0197205 -0.0173622,0.034874l0 -0.00092126 -0.0168976 0.0955591 -0.0350276 0 0.0298031 -0.169299 0.0350276 0 -0.00337795 0.0196654c0.00696063,-0.00696457 0.0152087,-0.0124449 0.0247323,-0.0164409 0.00952362,-0.00399606 0.0194055,-0.00599213 0.0296496,-0.00599213 0.0178228,0 0.0320039,0.00476378 0.0425551,0.0142874z"/>
   <path id="_333780304" class="fil4" d="M1.11601 0.530657c-0.00962992,-0.00399213 -0.0172087,-0.00962598 -0.0227402,-0.0168976 -0.00552756,-0.00726772 -0.00829134,-0.0156181 -0.00829134,-0.0250433 0,-0.0016378 0.00019685,-0.00388583 0.000614173,-0.00675984l0.0341024 0c-0.000818898,0.0077874 0.00153937,0.0142402 0.00706693,0.0193583 0.0055315,0.00512205 0.013315,0.0076811 0.0233543,0.0076811 0.00983071,0 0.0179213,-0.00173622 0.0242717,-0.00522441 0.00634646,-0.00348031 0.00952362,-0.00860236 0.00952362,-0.0153622 0,-0.00573228 -0.00261024,-0.0103386 -0.00783465,-0.0138268 -0.00522047,-0.00348031 -0.0135709,-0.00737402 -0.0250394,-0.0116732 -0.0108583,-0.00430315 -0.0196654,-0.00829528 -0.0264252,-0.0119843 -0.00675984,-0.00368898 -0.0125984,-0.00875591 -0.0175118,-0.0152087 -0.00491732,-0.00645276 -0.00737795,-0.0144921 -0.00737795,-0.024122 0,-0.00983071 0.00281496,-0.0184843 0.00845276,-0.0259606 0.00562992,-0.00747638 0.0135197,-0.013315 0.0236575,-0.0175157 0.0101378,-0.00419685 0.0217638,-0.00629921 0.034874,-0.00629921 0.011878,0 0.0224764,0.002 0.0317992,0.00599213 0.00932283,0.00399606 0.0165945,0.00962992 0.0218189,0.0169016 0.00522441,0.00727165 0.00783465,0.015622 0.00783465,0.0250394 0,0.00287008 -0.000106299,0.00502362 -0.000307087,0.00645276l-0.033185 0c0.000814961,-0.00798819 -0.00148819,-0.0144409 -0.00691339,-0.0193583 -0.00542913,-0.00491732 -0.0131654,-0.00737402 -0.0231969,-0.00737402 -0.00881102,0 -0.0159291,0.00184646 -0.0213543,0.0055315 -0.00542913,0.00368504 -0.00814173,0.00870866 -0.00814173,0.0150551 0,0.00635039 0.00276378,0.0114213 0.00829528,0.0152087 0.00552756,0.00379528 0.0140276,0.00794094 0.0255,0.0124449 0.0104488,0.00409843 0.0189449,0.00798819 0.0255039,0.0116772 0.00655118,0.00368504 0.012185,0.00860236 0.0168976,0.014748 0.0047126,0.00614567 0.00706693,0.0138268 0.00706693,0.0230433 0,0.0100394 -0.00302362,0.0187953 -0.00906299,0.0262717 -0.00604331,0.00748031 -0.0143937,0.0132126 -0.0250433,0.0172047 -0.0106496,0.00399606 -0.0227362,0.00599213 -0.0362559,0.00599213 -0.0116732,0 -0.0223268,-0.00199606 -0.0319528,-0.00599213z"/>
   <path id="_333780376" class="fil4" d="M1.34169 0.497165c0.00972441,-0.00665354 0.0173583,-0.0154606 0.0228898,-0.0264213 0.0055315,-0.0109567 0.00829528,-0.022685 0.00829528,-0.0351811 0,-0.0141339 -0.00399213,-0.0250433 -0.0119843,-0.0327244 -0.00798819,-0.0076811 -0.0180276,-0.0115236 -0.0301102,-0.0115236 -0.0118819,0 -0.0224803,0.00333465 -0.0317992,0.00998819 -0.00932677,0.00665748 -0.0165945,0.0155709 -0.021815,0.0267323 -0.00522441,0.0111654 -0.00783858,0.0230945 -0.00783858,0.0357953 0,0.0137244 0.00373622,0.024378 0.0112165,0.0319528 0.00747638,0.00758268 0.0171535,0.0113701 0.0290354,0.0113701 0.0116772,0 0.022378,-0.00332677 0.0321102,-0.00998819zm-0.0742047 0.0305748c-0.0108583,-0.00594094 -0.0193071,-0.0143386 -0.0253465,-0.0251969 -0.00604724,-0.0108543 -0.00906693,-0.0232441 -0.00906693,-0.0371772 0,-0.0190512 0.00445669,-0.0364567 0.0133661,-0.0522323 0.00890945,-0.0157717 0.0212008,-0.0282677 0.0368701,-0.0374882 0.0156732,-0.00921654 0.0331339,-0.0138268 0.0523898,-0.0138268 0.0143346,0 0.0270394,0.00302756 0.0380984,0.00906693 0.011063,0.00604331 0.0197126,0.0144409 0.0259646,0.0251929 0.00624409,0.010752 0.00937008,0.0231969 0.00937008,0.0373346 0,0.0190472 -0.0046063,0.0364606 -0.0138268,0.0522323 -0.00921654,0.0157756 -0.0217126,0.0282205 -0.0374843,0.0373307 -0.0157756,0.00911811 -0.0332874,0.0136732 -0.0525433,0.0136732 -0.0143386,0 -0.026937,-0.0029685 -0.0377913,-0.00890945z"/>
   <polygon id="_333780448" class="fil4" points="1.4841,0.306516 1.44385,0.533886 1.40882,0.533886 1.44907,0.306516 "/>
   <path id="_333780520" class="fil4" d="M1.5096 0.336933c-0.00348819,-0.00348031 -0.00522441,-0.00788583 -0.00522441,-0.0132126 0,-0.00716929 0.0027126,-0.0133661 0.00814173,-0.0185906 0.0054252,-0.00522441 0.011622,-0.00783465 0.0185906,-0.00783465 0.00552756,0 0.00998425,0.00174409 0.0133661,0.00522441 0.00337795,0.00348425 0.00506693,0.00788583 0.00506693,0.0132126 0,0.00717323 -0.00266142,0.0133661 -0.00798819,0.0185866 -0.00532677,0.00522441 -0.0114724,0.00783465 -0.0184331,0.00783465 -0.0055315,0 -0.0100394,-0.00173622 -0.0135197,-0.00522047zm0.0267283 0.0276535l-0.0298031 0.169299 -0.0350276 0 0.0298071 -0.169299 0.0350236 0z"/>
   <path id="_333780592" class="fil4" d="M1.61591 0.332016c-0.00512205,0.00409843 -0.0085,0.0109606 -0.0101378,0.0205866l-0.00215354 0.0119843 0.0313425 0 -0.00491732 0.0285748 -0.0313386 0 -0.0248898 0.140724 -0.0353346 0 0.0248898 -0.140724 -0.0199724 0 0.00491732 -0.0285748 0.0199685 0 0.00215354 -0.0119843c0.00348031,-0.0194567 0.0111614,-0.0336457 0.0230433,-0.0425551 0.011878,-0.00890945 0.0288819,-0.0133661 0.0510039,-0.0133661l-0.00491339 0.029189c-0.0106535,0 -0.0185433,0.00205118 -0.0236614,0.00614567z"/>
   <path id="_100458656" class="fil4" d="M1.75448 0.427882c0,-0.0112638 -0.00374016,-0.0201732 -0.0112165,-0.0267323 -0.00748031,-0.00655512 -0.0171575,-0.00983071 -0.0290354,-0.00983071 -0.0124961,0 -0.0237638,0.00399213 -0.0337992,0.0119803 -0.0100394,0.00798819 -0.0168976,0.0188504 -0.0205866,0.0325709l0.0940236 0c0.000405512,-0.00368898 0.000614173,-0.00634646 0.000614173,-0.00798819zm0.0170512 -0.0482402c0.0125984,0.0118819 0.0188976,0.0278583 0.0188976,0.0479331 0,0.0047126 -0.000511811,0.0103465 -0.00153543,0.0168976 -0.000822835,0.00450787 -0.00225591,0.0100394 -0.00430315,0.0165906l-0.129354 0c-0.000208661,0.00143701 -0.000307087,0.00358661 -0.000307087,0.00645276 0,0.0120906 0.00373228,0.0217165 0.0112126,0.0288819 0.00747638,0.00717323 0.0172559,0.0107559 0.0293425,0.0107559 0.0190512,0 0.0336929,-0.00788189 0.0439409,-0.0236575l0.0377913 0c-0.0077874,0.0155669 -0.0192559,0.0283189 -0.0344134,0.038252 -0.0151614,0.00993701 -0.0326732,0.0149016 -0.0525394,0.0149016 -0.0141339,0 -0.0265315,-0.00276378 -0.0371811,-0.00829528 -0.0106496,-0.0055315 -0.0189488,-0.0134685 -0.0248858,-0.023811 -0.00594488,-0.0103425 -0.00890945,-0.0224803 -0.00890945,-0.0364094 0,-0.00594094 0.000614173,-0.0122913 0.00184252,-0.0190512 0.00307087,-0.0174094 0.0093189,-0.0327244 0.0187402,-0.045937 0.00942126,-0.0132126 0.0211496,-0.0233976 0.035185,-0.0305709 0.0140276,-0.00716929 0.0293425,-0.0107559 0.0459331,-0.0107559 0.0210945,0 0.0379488,0.00594488 0.0505433,0.0178228z"/>
  </g>
 </g>
</svg>
