<?xml version="1.0" encoding="UTF-8"?>
<!DOCTYPE svg PUBLIC "-//W3C//DTD SVG 1.1//EN" "http://www.w3.org/Graphics/SVG/1.1/DTD/svg11.dtd">
<!-- Creator: CorelDRAW -->
<svg xmlns="http://www.w3.org/2000/svg" xml:space="preserve" width="1.66666in" height="0.666661in" style="shape-rendering:geometricPrecision; text-rendering:geometricPrecision; image-rendering:optimizeQuality; fill-rule:evenodd; clip-rule:evenodd"
viewBox="0 0 1.66666 0.666661"
 xmlns:xlink="http://www.w3.org/1999/xlink">
 <defs>
  <style type="text/css">
   <![CDATA[
    .fil0 {fill:#02913F}
    .fil1 {fill:#1B85BB}
   ]]>
  </style>
 </defs>
 <g id="Layer_x0020_1">
  <metadata id="CorelCorpID_0Corel-Layer"/>
  <g id="_96358296">
   <path id="_243892464" class="fil0" d="M0.741535 0.099189l-0.00224803 -0.00118898c-0.00394094,-0.00744488 -0.0232165,-0.0152677 -0.0243031,-0.0179685 -0.00653937,-0.0036378 -0.0247205,-0.00896457 -0.0321693,-0.0119882 -0.00673228,-0.00141339 -0.0133228,-0.00134646 -0.0231654,-0.00134646l-0.00714173 0.000393701c-0.00820472,0 -0.0109016,0.00323622 -0.0169449,0.00323622l-0.00475591 0.00144488 -0.00108661 0.00111811c-0.00317323,0 -0.00247638,0.000732283 -0.00551969,0.00134252 -0.0066063,0.00139764 -0.0155787,0.0082126 -0.0180197,0.00916142 -0.000866142,0.000334646 -0.0133819,0.00948425 -0.0145433,0.0105906 -0.00273622,0.00260236 -0.0188071,0.0184173 -0.0190394,0.0184961l-0.00530709 0.0065315 -0.00112992 0.00297244 -0.00254331 0.00298819 -0.000917323 0.00292913 -0.00401181 0.00813386 -0.00299606 0.00982677c-0.0025,0.00819291 -0.00422441,0.0222874 -0.00422441,0.0261142l-0.00084252 0.0705118 -0.000102362 0.0668661 0 0.138362c0,0.011315 -8.66142e-005,0.0273622 -0.000137795,0.0372598 -4.72441e-005,0.0094252 -0.00241732,0.030563 0.00476772,0.0314291l0.00770472 -0.00023622 0.0458425 -0.000807087 0.00425591 -0.00322047 0.000354331 -0.0175 -0.000728346 -0.0219921 0.000244094 -0.265539 0.000385827 -0.0138071 -0.000314961 -0.0142165c0.00174016,-0.0138661 0.00550394,-0.0205945 0.0070315,-0.0232717 0.00277953,-0.00466535 0.0145118,-0.0167126 0.0224961,-0.0197953l0.00690551 -0.00205512 0.0133976 -0.00187402 0.00504724 0.000448819 0.0165512 0.00311417 0.0156417 0.0141654 0.00637402 0.0110591 0.00387008 0.0132362 0.000488189 0.0268976 0.000629921 0.216047c0,0.0252126 -0.00240157,0.0794173 0.00199213,0.0982835 0.0115748,0 0.025685,0.00038189 0.0378307,0.000322835 0.00969685,-4.33071e-005 0.0211142,0.00220079 0.0211142,-0.00965748l-0.000220472 -0.117276 0.000220472 -0.0064685 -0.000220472 -0.0396339 0.000220472 -0.0064685 -0.000220472 -0.0703661 0.000220472 -0.0064685 0.00323622 -0.0938189c0.00398819,-0.0171339 0.0195669,-0.036437 0.0410276,-0.036437l0.0115433 0.00165748c0.00298819,0 0.00714173,0.00416142 0.0126024,0.00416142 0.00984252,0.00659055 0.0129173,0.00494488 0.0211614,0.0146496 0.00383071,0.00450787 0.00833071,0.0223661 0.00833071,0.0304882l0.00157874 0.0566535c0,0.00223622 -0.000622047,0.00194488 -0.0024252,0.0024252l-0.0501457 0.000811024 0 0.0647008 0.0501457 0 0 0.212713 0.0638937 0c0.0018622,0 0.0024252,-0.000562992 0.0024252,-0.00242913l0 -0.210283 0.117276 0c0.0018622,0 0.0024252,0.000562992 0.0024252,0.0024252l0 0.205433 0.0630866 0 0 -0.438362 -0.0614685 0 -0.00157874 0.000929134 -3.93701e-005 0.161638c0,0.0018622 -0.000562992,0.0024252 -0.0024252,0.0024252l-0.117276 0 0 -0.0525709c0,-0.0217598 -0.00420472,-0.0416063 -0.0115945,-0.0563425 -0.00395276,-0.00788189 -0.00783465,-0.014374 -0.0132795,-0.020689 -0.0155118,-0.0179843 -0.0372598,-0.0339961 -0.0605276,-0.0397638 -0.0140551,-0.00348425 -0.0264449,-0.0037126 -0.0407677,-0.0037126 -0.0118307,0 -0.0311339,0.00770472 -0.0388465,0.0121063 -0.00546063,0.00311811 -0.010437,0.00585433 -0.0151457,0.00992913 -0.00277165,0.0023937 -0.0113504,0.0104331 -0.0139449,0.011126z"/>
   <path id="_243903144" class="fil0" d="M0.549043 0.517331l0.0655118 0 0 -0.329984c0,-0.0287795 0.0169606,-0.0533819 0.0444843,-0.0533819l0.00727559 0c0.0215,0 0.0428661,0.0227205 0.0428661,0.0444843l0 0.338882 0.0663228 0 0 -0.337264c0,-0.023252 0.0203346,-0.0461024 0.0428661,-0.0461024l0.00727559 0c0.0202756,0 0.0369409,0.016622 0.0415827,0.0328307 0.0044252,0.0154567 0.00209449,0.0524488 0.00209449,0.072311 0.00594488,-0.00158661 0.0105827,-0.00272441 0.0185276,-0.00301969l-1.1811e-005 -0.0516457c0,-0.00811811 -0.0131811,-0.0338622 -0.0170118,-0.038374 -0.00824016,-0.00970079 -0.011,-0.0170472 -0.0208425,-0.0236378 -0.00546063,0 -0.0196339,0.000314961 -0.022622,0.000314961l-0.00980709 -0.000314961c-0.0214567,0 -0.0418504,0.0218425 -0.0458425,0.0389764l-0.00745669 0.0542756 -0.0106142 0.111642 9.44882e-005 0.015626 0.00922441 0.0389961 0.00120079 0.00741732 0.00542126 0.117594c0,0.0118583 -0.0144173,0.00566142 -0.0241181,0.00570472 -0.0121417,5.90551e-005 -0.0198583,0.000622047 -0.0314291,0.000622047 -0.0043937,-0.0188622 -0.000811024,-0.0766929 -0.000811024,-0.101906l0 -0.21352 -0.000956693 -0.0226378 -0.0044252 -0.0144213 -0.00597638 -0.0109803 -0.0165906 -0.0153543 -0.0181339 -0.0030315 -0.00567717 0.000106299 -0.0121181 0.000944882 -1.5748e-005 0.00148031 -0.00485039 0c-0.00546063,0 -0.0219291,0.0159213 -0.0247087,0.0205866 -0.00656693,0.0110236 -0.00845276,0.0195 -0.00845276,0.0368386l0 0.000807087 0.000248031 0.0161772 -0.000248031 0.27337 0.000807087 0.0145551 3.93701e-006 0.0153701 -0.00433465 0.00290157 -0.0522835 0.000330709 0.00193307 -0.00213386c-0.00718504,-0.000862205 -0.0052126,-0.0183661 -0.00516535,-0.0277913 5.11811e-005,-0.00989764 -0.000811024,-0.0218425 -0.000811024,-0.0331575l0 -0.140728 0.00026378 -0.0501457 -0.00026378 -0.0889685c0,-0.00382677 0.0023937,-0.0216535 0.00485433,-0.0226457l0.0018937 -0.0104567 0.00559055 -0.0108937 0.000602362 -0.00372047 0.00357087 -0.00227559 0.000570866 0.000625984 -0.00100394 -0.00317323c0.000228346,-7.87402e-005 0.0219882,-0.0221417 0.0247205,-0.0247402 0.00116142,-0.0011063 0.0132047,-0.0098622 0.0140709,-0.0101969 0.00244488,-0.000944882 0.0148031,-0.00705118 0.0154961,-0.00876772l0.0064685 0 0 -0.00161811c0.00604331,0 0.00384646,-0.00140945 0.0129409,-0.00161811l0 -0.000807087 -0.00485433 -0.000811024c0.00604331,0 0.00878346,-0.00323228 0.0169882,-0.00323228l0.00808661 0c0.00984252,0 0.0206142,0.000787402 0.0278268,0.00371654 0.00266929,0.00108661 0.0214685,0.00922441 0.0223189,0.00922441l0.0024252 0c0.00109055,0.00270079 0.0187047,0.0111535 0.0226457,0.0186024l0.00485433 0c-0.0091811,-0.0137126 -0.0465394,-0.0331614 -0.0703661,-0.0331614l-0.0145591 0c-0.0368819,0 -0.0738228,0.0286496 -0.0888071,0.0511102 -0.0232126,0.0347756 -0.0187598,0.0657874 -0.0187598,0.121161 0,0.0930079 0,0.18602 0,0.279031z"/>
   <path id="_243893832" class="fil1" d="M0.869323 0.569902l-0.000811024 -0.000811024 -0.0088937 0 0 -0.0129409 0.00970472 0 0 -0.00808661 -0.0186024 0c-0.00186614,0 -0.00242913,0.000562992 -0.00242913,0.0024252l0 0.0469094c0,0.00186614 0.000562992,0.00242913 0.00242913,0.00242913l0.0177913 0c0.00186614,0 0.00242913,-0.000562992 0.00242913,-0.00242913l0 -0.00323228c0,-0.00186614 -0.000562992,-0.00242913 -0.00242913,-0.00242913l-0.0088937 0 0 -0.0113228c0,-0.00845669 0.00970472,0.00466142 0.00970472,-0.0105118z"/>
   <path id="_243891384" class="fil1" d="M0.709181 0.550488l0 0.0493386 0.00809055 0c0.0018622,0 0.0024252,-0.000562992 0.0024252,-0.00242913l0 -0.0210276 0.00485039 0c0.00186614,0 0.00242913,0.000562992 0.00242913,0.0024252l0 0.0210315 0.0105118 0 0 -0.0517638 -0.0105118 0 0 0.0210276 -0.00485433 0c-0.00662598,0 0.00177165,-0.0210276 -0.00485039,-0.0210276l-0.00566142 0c-0.00186614,0 -0.00242913,0.000562992 -0.00242913,0.0024252z"/>
   <path id="_243884232" class="fil1" d="M1.10689 0.590098c-0.000488189,0.00281102 0.00102362,0.00173228 0.00102362,0.00325591 0,0.00186614 -0.000562992,0.00242913 -0.0024252,0.00242913l-0.000811024 0c-0.00248425,0 -0.00485039,-0.000751969 -0.00485039,-0.00323622l0.000169291 -0.0384606 0.0037126 -0.0018189 0.0017874 0.00145669 0.0013937 0.036374zm-0.00949213 -0.0420354l0 0.0517638 0.0177953 0c0.00218504,0 0.00222835,-0.000385827 0.00404331,-0.000811024l0 -0.00485039c0,-0.00186614 -0.000562992,-0.00242913 -0.0024252,-0.00242913l-0.00889764 0 0 -0.0145551 0.0064685 0c0.0018937,0 0.00323622,-0.00134252 0.00323622,-0.00323622l0 -0.00485433 -0.00970472 0 0 -0.0129409 0.0105157 0 0 -0.00566142c0,-0.00423622 -0.0164646,-0.0024252 -0.0210315,-0.0024252z"/>
   <path id="_243897000" class="fil1" d="M0.911378 0.552917l0.00647244 0.000807087 0 0.0331614c0,0.00377559 0.00624409,0.00970472 0.000807087,0.00970472l-0.00485433 0c-0.00479921,0 -0.0024252,-0.0356181 -0.0024252,-0.0436732zm-0.00161811 -0.00242913l0 0.0493386 0.0226457 0 0 -0.00809055 -0.0121299 0 0 -0.0428661c-0.00181496,-0.00042126 -0.00185827,-0.000807087 -0.00404331,-0.000807087l-0.00404331 0c-0.00186614,0 -0.00242913,0.000562992 -0.00242913,0.0024252z"/>
   <path id="_243888168" class="fil1" d="M0.676831 0.559386l0 0.00485433c0,0.0127953 0.0153661,0.0126063 0.0153661,0.0218346l0 0.00242913c0,0.0021811 -0.000385827,0.00222835 -0.000807087,0.00404331l-0.0024252 0c-0.0030748,0 -0.00323622,-0.00574409 -0.00323622,-0.00889764l-0.00809055 0c-0.00132283,0 -0.0024252,0.000484252 -0.0024252,0.00161811 0,0.00925984 0.00314961,0.0153661 0.0121339,0.0153661 0.00849213,0 0.0153661,-0.00323622 0.0153661,-0.0113228l0 -0.00485433c0,-0.0137323 -0.0161772,-0.0116969 -0.0161772,-0.0242638l0 -0.00161417c0,-0.00288189 0.00191732,-0.00316929 0.00485433,-0.00323622 0.00042126,0.00181496 0.000807087,0.00185827 0.000807087,0.00404331l0 0.00404331 0.00970472 0 0 -0.0064685c0,-0.00423228 -0.00361024,-0.00889764 -0.00808661,-0.00889764l-0.00727953 0c-0.00548819,0 -0.00970472,0.00531102 -0.00970472,0.0113228z"/>
   <path id="_243899808" class="fil1" d="M0.633157 0.558579c0,-0.00186614 0.000562992,-0.00242913 0.0024252,-0.00242913 0.00309055,0 0.00485433,0.00239764 0.00485433,0.00566142l0 0.0242638c0,0.00377559 -0.00188583,0.00566142 -0.00566142,0.00566142 -0.00113386,0 -0.00161811,-0.00110236 -0.00161811,-0.0024252l0 -0.0307323zm-0.0105157 -0.00809055l0 0.0469094c0,0.00186614 0.000562992,0.00242913 0.0024252,0.00242913l0.00161811 0c0.0181772,0 0.0242638,-0.00158268 0.0242638,-0.0202205l0 -0.0121339c0,-0.0132402 -0.00436614,-0.0194094 -0.0177913,-0.0194094l-0.00809055 0c-0.0018622,0 -0.0024252,0.000562992 -0.0024252,0.0024252z"/>
   <path id="_243911280" class="fil1" d="M0.911008 0.550445c0,0.00867717 -0.00267717,0.0470236 0.00273622,0.0470236l0.0054685 0c0.00612992,0 -0.000913386,-0.00638189 -0.000913386,-0.0104488l0 -0.0357047 -0.00729134 -0.000870079z"/>
   <path id="_96358152" class="fil1" d="M0.960713 0.550488l0 0.0469094c0,0.00186614 0.000562992,0.00242913 0.00242913,0.00242913l0.00808661 0 0 -0.0210315c0,-0.0018622 0.000562992,-0.0024252 0.0024252,-0.0024252l0.00242913 0c0.00672047,0 -0.00187008,0.0234567 0.00485039,0.0234567l0.00809055 0 0 -0.0509567c-0.00181496,-0.00042126 -0.0018622,-0.000807087 -0.00404724,-0.000807087l-0.00404331 0c-0.00662598,0 0.00177165,0.0210276 -0.00485039,0.0210276l-0.00242913 0c-0.00662205,0 0.00177559,-0.0210276 -0.00485039,-0.0210276l-0.00566142 0c-0.00186614,0 -0.00242913,0.000562992 -0.00242913,0.0024252z"/>
   <path id="_96360168" class="fil1" d="M0.568453 0.581224l0.00230709 -0.000767717 0.000929134 0.0015748 0 -0.00485039 0.000807087 0c0,0.00497244 -0.000480315,0.00785039 -0.00080315,0.0129449 -0.000649606,0.0102717 -0.00211024,0.00580315 -0.00566535,0.00727165l-0.00034252 -0.00335433 -0.00127559 0.00254724c-0.0005,-0.00600394 -0.00305906,-0.0352953 -0.00566142,-0.0372047l0 0.00404331 0.00371654 0.0364331 0.00922441 -3.54331e-005 0.00485433 -0.0363976 -5.90551e-005 -0.00308268 -0.0021378 -0.000944882 -0.00103937 0.0161614 -0.00105512 -2.3622e-005 0.0018622 -0.0242402 0.00242913 0 0 -0.00161811 0.0064685 0c0.0018622,0 0.0024252,0.000562992 0.0024252,0.0024252l0 0.0428661c0,0.00223622 -0.000622047,0.00194488 -0.0024252,0.0024252l0 -0.00215354 -0.0024252 -0.000271654 0 -0.0339685 -0.000740157 0 -0.000877953 0.0113228 0 0.0024252 0 0.0250748 0.00889764 0 0 -0.0493386c0,-0.0018622 -0.000562992,-0.0024252 -0.00242913,-0.0024252l-0.00970472 0c-0.00504724,0 -0.00605118,0.0278858 -0.00727953,0.0331614z"/>
   <path id="_96357432" class="fil1" d="M0.813516 0.548063c-0.00105906,0.00213386 -0.000807087,-0.000665354 -0.000807087,0.0024252l0 0.0485276 0.00725197 0.000988189 0.000834646 -0.000177165c0.0018622,0 0.0024252,-0.000562992 0.0024252,-0.00242913l0 -0.0210276 0.00727953 0 0 0.0210276c0,0.00186614 0.000562992,0.00242913 0.0024252,0.00242913l0.00809055 0 0 -0.0493386c0,-0.0018622 -0.000562992,-0.0024252 -0.00242913,-0.0024252l-0.00808661 0 0 0.0186024c0,0.0018622 -0.000562992,0.0024252 -0.0024252,0.0024252l-0.00242913 0c-0.00404331,0 -0.00246063,-0.0105669 -0.00241339,-0.0145669 9.84252e-005,-0.00866142 -0.000744094,-0.00646063 -0.00971654,-0.00646063z"/>
   <path id="_96360288" class="fil1" d="M0.929173 0.55615l0.00808661 0 0 0.041248c0,0.00186614 0.000562992,0.00242913 0.0024252,0.00242913l0.00809055 0 0 -0.0436772 0.00808661 0 0 -0.00808661 -0.026689 0 0 0.00808661z"/>
   <path id="_96358176" class="fil1" d="M0.754472 0.55615l0.00323622 0c0.00248819,0 0.00323622,0.00237008 0.00323622,0.00485433l0 0.00566142c0,0.00188583 -0.00215748,0.00404331 -0.00404331,0.00404331 -0.00186614,0 -0.00242913,-0.000562992 -0.00242913,-0.0024252l0 -0.0121339zm0.00809055 0.0186024c0.00277953,-0.00379528 0.00970472,-0.00114173 0.00970472,-0.013748 0,-0.0112913 -0.00811024,-0.0129409 -0.0194094,-0.0129409l-0.00566142 0c-0.00186614,0 -0.00242913,0.000562992 -0.00242913,0.0024252l0 0.0469094c0,0.00186614 0.000562992,0.00242913 0.00242913,0.00242913l0.00727559 0 0 -0.0194134c0,-0.0018622 0.000562992,-0.0024252 0.00242913,-0.0024252l0.000807087 0c0.0018937,0 0.00323622,0.00134252 0.00323622,0.00323622l0 0.0186024 0.00889764 0c0.0018622,0 0.0024252,-0.000562992 0.0024252,-0.00242913l0 -0.0064685c0,-0.00937008 -0.000771654,-0.0154331 -0.00970472,-0.0161772z"/>
   <path id="_96359664" class="fil1" d="M1.00681 0.560193c0,-0.00248031 0.000748031,-0.00485039 0.00323622,-0.00485039 0.00170866,0 0.00106693,0.000287402 0.00323228,0.000807087l0.00096063 0.00806693 0.00955512 2.3622e-005 0 -0.00485433c0,-0.00714961 -0.00325591,-0.0113228 -0.0105157,-0.0113228l-0.00404331 0c-0.0111614,0 -0.0129409,0.00709055 -0.0129409,0.0177953l0 0.0177913c0,0.0122756 0.00401575,0.0169843 0.0161772,0.0169843 0.00858268,0 0.0113228,-0.0057126 0.0113228,-0.0145591l0 -0.00323228 -0.00970472 0 -0.00148031 0.00972835 -0.00256299 -2.3622e-005c-0.00248819,0 -0.00323622,-0.00237008 -0.00323622,-0.00485433l0 -0.0275z"/>
   <path id="_96357696" class="fil1" d="M0.778736 0.597398c0,0.00186614 0.000562992,0.00242913 0.00242913,0.00242913l0.00808661 0 0 -0.0493386c0,-0.0018622 -0.000562992,-0.0024252 -0.0024252,-0.0024252l-0.00566142 0c-0.00186614,0 -0.00242913,0.000562992 -0.00242913,0.0024252l0 0.0469094z"/>
   <path id="_95577504" class="fil1" d="M0.658228 0.599827l0.0105157 0 0 -0.0493386c0,-0.0018622 -0.000562992,-0.0024252 -0.00242913,-0.0024252l-0.00566142 0c-0.0018622,0 -0.0024252,0.000562992 -0.0024252,0.0024252l0 0.0493386z"/>
   <path id="_95578248" class="fil1" d="M1.07313 0.55615l0.00323622 0c0.0018937,0 0.00323622,0.00134252 0.00323622,0.00323622l0 0.00727953c0,0.00229528 -0.00279134,0.00404331 -0.00485433,0.00404331 -0.00113386,0 -0.00161811,-0.00110236 -0.00161811,-0.0024252l0 -0.0121339zm-0.00970472 -0.00808661l0 0.0517638 0.00970472 0 0 -0.0194134c0,-0.0018622 0.000562992,-0.0024252 0.00242913,-0.0024252l0.000807087 0c0.00181496,0 0.00177559,0.000641732 0.00323622,0.00161811 0,0.00449606 -0.00179921,0.0202205 0.0024252,0.0202205l0.00808661 0 0 -0.0153701c0,-0.00659449 -0.00276378,-0.00919291 -0.0088937,-0.00970472 0.00292913,-0.004 0.0088937,-0.000720472 0.0088937,-0.0113228l0 -0.00566142c0,-0.0111102 -0.015311,-0.00970472 -0.026689,-0.00970472z"/>
   <path id="_96359160" class="fil1" d="M1.10553 0.549665l-0.00182283 -0.0016063 -0.00378346 0.00200787 -0.000177165 0.0424843c0,0.00274803 0.00241732,0.0035748 0.00494882,0.0035748l0.000826772 0c0.00189764,0 0.00247244,-0.000622047 0.00247244,-0.0026811 0,-0.00168504 -0.00153937,-0.000492126 -0.00103937,-0.00359843l-0.0014252 -0.0401811z"/>
   <path id="_96358392" class="fil1" d="M0.547425 0.54887l0 0.0509567 0.00161811 0 0.00727953 0 0 -0.0428661 0.0024252 0.0064685 0.000653543 0.000759843c0.000787402,0.00333071 0.00372047,0.0270276 0.00421654,0.0330354l0.00143701 0.000102362 0.0012874 0.00109843c0.00355512,-0.0014685 0.00533071,0.00165354 0.00598031,-0.00861811 0.000322835,-0.00509055 0.00112205,-0.00788976 0.00112205,-0.0128661l-0.00222835 -0.00240945 -7.87402e-005 0.00453543 -0.000893701 0.000440945 -0.00179134 0.00171654 0 0.0024252 -0.00161811 0 -0.00420866 -0.0356654 -0.0152008 0.000885827z"/>
   <path id="_96358776" class="fil1" d="M0.576543 0.563429l0.00178346 -0.00661024 0.000641732 0.0155079 0.000775591 0.00162205 0.000366142 -0.00918898 -0.000216535 0.032248 0.00171654 0.000527559 0.00213386 0.000200787c0.00179921,-0.000484252 0.00311417,-0.001 0.00311417,-0.00323622l-0.000433071 -0.0426299c0,-0.0018622 -0.00131102,-0.00278346 -0.00317717,-0.00278346l-0.0049685 -0.00023622 -0.00248819 0.000393701 -0.00211024 0.00165748 -0.0029685 0.024878 0.00302756 0.000771654 0.0013937 -0.0147756 0.000795276 -0.000125984 0.000614173 0.00177953z"/>
   <g>
    <path id="_96358128" class="fil1" d="M1.04293 0.557516l0.00092126 0.000133858 0.00266929 0.0236732 -0.00720079 -2.3622e-005 0.00361024 -0.0237835zm-0.00417717 0.031437l0.00761417 0 0.0025315 3.93701e-006 0.00254331 0.00761024c0.0027126,-5.90551e-005 0.00423228,0.000275591 0.00423228,-0.00253543l0.000330709 -0.00259843 -0.00648819 -0.0390039 -0.00145669 0.00183858 -0.000283465 -0.00282283 -0.00140945 -0.00140945 -0.00634646 0.000425197 -0.00269291 0.00216535 -0.0079252 0.0420827 0.00141339 0.000744094 0.00793701 -0.0065z"/>
    <path id="_96359472" class="fil1" d="M1.03917 0.588504l-0.00758661 0.0062126 -0.00135039 -0.000712598 0.0075748 -0.0402323 0.0025748 -0.00207087 0.00606693 -0.000401575 0.00135039 0.00134646 0.000267717 0.00269685 0.0013937 -0.00175591 0.00620472 0.0372874 -0.000318898 0.00248031c0,0.00268898 -0.00145276,0.00237008 -0.00404331,0.00242913l-0.00243307 -0.00727953 -0.00242126 0 0.0029252 0.0112205 0.00920866 0.000102362c0,-0.00845276 -0.00305512,-0.0190866 -0.00401969,-0.0275236 -0.000492126,-0.00429134 -0.00296063,-0.0242402 -0.00649606,-0.0242402l-0.00889764 0c-0.00423622,0 -0.00575984,0.0203504 -0.00666929,0.024874 -0.00135039,0.00673622 -0.00465354,0.0196654 -0.00465354,0.0268898l0.00889764 0 0.0024252 -0.0113228z"/>
   </g>
   <path id="_96358728" class="fil1" d="M0.615362 0.569091l-0.00970472 0 0 -0.0129409 0.00970472 0 0 -0.00808661c-0.00456693,0 -0.0210276,-0.00181102 -0.0210276,0.0024252l0 0.0485276c0.00181496,0.000425197 0.00185827,0.000811024 0.00404331,0.000811024l0.0161772 0c0.0018622,0 0.0024252,-0.000562992 0.0024252,-0.00242913l0 -0.00323228c0,-0.00186614 -0.000562992,-0.00242913 -0.0024252,-0.00242913l-0.00889764 0 0 -0.0145551 0.00647244 0c0.00181102,0 0.00177165,-0.000641732 0.00323228,-0.00161811l0 -0.00647244z"/>
   <g>
    <path id="_96359688" class="fil1" d="M0.889823 0.557516l0.000917323 0.000133858 0.00267323 0.0236732 -0.00720079 -2.3622e-005 0.00361024 -0.0237835zm-0.00417717 0.031437l0.00761417 0 0.0025315 3.93701e-006 0.00254331 0.00761024c0.0027126,-5.90551e-005 0.00422835,0.000275591 0.00422835,-0.00253543l0.000334646 -0.00259843 -0.00648819 -0.0390039 -0.00146063 0.00183858 -0.000279528 -0.00282283 -0.00140945 -0.00140945 -0.00634646 0.000425197 -0.00269685 0.00216535 -0.0079252 0.0420827 0.00141339 0.000744094 0.00794094 -0.0065z"/>
    <path id="_96360216" class="fil1" d="M0.886055 0.588504l-0.00759055 0.0062126 -0.00135039 -0.000712598 0.00757874 -0.0402323 0.0025748 -0.00207087 0.00606693 -0.000401575 0.00134646 0.00134646 0.000271654 0.00269685 0.0013937 -0.00175591 0.00620079 0.0372874 -0.000314961 0.00248031c0,0.00268898 -0.00145276,0.00237008 -0.00404724,0.00242913l-0.00242913 -0.00727953 -0.00242126 0 0.00292126 0.0112205 0.00920866 0.000102362c0,-0.00845276 -0.00305118,-0.0190866 -0.00401575,-0.0275236 -0.000492126,-0.00429134 -0.00296457,-0.0242402 -0.00649606,-0.0242402l-0.00889764 0c-0.00424016,0 -0.00575984,0.0203504 -0.00666929,0.024874 -0.00135433,0.00673622 -0.00465354,0.0196654 -0.00465354,0.0268898l0.00889764 0 0.0024252 -0.0113228z"/>
   </g>
  </g>
 </g>
</svg>
