<?xml version="1.0" encoding="UTF-8"?>
<!DOCTYPE svg PUBLIC "-//W3C//DTD SVG 1.1//EN" "http://www.w3.org/Graphics/SVG/1.1/DTD/svg11.dtd">
<!-- Creator: CorelDRAW -->
<svg xmlns="http://www.w3.org/2000/svg" xml:space="preserve" width="1.66666in" height="0.666661in" style="shape-rendering:geometricPrecision; text-rendering:geometricPrecision; image-rendering:optimizeQuality; fill-rule:evenodd; clip-rule:evenodd"
viewBox="0 0 1.66666 0.666661"
 xmlns:xlink="http://www.w3.org/1999/xlink">
 <defs>
  <style type="text/css">
   <![CDATA[
    .str0 {stroke:#EB1314;stroke-width:0.003}
    .fil8 {fill:#D62528}
    .fil13 {fill:#D81A17}
    .fil7 {fill:#E3131B}
    .fil6 {fill:#E71824}
    .fil9 {fill:#E8171A}
    .fil0 {fill:#EB1314}
    .fil4 {fill:#EB221B}
    .fil3 {fill:#EC0C13}
    .fil11 {fill:#F30B0B}
    .fil12 {fill:#F30B13}
    .fil1 {fill:#F50909}
    .fil5 {fill:#F90906}
    .fil10 {fill:#FD0500}
    .fil2 {fill:#FE0604}
   ]]>
  </style>
 </defs>
 <g id="Layer_x0020_1">
  <metadata id="CorelCorpID_0Corel-Layer"/>
  <g id="_96846976">
   <path id="_246383376" class="fil0" d="M1.06709 0.118091l0.00444488 0c-0.000846457,0.00204331 0.00145669,0.00345669 0.00444488,0.00370472l0 0.00814961c0.000929134,0 0.00148031,-0.00456693 0.00148031,-0.0059252 0,-0.00381496 -0.00426378,-0.00740945 -0.00740945,-0.00740945 -0.00165748,0 -0.00223622,0.000850394 -0.00296063,0.00148031z"/>
   <path id="_96846328" class="fil1 str0" d="M1.06191 0.119571l-0.00222441 0.000744094 0 0.000740157 0.00296457 0 -0.000574803 0.000574803 0.00333465 0.0023622 -0.00127559 0.012622 0 0.00222441 0.0024685 0.000248031 0.00126772 0.00119685 -0.000677165 0.00440945 0.00879528 -0.0155591 0 -0.00733858c-0.00298819,-0.000248031 -0.00529134,-0.00166142 -0.00444882,-0.00370472l-0.00280315 -0.000625984 -0.00682677 0.0021063z"/>
   <path id="_96846400" class="fil2" d="M1.06265 0.152173l0.00504331 -0.00720472 0.000145669 -0.00464961 -0.00123622 -0.00123228 -0.0024685 -0.000248031 0 -0.00222441 0.00127559 -0.012622 -0.00333465 -0.0023622 0.000574803 -0.000574803 -0.00296457 0 0.00144882 0.00220079 -0.00144882 0.00224803c-0.00145276,-0.000771654 -0.00218504,-0.00148425 -0.00444094,-0.00148425l-0.00222441 0 0 0.00222047 -0.00222441 0 0 0.00222441c0,0.00208661 -0.000318898,0.00137008 -0.00148425,0.00222441l-0.000834646 2.3622e-005 9.84252e-005 -0.00447244 -0.00370866 0 0 0.00222441c-0.00166142,0.000389764 -0.00170079,0.000744094 -0.00370079,0.000744094l-0.00222441 0 0 0.00222047 -0.00370472 0 -1.9685e-005 0.00164961 -0.00826772 -0.000413386 0.00458268 0.000984252 7.87402e-006 0.00151575 -0.00419291 0.000870079 -0.00166535 0.00162598 -0.00451969 -0.00030315 0 -0.00222441c-0.00440551,0 -0.0070748,0.000370079 -0.00741339,0.00444488l-0.00222441 0 0 0.00370472 -0.00221654 0c-0.00274016,0 -0.00359843,0.000377953 -0.00518898,0.00148425l0.00370472 0 0 0.00148031 -0.00296457 0c-0.00283465,0 -0.000271654,0.000224409 -0.00212205,-0.000685039l-0.00158268 0.00364961 0.00222047 0 0 -0.00148425 0.00776772 0.000212598 -0.00183465 0.00275197 0.00592126 0 0 0.00370472 0.0422362 0c0.00173228,0 0.00220079,-0.00152756 0.00518504,-0.00222441z"/>
   <path id="_97541824" class="fil0 str0" d="M0.998189 0.141063c-0.00447244,0.00184646 -0.0131575,0.00462598 -0.0187087,0.00944094 -0.00509055,0.00442126 -0.0104646,0.00820472 -0.0151969,0.0129646 -0.00789764,0.00794882 -0.0231496,0.0198937 -0.0290709,0.0279724l-0.000767717 0.00433858 -0.00442126 0.000850394 -0.00370472 0.00296457 -0.00148031 0.00222047 0.00209055 0.000712598 -0.000566929 0.00288976 0.00473228 0.00142913 -0.00169685 -0.00359843 -0.000350394 -0.000669291 0.00616535 -0.0015 0 -0.00148425 0.00148031 0 0.000200787 -0.00222047 -0.000200787 -0.00593307c0.0045315,-0.00105118 0.00637008,2.75591e-005 0.00740945,-0.00444094l-0.00181102 -0.000255906 0.00255906 -0.00273622 0.00365748 0.00092126 -0.000240157 -0.000755906 0.00546457 -0.00235827 0 -0.00370866 0.000933071 0.00030315 0.00129134 -0.00548819 0.00338189 -0.00038189 0.00268504 -0.0017874 -0.000877953 0.00216929 0.00355118 -0.000129921 0.00311417 -0.00283465 0 -0.00222047c0,-0.00283465 0.000228346,-0.000271654 -0.000740157,-0.00222441l0.0125945 0 0 -0.00222441c0,-0.00204724 -0.000570866,-0.00177953 -0.00222441,-0.00222441l0.000161417 -0.00122047 0.00280709 -0.00174016c0.000933071,0.000496063 0.00244882,0.00148031 0.00370079,0.00148031 0.002,0 0.00420079,-0.00256693 0.00473228,-0.00339764l0.00279134 0.00299213 -0.00159449 0.000405512 0 0.00148031 0.00148031 0 0 0.00370866c0,0.00205118 0.00184252,0.00638976 0.00516142,0.00667323l0.000767717 0.00369685c0.00229134,-0.00263386 0.00537795,-0.00925197 0.00740945,-0.0125945 0.00387795,-0.00637795 0.00398425,-0.00667717 0.0140787,-0.00666929 0.0138307,1.5748e-005 0.0276614,0 0.0414685,-1.5748e-005l0.00178346 -0.00383858c-0.00298425,0.000692913 -0.00299213,0.00237402 -0.00472441,0.00237402l-0.0422362 0 0 -0.00370472 -0.00592126 0 0.00183465 -0.00275197 -0.00776772 -0.000212598 0 0.00148425 -0.00222047 0 0.00158268 -0.00364961c0.00185039,0.000909449 -0.000712598,0.000685039 0.00212205,0.000685039l0.00296457 0 0 -0.00148031 -0.00370472 0c0.00159055,-0.0011063 0.00244882,-0.00148425 0.00518898,-0.00148425l0.00221654 0 0 -0.00370472 0.00222441 0c0.000338583,-0.0040748 0.00300787,-0.00444488 0.00741339,-0.00444488l0 0.00222441 0.00451969 0.00030315 0.00166535 -0.00162598 0.00419291 -0.000870079 -7.87402e-006 -0.00151575 -0.00458268 -0.000984252 0.00826772 0.000413386 1.9685e-005 -0.00164961 0.00370472 0 0 -0.00222047 0.00222441 0c0.002,0 0.00203937,-0.000354331 0.00370079,-0.000744094l0 -0.00222441 0.00370866 0 -9.84252e-005 0.00447244 0.000834646 -2.3622e-005c0.00116535,-0.000854331 0.00148425,-0.000137795 0.00148425,-0.00222441l0 -0.00222441 0.00222441 0 0 -0.00222047 0.00222441 0c0.00225591,0 0.00298819,0.000712598 0.00444094,0.00148425l0.00144882 -0.00224803 -0.00144882 -0.00220079 0 -0.000740157 -0.0614961 0.020748z"/>
   <path id="_246381792" class="fil0" d="M0.56474 0.19515l-0.00740945 0.00666535 0.000740157 0c0.00900394,-0.00209843 0.00637795,0.00335827 0.0125984,-0.0059252l-0.00148031 0 -0.000531496 -0.000622047 0.00497244 -0.00382677 -1.5748e-005 0.00434252 -0.00220472 0.000846457 0.00549213 -0.000318898 -0.00248819 -0.00262598 0.00131102 -0.00264961 0.00161417 0.00337402 0.00444488 0c-0.000814961,-0.00384252 -0.000173228,-0.00262992 0.00405906,-0.00388583l0.0023622 -0.00426772 0.000248031 -0.00444094 0.00370079 0c0.00283465,0 0.000271654,-0.000228346 0.00262598,0.000271654l-0.0033622 -0.0025 -0.0266772 0.015563z"/>
   <polygon id="_246382584" class="fil0" points="0.93002,0.19663 0.934445,0.19578 0.935209,0.191441 "/>
   <polygon id="_246376392" class="fil3" points="0.981886,0.208484 0.987071,0.19589 0.986291,0.193516 0.982909,0.194551 0.979795,0.200303 0.980402,0.203299 0.981886,0.203299 "/>
   <path id="_97538248" class="fil0" d="M0.558071 0.201815l-0.000740157 0 -0.00740551 0.00666929 -0.0140787 0.0148228 -0.00370866 0.00444094 -0.0155551 0.0222283 0.00351575 -0.000185039 0.00185433 -0.00185433 0.000570866 0.000562992 0.000728346 -0.00741339 0.00126378 0.00015748 0.00169685 0.00280709 0.00138976 -2.75591e-005 0.00125197 -0.00338976 0.0030748 0.00284646 -0.000527559 0.000570866 0.00222047 0 0 -0.00592913 0.00148425 0 0.000271654 -0.00468504 0.00639764 -0.00346063 -0.000251969 0.000783465 0.00543701 0.00143701 0 -0.00592913 0.00234646 1.9685e-005 -0.000866142 0.00590945 0.00296457 0 0.000165354 0.00270472 0.00225591 0.00142126 7.48031e-005 0.000779528 -0.00508661 0.00266142 -0.00185433 0.0042874 0.00296457 0c0.00376378,0 0.00184646,0.00643701 0.00226378,0.0103268 0.000511811,0.00479921 0.00292126,0.00549213 0.00292126,0.0104173l0.000681102 0.00270079 0.00153937 0.0039685c-0.000893701,0.00133858 -0.00148031,0.00130315 -0.00148031,0.00296457l0 0.000740157c0,0.00323622 0.00148031,0.00269291 0.00148031,0.00592913l3.93701e-005 0.0050748 0.00144488 0.000850394 -0.00296457 0 0 0.00296457c0,0.00111811 0.0005,0.00238976 0.00150394,0.00234646l0.00623622 -0.00101969 -0.00148031 -0.00343701 0.000409449 -0.00159449 0.00216929 1.9685e-005 0.00227559 0.00701969 -0.00161024 0.000334646 -0.000409449 0.00312598 0.00127953 -0.0016063 0 0.00203543 0.00370079 0.000185039 0 0.00296457c0,0.0012126 -0.000440945,0.00222047 -0.00148031,0.00222047 -0.002,0 -0.00204331,-0.000354331 -0.00370472,-0.000740157l0 0.00314961 -0.00338976 -0.000161417 -0.000311024 0.00442126c-0.000724409,0.00038189 -0.00441339,0.00296457 -0.00444882,0.00296457 -0.00200394,0 -0.00204331,-0.000354331 -0.00389764,-0.000637795l0.00167323 0.00360236 0.00222441 -0.00148425 0.000740157 0c0.00159055,-0.00237008 0.0148189,-0.0109449 0.0148189,-0.0118543 0,-0.002 -0.000350394,-0.00204331 -0.000740157,-0.00370472l-0.00148425 -0.00444488c-0.0039685,-0.00290945 -0.0149016,-0.0313976 -0.0155591,-0.0392677 0,-0.0144567 -0.000110236,-0.0189843 0.0063622,-0.0277244 0.00350787,-0.00474016 0.0130472,-0.0109016 0.0208504,-0.0137244 0.0115118,-0.00359843 0.0334409,-0.00547638 0.0565157,-0.00523228l0.00444488 0c-0.00173622,-0.00110236 -0.00375197,-0.00148031 -0.00666535,-0.00148031l-0.00593307 0 0 -0.00222441 -0.00962992 0c-0.00318504,0 -0.00401575,0.000866142 -0.00666929,0.00148031 -0.00145276,-0.000767717 -0.00218504,-0.00148031 -0.00444488,-0.00148031l-0.00888976 0 0 -0.00222441 0.00370472 0 -0.000110236 -0.00038189 -0.00409843 -0.0015748 -0.00724016 0.0058189 0.00180315 0.00341732 -0.0125827 0.000874016 -0.00222047 0c-0.00225197,0.0062126 -0.00991339,0.00389764 -0.0133386,0.0105197l-0.00843701 0.000216535 -0.00280709 0.00263386 -0.000582677 -0.00290945 0.00293307 -0.000830709 0 -0.00518504 0.00148425 0 0 -0.00444488 0.000677165 0.00030315 0.00228346 -0.00623228 -0.00370472 0 0 -0.00222441z"/>
   <path id="_91816360" class="fil4" d="M0.618087 0.171441l-0.00962992 0.00148031 -0.0125984 0.00518504 0.0125984 0.000744094 0.00814961 0 0 -0.00148425 0.00148031 0 0 -0.00370472 0.00222441 0 7.87402e-006 -0.00132677 0.0214803 -0.000893701 0.010378 -3.93701e-005 0.0103661 0.000779528 0.00888976 0c0.00404724,0 0.0041063,0.00148031 0.00815354,0.00148031l0.011122 0.000177165 0.0200354 -0.000901575 0.000728346 -0.00235039 0.00441732 0.000854331 9.44882e-005 -0.00320472 0.00539764 0.00158661 -0.0017874 -0.00431102c0.00179921,-0.000417323 0.00481496,-0.00148425 0.00666929,-0.00148425 0.0021063,0 0.00325591,0.00065748 0.00444488,0.00147244l-0.00683465 0.000181102 0.00370472 0.00370472 -0.000830709 0.000137795 -0.00345669 0.00269291 0.00445276 0.000704724 0 -0.00296457 0.00427165 -3.54331e-005 0.000917323 -0.00440945c0.00447244,0.00104331 0.00592913,0.00567717 0.00592913,0.0111142l0.000299213 0.0289488 -0.00252362 0.0147638 0.00296063 0 0 -0.0059252 0.000925197 1.5748e-005 -0.000925197 0.00813386c0.000625984,0.00117717 0.00222441,0.00334646 0.00222441,0.00444882l0 0.00222047 0.00148031 0 0 -0.00296457c-0.00148425,-0.0194921 -0.00297244,-0.0389843 -0.00446063,-0.0584764 -0.0016063,-0.00158268 -0.00341339,-0.00263386 -0.0073937,-0.00450394 -0.00500394,-0.00239764 -0.0106417,0.000192913 -0.0137756,0.00252362 -0.00464961,0.00345669 -0.00798425,0.00333071 -0.0114134,0.00562992l-0.0118386 0.000929134 -0.00446457 -0.000188976 -0.0370472 -0.00219291 -0.025189 -3.14961e-005c-0.00440945,0 -0.0055748,0.00138976 -0.00963386,0.00148425z"/>
   <path id="_96846832" class="fil0" d="M0.665508 0.210709c0.00198819,0.00125984 0.00963386,0.00338189 0.00963386,0.00592913 0,0.00516535 -0.00609449,0.00775984 -0.00944882,0.00966142l-0.000925197 0.00589764 0.00418504 -0.000208661 0.0025748 -0.00278346 -0.000830709 -0.00293701 0.00222047 0 0 0.00148031 0.00370472 0c0.00267717,0 0.00215748,-0.0015 0.00148031,-0.00296063l0.00560236 -1.5748e-005 -0.000413386 -0.00739764 -0.00237402 -3.54331e-005 0.000854331 -0.00355512 -0.00144488 -0.000850394 0.00148031 0c-5.90551e-005,-0.00269291 -0.000322835,-0.00444882 -0.00296063,-0.00444882l-0.00287402 3.14961e-005 -0.000830709 0.00293701c0.00243701,-0.00163386 0.0028622,-0.00233465 0.00296063,0.00221654l-0.00148031 0 0 -0.00148031 -0.00148031 0 -0.000350394 0.000870079 -0.00276772 -0.000909449 0.000917323 -0.00360236 -0.00743307 0.00216142z"/>
   <path id="_246376848" class="fil5" d="M0.911496 0.215154l-0.000740157 0.000740157 -0.00444488 0.00518898c-0.000535433,0.00645276 -0.00562598,0.00750787 -0.00445276,0.0103425l-0.00358268 0.00073622 -0.000858268 -0.00144882 -0.00740551 0.00740945 0 0.00296457c-0.00267323,0.000712598 -0.00198425,6.69291e-005 -0.00222441,0.00296457l-0.00370472 0 -0.00518504 0.0059252c0.00198425,-0.000472441 0.00139764,-0.000740157 0.00296063,-0.000740157 0.00135039,0 0.00119291,0.00112992 0.00148425,0.00222441l0.00222047 0 0 -0.00296457 0.0111181 0 0 -0.00222441 0.00148031 0 0.000543307 0.000807087 0.00241732 -0.00154724 0.00296457 0 0 -0.00148031 0.00296457 0 0 0.00222047 0.00148425 0 0 -0.0059252 0.00148031 0 0 0.00296457c0,0.00204724 0.000570866,0.00178346 0.00222441,0.00222047l0.000740157 0 0 -0.00444488 0.00370472 0 0 -0.00148031c0.000507874,-0.000905512 0.000740157,-0.000791339 0.000740157,-0.00222441l0.00015748 -0.00244094 0.00280709 0.00170079 3.93701e-006 -0.00448031 -0.00445276 -0.000708661 0 -0.0103701 -0.00257874 -5.11811e-005 -0.000295276 -0.00227953 -0.00115748 -0.000149606 0.00255118 -0.00270866 1.9685e-005 0.00290945 0.00590945 0.00153543 0 -0.00444488c0,-0.00283071 0.000224409,-0.000267717 -0.000744094,-0.00222441 0.00290551,-0.000673228 0.00483071,-0.00114567 0.00518898,-0.00444094l-0.00444488 0 0 -0.00222441 -0.0088937 0.00814961z"/>
   <path id="_246376752" class="fil6" d="M0.900315 0.227717l-0.00289764 0.00299606 0.000858268 0.00144882 0.00358268 -0.00073622c-0.00117323,-0.00283465 0.00391732,-0.00388976 0.00445276,-0.0103425 -0.00162598,0.00165748 -0.00201181,0.00264961 -0.00599606,0.00663386z"/>
   <path id="_246362832" class="fil7 str0" d="M0.91298 0.245531c0.00563386,-0.00270079 0.00250787,-0.00194094 0.00592913,-0.00444488l0 -0.00148031 -0.00222441 0 0 0.00148031 -0.00370472 0 0 0.00444488z"/>
   <path id="_246376920" class="fil8 str0" d="M0.885563 0.241827l-0.00148031 0.00222441 0.00370472 0c0.000240157,-0.00289764 -0.000448819,-0.00225197 0.00222441,-0.00296457l0 -0.00296457 -0.00444882 0.00370472z"/>
   <path id="_246375264" class="fil0" d="M0.686102 0.274776l0.00155906 -0.00683858c0.00132677,-0.00802756 0.00299606,-0.024248 0.00556299,-0.0268622l0.000440945 0.0140906 0.00296063 0.0489016c0,0.0117598 0.00228346,0.0238976 0.00297244,0.0340709 0.000795276,0.0117244 0.000913386,0.0236693 0.00216142,0.0348898 0.00120866,0.0109094 0.00151181,0.0230551 0.00331496,0.0337323 0.00131102,0.00777165 0.00414961,0.0258583 0.00414961,0.0328976 0.00175984,0.00277165 0.00251969,0.0192638 0.00962992,0.0192638l0.00296457 0c0.0026378,0 0.0112717,-0.00714961 0.0148189,-0.00963386l9.44882e-005 -0.00214961 -0.00646063 0.00223622 -0.00500394 0.000814961 0.00174016 0.00280709c-1.5748e-005,1.1811e-005 -0.00138583,0.00073622 -0.00148425,0.00073622 -0.00422047,0 -0.0033937,-0.00186614 -0.00635433,-0.00224409l-0.000314961 -0.0044252 0.00148425 0 0 -0.00148031 -0.0029685 0 0 -0.00444488c-0.00065748,0.000370079 -0.00148031,0.000484252 -0.00123228,0.00148425l-0.000248031 0.00888976c-0.0038622,-0.00283071 -0.00148031,-0.0040748 -0.00148031,-0.00814961 0,-0.002 -0.000354331,-0.00204331 -0.000889764,-0.00414961l-0.00133465 0.000444882 -0.000311024 -0.00381496 -0.00102362 0.00231496 -0.000885827 -0.00887402c-0.000291339,-0.00250394 0.00148425,-0.000968504 0.00148425,-0.00370472l0 -0.00444882c-0.00826378,-0.00333071 -0.00357874,-0.0354016 -0.00793307,-0.0422362l-0.000330709 -0.0216024 0.000850394 0.00604724c0.00124803,-0.000866142 0.00148031,-0.000102362 0.00148031,-0.00222441l-3.93701e-005 -0.0102087 -0.00299606 -0.000909449 0.000799213 -0.00884252 0.00190551 0.00053937 0.00181496 -0.00354331 -0.000149606 -0.00340945 -0.00133465 0.000444882 0 -0.00296457 -0.00300394 -1.5748e-005 -0.00114173 0.00309055 -0.0010315 -0.000114173 0.000732283 -0.0259291 -0.00222047 0 0 -0.00962992c0,-0.00166142 -0.000586614,-0.00162992 -0.00126378,-0.00297638l-0.00096063 -0.0170315 0.00235039 -7.87402e-006 -0.000866142 -0.0111063 -5.51181e-005 -0.0117165 -0.00216929 -0.000877953c0,-0.00300787 0.000200787,-0.00672441 7.87402e-006,-0.00964173 -0.000267717,-0.00419685 -0.00193307,-0.00468898 -0.00222047,-0.0073622l-0.00445276 0.000704724 -0.000425197 -0.00399213 -0.00306693 -0.00284646 0.000523622 -0.000570866 -0.00117323 0.000133858 -0.0017874 0.00431102 0.00296063 0 0 0.00740945 0.00146457 -3.93701e-006 -0.00146457 0.0133425 0 0.00370079 0.00148425 0 -0.00163386 0.013685z"/>
   <path id="_96755592" class="fil0 str0" d="M0.904087 0.245531l0.00148425 0.00296457 -0.00148425 0 8.66142e-005 0.00133858 -0.00305118 -0.00133858 0 0.00222441 0.00144488 -1.5748e-005 -0.000799213 0.00247638 -0.00508661 -0.00172047 0.000255906 0.0025315 0.00340945 0.00280709 -0.00369291 -0.000889764 0.000515748 0.00410236 -0.00510236 -0.00259449 0.000212598 0.0032874 -0.00226772 0.0055748 -0.00370472 0 0 0.00148425 0.00073622 0.00222047c-0.0013622,0.000751969 -0.00221654,-0.000346457 -0.00221654,0.00222047l-0.000185039 0.00195276 -0.00500394 0.00323228 0 0.00370866 0.00518898 -0.00518898 0.0125906 -0.0140787 0.00015748 -0.0013189 0.00725591 -0.00682677 0.00148031 -0.00148425 0.00592913 -0.00666929c-0.00165354,-0.000437008 -0.00222441,-0.000173228 -0.00222441,-0.00222047l0 -0.00296457 -0.00148031 0 0 0.0059252 -0.00148425 0 0 -0.00222047 -0.00296457 0 0 0.00148031z"/>
   <path id="_95576496" class="fil9" d="M1.03005 0.255165l-0.00815354 0.00296063 -0.00296063 0.00222441 0.00370472 -0.000740157c0.000901575,-0.000507874 0.000791339,-0.000740157 0.00222047,-0.000740157l0.00192126 0.000645669 0.00396457 0.00159055 -0.000834646 -0.0021811 0.000889764 0.000401575 0.00224016 -0.00369685 -0.000744094 -0.000665354 0.00664173 0.000940945c0.00179921,-0.00496457 0.00650394,-3.14961e-005 0.00669291,-0.00752362l0.0045 0.00125984 -0.00230315 0.000334646 0 0.00148425 0.00296457 0 0 -0.00148425 0.00370079 -2.75591e-005 0.010378 -0.000712598 0 0.00222441 -0.0021378 -1.9685e-005 0.00139764 0.00298425c-0.000909449,0.00340157 -0.00222441,0.00187008 -0.00222441,0.00444488l0 0.0059252 0.00148031 0c0,-0.011252 0.00518898,-0.00748425 0.00518898,-0.0111102l0 -0.00370866c-0.00365354,-0.000972441 -0.00485039,-0.00370472 -0.010374,-0.00370472l-0.00372047 -0.000169291 -0.00938976 0.00101575 -0.00255118 0.00466535 -0.0124921 0.00338189z"/>
   <path id="_96755544" class="fil9" d="M0.870004 0.25887l0.00148031 0.00222047 0.00264961 0.000468504 0.00328346 -0.00416929c-0.000417323,-0.000598425 -0.00148425,-0.00183071 -0.00148425,-0.00222441 0,-0.000566929 0.00226378,-0.00218898 0.00296457,-0.00518898l-0.0088937 0.0088937z"/>
   <path id="_97541056" class="fil2 str0" d="M0.878898 0.249976c-0.000700787,0.003 -0.00296457,0.00462205 -0.00296457,0.00518898 0,0.000393701 0.00106693,0.00162598 0.00148425,0.00222441l-0.00328346 0.00416929 -0.00264961 -0.000468504 0.00073622 0.003 0.00445276 0.000704724c5.90551e-005,0.00251181 0.0018189,0.00592913 0.00370472,0.00592913 0.00248819,0 0.00285433,-0.00135433 0.00370472,-0.00296063l0.00222441 0 0 -0.00148425 0.00370472 0 0.00226772 -0.0055748 -0.000212598 -0.0032874 0.00510236 0.00259449 -0.000515748 -0.00410236 0.00369291 0.000889764 -0.00340945 -0.00280709 -0.000255906 -0.0025315 0.00508661 0.00172047 0.000799213 -0.00247638 -0.00144488 1.5748e-005 0 -0.00222441 0.00305118 0.00133858 -8.66142e-005 -0.00133858 0.00148425 0 -0.00148425 -0.00296457 -0.00296457 0 -0.00241732 0.00154724 -0.000543307 -0.000807087 -0.00148031 0 0 0.00222441 -0.0111181 0 0 0.00296457 -0.00222047 0c-0.000291339,-0.00109449 -0.000133858,-0.00222441 -0.00148425,-0.00222441 -0.00156299,0 -0.000976378,0.000267717 -0.00296063,0.000740157z"/>
   <path id="_246377160" class="fil0" d="M1.01894 0.26035l-0.015563 0.00741339 -0.00073622 0.00296063c0.00125984,0.00109843 0.00128346,0.00148031 0.00370079,0.00148031l0.00888976 0 0 -0.00444094 0.00148425 0 0 -0.00222835c0,-0.00165748 0.000586614,-0.00162205 0.00148031,-0.00296063 0.000905512,0.000503937 0.000795276,0.000740157 0.00222441,0.000740157l0.00390157 -8.66142e-005 -0.00167717 -0.00361811 -0.00370472 0.000740157z"/>
   <path id="_246363864" class="fil10" d="M0.857913 0.274677l0.00224803 0.00274409 -0.00638976 0.0014252c0.00026378,0.003 0.00138583,0.00175591 0.0046378,0.00351969l-0.00384252 0.00680709 7.48031e-005 0.00322047 0.00277953 -0.00391339 0.00190945 0.00386614 0.00158661 -0.00317323 0 0.00238189c0,0.00212598 0.00114961,0.00234646 0.00238583,0.00317717 0,-0.0125472 0.00861024,-0.0100906 0.0102835,-0.0148976l-0.00472441 -0.000988189 0.00501969 -0.0063622 -0.000614173 -0.00725591 -0.00630709 -0.00150394 -0.00904724 0.0109528z"/>
   <path id="_246375024" class="fil0 str0" d="M0.960398 0.286283c0.00167717,0.000448819 0.00296457,0.000712598 0.00296457,0.00296063l0 0.00222441c0.00314173,-0.000838583 0.00129134,-0.00148031 0.00370472,-0.00148031l0.00592126 0 0 -0.00148031 -0.00221654 0c-0.00280709,0 -0.00472441,-0.0013189 -0.00612992,-0.00343307l0.00316142 -0.00101575 0 0.00148425 0.00745669 -8.26772e-005 -0.00448819 -0.00285827 0.00444094 -0.000208661 0.00379921 0.00015748 -0.000834646 -0.00293701 0.00222441 0c0.00272441,0 0.00172047,-0.00222441 0.00444488,-0.00222441l0.000740157 0c0.00200394,0 0.00204331,0.000354331 0.00341732,0.00038189l0.00251181 -0.00260236 0.00137008 3.54331e-005 0.000850394 0.00144882 0 -0.00148425 0.00222441 0c0.000732283,-0.000629921 0.00377165,-0.00162992 0.00370472,-0.00370472l0.00296457 -0.000740157 0.00184646 -0.00281102 -0.00340945 0.00166142 -0.00718898 0.00327559c-0.00633858,0.00334252 -0.0247559,0.00972835 -0.0312598,0.00972835l-0.00296457 0 0.00331102 -0.0127047 0.0011378 -0.0058189 -0.00370472 0.00370866 0 -0.00815354 -0.00148425 0 0 0.00296457 -0.000779528 -3.54331e-005 -0.000830709 0.0185197 0.000870079 3.93701e-005 -0.00148031 0 3.54331e-005 0.00137008 0.0010748 0.000480315 -0.0018189 0.00241339 0.00441339 0.00092126z"/>
   <path id="_246375864" class="fil2" d="M0.834433 0.297299l-0.00328346 0.00355512 0.00401181 0.00212992 0 0.00738976 0.00246457 0 0.00122835 0.00122441 0.00123228 0.000531496 -0.000818898 -0.00175591 0.00656693 0 0 -0.00164173 0.00234252 4.33071e-005 0.000586614 0.00117717 0.00282283 -0.00203937 -3.93701e-005 -0.00425197 0.00332677 -0.000677165 0.00155118 -0.0024252 -0.000905512 -0.00261811 -0.0011063 -0.000901575 -0.00217717 0.000653543 -0.000944882 -0.0022874c0.000216535,-0.00256693 -0.000527559,0.00220079 -0.000527559,-0.000629921l0 -0.00657087c-0.00514961,0.00109055 -0.00188583,-0.000818898 -0.0041063,-0.000818898 -0.00221654,0 -0.00226378,0.000389764 -0.0041063,0.000818898 -0.000122047,0.00556299 -0.00394882,0.00798031 -0.00811811,0.00909449z"/>
   <path id="_246376800" class="fil9" d="M1.19306 0.309252c0,-0.0080748 -0.0038189,-0.0131378 -0.00666929,-0.0185236l-0.00814961 -0.00888976c-0.00809055,-0.00541732 -0.0155945,-0.0107559 -0.0266732,-0.0133386l-0.00157874 0.000877953 0.00235433 0.00233858 -0.00448031 0.000488189c0.000866142,0.00124803 0.000106299,0.00148031 0.00222047,0.00148031l0.00148425 0c0.00225984,0 0.00299213,-0.000708661 0.00445276,-0.00150787l0.00369685 0.000771654 0 0.00222047 0.00370472 0 1.9685e-005 0.00208661 0.00735827 0.000929134 0.00447638 0.00216929 0 0.0029685 0.00259449 0.000366142 0.00270472 0.00187795 -0.000854331 0.00443701 0.00359449 7.87402e-006 0.000854331 0.00442126 -0.00296457 0 0.000185039 0.00222441 0.000425197 0.00419685 0.00383465 -0.00567717 0.00208661 5.11811e-005 0.000909449 0.00229921 -0.00322441 0.000681102 0.00174016 0.00520866 0.00293307 -0.000834646 0 0.00444882c0,0.00223622 0.000874016,0.00204724 0.00296457,0.00222047z"/>
   <path id="_246362616" class="fil3" d="M0.896681 0.303323l-0.00592913 0.0170433 0.00148031 0 0.000334646 -0.00159055 0.000330709 0.00127559 0.00375591 -0.000425197 5.51181e-005 -0.0126299 0.00195669 0.00131102 0.00316929 -0.00275591 3.14961e-005 -0.00671654 0.00518504 4.72441e-005 0 -0.00741339 0.00222441 0 0 -0.00222441c0,-0.00204724 -0.000570866,-0.00177953 -0.00222441,-0.00222047l0 -0.00222047c0,-0.00255512 -0.000547244,-0.00287008 -0.000740157,-0.00518898l-0.00962992 0.0237087z"/>
   <path id="_246375312" class="fil3" d="M0.63513 0.318142l0.00174016 0.00314961 0.00344488 -0.00611024 0.00194882 -0.000110236 0.00398031 -0.011748 0.0059252 0 0 0.00296457 0.00148425 0 0 0.00296457 0.00296457 0 0 0.00148425 0.00227953 1.5748e-005 0.00216535 -0.00742913 -0.00740945 0 0 -0.00444094 -0.00518504 0c0,-0.00484252 -0.00148425,-0.00470866 -0.00148425,-0.0088937l0 -0.00296457c0,-0.00200787 0.00494882,-0.00694882 0.00666929,-0.00740945 -0.000358268,-0.00430709 -0.00172835,-0.00175984 -0.00141339,-0.00444094l0.00127953 -0.00855906 0.00588189 -0.010689 -0.000562992 -0.00668898c-0.00256693,0.00295669 -0.0140748,0.0378189 -0.0143268,0.0443622l-0.00938189 0.0245433z"/>
   <path id="_246364080" class="fil11" d="M0.833697 0.298138c0.00376378,-0.00100394 0.00877953,-0.00387008 0.0088937,-0.0088937 0.00166142,-0.00038189 0.00170079,-0.00073622 0.00370472,-0.00073622 0.00200394,0 -0.000944882,0.00172441 0.00370472,0.00073622l0 0.00593307c0,0.00255118 -0.000547244,0.00286614 -0.000740157,0.00518504l0.000850394 -0.00144488 0.00211417 -3.54331e-005 0 0.00148031 0.00148031 0 0 0.00222047 -0.003 0.000614173 3.54331e-005 0.00383465 -0.00254724 0.00184252 -0.000527559 -0.00106693 -0.00211024 -3.54331e-005 0 0.00148031 -0.00592913 0 0 -0.00148031 -0.00148031 0 0 0.00148031 -0.00222441 0 0 -0.00666929 -0.00375591 -0.00136614 0.0015315 -0.00307874zm0.0330512 -0.033378l0.00358268 0.00262598 0.00189764 0.000377953 0.000409449 -0.00159449 0.000570866 0.00676772 -0.00469685 0.000712598 1.1811e-005 0.00522441 0.00440945 0.000917323c-0.000492126,0.00140945 -0.000712598,0.00130709 -0.00292913,0.00130709l-0.00296063 0 0 0.00222441c-0.00497244,0.000409449 -0.00370472,0.00499606 -0.00370472,0.0103701 -0.00115354,-0.000771654 -0.00222441,-0.000980315 -0.00222441,-0.00296457l0 -0.00222047 -0.00148425 0 0 0.00296063 -0.00177953 -0.00361024 -0.00300394 0.00242913 0.00034252 -0.00177953 0.00358268 -0.00635039c-0.0030315,-0.00164961 -0.00408268,-0.000484252 -0.00432677,-0.00328346l0.00596063 -0.00133071 -0.00209449 -0.00255906 0.00483858 -0.00253543 0.00299213 -0.00248425 0.000606299 -0.00520472zm-0.0204528 0.018563c-0.00340157,0.00422835 -0.00574409,0.00709449 -0.0063937,0.00774803l-0.00620472 0.00706693 -0.0111102 0.0118543 0.00379134 0.000850394 0.00187795 -0.00138189 0.00229134 0.00267323 0.00165748 -0.00288189 0.000755906 0.00592913 0.00444488 0 0.000669291 0.000393701 0.000811024 -0.000393701c0.00100394,0.00376772 0.00518504,0.00364961 0.00518504,0.00740945 0,0.00144882 -0.00137795,-0.000165354 -0.0015315,0.00430709l-0.00216929 0.000877953 0 0.00296457 0.0392677 -0.0489016 0 -0.000740157 0 -0.00370866 0.00500394 -0.00323228 0.000185039 -0.00195276c0,-0.00256693 0.000854331,-0.0014685 0.00221654,-0.00222047l-0.00073622 -0.00222047 -0.00222441 0c-0.000850394,0.0016063 -0.00121654,0.00296063 -0.00370472,0.00296063 -0.00188583,0 -0.00364567,-0.00341732 -0.00370472,-0.00592913l-0.00445276 -0.000704724 -0.00073622 -0.003 -0.00148031 -0.00222047 -0.0237087 0.0244528z"/>
   <path id="_246370128" class="fil9" d="M0.509173 0.25961c-0.00991732,0.0187402 -0.00814961,0.00860236 -0.00842126,0.0350945l0.00545669 0.00491732 0 0.0111142c0.00268898,0.00309449 0.00125197,0.00522047 0.00651575,0.00669291l0.00163386 0.0118307 0.00962992 0c0.00255512,0 0.00287008,-0.000547244 0.00518504,-0.000744094l0.00222835 -0.00148031c0.00293307,-0.00555118 0.00212205,-0.00444488 0.0105433,-0.00427559l0.00427165 -0.00461811 -0.00143701 -0.000708661 -0.00226772 0.00367717 -0.00616142 -0.000507874 -0.00437795 -0.00366929 0.00333071 -0.00118898 -0.000468504 -0.00107087 -0.00566142 0.00272835 0 0.00222441 0.00240157 6.29921e-005 -0.00240945 0.00722047 -0.0111024 0.000866142 -0.000740157 0c-0.00294094,0 -0.00290551,-0.00697244 -0.00296457,-0.00963386l0.00243701 -0.000598425 -0.00672441 -0.0023937 -0.000897638 -0.00515748c0.00164961,-0.000440945 0.00222047,-0.000173228 0.00222047,-0.00222047l0 -0.00963386 -0.00148425 0 -0.000389764 0.0068189 -0.00182677 -0.00533465 0.00163386 -5.51181e-005 -0.00236614 -0.00732283 -0.00341732 0.00125197 -0.00178346 -0.00202756c0,-0.00870866 -0.00137795,-0.0230394 0.00666929,-0.0237047l0 -0.00370866c0,-0.00238583 0.00231496,-0.00227559 0.0040315,-0.00323228l0.00435827 0.00380709 0.000503937 -0.000574803c-0.000688976,-0.00189764 -0.00222441,-0.00270866 -0.00222441,-0.00518504 0,-0.0024252 0.000893701,-0.00248425 0.00222441,-0.00296457l0 -0.00222047 -0.00148425 0 0 -0.00296457 -0.00666535 0.00888976z"/>
   <path id="_246355992" class="fil0" d="M1.11229 0.295177l0.00370472 0.00296063c0.00709843,0.00189764 0.0170394,0.0163858 0.0170394,0.0259331l0.000173228 0.00445669 -0.000913386 0.0140669c0.00164961,-0.00259843 -0.000389764,-0.00161024 0.00182677,-0.0033622 0.00154724,-0.00121654 0.00261811,0.000185039 0.00261811,-0.00256299l-0.000133858 -0.0212008 -0.00343307 0.00114173 -0.00107874 -0.00248819 0.0024252 -0.00116535 3.93701e-005 -0.00720866 -0.00374803 0.00053937 0 -0.00148031c-0.00644094,0.00150394 -0.00202756,0.00235039 -0.00516142,-0.00224016 -0.00181102,-0.00265748 -0.00309843,-0.0011811 -0.00505118,-0.00491339l0.00280709 -0.00174016c0.00691732,0.00332283 0.00257087,-0.000377953 0.00740551,0.00518898 0,-0.00716535 -0.00328346,-0.00468898 -0.00222047,-0.00740945 -0.00316535,-0.00026378 -0.00663386,-0.00222441 -0.00740945,-0.00222441l-0.00196063 0.00065748 -0.00692913 0.00305118z"/>
   <path id="_246377136" class="fil0 str0" d="M0.516583 0.249976l-0.000744094 0.000744094 0 0.00296457 0.00148425 0 0 0.00222047c-0.00133071,0.000480315 -0.00222441,0.00053937 -0.00222441,0.00296457 0,0.00247638 0.00153543,0.0032874 0.00222441,0.00518504l-0.000503937 0.000574803 -0.00435827 -0.00380709c-0.00171654,0.000956693 -0.0040315,0.000846457 -0.0040315,0.00323228l0 0.00370866c-0.00804724,0.000665354 -0.00666929,0.0149961 -0.00666929,0.0237047l0.00178346 0.00202756 0.00341732 -0.00125197 0.00236614 0.00732283 -0.00163386 5.51181e-005 0.00182677 0.00533465 0.000389764 -0.0068189 0.00148425 0 0 0.00963386c0,0.00204724 -0.000570866,0.00177953 -0.00222047,0.00222047l0.000897638 0.00515748 0.00672441 0.0023937 -0.00243701 0.000598425c5.90551e-005,0.00266142 2.3622e-005,0.00963386 0.00296457,0.00963386l0.000740157 0 0.0111024 -0.000866142 0.00240945 -0.00722047 -0.00240157 -6.29921e-005 0 -0.00222441 0.00566142 -0.00272835 0.000468504 0.00107087 -0.00333071 0.00118898 0.00437795 0.00366929 0.00616142 0.000507874 0.00226772 -0.00367717 0.00143701 0.000708661 0.00814961 -0.00296063 -0.00167323 -0.00360236c0.00185433,0.000283465 0.0018937,0.000637795 0.00389764,0.000637795 3.54331e-005,0 0.00372441,-0.00258268 0.00444882,-0.00296457l0.000311024 -0.00442126 0.00338976 0.000161417 0 -0.00314961c0.00166142,0.000385827 0.00170472,0.000740157 0.00370472,0.000740157 0.00103937,0 0.00148031,-0.00100787 0.00148031,-0.00222047l0 -0.00296457 -0.00370079 -0.000185039 0 -0.00203543 -0.00127953 0.0016063 0.000409449 -0.00312598 0.00161024 -0.000334646 -0.00227559 -0.00701969 -0.00216929 -1.9685e-005 -0.000409449 0.00159449 0.00148031 0.00343701 -0.00623622 0.00101969c-0.00100394,4.33071e-005 -0.00150394,-0.00122835 -0.00150394,-0.00234646l0 -0.00296457 0.00296457 0 -0.00144488 -0.000850394 -3.93701e-005 -0.0050748c0,-0.00323622 -0.00148031,-0.00269291 -0.00148031,-0.00592913l0 -0.000740157c0,-0.00166142 0.000586614,-0.00162598 0.00148031,-0.00296457l-0.00153937 -0.0039685 -0.000681102 -0.00270079c0,-0.0049252 -0.00240945,-0.00561811 -0.00292126,-0.0104173 -0.000417323,-0.00388976 0.0015,-0.0103268 -0.00226378,-0.0103268l-0.00296457 0 0.00185433 -0.0042874 0.00508661 -0.00266142 -7.48031e-005 -0.000779528 -0.00225591 -0.00142126 -0.000165354 -0.00270472 -0.00296457 0 0.000866142 -0.00590945 -0.00234646 -1.9685e-005 0 0.00592913 -0.00543701 -0.00143701 0.000251969 -0.000783465 -0.00639764 0.00346063 -0.000271654 0.00468504 -0.00148425 0 0 0.00592913 -0.00222047 0 0.000527559 -0.000570866 -0.0030748 -0.00284646 -0.00125197 0.00338976 -0.00138976 2.75591e-005 -0.00169685 -0.00280709 -0.00126378 -0.00015748 -0.000728346 0.00741339 -0.000570866 -0.000562992 -0.00185433 0.00185433 -0.00351575 0.000185039z"/>
   <path id="_246362592" class="fil2" d="M0.817398 0.314441l-0.000740157 0.000740157 -0.0148189 0.0155591 -0.000740157 0.00148031 0 0.000740157 0.00227953 6.69291e-005 0.00438976 -0.00302756 0 -0.00222441c0,-0.00224016 0.000870079,-0.00204724 0.00296457,-0.00222047l0 -0.00222441c0.00282677,-0.000661417 0.011126,-0.0106102 0.0118543,-0.0133386l-0.00518898 0.00444882z"/>
   <path id="_246363072" class="fil2" d="M0.822587 0.309992c-0.000728346,0.00272835 -0.00937795,0.0122835 -0.0122087,0.0129409l-0.000625984 0.00183858c-0.00483071,0.00189764 -0.0034685,0.00427165 -0.00591732,0.00635433l-0.00233858 0.00112992 -0.00141339 0.00172441 -0.00194094 0.00348031 0.00214567 0.00225591 0.00023622 0.00250394 0.00567323 0.00105512 0.00392126 -0.000893701 0.00142913 0.00278346c0.00198819,0.000476378 0.00964173,0.000885827 0.0100669,-0.000287402l0.00740551 -0.00402756c0.00501575,-0.00133858 0.00566929,-0.00455118 0.00637008,-0.0051378l0.00349606 -0.00349213 0.00148425 -0.00148031 0.00122441 -0.00240945 0.000944882 -0.00143307c0.00248425,-0.00281102 0.0039252,-0.00414567 0.0039252,-0.00559843 0,-0.00375591 -0.00307874,-0.00241339 -0.00408268,-0.0061811l-0.00166929 -0.0022126 -0.00192913 -0.000181102 -0.00432283 -0.000830709 -0.000846457 -0.00285433 -3.14961e-005 -0.00169685 -0.00370079 -0.000338583 -0.00138583 0.000641732 -0.00590945 0.00234646z"/>
   <polygon id="_246363096" class="fil8" points="0.790724,0.344075 0.795106,0.344063 0.796449,0.339236 0.798134,0.335925 0.790724,0.342594 "/>
   <path id="_246363024" class="fil10" d="M0.992264 0.335925c0,0.00205118 -0.000574803,0.00178346 -0.00222441,0.00222441l0.000185039 0.00444488 -0.000413386 0.00322441 -0.00449606 0.00211417 -0.000122047 0.00116535 0.00439764 0.00304331 0.000448819 -0.000653543 0.000472441 0.00242126 0.00100787 -0.00316535 0.00592913 0 0 -0.0059252 0.0059252 0 0 -0.0177835 -0.00370472 0 0 0.0059252 -0.00222047 0 0 -0.0059252 -0.00518504 0 0 0.00888976z"/>
   <polygon id="_246362976" class="fil0" points="0.878154,0.355193 0.880378,0.355193 0.880012,0.354398 0.885563,0.352228 0.885563,0.355193 0.887787,0.355193 0.887787,0.353709 0.889268,0.353709 0.889024,0.351894 0.883343,0.348524 0.883437,0.345083 0.889268,0.343335 0.889268,0.34037 0.890752,0.34037 0.890752,0.33889 0.887787,0.33889 0.887787,0.333701 0.889268,0.333701 0.889268,0.32926 0.890661,0.329276 0.890012,0.324071 "/>
   <path id="_246362856" class="fil9" d="M1.02931 0.368528c0.00402756,-0.00579528 0.0264409,-0.0709606 0.0266732,-0.0815039l0.00892126 -0.000311024 0.0214606 0.0025315 0.0118543 0.00222441 0.00888976 0.00222441c-0.000582677,-0.0021811 -0.0053189,-0.00592913 -0.00666929,-0.00592913 -0.0025748,0 -0.00112598,0.00148031 -0.00370079,0.00148031l-0.00222441 0 0 -0.00148031 -0.00592913 0c-0.00473228,0 -0.0056378,-0.00148031 -0.010374,-0.00148031l-0.0214843 0c-0.0033189,0 -0.00370472,0.00788583 -0.00368898,0.0118976l-0.00224016 0.000700787 0 0.00444094c0,0.00716142 -0.00284646,0.00661024 -0.00296457,0.0118583l-0.00119685 -7.87402e-005 -0.00176772 -0.00436614 0 0.00444488 -0.00057874 -1.9685e-005 -0.00105512 -0.00538189 -0.00281102 0.00169685 0 0.00222047c0,0.00166142 -0.000586614,0.00162598 -0.00148031,0.00296457l-3.54331e-005 0.00653937 0.00311811 -0.000594488 -0.000858268 0.0103543c-0.000704724,0.00544488 -0.00507874,0.00994094 -0.00518898,0.0148189l-0.00222441 0 -0.000330709 0.00159449 -0.000409449 -0.00159449c-0.00399213,0.0029252 -0.00479921,0.00764567 -0.00277953,0.011252l-0.00314961 0.00430709 -1.1811e-005 0.0029252 0.00223622 -0.000700787 0 0.00296457z"/>
   <path id="_246362808" class="fil0 str0" d="M0.635807 0.317957l-0.00141732 0.00315354 0 0.0059252 0.00148425 0 -4.72441e-005 0.00238583 -0.00251969 -0.000704724 -0.00193701 0.00385039 -0.000685039 -0.000346457 0 0.00370472c0,0.000984252 -0.0033937,0.00454724 -0.00461024,0.0094685 -0.000547244,0.00222047 -0.00314567,0.00817717 -0.00415354,0.0105039l0.000614173 0.003 0.00296063 -0.00222441 0 0.00148031 0.00259449 0.00015748 0.00185039 0.0042874 0.00593307 0 0 0.00148425 0.00148031 0c0.00026378,-0.00111417 0.000161417,-0.00222441 0.00148031,-0.00222441 0.00166142,0 0.00162598,0.000586614 0.00288583,0.0010748l0.0019685 -0.000492126 0.00181102 -0.00354331 -0.00148031 0 0 -0.00148425 0.00221654 -9.05512e-005 0.00306299 6.29921e-005 -0.000244094 -0.00275197 0.000893701 -0.00388976c0.00336614,-0.000279528 0.00512598,-0.00542913 0.00596063,-0.00811417 0.000527559,-0.00168504 0.000468504,-0.00425591 0.000968504,-0.00570472 0.000858268,-0.00250394 0.00344488,-0.00233071 0.00344488,-0.00396457 0,-0.00169685 -0.000251969,-0.000858268 -0.000744094,-0.00296063l0.000318898 0.000685039 0.00264567 -0.00216929 0.000212598 -0.00538189 -0.00169291 0.00390157 -0.000204724 -0.00457087 -0.00127953 0.0016063 0 -0.00666929 0.00311811 3.93701e-005 -0.000893701 0.00366929 0.00203543 -3.54331e-005 0.000996063 -0.00520472 -0.0030315 -0.00365354 0 0.00296457 -0.00207087 -3.93701e-005 -0.000893701 -0.00366535 -0.00518504 0 0 -0.00222441 0 -0.00296457 -0.00148425 0 0 -0.00296457 -0.0059252 0 -0.00398031 0.011748 -0.00194882 0.000110236 -0.00344488 0.00611024 -0.00106299 -0.00333465z"/>
   <path id="_246362256" class="fil2 str0" d="M0.798134 0.335925l-0.00168504 0.00331102 -0.00134252 0.00482677 -0.00438189 1.1811e-005 -0.0185236 0.0185236 -0.010374 0.0088937 0.00374016 -5.51181e-005 0.00218898 0.00153543c0.00133858,-0.000897638 0.00130315,-0.00148031 0.00296457,-0.00148031l0.00444488 0 0 -0.00222441c0,-0.00224016 0.000874016,-0.00204724 0.00296457,-0.00222047l0 -0.00444882 0.00444488 0 0 -0.00296457 0.000740157 0.000633858 0.00444094 -0.00518898 -0.000771654 -0.0005 0.00333465 0.000456693 -0.00187402 -0.00396063 0.00528346 -0.000314961 0.000724409 -0.00236614 0.00590551 0.000866142 0 -0.00222047 0.00148031 0 0 -0.0103701 -0.00248031 -0.000161417 0.00174016 -0.00280709 0 -0.000740157 -0.00296457 0.00296457z"/>
   <path id="_246362280" class="fil0 str0" d="M0.960398 0.286283c-0.00176378,0.00333858 -0.00518898,0.00411811 -0.00518898,0.00518504 0,0.00269291 0.00267717,0.00238189 0.00504331,0.00287795l-0.00133858 0.00305118c0.00304331,-0.000255906 0.00165748,-0.000740157 0.00444882,-0.000740157 0.00240551,0 0.000555118,0.000641732 0.00379528,0.00164173l-0.0104252 0.00577953 0.000440945 -0.00258268 -0.0033189 0.00300787 -0.0036063 -0.00114961 -0.00170472 0.0118268 0.00166929 3.14961e-005 -0.00133858 0.00523228 -0.000330709 -0.00230315 -0.00208661 1.9685e-005 -0.00088189 0.0073937c-0.00384252,0.00574016 -0.00579134,0.013185 -0.0098189,0.0190709 -0.000988189,0.00144094 -0.00224409,0.00806299 -0.00339764,0.0106811 -0.00140551,0.00317717 -0.0048622,0.00547638 -0.00544488,0.00959843l-0.00208268 -0.00230709 0 0.00444882c-0.00136614,0.000551181 -0.00296457,0.00357087 -0.00296457,0.00518504l0 0.00222441 0.00220472 -3.93701e-006 0.000759843 -0.0059252 0.00163386 1.1811e-005 -0.000893701 0.0118425 0.00963386 -0.0281535 0.00888976 -0.0192677 0.00666929 -0.0125945 0.00518504 -0.00814961 0.00815354 -0.0088937c0.00495669,-0.00740157 0.0160118,-0.0111102 0.0288976,-0.0111102l-0.0029685 -0.00444882c0.000897638,-0.00133465 0.00148425,-0.00130315 0.00148425,-0.00296063l0 -0.00444882c0.00477953,-0.000106299 0.00288189,-0.000440945 0.00444488,-0.00370079l0.00296457 0 0 0.00148031 0.00444488 0 0 -0.00148031 -0.000574803 0.000574803 -0.0024252 -0.00342913 0 0 -0.000937008 -0.00131496c-0.00173622,0.000224409 -0.00232677,0.00199213 -0.00347244,0.00268504l-0.00222441 0 0 0.00148425 -0.000850394 -0.00144882 -0.00137008 -3.54331e-005 -0.00251181 0.00260236c-0.00137402,-2.75591e-005 -0.00141339,-0.00038189 -0.00341732,-0.00038189l-0.000740157 0c-0.00272441,0 -0.00172047,0.00222441 -0.00444488,0.00222441l-0.00222441 0 0.000834646 0.00293701 -0.00379921 -0.00015748 -0.00444094 0.000208661 0.00448819 0.00285827 -0.00745669 8.26772e-005 0 -0.00148425 -0.00316142 0.00101575c0.00140551,0.00211417 0.00332283,0.00343307 0.00612992,0.00343307l0.00221654 0 0 0.00148031 -0.00592126 0c-0.00241339,0 -0.000562992,0.000641732 -0.00370472,0.00148031l0 -0.00222441c0,-0.00224803 -0.0012874,-0.00251181 -0.00296457,-0.00296063z"/>
   <path id="_97533280" class="fil3" d="M1.11155 0.384827c0.00198819,-0.000476378 0.00139764,-0.000740157 0.00296457,-0.000740157 0.00204724,0 0.00178346,0.000570866 0.00222047,0.00222441l0.0034685 -0.000141732 0.00246457 -0.00430709 0.000740157 -0.00296063 0.00296457 0c7.08661e-005,-0.00343701 0.00100787,-0.00437402 0.00444094,-0.00444488 7.08661e-005,-0.00307087 0.000744094,-0.00282677 0.000744094,-0.00444882 0,-0.00264567 -0.000417323,-0.00371654 -0.00241339,-0.0044685l0.000929134 -0.00738583c0.00351969,0.00371654 0.00148425,-0.00290945 0.00148425,-0.00740945 -0.00205906,0.00296457 -0.00499213,0.0139921 -0.00812992,0.0192835 -0.0041811,0.00706299 -0.00840551,0.00961811 -0.011878,0.0147992z"/>
   <path id="_243903144" class="fil0" d="M1.14785 0.392236l0.00963386 -0.00666929 0.000740157 -0.000740157 0.010374 -0.0103701 0.00518504 -0.00740945 -0.00296063 0.00073622 -0.000106299 -0.00188976 -0.00508268 -0.00181102c-0.00673622,0.00356299 -0.00331102,-0.000330709 -0.00670866,0.00668898l0.00137008 0.00272835 -0.00281102 0.00169291 -7.87402e-006 0.00541732 -0.00443701 -0.000228346c0.000850394,-0.000740157 0.00222047,-0.00129528 0.00222047,-0.00222441 0,-0.00246457 -0.00133071,-0.00216929 -0.00340945,-0.00198425l-0.00532283 0.00670866 0.000716535 0.000826772 0.00444882 -0.00182283 -0.00129134 0.00697638 -0.00255118 0.00337402z"/>
   <path id="_237671488" class="fil0" d="M0.828512 0.33148c-0.000385827,0.00166142 -0.000740157,0.00170472 -0.000740157,0.00370472l-0.000370079 0.00333465 -0.00222441 0.00222441 0.00130315 6.69291e-005 0.00124409 0.0051063 -0.00227953 0.000291339 0.000102362 0.000830709 -0.00222047 0c-0.0023189,0 -0.00422047,0.00388583 -0.00485433,0.00600787l-0.000330709 -0.00230315 -0.00444882 0 0 0.00222441c0,0.00205118 0.000570866,0.00178346 0.00219685,0.00221654l-0.000673228 0.00713386 -0.00670866 0.000279528 0 0.00222441 -0.00370472 0 0 0.00444488 -0.00266929 7.87402e-006 -0.000295276 0.0051811 -0.00222441 0c0.000480315,0.00198425 0.000744094,0.0013937 0.000744094,0.00296063 0,0.00185827 -0.00212205,0.00530709 -0.00444488,0.00592913l-0.000212598 0.00261024 -0.00358268 -0.00190157 -0.0016378 0.00324803 -0.00493307 0.00662205 0.00147244 0.0035 0.0326024 -0.0392717 0.00444488 -0.0059252 0.0148189 -0.0200079 0 -0.00148031c-0.00554331,0.00046063 -0.00312992,0.00606693 -0.00814961,0.00740945l-0.000791339 -0.00740157 -0.00143307 0.000732283z"/>
   <polygon id="_97541464" class="fil0" points="0.590646,0.403476 0.594358,0.402138 0.599402,0.402567 0.600358,0.39963 0.598598,0.393043 "/>
   <path id="_97541344" class="fil0" d="M1.08561 0.398906c-0.0083189,0.00578346 -0.0479016,0.00888976 -0.0644567,0.00888976 0.00150394,0.00373622 0.0140591,0.000708661 0.0177717,0.000732283 0.00679528,4.72441e-005 0.0118307,-0.000732283 0.0192717,-0.000732283 0.00264961,0 0.00371654,0.000417323 0.00444882,0.00222441 0.00505118,-0.000114173 0.00231102,-0.00148031 0.00518504,-0.00148031l0.00222047 0 0 -0.00148425 -0.00222047 0c-0.00255512,0 -0.00286614,0.000551181 -0.00518504,0.000740157l0 -0.00222441 0.00666535 0c0.00289764,0 0.0072874,0.000826772 0.00814961,0.0029685l0.00592913 0 0.00374409 -0.000724409 0.000700787 -0.00224409c0.00436614,0.000366142 0.00154331,0.00148425 0.00444488,0.00148425 0.00170866,0 0.00222441,-0.000515748 0.00222441,-0.00222047 0,-0.00200394 -0.000354331,-0.00204724 -0.000740157,-0.00370472l0.00148425 0 0 -0.00222441c0,-0.00173228 0.00122441,-0.00296457 0.00296063,-0.00296457l0.00222441 0c0.000480315,0.00133071 0.000535433,0.00222441 0.00296063,0.00222441 0.00269291,0 0.00259843,-0.00088189 0.00518898,-0.00148031l-0.000255906 -0.00189764 -0.00236614 -0.00227165 0.00558268 -0.00768898c-0.00402362,0.00269685 -0.0075,0.00561417 -0.0118661,0.00814173 -0.00500394,0.0028937 -0.00917323,0.00359055 -0.0140669,0.00593701z"/>
   <path id="_237687400" class="fil0" d="M1.11599 0.411504l0.0222283 -0.0125984 -0.00875197 0.00290945 -0.00088189 -0.00216929c-0.00198425,0.000476378 -0.00139764,0.000740157 -0.00296457,0.000740157 -0.002,0 -0.00203937,-0.000354331 -0.00389764,-0.000637795l0.00167717 0.00360236 -0.00148425 0 -1.1811e-005 0.00152362 0.00298031 0.00144094c-0.00502756,0 -0.00784646,0.00125197 -0.0088937,0.00518898z"/>
   <path id="_243886656" class="fil1" d="M0.77813 0.407055l0.000740157 0 0.00814961 -0.00962992 0 -0.00296457 0.00558661 -0.00478346 0.00034252 -0.00188583 -0.00148031 -0.00666535 -0.00148425 0 0 0.00296063c0,0.00270866 -0.00200394,0.00159843 -0.00296457,0.00518504l-0.00287008 -2.75591e-005 -0.000830709 -0.00293307 -0.00406693 0.000295276 0.00298425 0.00404331 -0.00336614 0.0112205c-0.0036811,-0.00194882 -0.010374,-0.00338976 -0.010374,0.00370079l0 0.00148425c0,0.00204724 0.000574803,0.00177953 0.00222441,0.00222441 0.000224409,-0.00270079 0.00195276,-0.00666929 0.00370472,-0.00666929l0.0027874 3.54331e-005 0.000917323 0.00440945z"/>
   <path id="_237671200" class="fil0 str0" d="M1.12266 0.381862l-0.00246063 0.00430709 -0.0034685 0.000141732c-0.000440945,-0.00165354 -0.000173228,-0.00222441 -0.00222047,-0.00222441 -0.00156693,0 -0.000980315,0.00026378 -0.00296457,0.000740157l-0.00558661 0.00768898 0.00236614 0.00227165 0.000255906 0.00189764c-0.00259055,0.000598425 -0.00249213,0.00148031 -0.00518898,0.00148031 -0.0024252,0 -0.00248031,-0.000893701 -0.00296063,-0.00222441l-0.00222441 0c-0.00173228,0 -0.00296063,0.00123228 -0.00296063,0.00296457l0 0.00222441 -0.00148425 0c0.000385827,0.00165748 0.000740157,0.00170079 0.000740157,0.00370472 0,0.00170472 -0.000515748,0.00222047 -0.00222047,0.00222047 -0.00290551,0 -8.26772e-005,-0.00111811 -0.00444882,-0.00148425l-0.000700787 0.00224409 -0.00374409 0.000724409 0.00740945 0.00444488c-0.000866142,0.00124409 -0.000106299,0.00148031 -0.00222047,0.00148031l-0.00246457 -1.5748e-005 0.000240157 0.00594488 0 -0.00148425c0.0104449,0.00023622 0.0118898,-0.00163386 0.0199685,-0.00572835l0.00374016 0.000543307 0.00592913 -0.00222047c0.00104724,-0.00393701 0.00386614,-0.00518898 0.0088937,-0.00518898l-0.00298031 -0.00144094 1.1811e-005 -0.00152362 0.00148425 0 -0.00167717 -0.00360236c0.00185827,0.000283465 0.00189764,0.000637795 0.00389764,0.000637795 0.00156693,0 0.000980315,-0.00026378 0.00296457,-0.000740157l0.00088189 0.00216929 0.00875197 -0.00290945 0.000740157 0 3.93701e-006 -0.00306299 -0.00493307 -0.000153543 0.00270866 -0.00493307 0.00296063 0 3.93701e-006 -0.00288583 -0.00567717 -8.66142e-005 -0.000240157 -0.00737795 -0.00446063 0.00145669 0 0.00296457 -0.00148031 0 0 0.00148425 0.00148031 0 0 0.0111142 -0.00296063 0 0 -0.0140787 -0.00148031 0 0 -0.00148425 -0.00222441 0z"/>
   <path id="_237687328" class="fil0" d="M0.899642 0.46485l-0.0214882 -0.00148425 -0.00444488 0 0 -0.00148031 0.0111181 0 0 -0.00222441 -0.0115315 0.000377953 -0.00329134 0.00258661 -0.00387795 -0.000232283 0.00314173 -0.00273228c-0.00522441,-0.00250394 -0.00670079,-0.000437008 -0.010378,-0.00592913l-0.000204724 -0.00531102 -0.00170472 0.00143701 0.00183071 -0.00460236 0.000818898 0.000326772 0 -0.00370472c0,-0.0025748 -0.00148031,-0.00112992 -0.00148031,-0.00370472l0 -0.00444488 -0.00222441 0 0 -0.00370472c0,-0.0030748 0.00046063,-0.00463386 0.00196457,-0.00576378l0.00137402 0.00195276 0.00166142 -0.00511024 0.00129528 -0.00468504 0.00482283 -0.00343307c-0.000110236,-0.00490945 -0.00250787,-0.017626 0.00444094,-0.0177835l-0.00034252 -0.00297244 0.00108661 -0.014811 0.000677165 -0.00269291 0.00273622 -0.00625591 0.000649606 0.00322441 0.00334646 -0.00687008c-0.00253543,-0.000838583 -0.00148425,-0.00370866 -0.00148425,-0.00814961 -0.00469685,0.00676378 -0.0259291,0.0754291 -0.0259291,0.0881693l0 0.00444488c0,0.0123346 0.013878,0.0170433 0.0266732,0.0170433l0.00521654 0.000295276 0.0155276 -0.00177559z"/>
   <path id="_237687232" class="fil11 str0" d="M0.662543 0.328516l-0.00264567 0.00216929 -0.000318898 -0.000685039c0.000492126,0.00210236 0.000744094,0.00126378 0.000744094,0.00296063 0,0.00163386 -0.00258661,0.00146063 -0.00344488,0.00396457 -0.0005,0.00144882 -0.000440945,0.00401969 -0.000968504,0.00570472 -0.000834646,0.00268504 -0.00259449,0.00783465 -0.00596063,0.00811417l-0.000893701 0.00388976 0.000244094 0.00275197 -0.00306299 -6.29921e-005 -0.00221654 9.05512e-005 0 0.00148425 0.00148031 0 -0.00181102 0.00354331 -0.0019685 0.000492126c-0.00125984,-0.000488189 -0.00122441,-0.0010748 -0.00288583,-0.0010748 -0.0013189,0 -0.00121654,0.00111024 -0.00148031,0.00222441l-0.00148031 0 0 -0.00148425 -0.00593307 0 -0.00185039 -0.0042874 -0.00259449 -0.00015748 0 -0.00148031 -0.00296063 0.00222441 -0.000614173 -0.003c0.00100787,-0.00232677 0.0036063,-0.00828346 0.00415354,-0.0105039 0.00121654,-0.00492126 0.00461024,-0.00848425 0.00461024,-0.0094685l0 -0.00370472 0.000685039 0.000346457 0.00193701 -0.00385039 0.00251969 0.000704724 4.72441e-005 -0.00238583 -0.00148425 0 0 -0.0059252c-0.00365748,0.00525984 -0.00872835,0.0228701 -0.0127362,0.0302362 -0.00509449,0.00937795 -0.00897638,0.0205157 -0.0146772,0.0290354l-0.00815354 0.0133346 0.00153543 0.00591339 -0.000956693 0.00293701 -0.00504331 -0.000429134 -0.00294094 0.0012126c-0.00756299,0.00554331 -0.00944094,0.0125827 -0.0222283,0.0155591l-0.0348268 0 -0.0296378 0c-0.0112717,0 -0.0142598,0.00439764 -0.0185236,0.0111142l-0.00518504 0.00666929 0.00370472 0c0.000433071,-0.00520079 0.00370472,-0.00127559 0.00370472,-0.00740945l3.14961e-005 -0.00213386 0.00284252 -0.00080315 0.00144094 0.00335039 0.00161417 -0.00337795 0.0229685 0 0 -0.00370472 -0.0111142 0 0 -0.00148425c0.0023189,-0.000188976 0.00263386,-0.00073622 0.00518504,-0.00073622l0.00963386 0c0.0196299,0 0.0383898,0.00234646 0.0548268,-0.00148425l0 0.00148425 0.00666929 0 0 0.00518504 0.00518504 0 0 0.00370472c0,0.00204724 0.000570866,0.00178346 0.00226772,0.00225591l-0.00226772 0.00367717 -0.00482677 -0.00118898 -0.0033189 0.00414567 0.00518504 0 0 0.00370472c-0.00347244,0.00125984 -0.00167323,0.00370472 -0.00963386,0.00370472l-0.00256299 0.000496063 0.00309055 0.00214567 -0.00274803 0.00254724 0.00073622 0 0.000744094 0c0.00793307,-0.00551181 0.0113504,-0.00655906 0.0190669,-0.0135315 0.00435433,-0.00393701 0.0138228,-0.0150551 0.0164961,-0.0168465 0.00524409,-0.00783465 0.0116654,-0.0148543 0.0167441,-0.0232677 0.00516929,-0.00854724 0.0101102,-0.0162835 0.0151299,-0.0248819 0.00481102,-0.00824409 0.00975197,-0.017248 0.014063,-0.0259449 0.00347244,-0.00699213 0.00879134,-0.0209921 0.0125984,-0.0266732l-0.00194094 -0.000637795 -0.00398819 0.00952756z"/>
   <path id="_237671056" class="fil12" d="M1.08636 0.420394l-0.0118543 0.00296063 0 -0.00148031 -0.0118543 0c0.000866142,0.00124803 0.000102362,0.00148031 0.00222047,0.00148031l0.00392126 0.00015748 -0.00170472 0.00264961 -0.0244449 0.000901575 -0.00148031 0c-0.00205118,0 -0.00177953,-0.000574803 -0.00222047,-0.00222441l0.0118543 0 0 -0.00148425 0.00885039 1.9685e-005 -0.000704724 -0.00224409 -0.00815748 0.000370079 -0.0112323 -0.000401575 -0.000622047 0.00315748 -0.0244409 -0.000901575 -0.00518504 0 0 -0.00148031 -0.00616535 0.000338583 0.00838583 0.00558661 -0.00370472 0c0.000866142,0.00125197 0.000106299,0.00148425 0.00222047,0.00148425l0.00518898 0c0.000173228,-0.00209055 -1.5748e-005,-0.00296457 0.00222047,-0.00296457l0.00222441 0 0 0.00148031 0.00161024 0.00011811 -0.0023622 0.00275197 -0.00369291 0.000834646c0.00779134,0 0.0236181,-0.000586614 0.0311732,-0.0014252 0.0104764,-0.00116142 0.0193622,-0.00377559 0.0281024,-0.0045l0.0214843 -0.00592913 0.0140787 -0.0059252 -0.00374409 -0.000543307c-0.00807874,0.00409449 -0.00951969,0.00596457 -0.0199646,0.00572835l0 0.00148425z"/>
   <path id="_91842304" class="fil0" d="M0.754421 0.433728l0.000740157 0 0.0170394 -0.0177835 0.00666929 -0.00888976 -0.000740157 0c-0.00411024,0.00109843 -0.00320079,0.0057874 -0.00963386,0.00592913l0 -0.00222441c-0.00309843,-0.000720472 -0.00494094,-0.00152362 -0.00522835,0.00214567 -0.000251969,0.00315748 -0.000185039,0.00768898 0.000625984,0.00954724l-0.00202756 0.00225591 -0.003 -0.000610236 -0.000153543 0.00392126 -0.00296457 -0.00166142 0.000807087 0.00355906 -0.00213386 0.00158661 0 0.00222441z"/>
   <path id="_237687184" class="fil0 str0" d="M0.992264 0.327035l0.00518504 0 0 0.0059252 0.00222047 0 0 -0.0059252 0.00370472 0 0 0.0177835 -0.0059252 0 0 0.0059252 -0.00592913 0 -0.00100787 0.00316535 -0.000472441 -0.00242126 -0.000448819 0.000653543 -0.00439764 -0.00304331 0.000122047 -0.00116535 0.00449606 -0.00211417 0.000413386 -0.00322441 -0.000185039 -0.00444488c0.00164961,-0.000440945 0.00222441,-0.000173228 0.00222441,-0.00222441l0 -0.00888976zm-0.0674252 -0.12522l-0.00444488 0.00518898 0 0.00222441 0.00444488 0c-0.000362205,0.00329528 -0.0022874,0.00376772 -0.00518898,0.00444094 0.000968504,0.00195669 0.000744094,-0.000606299 0.000744094,0.00222441l0 0.00444488 -0.00590945 -0.00153543 -1.9685e-005 -0.00290945 -0.00255512 0.00270866 0.00116142 0.000149606 0.000295276 0.00227953 0.00257874 5.11811e-005 0 0.0103701 0.00445276 0.000708661 -3.93701e-006 0.00448031 -0.00280709 -0.00170079 -0.000161417 0.00244094c0,0.00143307 -0.000232283,0.0013189 -0.00073622,0.00222441l0.00222047 0 0 0.00148031 0.00153543 0.00591339 -0.0045 0.00372047 -0.00962992 0.0288937c0.000192913,0.0023189 0.000740157,0.00263386 0.000740157,0.00518898l0 0.00222047c0.00165354,0.000440945 0.00222441,0.000173228 0.00222441,0.00222047l0 0.00222441 -0.00222441 0 0 0.00741339 -0.00518898 -4.72441e-005 -2.75591e-005 0.00671654 -0.00317323 0.00275591 -0.00195276 -0.00131102 -5.51181e-005 0.0126299 -0.00375591 0.000425197 -0.000330709 -0.00127559 -0.000334646 0.00159055 -0.00148031 0 -0.000744094 0.00370472 0.000649606 0.00520472 -0.00138976 -1.5748e-005 0 0.00444094 -0.00148031 0 0 0.00518898 0.00296457 0 0 0.00148031 -0.00148425 0 0 0.00296457 -0.00583071 0.00174803 -9.84252e-005 0.00344094 0.00568504 0.00337008 0.000244094 0.00181496 -0.00148031 0 0 0.00148425 -0.00222441 0 0 -0.00296457 -0.00555118 0.00216929 0.000366142 0.000795276 -0.00222441 0 0 0.00148031c0,0.00444094 -0.00105118,0.00731102 0.00148425,0.00814961l-0.00335039 0.00687008 -0.000649606 -0.00322441 -0.00273228 0.00625591 -0.000677165 0.00269291 -0.00108661 0.014811 0.00034252 0.00297244c-0.00694882,0.00015748 -0.00455118,0.012874 -0.00444094,0.0177835l-0.00482283 0.00343307 -0.00129528 0.00468504 -0.00166142 0.00511024 -0.00137402 -0.00195276c-0.00150394,0.00112992 -0.00196457,0.00268898 -0.00196457,0.00576378l0 0.00370472 0.00222441 0 0 0.00444488c0,0.0025748 0.00148031,0.00112992 0.00148031,0.00370472l0 0.00370472 -0.000818898 -0.000326772 -0.00183465 0.00460236 0.00170866 -0.00143701 0.000204724 0.00531102c0.00367717,0.00549213 0.00514961,0.0034252 0.010374,0.00592913l-0.00314173 0.00273228 0.00388189 0.000232283 0.00329134 -0.00258661 0.0115276 -0.000377953 0 0.00222441 -0.0111142 0 0 0.00148031 0.00444488 0 0.0214882 0.00148425 0.0229685 -0.00370866 -0.00222047 0 -4.33071e-005 -0.000944882 0.0207874 -0.00127559 0 0.00444488 0.00148425 0 -3.93701e-005 0.00240157 -0.00440945 -0.000917323 0 0.00296063 0.00127953 1.5748e-005 0.00103543 0.0140551 -0.000937008 7.87402e-006 0.000102362 0.00222441 0 0.00296457 0.00459843 0 -0.000149606 0.00888976 -0.00296457 0 -3.54331e-005 -0.00314173 -0.00408661 0.00109449 -0.00205906 0.00398425 -0.00419291 -0.0026811 0 0.00296457c0.00238583,-0.000933071 0.00148425,-0.000405512 0.00148425,0.00370472l-0.00148425 0 0 0.00296457 -0.00296457 0 0 -0.00148425 -0.00296063 0c-0.000358268,0.0042874 -0.00243701,0.00557874 -0.00666929,0.00592913l-0.000744094 0.000740157 -0.00218898 0.00537795 0.00488976 -0.000917323 0.00030315 0.00726772 -0.00300394 -0.000614173c-0.000795276,0.00220472 -0.0021811,0.00370866 -0.00518504,0.00370866l-0.00148031 0c-0.0025748,0 -0.00113386,-0.00148425 -0.00370472,-0.00148425l-0.00222047 0c-0.000248031,0.00225591 -0.00146063,0.00370472 -0.00370866,0.00370472l-0.0103701 0 0 -0.00148425 0.00370472 0c0.00204724,0 0.00177953,-0.000570866 0.00222047,-0.00222047l-0.00222047 0c-0.00542913,0 -0.0105039,-0.000401575 -0.00963386,0.00370472l-0.0118819 -0.000165354 -0.00625591 0.001 -0.00112598 0.00509055 -0.00296457 0 -3.93701e-005 0.00154724 -0.00144094 -0.00080315 0 0.00222047 0.00305512 -1.5748e-005 0.000649606 0.00520472 0.00405906 0.000527559 -0.00183465 -0.00275197 0.00148031 0 0.00015748 -0.00259055 0.00412205 -0.00183071 0.000913386 0.0044252 -0.00148819 0.00296063 0.0473071 3.93701e-005 0.000854331 0.00144094 0 -0.00148031 0.0311181 0c0.00404331,0 0.0041063,-0.00148031 0.00814961,-0.00148031l0.00592913 0c0.00257087,0 0.00112992,0.00148031 0.00370472,0.00148031l0.0103701 0 0 0.00148031 -0.0214843 0c-0.0025748,0 -0.00112992,0.00148425 -0.00370472,0.00148425l-0.0222283 0 0 0.00148031 -0.010374 0c-0.00257087,0 -0.00112992,-0.00148031 -0.00370472,-0.00148031l-0.0429764 0c-0.00205118,0 -0.00177953,0.000570866 -0.00222441,0.00222047 0.00166535,0.000389764 0.00170472,0.000740157 0.00370866,0.000740157l0.0548268 0c0.0164764,0 0.0348661,-0.00179134 0.0496969,-5.11811e-005 0.00630315,0.000740157 0.0173661,-0.000688976 0.0251378,-0.000688976 0.00420472,0 0.00842913,5.11811e-005 0.0126299,3.54331e-005 0.00312598,-1.5748e-005 0.00361417,0.000181102 0.00511024,-0.00155512 0.00114173,-0.0013189 0.00257874,-0.00260236 0.00300394,-0.00366535l0.00148425 0 0.00011811 0.00335039 0.00729134 -0.00261024 0.00364961 -3.14961e-005 0.00153937 -0.00218898c-0.000232283,-0.000870079 -0.000744094,-0.00202362 -0.000744094,-0.00222441 0,-0.00194488 0.0012126,-0.00192126 0.00157087,-0.00479134l0.00880315 -0.00187795 0 0.00148031 0.00190157 -0.000208661 0.0025748 -0.00278346 -0.00149213 -0.00200394 0.00875984 -0.000905512 0.000850394 0.00442126 0.00524409 -0.00609055 -0.000795276 -0.000574803c-0.00352756,-0.000295276 -0.00501575,-0.00209449 -0.00960236,-0.00225591 -0.00382283,-0.000133858 -0.00801969,3.14961e-005 -0.0118858,3.14961e-005 -0.00790157,0 -0.0158071,0 -0.0237087,0 -0.00790551,0 -0.015811,0 -0.0237087,0 -0.0119331,0 -0.0130472,-8.26772e-005 -0.0222283,-0.00222441l0.00814961 -0.0200039 0.00148031 -0.00741339 -0.000212598 -0.00607874 -0.00362992 -0.00131102 0.000877953 0.00738976 -0.00128346 3.14961e-005 -0.000937008 0.0066378 -0.00148425 0 0 -0.00666929 0.00148425 0 0 -0.00370079c0,-0.0024252 -0.00222441,-0.00194882 -0.00222441,-0.0059252l0 -0.00222441 0.00222441 0 0 0.00370472c0.00630709,-0.00168504 -0.00125591,-0.00797638 0.00666535,-0.00814961l0 0.00296063c0.00105906,-0.00151969 0.000681102,-0.00162205 0.00138976,-0.00305512 0.00120866,-0.00247244 0.00231496,-0.00143701 0.00231496,-0.00287008 0,-0.00169685 -0.000248031,-0.000862205 -0.000740157,-0.00296457l-0.00296457 0 0 -0.00148031 0.00345669 -0.000141732 0.00414173 -0.00581496 -0.000929134 -0.00558268 0.00296457 -0.000318898 0.00666929 -0.0200039 0.0111102 -0.00592913 0.00369685 -0.000834646 0.00235827 -0.00275197 -0.0016063 -0.00011811 0 -0.00148031 -0.00222441 0c-0.00223622,0 -0.00204724,0.000874016 -0.00222441,0.00296457l-0.00518504 0c-0.00211417,0 -0.00135433,-0.000232283 -0.00222047,-0.00148425l0.00370079 0 -0.00838583 -0.00558661 0.00616929 -0.000338583 0 0.00148031 0.00518504 0 0.0244409 0.000901575 0.00061811 -0.00315748 0.0112323 0.000401575 0.00816142 -0.000370079 0.000700787 0.00224409 -0.00885039 -1.9685e-005 0 0.00148425 -0.0118543 0c0.000440945,0.00164961 0.000173228,0.00222441 0.00222441,0.00222441l0.00148031 0 0.0244449 -0.000901575 0.00170472 -0.00264961 -0.00392126 -0.00015748c-0.00211811,0 -0.00135433,-0.000232283 -0.00222441,-0.00148031l0.0118583 0 0 0.00148031 0.0118543 -0.00296063 -0.000244094 -0.00594488 0.00246457 1.5748e-005c0.00211811,0 0.00135827,-0.00023622 0.00222441,-0.00148031l-0.00740945 -0.00444488 -0.00592913 0c-0.000866142,-0.00214173 -0.00525591,-0.0029685 -0.00814961,-0.0029685l-0.00666929 0 0 0.00222441c0.0023189,-0.000188976 0.00263386,-0.000740157 0.00518898,-0.000740157l0.00222047 0 0 0.00148425 -0.00222047 0c-0.00287402,0 -0.000137795,0.00136614 -0.00518898,0.00148031 -0.000728346,-0.00180709 -0.00179921,-0.00222441 -0.00444488,-0.00222441 -0.00744094,0 -0.0124764,0.000779528 -0.0192717,0.000732283 -0.0037126,-2.3622e-005 -0.0162677,0.00300394 -0.0177717,-0.000732283l0.00073622 -0.00518504 0.00370472 -0.0185236 0.00370472 -0.0155591 0 -0.00296457 -0.00223622 0.000700787 1.1811e-005 -0.0029252 0.00314961 -0.00430709c-0.00201969,-0.0036063 -0.0012126,-0.00832677 0.00277953,-0.011252l0.000409449 0.00159449 0.000330709 -0.00159449 0.00222441 0c0.000110236,-0.00487795 0.00448425,-0.00937402 0.00518898,-0.0148189l0.000858268 -0.0103543 -0.00311811 0.000594488 3.54331e-005 -0.00653937c0.000893701,-0.00133858 0.00148031,-0.00130315 0.00148031,-0.00296457l0 -0.00222047 0.00281102 -0.00169685 0.00105512 0.00538189 0.00057874 1.9685e-005 0 -0.00444488 0.00176772 0.00436614 0.00119685 7.87402e-005c0.00011811,-0.00524803 0.00296457,-0.00469685 0.00296457,-0.0118583l0 -0.00444094 0.00224016 -0.000700787c-1.5748e-005,-0.00401181 0.000370079,-0.0118976 0.00368898,-0.0118976l0.0214843 0c0.00473622,0 0.00564173,0.00148031 0.010374,0.00148031l0.00592913 0 0 0.00148031 0.00222441 0c0.0025748,0 0.00112598,-0.00148031 0.00370079,-0.00148031 0.00135039,0 0.00608661,0.00374803 0.00666929,0.00592913l0.00518898 0.00148425 0.00692913 -0.00305118 0.00196063 -0.00065748c0.000775591,0 0.00424016,0.00196063 0.00740945,0.00222441 -0.00106299,0.00272047 0.00222047,0.000244094 0.00222047,0.00740945 -0.00483858,-0.00556693 -0.000488189,-0.00186614 -0.00740551,-0.00518898l-0.00280709 0.00174016c0.00195276,0.00373228 0.00324016,0.00225591 0.00505118,0.00491339 0.00312992,0.00459055 -0.00128346,0.00374409 0.00516142,0.00224016l0 0.00148031 0.00374409 -0.00053937 -3.54331e-005 0.00720866 -0.0024252 0.00116535 0.00107874 0.00248819 0.00342913 -0.00114173 0.000137795 0.0212008c0,0.00274803 -0.00107087,0.00134646 -0.00261811,0.00256299 -0.00221654,0.00175197 -0.000181102,0.00076378 -0.00182677,0.0033622l-0.000744094 0.00814961c0,0.0045 0.00203543,0.011126 -0.00148031,0.00740945l-0.000929134 0.00738583c0.00199606,0.000751969 0.00240945,0.00182283 0.00240945,0.0044685 0,0.00162205 -0.000669291,0.00137795 -0.000740157,0.00444882 -0.00343307,7.08661e-005 -0.00437008,0.00100787 -0.00444488,0.00444488l-0.00296063 0 -0.000744094 0.00296063 0.00222441 0 0 0.00148425 0.00148031 0 0 0.0140787 0.00296457 0 0 -0.0111142 -0.00148425 0 0 -0.00148425 0.00148425 0 0 -0.00296457 0.00445669 -0.00145669 0.000240157 0.00737795 0.00567717 8.66142e-005 0 0.00288583 -0.00296457 0 -0.00270472 0.00493307 0.00493307 0.000153543 -3.93701e-006 0.00306299 0.0059252 -0.00370472 0.00296457 -0.00296457 0.00255118 -0.00337402 0.00129134 -0.00697638 -0.00445276 0.00182283 -0.000712598 -0.000826772 0.00532283 -0.00670866c0.00207874,-0.000185039 0.00340945,-0.000480315 0.00340945,0.00198425 0,0.000929134 -0.00137402,0.00148425 -0.00222047,0.00222441l0.00443701 0.000228346 3.93701e-006 -0.00541732 0.00281102 -0.00169291 -0.00136614 -0.00272835c0.00339764,-0.00701969 -2.75591e-005,-0.00312598 0.00670472,-0.00668898l0.00508661 0.00181102 0.000102362 0.00188976 0.00296457 -0.00073622 0.00740945 -0.0088937 0.00444488 -0.00740945 0.00814961 -0.0237087 -0.000740157 -0.0177835c-0.00209055,-0.000173228 -0.00296457,1.5748e-005 -0.00296457,-0.00222047l0 -0.00444882 -0.00293307 0.000834646 -0.00174016 -0.00520866 0.00322441 -0.000681102 -0.000909449 -0.00229921 -0.00208661 -5.11811e-005 -0.00383465 0.00567717 -0.000425197 -0.00419685 -0.000185039 -0.00222441 0.00296457 0 -0.000854331 -0.00442126 -0.00359449 -7.87402e-006 0.000854331 -0.00443701 -0.00270472 -0.00187795 -0.00259449 -0.000366142 0 -0.0029685 -0.00447638 -0.00216929 -0.00735827 -0.000929134 -1.9685e-005 -0.00208661 -0.00370472 0 0 -0.00222047 -0.00369685 -0.000771654c-0.00146063,0.000799213 -0.00219291,0.00150787 -0.00445276,0.00150787l-0.00148425 0c-0.00211417,0 -0.00135433,-0.000232283 -0.00222047,-0.00148031l0.00448031 -0.000488189 -0.00235433 -0.00233858 0.00157874 -0.000877953c-0.0111457,-0.00534646 -0.068374,-0.00370472 -0.0881732,-0.00370472l-0.00148031 0 0 -0.0059252c0,-0.0025748 0.00131496,-0.00104331 0.00222441,-0.00444488l-0.00139764 -0.00298425 0.0021378 1.9685e-005 0 -0.00222441 -0.010378 0.000712598 -0.00370079 2.75591e-005 0 0.00148425 -0.00296457 0 0 -0.00148425 0.00230315 -0.000334646 -0.0045 -0.00125984c-0.000188976,0.00749213 -0.0048937,0.00255906 -0.00669291,0.00752362l-0.00317717 -0.000633858 -0.00351969 0.000114173 -0.00144094 0.00394094 -0.000889764 -0.000401575 0.000834646 0.0021811 -0.00396457 -0.00159055 -0.00192126 -0.000645669c-0.00142913,0 -0.0013189,0.000232283 -0.00222047,0.000740157l0.00167717 0.00361811 -0.00390157 8.66142e-005c-0.00142913,0 -0.0013189,-0.00023622 -0.00222441,-0.000740157 -0.000893701,0.00133858 -0.00148031,0.00130315 -0.00148031,0.00296063l0 0.00222835 -0.00148425 0 0 0.00444094 -0.00888976 0c-0.00241732,0 -0.00244094,-0.00038189 -0.00370079,-0.00148031l-0.0029685 0.000740157 -0.00294882 0.00084252 0.00365748 0.00149213 0.00242126 0.00342913 0.000574803 -0.000574803 0 0.00148031 -0.00444094 0 0 -0.00148031 -0.0029685 0c-0.00156299,0.00325984 0.000334646,0.00359449 -0.00444488,0.00370079l0 0.00444882c0,0.00165748 -0.000582677,0.00162598 -0.00148031,0.00296063l0.00296457 0.00444882 0.00443701 0.000830709 -0.00517717 0.0139882 -0.0192677 0.0555669 0.000740157 0.010126 -0.00222047 0.000248031c0.000948819,0.00408268 -0.000255906,0.00558661 -0.00378346,0.00740551l7.87402e-005 0.00593307c-5.11811e-005,0.00125197 -0.00209055,0.00237795 -0.00296063,0.00296063 0.000602362,0.00726378 0.000515748,0.00562205 -0.0029685,0.010374 0.000897638,0.00133858 0.00148425,0.00130315 0.00148425,0.00296457l0 0.00222441 0.00148425 0 0 0.00296063 -0.000606299 0.000433071 -0.0023622 -0.0041378 -0.00174016 -2.75591e-005 -0.000480315 0.00892126c-0.000771654,0.00651181 -0.00296457,0.00276378 -0.00296457,0.00962992l-0.000893701 -1.5748e-005 0.000153543 0.00446457 -0.00015748 0.00391732 -0.00280709 -0.00169685 0.000240157 0.00223228 -0.000275591 0.00530709 0.003 0.000610236 0 0.00222441 -0.00444488 0 -5.51181e-005 0.00430709 -0.00180709 0.000744094 -0.00185039 -0.00507874 -0.00369685 0.000767717 0 -0.00222441 -0.00222441 0 0 0.00148425 -0.00297638 -0.000173228 -0.0123346 0.000913386 -0.000244094 -0.00188976 0.0103701 -0.000334646 0 -0.00148031 -0.00370472 -0.000137795 -0.0125945 0.000137795 0 -0.00296457c-0.0039252,-0.000429134 -0.00370472,-0.00384252 -0.00359843,-0.00824016l-0.00169685 -0.00204331 0.000783465 -0.000165354 -0.00144882 -0.0126496 0.00299213 -0.000610236 0 -0.00444882c0.00286614,-0.0010315 0.0029685,-0.0050748 0.00285827,-0.00897638l0.00145669 -0.00215354 0.000913386 -0.00732677 0.00144094 -0.00080315 0.00148425 -0.00592913 0.000893701 -0.0118425 -0.00163386 -1.1811e-005 -0.000759843 0.0059252 -0.00220472 3.93701e-006 0 -0.00222441c0,-0.00161417 0.00159449,-0.00463386 0.00296457,-0.00518504l0 -0.00444882 0.00207874 0.00230709c0.000586614,-0.00412205 0.00404331,-0.00642126 0.00544488,-0.00959843 0.00115748,-0.00261811 0.00241339,-0.00924016 0.00339764,-0.0106811 0.00402756,-0.00588583 0.00597638,-0.0133307 0.00982283,-0.0190709l0.000877953 -0.0073937 0.00208661 -1.9685e-005 0.000334646 0.00230315 0.00133858 -0.00523228 -0.00167323 -3.14961e-005 0.00170866 -0.0118268 0.0036063 0.00114961 0.0033189 -0.00300787 -0.000444882 0.00258268 0.0104291 -0.00577953c-0.00324016,-0.001 -0.00138976,-0.00164173 -0.00379921,-0.00164173 -0.00279134,0 -0.00140157,0.000484252 -0.00444882,0.000740157l0.00134252 -0.00305118c-0.00237008,-0.000496063 -0.00504724,-0.000185039 -0.00504724,-0.00287795 0,-0.00106693 0.0034252,-0.00184646 0.00518898,-0.00518504l-0.00440945 -0.00092126 0.0018189 -0.00241339 -0.00107874 -0.000480315 -3.54331e-005 -0.00137008 0.00148425 0 -0.000874016 -3.93701e-005 0.000834646 -0.0185197 0.000775591 3.54331e-005 0 -0.00296457 0.00148425 0 0 0.00815354 0.00370472 -0.00370866 0.00345276 -0.00971654 0.00692126 -0.0221417 0.00518504 -0.0163031 0.00222441 -0.00740945 0 -0.00518504 -0.00148031 0 -0.000614173 -0.00299606 0.00311811 -0.00575197 0.00338189 -0.00103543 0.000779528 0.00237402 0.00815354 -0.0155591 0.00222047 -0.00518898 -0.000767717 -0.00369685c-0.0033189,-0.000283465 -0.00516142,-0.00462205 -0.00516142,-0.00667323l0 -0.00370866 -0.00148031 0 0 -0.00148031 0.00159449 -0.000405512 -0.00279134 -0.00299213c-0.000531496,0.000830709 -0.00273228,0.00339764 -0.00473228,0.00339764 -0.00125197,0 -0.00276772,-0.000984252 -0.00370079,-0.00148031l-0.00280709 0.00174016 -0.000161417 0.00122047c0.00165354,0.000444882 0.00222441,0.000177165 0.00222441,0.00222441l0 0.00222441 -0.0125945 0c0.000968504,0.00195276 0.000740157,-0.000610236 0.000740157,0.00222441l0 0.00222047 -0.00311417 0.00283465 -0.00355118 0.000129921 0.000877953 -0.00216929 -0.00268504 0.0017874 -0.00338189 0.00038189 -0.00129134 0.00548819 -0.000933071 -0.00030315 0 0.00370866 -0.00546457 0.00235827 0.000240157 0.000755906 -0.00365748 -0.00092126 -0.00255906 0.00273622 0.00181102 0.000255906c-0.00103937,0.0044685 -0.00287795,0.00338976 -0.00740945,0.00444094l0.000200787 0.00593307 -0.000200787 0.00222047 -0.00148031 0 0 0.00148425 -0.00616535 0.0015 0.000350394 0.000669291 0.00169685 0.00359843 -0.00473228 -0.00142913 0.000566929 -0.00288976 -0.00209055 -0.000712598z"/>
   <path id="_97541008" class="fil2 str0" d="M0.595858 0.178106l-0.00444094 0.00148031 0.0033622 0.0025c-0.00235433,-0.0005 0.000208661,-0.000271654 -0.00262598,-0.000271654l-0.00370079 0 -0.000248031 0.00444094 -0.0023622 0.00426772c-0.00423228,0.00125591 -0.00487402,4.33071e-005 -0.00405906,0.00388583l-0.00444488 0 -0.00161417 -0.00337402 -0.00131102 0.00264961 0.00248819 0.00262598 -0.00549213 0.000318898 0.00220472 -0.000846457 1.5748e-005 -0.00434252 -0.00497244 0.00382677 0.000531496 0.000622047 0.00148031 0c-0.00622047,0.00928346 -0.00359449,0.00382677 -0.0125984,0.0059252l0 0.00222441 0.00370472 0 -0.00228346 0.00623228 -0.000677165 -0.00030315 0 0.00444488 -0.00148425 0 0 0.00518504 -0.00293307 0.000830709 0.000582677 0.00290945 0.00280709 -0.00263386 0.00843701 -0.000216535c0.0034252,-0.00662205 0.0110866,-0.00430709 0.0133386,-0.0105197l0.00222047 0 0.0125827 -0.000874016 -0.00180315 -0.00341732 0.00724016 -0.0058189 0.00409843 0.0015748 0.000110236 0.00038189 -0.00370472 0 0 0.00222441 0.00888976 0c0.00225984,0 0.00299213,0.000712598 0.00444488,0.00148031 0.00265354,-0.000614173 0.00348425,-0.00148031 0.00666929,-0.00148031l0.00962992 0 0 0.00222441 0.00593307 0c0.00355906,0 0.0106614,0.000866142 0.00209843,0.000866142l0.0276969 0.00304724 0.00727165 -0.00162992 -0.000917323 0.00360236 0.00276772 0.000909449 0.000350394 -0.000870079 0.00148031 0 0 0.00148031 0.00148031 0c-9.84252e-005,-0.00455118 -0.000523622,-0.00385039 -0.00296063,-0.00221654l0.000830709 -0.00293701 0.00287402 -3.14961e-005c0.0026378,0 0.00290157,0.00175591 0.00296063,0.00444882l-0.00148031 0 0.00144488 0.000850394 -0.000854331 0.00355512 0.00237402 3.54331e-005 0.000413386 0.00739764 -0.00560236 1.5748e-005c0.000677165,0.00146063 0.00119685,0.00296063 -0.00148031,0.00296063l-0.00370472 0 0 -0.00148031 -0.00222047 0 0.000830709 0.00293701 -0.0025748 0.00278346 -0.00348425 -0.000279528 -0.00425197 0.011811 -0.00323622 0.00879921 0.00142126 0.0036063 -0.00588189 0.010689 -0.00127953 0.00855906c-0.000314961,0.0026811 0.00105512,0.000133858 0.00141339,0.00444094 -0.00172047,0.00046063 -0.00666929,0.00540157 -0.00666929,0.00740945l0 0.00296457c0,0.00418504 0.00148425,0.00405118 0.00148425,0.0088937l0.00518504 0 0 0.00444094 0.00740945 0 -0.00216535 0.00742913 -0.00227953 -1.5748e-005 0 -0.00148425 -0.00296457 0 0 0.00222441 0.00518504 0 0.000893701 0.00366535 0.00207087 3.93701e-005 0 -0.00296457 0.0030315 0.00365354 -0.000996063 0.00520472 -0.00203543 3.54331e-005 0.000893701 -0.00366929 -0.00311811 -3.93701e-005 0 0.00666929 0.00127953 -0.0016063 0.000204724 0.00457087 0.00169291 -0.00390157 -0.000212598 0.00538189 0.00398819 -0.00952756 0.00194094 0.000637795 0.00148031 -0.00370472 0.000744094 -0.000740157 0.0059252 -0.0148189 0 -0.000740157c0.00214961,-0.00922835 0.0111142,-0.0259567 0.0111142,-0.0363071l0 -0.00222441 -0.00148425 0 0 -0.00370079 0.00146457 -0.0133425 -0.00146457 3.93701e-006 0 -0.00740945 -0.00296063 0 0.0017874 -0.00431102 0.00117323 -0.000133858 -0.000523622 0.000570866 0.00306693 0.00284646 0.000425197 0.00399213 0.00445276 -0.000704724c0.000287402,0.00267323 0.00195276,0.00316535 0.00222047,0.0073622 0.000192913,0.00291732 -7.87402e-006,0.00663386 -7.87402e-006,0.00964173l0.00216929 0.000877953 5.51181e-005 0.0117165 0.000866142 0.0111063 -0.00235039 7.87402e-006 0.00096063 0.0170315c0.000677165,0.00134646 0.00126378,0.00131496 0.00126378,0.00297638l0 0.00962992 0.00222047 0 -0.000732283 0.0259291 0.0010315 0.000114173 0.00114173 -0.00309055 0.00300394 1.5748e-005 0 0.00296457 0.00133465 -0.000444882 0.000149606 0.00340945 -0.00181496 0.00354331 -0.00190551 -0.00053937 -0.000799213 0.00884252 0.00299606 0.000909449 3.93701e-005 0.0102087c0,0.00212205 -0.000232283,0.00135827 -0.00148031,0.00222441l-0.000850394 -0.00604724 0.000330709 0.0216024c0.00435433,0.00683465 -0.000330709,0.0389055 0.00793307,0.0422362l0 0.00444882c0,0.00273622 -0.00177559,0.00120079 -0.00148425,0.00370472l0.000885827 0.00887402 0.00102362 -0.00231496 0.000311024 0.00381496 0.00133465 -0.000444882c0.000535433,0.0021063 0.000889764,0.00214961 0.000889764,0.00414961 0,0.0040748 -0.00238189,0.0053189 0.00148031,0.00814961l0.000248031 -0.00888976c-0.000248031,-0.001 0.000574803,-0.00111417 0.00123228,-0.00148425l0 0.00444488 0.0029685 0 0 0.00148031 -0.00148425 0 0.000314961 0.0044252c0.00296063,0.000377953 0.00213386,0.00224409 0.00635433,0.00224409 9.84252e-005,0 0.0014685,-0.000724409 0.00148425,-0.00073622l-0.00174016 -0.00280709 0.00616929 0.00210236 0.0037874 -0.00425984 0.00145276 -0.000161417 0.00150787 -0.000846457 -0.00080315 -0.00144094c0.00422047,-0.00309449 -0.00417717,-0.00220079 0.00567323,-0.00220079l0.012311 -0.0106535 -0.000413386 -0.00150787 0.00160236 -0.00130315 -0.000807087 -0.00355906 0.00296457 0.00166142 0.000153543 -0.00392126 0.003 0.000610236 0.00202756 -0.00225591c-0.000811024,-0.00185827 -0.000877953,-0.00638976 -0.000625984,-0.00954724 0.000287402,-0.00366929 0.00212992,-0.00286614 0.00522835,-0.00214567l0 0.00222441c0.00643307,-0.000141732 0.0105551,-0.00654331 0.00987795,-0.0067874l-0.00116142 -0.00355118 -0.0027874 -3.54331e-005c-0.00175197,0 -0.00348031,0.0039685 -0.00370472,0.00666929 -0.00164961,-0.000444882 -0.00222441,-0.000177165 -0.00222441,-0.00222441l0 -0.00148425c0,-0.00709055 0.00669291,-0.00564961 0.010374,-0.00370079l0.00336614 -0.0112205 -0.00298425 -0.00404331 0.00406693 -0.000295276 0.000830709 0.00293307 0.00287008 2.75591e-005c0.00096063,-0.00358661 0.00296457,-0.00247638 0.00296457,-0.00518504l0 -0.00296063 0.00148425 0 0.00148031 0.00666535 0.00275197 -0.00183465 0.000212598 -0.00261024c0.00232283,-0.000622047 0.00444488,-0.00407087 0.00444488,-0.00592913 0,-0.00156693 -0.00026378,-0.000976378 -0.000744094,-0.00296063l0.00222441 0 0.000295276 -0.0051811 0.00266929 -7.87402e-006 0 -0.00444488 0.00370472 0 0 -0.00222441 0.00670866 -0.000279528 0.000673228 -0.00713386c-0.00162598,-0.000433071 -0.00219685,-0.000165354 -0.00219685,-0.00221654l0 -0.00222441 0.00444882 0 0.000330709 0.00230315c0.000633858,-0.00212205 0.00253543,-0.00600787 0.00485433,-0.00600787l0.00222047 0 -0.000102362 -0.000830709 0.00227953 -0.000291339 -0.00124409 -0.0051063 -0.00130315 -6.69291e-005 0.00222441 -0.00222441 0.000370079 -0.00333465c0,-0.002 0.000354331,-0.00204331 0.000740157,-0.00370472l-0.000901575 -0.00292126 -0.00290945 -0.000464567 0.000110236 0.00338583 -0.0029685 0 0 -0.00370472 -0.00222047 0 0 0.00370472 -0.00518504 0 0 -0.00370472 -0.00222441 0 -0.000700787 0.00223622 0.0021811 -1.1811e-005 0.000854331 0.00441732 0.0102638 2.75591e-005 0 0.00444488 -0.00518898 0c-0.000425197,0.00117323 -0.00168898,0.00296457 -0.00296457,0.00296457 -0.00156693,0 -0.000976378,-0.000267717 -0.00296457,-0.000740157l0.000228346 -0.00444094 -0.0028189 0.00184646 -0.00851969 0.000507874 -0.000145669 -0.000877953 0.00527559 -0.00102756 -0.00661417 -0.00342126 -0.00174016 0.00280709 0.00248031 0.000161417 0 0.0103701 -0.00148031 0 0 0.00222047 -0.00590551 -0.000866142 -0.000724409 0.00236614 -0.00528346 0.000314961 0.00187402 0.00396063 -0.00333465 -0.000456693 0.000771654 0.0005 -0.00444094 0.00518898 -0.000740157 -0.000633858 0 0.00296457 -0.00444488 0 0 0.00444882c-0.00209055,0.000173228 -0.00296457,-1.9685e-005 -0.00296457,0.00222047l0 0.00222441 -0.00444488 0c-0.00166142,0 -0.00162598,0.000582677 -0.00296457,0.00148031l-0.00218898 -0.00153543 -0.00374016 5.51181e-005 -0.00148031 -0.020748 -0.00370472 -0.035563 -0.00370472 -0.0251929 -0.00888976 -0.0577913 -0.000744094 -0.00592913 0 0.00296457 -0.00148031 0 0 -0.00222047c0,-0.00110236 -0.00159843,-0.00327165 -0.00222441,-0.00444882l0.000925197 -0.00813386 -0.000925197 -1.5748e-005 0 0.0059252 -0.00296063 0 0.00252362 -0.0147638 -0.000299213 -0.0289488c0,-0.00543701 -0.00145669,-0.0100709 -0.00592913,-0.0111142l-0.000917323 0.00440945 -0.00427165 3.54331e-005 0 0.00296457 -0.00445276 -0.000704724 0.00345669 -0.00269291 0.000830709 -0.000137795 -0.00370472 -0.00370472 0.00683465 -0.000181102c-0.00118898,-0.000814961 -0.00233858,-0.00147244 -0.00444488,-0.00147244 -0.00185433,0 -0.00487008,0.00106693 -0.00666929,0.00148425l0.0017874 0.00431102 -0.00539764 -0.00158661 -9.44882e-005 0.00320472 -0.00441732 -0.000854331 -0.000728346 0.00235039 -0.0200354 0.000901575 -0.011122 -0.000177165c-0.00404724,0 -0.0041063,-0.00148031 -0.00815354,-0.00148031l-0.00888976 0 -0.0103661 -0.000779528 -0.010378 3.93701e-005 -0.0214803 0.000893701 -7.87402e-006 0.00132677 -0.00222441 0 0 0.00370472 -0.00148031 0 0 0.00148425 -0.00814961 0 -0.0125984 -0.000744094z"/>
   <path id="_97540864" class="fil0" d="M0.967807 0.374457l-0.010374 0.0311142 -0.0059252 0.0163031 -0.00401181 0.0147244 -0.00265748 9.44882e-005 -0.00962992 -0.00148425 -0.0163858 -0.00415354 8.66142e-005 -0.00844094 0.00148031 -0.0125945 0 -0.00222441 0.00370472 -0.0214843 -0.00144488 0.00080315 -0.000913386 0.00732677 -0.00145276 0.00215354c0.000106299,0.00390157 3.93701e-006,0.00794488 -0.00285827,0.00897638l0 0.00444882 -0.00299606 0.000610236 0.00145276 0.0126496 -0.000787402 0.000165354 0.00169685 0.00204331c-0.000106299,0.00439764 -0.000322835,0.00781102 0.00359843,0.00824016l0 0.00296457 0.0125945 -0.000137795 0.00370472 0.000137795 0 0.00148031 -0.0103701 0.000334646 0.000244094 0.00188976 0.0123346 -0.000913386 0.00297638 0.000173228 0 -0.00148425 0.00222441 0 0 0.00222441 0.00369685 -0.000767717 0.00185039 0.00507874 0.00180709 -0.000744094 5.51181e-005 -0.00430709 0.00444488 0 0 -0.00222441 -0.00299606 -0.000610236 0.000271654 -0.00530709 -0.00023622 -0.00223228 0.00280709 0.00169685 0.000153543 -0.00391732 -0.000153543 -0.00446457 0.000897638 1.5748e-005c0,-0.00686614 0.00218898,-0.00311811 0.00296063,-0.00962992l0.000480315 -0.00892126 0.00174409 2.75591e-005 0.00235827 0.0041378 0.000606299 -0.000433071 0 -0.00296063 -0.00148031 0 0 -0.00222441c0,-0.00166142 -0.000590551,-0.00162598 -0.00148425,-0.00296457 0.00348031,-0.00475197 0.00356693,-0.00311024 0.00296457,-0.010374 0.000870079,-0.000582677 0.00290945,-0.00170866 0.00296063,-0.00296063l-7.87402e-005 -0.00593307c0.00352756,-0.0018189 0.00473622,-0.00332283 0.00378346,-0.00740551l0.00222441 -0.000248031 -0.000744094 -0.010126 -0.0041811 0.0109488 -0.00100394 0.000909449z"/>
   <path id="_91842016" class="fil13" d="M0.736638 0.449287l0.00592913 -0.00444488 0.00296063 -0.00296457c-0.00985039,0 -0.0039252,0.000610236 -0.00814567,0.00370472l0.00080315 0.00144094 -0.00150787 0.000846457 -3.93701e-005 0.00141732z"/>
   <path id="_237686824" class="fil2 str0" d="M0.481016 0.436693l-0.00251575 0.00318898 0.00399606 0.00199606 -3.93701e-005 0.00354331 -0.00292126 0.000905512c0.000188976,0.00231496 0.000740157,0.00262992 0.000740157,0.00518504l0 0.00296457 0.00148031 0 0 0.00296063 0.0214882 0c0.00330315,0 0.00114567,-0.00296063 0.00444882,-0.00296063l0.00446063 0.000393701 0.0125787 -0.000811024 0.0162992 -0.000326772 0 -0.00296063 0.00222047 0c0.00346457,0 0.00412598,-0.00222441 0.00963386,-0.00222441l0 -0.00148425 0.00590551 3.93701e-006 4.33071e-005 0.00479921 0.0140591 -0.00109449 0.00274803 -0.00254724 -0.00309055 -0.00214567 0.00256299 -0.000496063c0.00796063,0 0.00616142,-0.00244488 0.00963386,-0.00370472l0 -0.00370472 -0.00518504 0 0.0033189 -0.00414567 0.00482677 0.00118898 0.00226772 -0.00367717c-0.00169685,-0.000472441 -0.00226772,-0.000208661 -0.00226772,-0.00225591l0 -0.00370472 -0.00518504 0 0 -0.00518504 -0.00666929 0 0 -0.00148425c-0.016437,0.00383071 -0.0351969,0.00148425 -0.0548268,0.00148425l-0.00963386 0c-0.00255118,0 -0.00286614,0.000547244 -0.00518504,0.00073622l0 0.00148425 0.0111142 0 0 0.00370472 -0.0229685 0 -0.00161417 0.00337795 -0.00144094 -0.00335039 -0.00284252 0.00080315 -3.14961e-005 0.00213386c0,0.00613386 -0.00327165,0.00220866 -0.00370472,0.00740945l-0.00370472 0z"/>
   <path id="_97540720" class="fil0" d="M0.506209 0.458921c0.00844094,0 0.0250748,-0.00177559 0.0339252,-0.00312205 0.00898819,-0.0013622 0.0269488,-0.000992126 0.0327598,-0.00502756l-0.0140591 0.00109449 -4.33071e-005 -0.00479921 -0.00590551 -3.93701e-006 0 0.00148425c-0.00550787,0 -0.00616929,0.00222441 -0.00963386,0.00222441l-0.00222047 0 0 0.00296063 -0.0162992 0.000326772 -0.0125787 0.000811024 -0.00446063 -0.000393701c-0.00330315,0 -0.00114567,0.00296063 -0.00444882,0.00296063l-0.0214882 0 0 -0.00296063 -0.00148031 0 0 -0.00296457c0,-0.00255512 -0.000551181,-0.00287008 -0.000740157,-0.00518504l0.00292126 -0.000905512 3.93701e-005 -0.00354331 -0.00444094 -0.00222047c-0.00306693,0.00205118 -0.00518898,0.00532677 -0.00518898,0.0103701 0,0.0128307 0.019874,0.0088937 0.0333425,0.0088937z"/>
   <path id="_96846472" class="fil3 str0" d="M0.986331 0.493l0.00222047 -0.00370079 0.00888976 -0.0318622 -0.00296063 0.000318898 0.000925197 0.00558268 -0.0041378 0.00581496 -0.00345669 0.000141732 0 0.00148031 0.00296457 0c0.000488189,0.00210236 0.000740157,0.00126772 0.000740157,0.00296457 0,0.00143307 -0.0011063,0.000397638 -0.0023189,0.00287008 -0.000708661,0.00143307 -0.000330709,0.00153543 -0.00138583,0.00305512l0 -0.00296063c-0.0079252,0.000173228 -0.000362205,0.00646457 -0.00666929,0.00814961l0 -0.00370472 -0.00222047 0 0 0.00222441c0,0.00397638 0.00222047,0.0035 0.00222047,0.0059252l0 0.00370079 -0.00148031 0 0 0.00666929 0.00148031 0 0.000940945 -0.0066378 0.00127953 -3.14961e-005 -0.000874016 -0.00738976 0.00362598 0.00131102 0.000216535 0.00607874z"/>
   <path id="_237670576" class="fil0 str0" d="M0.92261 0.461142l0.00148425 0 0.0118543 -0.000799213 0 0.00302362 -0.00148031 0.00814961 -0.00222441 0.010374c0,0.00807087 -0.00613386,0.0152283 -0.00740945,0.0200039l0 0.00148031 0.00296457 0 0 0.00148425 0.00296457 0 0 -0.00296457 0.00148031 0c0,-0.00411024 0.000901575,-0.0046378 -0.00148031,-0.00370472l0 -0.00296457 0.00418898 0.0026811 0.00205906 -0.00398425 0.00408661 -0.00109449 3.93701e-005 0.00314173 0.00296063 0 0.000149606 -0.00888976 -0.00459449 0 0 -0.00296457 -0.000106299 -0.00222441 0.000937008 -7.87402e-006 -0.00103543 -0.0140551 -0.00127953 -1.5748e-005 0 -0.00296063 0.00441339 0.000917323 3.54331e-005 -0.00240157 -0.00148031 0 0 -0.00444488 -0.0207913 0.00127559 4.33071e-005 0.000944882 0.00222047 0z"/>
   <path id="_237686680" class="fil8" d="M0.918165 0.509303c0.00423622,-0.000350394 0.00631102,-0.00164173 0.00666929,-0.00592913l0 -0.00148031 -0.00666929 0.00740945z"/>
   <path id="_91825624" class="fil10 str0" d="M0.843331 0.541906l0.0214882 -0.000740157 -0.000649606 -0.00520472 -0.00305512 1.5748e-005 0 -0.00222047 0 -0.00518504 -0.0118543 0 0 0.0111102 -0.00963386 0c-0.00208661,0 -0.00137008,0.000322835 -0.00221654,0.00139764l0.00592126 0.000826772z"/>
   <path id="_237670408" class="fil0 str0" d="M0.816657 0.538201l0.000137795 0.00235039 -0.0031063 0.00361024 0.00607087 1.9685e-005 -0.000877953 0.00216929c0.00515354,0 0.0100354,0.00103543 0.0147913,0.000771654 0.00649606,-0.000358268 0.00997244,-0.00184646 0.0148465,-0.00225197 -0.000870079,-0.00124803 -0.000110236,-0.00148425 -0.00222441,-0.00148425l-0.00888976 0 0 -0.00148031 0.0059252 0 -0.00592126 -0.000826772c0.000846457,-0.0010748 0.000129921,-0.00139764 0.00221654,-0.00139764l0.00963386 0 0 -0.0111102 0.0118543 0 0 0.00518504 0.00144488 0.00080315 3.93701e-005 -0.00154724 0.00296457 0 0.00112205 -0.00509055 0.00625984 -0.001 0.0118819 0.000165354c-0.000874016,-0.0041063 0.00420079,-0.00370472 0.00962992,-0.00370472l0.00222441 0c-0.000440945,0.00164961 -0.000173228,0.00222047 -0.00222441,0.00222047l-0.00370472 0 0 0.00148425 0.0103701 0c0.00224803,0 0.00346063,-0.00144882 0.00370866,-0.00370472l0.00222047 0c0.0025748,0 0.00112992,0.00148425 0.00370472,0.00148425l0.00148425 0c0.003,0 0.00438976,-0.00150394 0.00518504,-0.00370866l0.003 0.000614173 -0.00030315 -0.00726772 -0.00488976 0.000917323 0.00219291 -0.00537795c-0.00767717,0.00406693 -0.0115512,0.00779528 -0.0222913,0.0095748 -0.0102283,0.00169291 -0.0190276,0.00159843 -0.0310591,0.00153543 -0.0218661,-0.000114173 -0.0357992,0.00694882 -0.0474173,0.0170472z"/>
   <path id="_97540432" class="fil0 str0" d="M0.864819 0.541165l-0.0214882 0.000740157 -0.0059252 0 0 0.00148031 0.00888976 0c0.00211417,0 0.00135433,0.00023622 0.00222441,0.00148425 -0.00487402,0.000405512 -0.00835039,0.0018937 -0.0148465,0.00225197 -0.00475591,0.00026378 -0.0096378,-0.000771654 -0.0147913,-0.000771654l0.000877953 -0.00216929 -0.00607087 -1.9685e-005 0.0031063 -0.00361024 -0.000137795 -0.00235039c-0.00123622,0.000826772 -0.0059252,0.00538976 -0.0059252,0.00666929 0,0.0053622 0.0459528,0.00518504 0.0540866,0.00518504l0.0281575 0c0.0315276,0 0.0618661,-0.000740157 0.0926142,-0.000740157 0.00765354,0 0.015315,0 0.0229685,0 0.0125591,0 0.0115709,-0.000385827 0.0210433,-0.00266929 0.00629921,-0.00151575 0.0117992,-0.00416142 0.0169016,-0.00606299 0.00525197,-0.00196063 0.0126575,-0.0066378 0.0161457,-0.00757087l0.00073622 -0.00148031 -0.000850394 -0.00442126 -0.00875984 0.000905512 0.00149606 0.00200394 -0.00257874 0.00278346 -0.00189764 0.000208661 0 -0.00148031 -0.00880709 0.00187795c-0.000358268,0.00287008 -0.00156693,0.00284646 -0.00156693,0.00479134 0,0.000200787 0.000507874,0.00135433 0.000740157,0.00222441l-0.00153937 0.00218898 -0.00364961 3.14961e-005 -0.00729134 0.00261024 -0.000114173 -0.00335039 -0.00148425 0c-0.000429134,0.00106299 -0.0018622,0.00234646 -0.00300394,0.00366535 -0.0015,0.00173622 -0.00198819,0.00153937 -0.00511417,0.00155512 -0.00420079,1.5748e-005 -0.00842126,-3.54331e-005 -0.012626,-3.54331e-005 -0.00777165,0 -0.0188386,0.00142913 -0.0251417,0.000688976 -0.0148268,-0.00174016 -0.0332205,5.11811e-005 -0.0496969,5.11811e-005l-0.0548268 0c-0.002,0 -0.00204331,-0.000350394 -0.00370472,-0.000740157 0.000440945,-0.00164961 0.000173228,-0.00222047 0.00222047,-0.00222047l0.0429764 0c0.0025748,0 0.00113386,0.00148031 0.00370472,0.00148031l0.010374 0 0 -0.00148031 0.0222283 0c0.0025748,0 0.00112992,-0.00148425 0.00370472,-0.00148425l0.0214843 0 0 -0.00148031 -0.0103701 0c-0.0025748,0 -0.00113386,-0.00148031 -0.00370472,-0.00148031l-0.00592913 0c-0.00404331,0 -0.00410236,0.00148031 -0.00814961,0.00148031l-0.0311181 0 0 0.00148031 -0.000854331 -0.00144094 -0.0473071 -3.93701e-005 0.00148819 -0.00296063 -0.000913386 -0.0044252 -0.00412205 0.00183071 -0.00015748 0.00259055 -0.00148031 0 0.00183465 0.00275197 -0.00405906 -0.000527559z"/>
  </g>
 </g>
</svg>
