<?xml version="1.0" encoding="UTF-8"?>
<!DOCTYPE svg PUBLIC "-//W3C//DTD SVG 1.1//EN" "http://www.w3.org/Graphics/SVG/1.1/DTD/svg11.dtd">
<!-- Creator: CorelDRAW -->
<svg xmlns="http://www.w3.org/2000/svg" xml:space="preserve" width="1.66666in" height="0.666661in" style="shape-rendering:geometricPrecision; text-rendering:geometricPrecision; image-rendering:optimizeQuality; fill-rule:evenodd; clip-rule:evenodd"
viewBox="0 0 1.66666 0.666661"
 xmlns:xlink="http://www.w3.org/1999/xlink">
 <defs>
  <style type="text/css">
   <![CDATA[
    .fil3 {fill:#111014}
    .fil0 {fill:#28166F}
    .fil4 {fill:#DA251D}
    .fil2 {fill:white}
    .fil5 {fill:#1F1A17;fill-rule:nonzero}
    .fil1 {fill:#28166F;fill-rule:nonzero}
   ]]>
  </style>
 </defs>
 <g id="Layer_x0020_1">
  <metadata id="CorelCorpID_0Corel-Layer"/>
  <g id="_96357792">
   <path id="_96358296" class="fil0" d="M0.0562008 0.304539c0.0240079,0.0119882 0.0404016,0.0115984 0.0658386,0.00696063 0.0509567,-0.00929921 0.128929,-0.0479331 0.178508,-0.0579882 -0.015252,0.023815 -0.0257913,0.0486063 -0.0283228,0.0784685 -0.00345276,0.0412047 0.0072874,0.074748 0.0272677,0.105764 0.00214961,0.0033622 0.00345276,0.00436614 0.00574016,0.00778346 0.00163386,0.00241732 0.0038622,0.0053189 0.00603937,0.00760236 0.0123346,0.0128976 0.0150709,0.0158898 0.0283937,0.0258307 0.0198622,0.0147913 0.0479803,0.0270197 0.0788819,0.0297913 0.0290276,0.00257874 0.0572913,-0.00243701 0.0824764,-0.0135118 -0.0524488,-0.0199409 -0.0899606,-0.0708189 -0.0899606,-0.130024 0,-0.0764685 0.0625472,-0.139035 0.13902,-0.139035l0.0930039 0c-0.0133425,-0.00854331 -0.0281535,-0.0158386 -0.0429803,-0.0237598 -0.00773228,-0.0041378 -0.0165748,-0.0072874 -0.0247008,-0.0109449 -0.00810236,-0.00365354 -0.0177992,-0.00676378 -0.0266457,-0.00974803 -0.0175787,-0.00592913 -0.0391535,-0.0112835 -0.0587953,-0.0140787 -0.0459173,-0.00650787 -0.0888661,-0.00433071 -0.133091,0.00482283 -0.0275591,0.00569685 -0.0689252,0.0192717 -0.0952362,0.0310709 -0.0641535,0.0288189 -0.0968189,0.050126 -0.155429,0.0802244 -0.0131024,0.00672835 -0.021815,0.011252 -0.0364055,0.0161496 -0.00306299,0.00101969 -0.011126,0.0033189 -0.0136024,0.00462205z"/>
   <path id="_96357936" class="fil0" d="M0.249331 0.468555l-0.0491102 -0.0307559c-0.00433071,-0.00295669 -0.00750787,-0.00501575 -0.0115984,-0.00788189 -0.029937,-0.0208858 -0.0517323,-0.0382953 -0.0802205,-0.0613386 -0.00351575,-0.00284252 -0.00702756,-0.00620472 -0.0104803,-0.00896063 -0.0156299,-0.0125394 -0.0263701,-0.0140827 -0.0474055,-0.0128543 0.00200394,0.0045315 0.0299173,0.0326496 0.0335748,0.0368701l0.0176181 0.0179488c0.00609449,0.00613386 0.0125079,0.0110906 0.0183976,0.0172087 0.0174134,0.0180433 0.0590394,0.0517126 0.0776969,0.0655197 0.0904409,0.0668425 0.204429,0.113917 0.323917,0.0749449l0.0261496 -0.00847244c0.0203071,-0.00730315 0.0560039,-0.0244724 0.0729921,-0.0346417 0.00702362,-0.00419685 0.0139016,-0.00804331 0.0207165,-0.0119094l-0.0829173 0c-0.0301772,0.0123937 -0.0626024,0.0209291 -0.102705,0.0232323 -0.0419764,0.00240945 -0.0878031,-0.00766142 -0.12687,-0.0218583 -0.00456693,-0.00164961 -0.0112008,-0.00473622 -0.0156772,-0.00598031 -0.0104449,-0.00401181 -0.0221929,-0.00951575 -0.0324094,-0.0144961 -0.0102047,-0.00496063 -0.0212992,-0.011815 -0.0316693,-0.0165748z"/>
   <path id="_96360216" class="fil0" d="M0.614673 0.17187l0.0337835 0.0177598c0.00936614,0.00466142 0.0244724,0.014311 0.0335236,0.0198504 0.0235984,0.0144173 0.0529055,0.0349764 0.0750906,0.0521339l0.0481142 0.0390433 -0.0107402 -0.0179291c-0.0080315,-0.00907087 -0.0160394,-0.017685 -0.0195315,-0.021185l-0.00864173 -0.00915354c-0.00601969,-0.00627165 -0.0122244,-0.0112835 -0.0181378,-0.0174488 -0.011874,-0.0124528 -0.0427953,-0.0369173 -0.0579213,-0.0480866 -0.00633858,-0.00467323 -0.0137717,-0.0102835 -0.0209055,-0.0146654 -0.014626,-0.00898819 -0.0284134,-0.0179921 -0.0438189,-0.0265315 -0.00759843,-0.0042126 -0.0158661,-0.00826772 -0.0236339,-0.0120039l-0.0247165 -0.0108976c-0.0777559,-0.0297953 -0.143087,-0.0396181 -0.22385,-0.0172402 -0.00316142,0.000874016 -0.00891732,0.00216929 -0.0131575,0.00353543 -0.0185669,0.0059685 -0.0336378,0.0121339 -0.0507835,0.0195748 -0.0421142,0.0183071 -0.0745945,0.0409016 -0.111555,0.0656299 -0.0340827,0.0227992 -0.0626457,0.0430276 -0.101004,0.0592047 -0.00198425,0.000834646 -0.00397244,0.0016063 -0.00612598,0.00235039 -0.000783465,0.00026378 -0.00232677,0.000685039 -0.0031063,0.00103937l-0.00342126 0.00269291c0.0118937,0.00245276 0.0547126,-0.0138071 0.0655433,-0.018374 0.0191969,-0.00806693 0.0400118,-0.0186181 0.0573661,-0.0283228 0.0554882,-0.0310157 0.116996,-0.0605591 0.178933,-0.076189 0.0238819,-0.00601969 0.0507559,-0.00914173 0.0766181,-0.00874016 0.034252,0.00053937 0.0768071,0.00807087 0.108843,0.0189567l0.0321102 0.0110472c0.00200394,0.00262992 0.0115787,0.00559843 0.0149764,0.00706299 0.0045,0.00194488 0.0117283,0.0057126 0.0161496,0.00688583z"/>
   <path id="_96359688" class="fil1" d="M1.40092 0.335425c0.0185079,-0.00380709 0.0347126,-0.00572047 0.0486496,-0.00572047l0.0128583 0c0.0129724,0 0.023378,0.00390945 0.031185,0.0117402 0.0078189,0.00780709 0.0117402,0.0182126 0.0117402,0.031185l0 0.111567 -0.050063 0 0 -0.105846c0,-0.00285827 -0.000964567,-0.00525591 -0.00287795,-0.00714961 -0.0018937,-0.00191732 -0.00427165,-0.00286614 -0.0071378,-0.00286614l-0.0100157 0c-0.00724409,0 -0.013878,0.000374016 -0.0198819,0.00113386 -0.00600394,0.00076378 -0.0108386,0.00133858 -0.0144567,0.00173228l0 0.112996 -0.0500669 0 0 -0.200264 0.0500669 0 0 0.0514921zm-0.0700945 0.148772l0 0c-0.0185118,0.00191732 -0.036626,0.00286614 -0.0543543,0.00286614 -0.0129724,0 -0.023378,-0.00390551 -0.031185,-0.0117283 -0.00782283,-0.0078189 -0.0117441,-0.0182087 -0.0117441,-0.0311811l0 -0.0729528 -0.0171693 0 0 -0.0386339 0.0171693 0 0.00572441 -0.0343307 0.0443543 0 0 0.0343307 0.035752 0 0 0.0386339 -0.035752 0 0 0.0657992c0,0.00285827 0.000948819,0.00524016 0.00286614,0.00715354 0.0018937,0.00189764 0.00427165,0.00286614 0.00715354,0.00286614l0.037185 0 0 0.0371772zm-0.184547 -0.203126l0 0 0.0500787 0 0 0.0400551 -0.0500787 0 0 -0.0400551zm0.0500787 0.0572205l0 0 0 0.145906 -0.0500787 0 0 -0.107276 -0.0214449 0 0 -0.0386299 0.0715236 0zm-0.22602 -0.00858661l0 0c0.015437,0 0.0273701,0.00572047 0.035752,0.0171693 0.00877165,-0.00590945 0.0182638,-0.010252 0.0284685,-0.0130157 0.0102008,-0.00277559 0.0193071,-0.00415354 0.027315,-0.00415354l0.00285827 0c0.0129724,0 0.023378,0.00390945 0.0312047,0.0117402 0.00780709,0.00780709 0.0117283,0.0182126 0.0117283,0.031185l0 0.111567 -0.0500827 0 0 -0.10298c0,-0.00286614 -0.000948819,-0.00525984 -0.00284252,-0.00715748 -0.00191732,-0.00190945 -0.00429528,-0.00285827 -0.00717717,-0.00285827l-0.00141339 0c-0.00857874,0 -0.0195472,0.0018937 -0.0329055,0.00572047l0 0.107276 -0.050063 0 0 -0.10298c0,-0.00286614 -0.000964567,-0.00525984 -0.00286614,-0.00715748 -0.00190945,-0.00190945 -0.0042874,-0.00285827 -0.00714961,-0.00285827l-0.00142913 0c-0.00859055,0 -0.0195512,0.0018937 -0.0329173,0.00572047l0 0.107276 -0.0500551 0 0 -0.15163 0.0443386 0 0.00285827 0.0143071c0.00897638,-0.00590945 0.0181732,-0.010252 0.0276142,-0.0130157 0.00944488,-0.00277559 0.0173937,-0.00415354 0.0238976,-0.00415354l0.00286614 0zm-0.296417 0.11302l0 0c0.052252,0.00285827 0.0876378,0.00429528 0.106142,0.00429528 0.00438583,0 0.0078622,-0.00130315 0.0104449,-0.00387008 0.00258268,-0.00257874 0.00386614,-0.00605512 0.00386614,-0.0104409l0 -0.0257559 -0.0657992 0c-0.0200354,0 -0.0345866,-0.00451575 -0.0436339,-0.0135827 -0.00906693,-0.00906693 -0.0135866,-0.0235984 -0.0135866,-0.0436339l0 -0.00858661c0,-0.0200236 0.00451969,-0.0345709 0.0135866,-0.0436339 0.00904724,-0.00905512 0.0235984,-0.0135827 0.0436339,-0.0135827l0.100417 0 0 0.0400591 -0.0889724 0c-0.0114449,0 -0.0171693,0.0057126 -0.0171693,0.0171575l0 0.00572441c0,0.0114449 0.00572441,0.0171732 0.0171693,0.0171732l0.0514921 0c0.0186929,0 0.0324291,0.00437795 0.0411969,0.0131575 0.00877165,0.00876772 0.0131575,0.0225039 0.0131575,0.0411929l0 0.014311c0,0.0186929 -0.00438583,0.0324291 -0.0131575,0.0411969 -0.00876772,0.00877165 -0.0225039,0.0131575 -0.0411969,0.0131575 -0.00973622,0 -0.0200276,-0.000188976 -0.0309016,-0.00057874l-0.026315 -0.00112992c-0.0194567,-0.000944882 -0.0395787,-0.00228346 -0.060374,-0.00401575l0 -0.0386142z"/>
   <path id="_96358728" class="fil2" d="M0.350984 0.251598c0.0156457,0.00392126 0.0240079,0.024315 0.018689,0.0455669 -0.00531496,0.0212362 -0.0222953,0.0352795 -0.0379409,0.0313583 -0.0156496,-0.00391339 -0.0240079,-0.0243071 -0.0186969,-0.0455472 0.00531496,-0.0212362 0.0222992,-0.0352874 0.0379488,-0.031378z"/>
   <path id="_96358800" class="fil3" d="M0.597874 0.419272c-0.00583071,-0.0140472 -0.00888189,-0.0262362 -0.0183268,-0.0337835 -0.00919685,-0.00734252 -0.0236732,-0.0143661 -0.0401339,-0.0142126 0.00161811,0.023874 -0.00329134,0.0617283 0.00553937,0.0817244 0.00767323,0.0174134 0.026811,0.0342283 0.0530551,0.034063l-0.000133858 -0.0677913z"/>
   <path id="_96359472" class="fil3" d="M0.558496 0.244484c-0.00861811,0.00354724 -0.0109843,0.00429921 -0.0152913,0.0129409 -0.0121378,0.0243031 0.0120984,0.0510472 0.038,0.0398583 0.0307717,-0.0132835 0.0149803,-0.0683228 -0.0227087,-0.0527992z"/>
   <path id="_96358128" class="fil4" d="M0.539413 0.371276c0.0164606,-0.000153543 0.030937,0.00687008 0.0401339,0.0142126 0.00944488,0.00754724 0.0124961,0.0197362 0.0183268,0.0337835 0.00206299,-0.0795354 -0.00302756,-0.117126 -0.115937,-0.105551 0.00287795,0.0388976 0.0324803,0.0604528 0.0574764,0.0575551z"/>
   <path id="_96358776" class="fil5" d="M1.55692 0.333354l0 -0.0620748 0.0123031 0 0.014685 0.0439409c0.00135433,0.00408268 0.00233858,0.00715354 0.00294882,0.00918504 0.000728346,-0.00224803 0.00184646,-0.00557087 0.00332677,-0.00995276l0.0149449 -0.0431732 0.0109961 0 0 0.0620748 -0.00789764 0 0 -0.0519291 -0.0181181 0.0519291 -0.0073937 0 -0.0179134 -0.0528858 0 0.0528858 -0.00788189 0zm-0.0369961 0l0 0 0 -0.0547913 -0.0204606 0 0 -0.00728346 0.0491496 0 0 0.00728346 -0.0204567 0 0 0.0547913 -0.00823228 0z"/>
  </g>
 </g>
</svg>
