<?xml version="1.0" encoding="UTF-8"?>
<!DOCTYPE svg PUBLIC "-//W3C//DTD SVG 1.1//EN" "http://www.w3.org/Graphics/SVG/1.1/DTD/svg11.dtd">
<!-- Creator: CorelDRAW -->
<svg xmlns="http://www.w3.org/2000/svg" xml:space="preserve" width="1.66666in" height="0.666661in" style="shape-rendering:geometricPrecision; text-rendering:geometricPrecision; image-rendering:optimizeQuality; fill-rule:evenodd; clip-rule:evenodd"
viewBox="0 0 1.66666 0.666661"
 xmlns:xlink="http://www.w3.org/1999/xlink">
 <defs>
  <style type="text/css">
   <![CDATA[
    .fil1 {fill:#06376C}
    .fil2 {fill:#1B7DB4}
    .fil3 {fill:#297CB6}
    .fil0 {fill:#DB281D}
   ]]>
  </style>
 </defs>
 <g id="Layer_x0020_1">
  <metadata id="CorelCorpID_0Corel-Layer"/>
  <g id="_95577096">
   <g>
    <path id="_95577072" class="fil0" d="M0.634839 0.208602l0 0.252319 0.165799 0 0 -0.0687402 -0.0918386 0 0 -0.183579 -0.0739606 0zm0.322555 0l0 0 -0.0253346 0.0547087 -0.0251063 -0.0547087 -0.0809803 0 0.060626 0.118071 -0.0692244 0.134248 0.0809843 0 0.0337008 -0.0719291 0.0339291 0.0719291 0.0809882 0 -0.0692165 -0.134248 0.0606181 -0.118071 -0.0809843 0zm0.117626 0.252319l0 0 0.0739685 0 0 -0.252319 -0.0739685 0 0 0.252319zm0.201772 -0.183598l0 0 0.020815 0c0.0162795,0 0.0285,0.0123386 0.0285,0.0284409 0,0.0160945 -0.0122205,0.0284291 -0.0285,0.0284291l-0.020815 0 0 -0.0568701zm-0.0739685 -0.0687205l0 0 0 0.252319 0.0739685 0 0 -0.0601654 0.0167402 0c0.0203543,0 0.0364213,0.0161063 0.0364213,0.0365236l0 0.0236417 0.0730591 0 0 -0.0284488c0,-0.0301063 -0.00611024,-0.0482874 -0.0289528,-0.062311 0.0149291,-0.0107244 0.0289528,-0.0332402 0.0289528,-0.0643976 0,-0.0547047 -0.0425236,-0.0971614 -0.0972638,-0.0971614l-0.102925 0z"/>
   </g>
   <path id="_95577168" class="fil1" d="M0.429783 0.187264c0.0394331,0.00335827 0.0697047,0.0188425 0.0878701,0.0497992l-0.0084685 0.00283071c-0.0465433,-0.0416063 -0.107205,-0.0556614 -0.136181,0.00161417 0.00569685,-0.0354016 0.0282362,-0.0566693 0.0567795,-0.0542441z"/>
   <path id="_95577192" class="fil1" d="M0.54476 0.515906c-0.126858,-0.0633307 -0.203169,-0.184787 -0.221331,-0.372571 -0.0289685,0.018689 -0.0508898,0.0422165 -0.0571575,0.0809921 -0.0217402,0.134366 0.0926024,0.299201 0.21485,0.310209 0.00122441,9.05512e-005 0.00243307,0.000228346 0.0036378,0.000271654 0.0227756,0.000574803 0.0483425,-0.0120118 0.06,-0.0189016z"/>
   <polygon id="_95577240" class="fil1" points="0.551024,0.293181 0.547508,0.285937 0.403654,0.358469 0.409516,0.36848 "/>
   <g>
    <path id="_95577000" class="fil2" d="M0.352776 0.132697c-0.0711299,0.0105669 -0.0915472,0.105307 -0.0476417,0.211846 0.0433346,0.105665 0.136244,0.190587 0.212362,0.180512 0.00362598,-0.00122441 0.00885433,-0.00160236 0.0124803,-0.00283071l0.000110236 0 0.00464961 -0.00147244 0.000799213 -0.000244094c0.0432205,-0.0175827 0.0618189,-0.072126 0.0519528,-0.13885l-0.000216535 -0.0022126 -0.00908661 -0.00431496 0.000228346 0.00222835c0.000228346,0.0404094 -0.0209843,0.0691732 -0.052752,0.0743386 -0.0463937,0.00625591 -0.109354,-0.0412913 -0.139531,-0.114535 -0.0289291,-0.071748 -0.0139528,-0.137134 0.0351654,-0.14389 0.0297244,-0.0036811 0.0681811,0.0141339 0.0963189,0.0437559l0.00623228 -0.00246063c-0.0446929,-0.0607008 -0.1055,-0.102732 -0.158134,-0.102732 -0.0044252,0 -0.00873228,0.000244094 -0.012937,0.000862205z"/>
   </g>
   <g>
    <polygon id="_95577456" class="fil3" points="0.401673,0.355087 0.407488,0.365087 0.549681,0.290488 0.546154,0.283244 "/>
   </g>
  </g>
 </g>
</svg>
