<?xml version="1.0" encoding="UTF-8"?>
<!DOCTYPE svg PUBLIC "-//W3C//DTD SVG 1.1//EN" "http://www.w3.org/Graphics/SVG/1.1/DTD/svg11.dtd">
<!-- Creator: CorelDRAW -->
<svg xmlns="http://www.w3.org/2000/svg" xml:space="preserve" width="1.66666in" height="0.666661in" style="shape-rendering:geometricPrecision; text-rendering:geometricPrecision; image-rendering:optimizeQuality; fill-rule:evenodd; clip-rule:evenodd"
viewBox="0 0 1.66666 0.666661"
 xmlns:xlink="http://www.w3.org/1999/xlink">
 <defs>
  <style type="text/css">
   <![CDATA[
    .str0 {stroke:#ED1E26;stroke-width:0.003}
    .fil1 {fill:#0D0E10}
    .fil5 {fill:#0E0F0F}
    .fil6 {fill:#0E0F11}
    .fil9 {fill:#0F1010}
    .fil10 {fill:#101011}
    .fil7 {fill:#111212}
    .fil8 {fill:#131414}
    .fil11 {fill:#DC232D}
    .fil3 {fill:#EA2129}
    .fil2 {fill:#EC1F26}
    .fil0 {fill:#ED1E26}
    .fil4 {fill:white}
   ]]>
  </style>
 </defs>
 <g id="Layer_x0020_1">
  <metadata id="CorelCorpID_0Corel-Layer"/>
  <g id="_95255144">
   <polygon id="_96357096" class="fil0" points="1.01291,0.0818425 0.914669,0.0811024 0.890094,0.25372 "/>
   <ellipse id="_97540120" class="fil1" transform="matrix(0.844176 0 -0.0854716 0.805778 0.883596 0.282563)" rx="0.103008" ry="0.109815"/>
   <ellipse id="_96845896" class="fil0 str0" transform="matrix(0.843586 0 0.0413436 -0.843586 0.553509 0.152036)" rx="0.0459843" ry="0.0462953"/>
   <path id="_96356520" class="fil1" d="M0.257831 0.127146l0.0920827 0 0.0201378 0.0556339c0,0 0.00797638,-0.0252047 0.0351063,-0.0556339l0.0982205 0 -0.0953898 0.121571 0.0984685 0.222787 -0.0900433 0.000456693 -0.0644567 -0.157571 -0.00409449 0.00102362 -0.0347835 0.0532047 -0.105382 0 0.103335 -0.129945 -0.0532008 -0.111528z"/>
   <path id="_96359160" class="fil1" d="M0.766406 0.319378l-0.0542283 -0.0122795c0,0 -0.0161181,0.0253622 -0.0350827,0.0117126 -0.0189685,-0.0136535 -0.0109567,-0.0229646 -0.0109567,-0.0229646 0,0 -0.0042126,-0.0103504 0.0273543,-0.00623622 0.0315709,0.00411417 0.080878,0.00292913 0.080878,0.00292913 0,0 0.00327559,-0.000602362 0.00327953,-0.0120354 7.87402e-006,-0.0114331 0.00808268,-0.0827244 -0.0879606,-0.0869764 0,0 -0.0787165,0.00998819 -0.0919685,0.0859134 -0.013248,0.0759252 0.0647008,0.101669 0.108335,0.0927165 0.0436339,-0.00894882 0.0603504,-0.0527795 0.0603504,-0.0527795z"/>
   <path id="_96358776" class="fil1" d="M0.925921 0.204909l-0.0358268 0.048811 -0.00100394 -0.000724409c0,-0.0113819 0.00386614,-0.0221654 0.00409055,-0.0306929 0.000149606,-0.00555118 0.00932283,-0.026437 0.0039252,-0.0286142 -0.00296063,-0.000535433 -0.00625197,-0.000724409 -0.0131339,-3.54331e-005 -0.000338583,0 -0.000681102,0 -0.00101969,0l0.00920866 0.00102362 0 0.00204724c-0.0122402,0 -0.0224567,0.00214961 -0.0296614,0.00696457l0.0102559 0.000688976 0.000314961 0.00125591 -0.00881102 0.00380709 0.00334252 0.00161024 0 0.00204331 -0.00204331 0 0 0.00307087c0.000492126,-0.00023622 0.00899213,-0.00307087 0.00920866,-0.00307087 0.00436614,0 0.00148819,0.00923622 0.00818504,0.0061378l0 0.00511417 -0.00204724 0 -0.000248031 0.00873228 -0.00785039 0.0035748 -0.00213386 0.00713386 0.00405512 -1.5748e-005 -0.00200787 0.00513386 0.00409055 0c-0.000153543,0.00687795 -0.000224409,0.00351969 -0.00358661,0.00488976l-0.0033189 -0.00591339 -0.000251969 0.00511417 7.08661e-005 0.00325984 0.00270079 -0.000996063 0.00234252 0.00387795c0.00327165,-0.00157087 0.00840551,-0.00307087 0.0132992,-0.00307087l0.00614961 7.87402e-006 0.0112441 -0.0143307 -7.48031e-005 -0.00527559 0.00454331 -0.00232283 0.0159921 -0.0230945 0 -0.00614173z"/>
   <path id="_97538056" class="fil2" d="M0.478823 0.502654c-0.0268622,0 -0.188256,0 -0.188256,0l-0.0643583 0.0994961 0.252614 -0.0994961z"/>
   <path id="_95544784" class="fil3" d="M0.926945 0.0841732l0.00649606 0.00206693 -0.000358268 0.001 0.0562717 0c0.00262598,0 0.00247638,0.000248031 0.00421654,0.00117717l0.00294488 -0.00219685 0 0.00511417 0.00204724 0c-0.00348031,0.00657874 -0.00188583,0.000712598 -0.00522835,0.00398425 -0.000992126,0.000968504 -0.000996063,0.00306299 -0.00332283,0.00588189 -0.00316929,0.00383858 -0.00629528,0.00659843 -0.00679528,0.0126457l-0.00307087 0c-0.000645669,0.00776378 -0.00526378,0.0088937 -0.00691732,0.0125236 -0.00266142,0.00585039 -0.00171654,0.0102402 -0.00842913,0.0120315 -0.00015748,0.0071811 -0.00523622,0.00889764 -0.0081811,0.0132992l0 0.00307087 0.0265906 -0.0350551 -0.00101181 -0.000755906 0.00204331 0 0 0.00204724 0.00102362 -0.00102362 0 -0.00307087c0.00227165,-0.0033937 0.00152756,-0.00514173 0.00376772,-0.00748425 0.00341732,-0.00359449 0.00237008,-0.000326772 0.00614961,-0.00612598 0.00192126,-0.00294094 0.00952362,-0.0118701 0.00952362,-0.0150354l-3.93701e-006 -0.00544882 -0.0777559 0.00135433z"/>
   <ellipse id="_95544064" class="fil4" cx="0.888863" cy="0.285545" rx="0.0254072" ry="0.0270061"/>
   <path id="_97537624" class="fil0" d="M0.584205 0.132264c-0.00229528,-0.00478346 -0.00661811,-0.00974016 -0.0121063,-0.0115039 -0.00130315,-0.00042126 -0.0184449,-0.0011378 -0.0206339,0.000248031l0.00920866 0 0 0.00307087 0.00409449 0 -7.48031e-005 0.00129134 -0.0152756 -0.00129134c-0.0041378,0.00218898 -0.0057126,0.00101181 -0.00617717,0.00601575l-0.00401181 0.00127165 0.000775591 0.000972441 -0.00388583 0.00197244 7.87402e-005 0.00279528 0.00606299 0.0023189 -0.00482283 9.05512e-005 -0.00234252 0.00809449c-0.00351181,-0.00162205 -0.00469291,-0.000440945 -0.0035,0.00274803l-0.00344094 0.00508268 0.00380709 0.00240551 0.00011811 0.00736614 0.00506299 -0.00123228c0.00381102,0.00201575 0.00831102,0.00716142 0.0102283,0.00716142l0.00204724 0c0.00311024,0 0.00347244,-0.00177165 0.00409449,-0.00409055l-0.00307087 0c-0.00387795,0 -0.00651969,-0.0018189 -0.0081811,-0.00409055l0.0081811 0c0.00184646,0.00123228 0.00179921,0.00204331 0.00409449,0.00204331l0.00511417 0c0.00253543,0 0.00409449,-0.00281496 0.00409449,-0.00409449 0,-0.00259843 -0.00256299,-0.00511417 0.00204331,-0.00511417l0.0061378 0c0.00229528,0 0.00224803,0.000811024 0.00409449,0.00204724l0 -0.00307087 0.00306693 0 0 -0.00307087 -0.00204331 0 0.00011811 -0.00788189 0.00909055 -0.00337008 0 -0.00306693 -0.00204724 0 0 -0.00511811z"/>
   <path id="_97537408" class="fil3" d="M0.956618 0.154772l0 -0.00307087c0.00294488,-0.00440157 0.00802362,-0.00611811 0.0081811,-0.0132992 0.0067126,-0.00179134 0.00576772,-0.0061811 0.00842913,-0.0120315 0.00165354,-0.00362992 0.00627165,-0.00475984 0.00691732,-0.0125236l0.00307087 0c0.0005,-0.00604724 0.00362598,-0.00880709 0.00679528,-0.0126457 0.00232677,-0.0028189 0.00233071,-0.00491339 0.00332283,-0.00588189 0.00334252,-0.00327165 0.00174803,0.00259449 0.00522835,-0.00398425l-0.00204724 0 0 -0.00511417 -0.00294488 0.00219685c-0.00174016,-0.000929134 -0.00159055,-0.00117717 -0.00421654,-0.00117717l-0.0562717 0 0.000358268 -0.001 -0.00649606 -0.00206693 -0.00464173 0.000452756 -0.00499606 0.00583858 -0.00164567 -0.00322441 -0.00698425 0.0574252 -0.00219685 0.00294488c0,0.00803543 -0.00462598,0.043437 -0.0081811,0.0460433l0.0010748 0.000145669 -0.00792913 0.0504094 0.00787402 -0.00757874c0.00124409,-0.00343307 0.0109252,-0.0154646 0.0139055,-0.0198661 0.00316929,-0.0046811 0.0106969,-0.0178346 0.0157677,-0.0190157 -0.00120079,-0.00290551 0.00199213,-0.00789764 0.00465748,-0.010689 0.00545276,-0.00570472 0.00374803,-0.00619291 0.00729528,-0.011122 0.00272835,-0.00380709 0.00613386,-0.00676772 0.00857087,-0.00984646 0.00382677,-0.00482283 7.08661e-005,-0.00944094 0.00710236,-0.0113189z"/>
   <path id="_97540816" class="fil0" d="M0.551465 0.121008c0.00218898,-0.00138583 0.0193307,-0.000669291 0.0206339,-0.000248031 0.00548819,0.00176378 0.00981102,0.00672047 0.0121063,0.0115039l0.00312598 0.00315748 0.00198819 -0.00111024c0.000137795,0.00612992 0.00204724,0.00446457 0.00204724,0.00920866l0 0.0102323c0,0.00346063 -0.00395669,0.00569685 -0.00595276,0.00718504l-0.00120866 0.0102047c-0.00440551,0.000366142 -0.00731496,0.00444094 -0.00818504,0.00818898 -0.00545669,0.000452756 -0.00588976,0.00409055 -0.00920866,0.00409055l-0.0286457 0c-0.00414961,0 -0.00530315,-0.000944882 -0.0061378,-0.00409055l-0.00409449 0c-0.00122835,-0.00460236 -0.00484252,-0.00535433 -0.00633858,-0.0100354 -0.000641732,-0.00200787 -0.000598425,-0.00446063 -0.00161811,-0.00656693 -0.00101181,-0.00209843 -0.00329528,-0.0033937 -0.00329528,-0.00590551l0 -0.00205118c0,-0.00229134 0.000807087,-0.00224803 0.00204331,-0.00409055l0 -0.00614173c0.00141339,-0.0021063 0.00307087,-0.00265354 0.00307087,-0.00511417l0 -0.00307087 0.00409055 0c0.00424803,-0.00802362 0.0206339,-0.0107008 0.0225118,-0.0153465l0.00306693 0zm-0.0266024 0.00307087l-0.00409055 0.00409449 0.00102362 0.00409055c-0.00258661,0.00104331 -0.00716535,0.0141929 -0.00716535,0.0184173l0 0.0122795c0,0.0096063 0.0197913,0.0255787 0.0286496,0.0255787l0.0143228 0c0.015185,0 0.035811,-0.0186063 0.035811,-0.035811l0 -0.00920866c0,-0.00397244 -0.00218504,-0.00701575 -0.00409449,-0.00920866 -0.00347244,-0.00959449 -0.0146772,-0.0184213 -0.027622,-0.0184213l-0.0153504 0c-0.00523228,0 -0.0150945,0.00691339 -0.0194921,0.00929921l-0.00199213 -0.00111024z"/>
   <path id="_96846904" class="fil4" d="M0.716213 0.264476c0,0 0.00375591,-0.0333425 -0.0209291,-0.0274016 -0.0246811,0.00593701 -0.0352047,0.0210118 -0.0293819,0.0267283 0.00582283,0.00571654 0.0496417,0.00638583 0.050311,0.000673228z"/>
   <path id="_95577120" class="fil0" d="M0.524858 0.124079l0.00199606 0.00111024c0.0043937,-0.00238583 0.0142598,-0.00929921 0.0194921,-0.00929921l0.0153465 0c0.0129449,0 0.0241496,0.00882677 0.027622,0.0184213 0.00191339,0.00219291 0.00409449,0.00523622 0.00409449,0.00920866l0 0.00920866c0,0.0172047 -0.020626,0.035811 -0.035811,0.035811l-0.0143228 0c-0.00885827,0 -0.0286496,-0.0159724 -0.0286496,-0.0255787l0 -0.0122795c0,-0.00422441 0.00457874,-0.017374 0.00716535,-0.0184173l-0.00102362 -0.00409055c-0.00349606,0.00401575 -0.00920866,0.012122 -0.00920866,0.019437l0 0.00818504c0,0.0107913 0.00291339,0.0151417 0.00716142,0.0214882 0.0108307,0.00793307 0.0120551,0.0143268 0.0327402,0.0143268 0.011126,0 0.0203386,-0.00459843 0.0272205,-0.00961417 0.00664173,-0.00484646 0.00425591,-0.00282677 0.00931496,-0.00910236 0.00304724,-0.00376378 0.00505906,-0.0100906 0.00731496,-0.0109764l0.00116929 -0.0112362 0 -0.00511811c0,-0.00421654 -0.00415748,-0.011748 -0.00511811,-0.0153465 -0.00554331,-0.00827953 -0.0174094,-0.0184173 -0.0306929,-0.0184173l-0.0143228 0c-0.00418898,0 -0.0187677,0.00969685 -0.0214882,0.0122795z"/>
   <path id="_97528024" class="fil3" d="M0.893181 0.222303c-0.000224409,0.00852756 -0.00409055,0.019311 -0.00409055,0.0306929l0.00100394 0.000724409 0.0358268 -0.048811 0.0583189 -0.0839016 0 -0.00204724 -0.00204331 0 0.00101181 0.000755906 -0.0265906 0.0350551c-0.0070315,0.00187795 -0.00327559,0.00649606 -0.00710236,0.0113189 -0.00243701,0.00307874 -0.00584252,0.00603937 -0.00857087,0.00984646 -0.00354724,0.00492913 -0.00184252,0.00541732 -0.00729528,0.011122 -0.00266535,0.00279134 -0.00585827,0.00778346 -0.00465748,0.010689 -0.00507087,0.0011811 -0.0140512,0.00816929 -0.0172244,0.0128504 -0.00297638,0.00440157 -0.00918898,0.0141969 -0.0104291,0.017626l-0.00713386 0.00840551 0.00516929 -0.0428307 -0.0010748 -0.000145669c0.00355512,-0.0026063 0.0081811,-0.0380079 0.0081811,-0.0460433l0.00219685 -0.00294488 0.00698425 -0.0574252 0.00164567 0.00322441 0.00499606 -0.00583858 0.00464173 -0.000452756 0.0777559 -0.00135433 3.93701e-006 0.00544882c0,0.00316535 -0.00760236,0.0120945 -0.00952362,0.0150354 -0.00377953,0.00579921 -0.00273228,0.0025315 -0.00614961,0.00612598 -0.00224016,0.00234252 -0.00149606,0.00409055 -0.00376772,0.00748425l0 0.00307087 0.00307087 -0.00307087 0.0245787 -0.0350709 -0.00105118 -0.000740157 -0.0971929 0c-0.00227953,0.00977953 -0.00268898,0.0186969 -0.00431496,0.0294528 -0.00126772,0.00842126 -0.00381496,0.0201102 -0.0048622,0.027878 -0.000929134,0.0068937 0.000149606,0.00875984 -0.00149213,0.0159055 -0.00096063,0.0041811 -0.00191339,0.0105157 -0.00240945,0.0139606 -0.00283071,0.0196535 -0.00786614,0.0336181 -0.00840945,0.0540039z"/>
   <path id="_95545864" class="fil5" d="M1.22365 0.135331l0.0163701 0c0.00373622,0 0.00818504,0.00282677 0.00818504,0.0061378l0 0.00102756c0,0.00373622 -0.00282677,0.00818504 -0.00614173,0.00818504l-0.0153465 0c-0.00235433,0 -0.00306693,-0.000712598 -0.00306693,-0.00307087l0 -0.0122795zm-0.00920866 0.0450197l0.00920866 0 0 -0.0194409c0,-0.00235433 0.000712598,-0.00306693 0.00306693,-0.00306693l0.00307087 0c0.0106772,0 0.0157795,0.0225079 0.0225079,0.0225079l0.00818504 0 0.00084252 -0.000594488 -0.016189 -0.0239606c0.00621654,-0.000137795 0.0122795,-0.00520472 0.0122795,-0.0112559l0 -0.00511417c0,-0.00981102 -0.011185,-0.0122795 -0.0214882,-0.0122795l-0.0214843 0 0 0.0532047z"/>
   <path id="_95544688" class="fil2" d="M0.589319 0.134311l-0.00198819 0.00111024 -0.00312598 -0.00315748 0 0.00511811 0.00204724 0 0 0.00306693 -0.00909055 0.00337008 -0.00011811 0.00788189 0.00204331 0 0 0.00307087 -0.00306693 0 0 0.00307087c-0.00184646,-0.00123622 -0.00179921,-0.00204724 -0.00409449,-0.00204724l-0.0061378 0c-0.0046063,0 -0.00204331,0.00251575 -0.00204331,0.00511417 0,0.00127953 -0.00155906,0.00409449 -0.00409449,0.00409449l-0.00511417 0c-0.00229528,0 -0.00224803,-0.000811024 -0.00409449,-0.00204331l-0.0081811 0c0.00166142,0.00227165 0.00430315,0.00409055 0.0081811,0.00409055l0.00307087 0c-0.000622047,0.0023189 -0.000984252,0.00409055 -0.00409449,0.00409055l-0.00204724 0c-0.00191732,0 -0.00641732,-0.00514567 -0.0102283,-0.00716142l-0.00506299 0.00123228 -0.00011811 -0.00736614 -0.00380709 -0.00240551 0.00344094 -0.00508268c-0.00119291,-0.00318898 -1.1811e-005,-0.00437008 0.0035,-0.00274803l0.00234252 -0.00809449 0.00482283 -9.05512e-005 -0.00606299 -0.0023189 -7.87402e-005 -0.00279528 0.00388583 -0.00197244 -0.000775591 -0.000972441 0.00401181 -0.00127165c0.000464567,-0.00500394 0.00203937,-0.00382677 0.00617717,-0.00601575l0.0152756 0.00129134 7.48031e-005 -0.00129134 -0.00409449 0 0 -0.00307087 -0.00920866 0 -0.00306693 0c-0.00187795,0.00464567 -0.0182638,0.00732283 -0.0225118,0.0153465l-0.00409055 0 0 0.00307087c0,0.00246063 -0.00165748,0.00300787 -0.00307087,0.00511417l0 0.00614173c-0.00123622,0.00184252 -0.00204331,0.00179921 -0.00204331,0.00409055l0 0.00205118c0,0.00251181 0.00228346,0.00380709 0.00329528,0.00590551 0.00101969,0.0021063 0.000976378,0.00455906 0.00161811,0.00656693 0.00149606,0.0046811 0.00511024,0.00543307 0.00633858,0.0100354l0.00409449 0c0.000834646,0.00314567 0.00198819,0.00409055 0.0061378,0.00409055l0.0286457 0c0.0033189,0 0.00375197,-0.0036378 0.00920866,-0.00409055 0.000870079,-0.00374803 0.00377953,-0.00782283 0.00818504,-0.00818898l0.00120866 -0.0102047c0.00199606,-0.00148819 0.00595276,-0.00372441 0.00595276,-0.00718504l0 -0.0102323c0,-0.00474409 -0.00190945,-0.00307874 -0.00204724,-0.00920866z"/>
   <path id="_96358392" class="fil1" d="M1.19193 0.150681c0,-0.0204803 0.0216181,-0.0419488 0.0409213,-0.0419488l0.00307087 0c0.023437,0 0.0439961,0.0198937 0.0439961,0.0429685l0 0.00512205c0,0.0193701 -0.0207402,0.0409252 -0.0399016,0.0409252l-0.00511417 0c-0.0218031,0 -0.0429724,-0.0202795 -0.0429724,-0.0409252l0 -0.00614173zm-0.00307087 -0.0092126l0 0.0235354c0,0.0141969 0.0233898,0.0368346 0.0378543,0.0368346l0.0133031 0c0.0239291,0 0.0450157,-0.0239252 0.0450157,-0.0470669l0 -0.0061378c0,-0.0110748 -0.0100394,-0.024811 -0.0161102,-0.0309528 -0.0081378,-0.00823228 -0.0180748,-0.0130433 -0.0340197,-0.0130433 -0.0128898,0 -0.0232913,0.00437795 -0.0299449,0.0109843 -0.00481102,0.00477559 -0.0160984,0.0175709 -0.0160984,0.0258465z"/>
   <path id="_95577192" class="fil1" d="M0.866583 0.280626c0,-0.0101024 0.0114803,-0.0204646 0.0225079,-0.0204646l0.00409055 0c0.00875591,0 0.0143268,0.0100787 0.0143268,0.0194409l0 0.00409055c0,0.0106457 -0.0110354,0.0245551 -0.0225118,0.0245551l-0.00306693 0c-0.00786614,0 -0.0153465,-0.00880315 -0.0153465,-0.0173937l0 -0.0102283zm0.00307087 -0.0849291c-0.0115433,0.00553937 -0.0183701,0.00527559 -0.029689,0.0132874 -0.00857874,0.00607087 -0.0163819,0.0126496 -0.0232559,0.0207402 -0.0124016,0.0146024 -0.0217441,0.0383504 -0.0217441,0.0652244l0 0.0061378c0,0.0367559 0.0357835,0.0726457 0.0716181,0.0726457l0.0214843 0c0.024185,0 0.0490079,-0.0178189 0.0616417,-0.030437 0.0134764,-0.0134646 0.0273701,-0.0382165 0.0273701,-0.0647205l0 -0.0061378c0,-0.0138307 -0.00179921,-0.024248 -0.00612992,-0.0337756 -0.00561024,-0.0123386 -0.00992126,-0.0148976 -0.0163819,-0.0245433l-0.0244291 -0.0152795 -0.00421654 0.00607087 0 0.00614173 -0.0159921 0.0230945 -0.00454331 0.00232283 7.48031e-005 0.00527559 -0.0112441 0.0143307 -0.00614961 -7.87402e-006c-0.0048937,0 -0.0100276,0.0015 -0.0132992,0.00307087l-0.00234252 -0.00387795 -0.00270079 0.000996063 -7.08661e-005 -0.00325984 0.000251969 -0.00511417 0.0033189 0.00591339c0.0033622,-0.00137008 0.00343307,0.00198819 0.00358661,-0.00488976l-0.00409055 0 0.00200787 -0.00513386 -0.00405512 1.5748e-005 0.00213386 -0.00713386 0.00785039 -0.0035748 0.000248031 -0.00873228 0.00204724 0 0 -0.00511417c-0.00669685,0.00309843 -0.0038189,-0.0061378 -0.00818504,-0.0061378 -0.000216535,0 -0.00871654,0.00283465 -0.00920866,0.00307087l0 -0.00307087 0.00204331 0 0 -0.00204331 -0.00334252 -0.00161024 0.00881102 -0.00380709 -0.000314961 -0.00125591 -0.0102559 -0.000688976c0.00720472,-0.00481496 0.0174213,-0.00696457 0.0296614,-0.00696457l0 -0.00204724 -0.00920866 -0.00102362 -0.0132992 0.00204331z"/>
   <path id="_95576856" class="fil1" d="M1.11465 0.20752c-0.00611811,0.000137795 -0.00912598,0.00238583 -0.0104409,0.00731102 -0.00472441,0.000106299 -0.00798425,0.0028189 -0.00841732,0.0070748l-0.00829528 0.00232677c-0.00771654,-0.00731496 -0.00153543,-0.0120039 -0.0042874,-0.0238228l-0.00720079 0.00084252c-0.00170866,0 -0.00313386,0.000622047 -0.00313386,0.00208661 0,0.00912205 -0.0118858,0.00148819 -0.0246535,0.00100787l-0.0108583 0.00212992c-0.00156299,0.00470866 -0.00011811,0 -0.00626772,0l-0.00398819 2.75591e-005 -0.00227953 0.00988583 -0.00551969 0.0113425 0.0044252 0.00406299 -0.00621654 -0.00129528c0,0.00791339 -0.00378346,0.010437 -0.00516929,0.0167638 -0.0011063,0.00506693 -0.00194488,0.0141811 -0.00333071,0.0186024 -0.00283858,0.00903937 -0.00282677,0.0302244 -0.00720472,0.0366969l-0.0117008 0.0580984 0.00233858 0.00457874 0.0668465 0c0.00347638,0 0.00604331,-0.00452756 0.00604331,-0.00826772l0.00224016 -0.0121693 0.00335433 -0.00898819 -0.000472441 -0.00969291 0.00547638 -0.0290709 0.00156299 -0.00514961 0.00244488 -0.00722835 0.00266535 -0.0101417 0.00201575 -0.0134449c0.00491339,-0.00260236 0.00366535,-0.00175197 0.0068189,-0.00548819 0.00477953,-0.00566142 0.00538583,-0.00153937 0.016126,-0.00135827l0.00668898 0.00777165 -0.00130709 0.0199488 -0.0128543 0.0842638 0.0082874 -0.000984252 0.0637126 0 0 -0.00626772c0,-0.00659843 0.00499606,-0.0175906 0.00609843,-0.0231496 0.00198425,-0.0100709 0.000905512,-0.016311 0.00372835,-0.0265591 0.00248031,-0.00900787 0.00792913,-0.0429173 0.00792913,-0.0526535l0 -0.0156654c0,-0.0112441 -0.000169291,-0.0248189 -0.0114882,-0.0250669 -0.00264567,-0.0113425 -0.0129488,-0.0119764 -0.0135787,-0.0177598 -0.00370472,-0.000862205 -0.00731102,-0.00313386 -0.0104488,-0.00313386l-0.0135748 0c-0.0088622,0 -0.0244803,0.00641732 -0.0261142,0.0125354z"/>
   <path id="_95577000" class="fil1" d="M0.672193 0.259138c0,-0.00679921 0.0123189,-0.0184173 0.0204646,-0.0184173l0.0081811 0c0.00620079,0 0.0122756,0.010689 0.0122756,0.0184173 0,0.00124409 -0.00211024,0.00307087 -0.00408661,0.00307087l-0.0337677 0c-0.00235433,0 -0.00306693,-0.000712598 -0.00306693,-0.00307087zm-0.0368307 -0.0409291c-0.00131102,0.00248031 -0.00644094,0.0087126 -0.00876772,0.0117008 -0.0025748,0.00330709 -0.00672047,0.00873228 -0.00981102,0.010248l-0.00885827 0.0169606 -0.00120866 0.0102047c-0.00363386,0.00146457 -0.00614173,0.0177441 -0.00614173,0.0225118l0 0.0184134 0.00204724 0c0,0.00669685 0.00238583,0.0147795 0.0044685,0.0200866 0.00187402,0.00476378 0.0091378,0.0130551 0.00985039,0.0157283 0.00563386,0.000122047 0.00908268,0.0045748 0.0092126,0.0102323 0.00574016,0.00133465 0.0166102,0.0122913 0.023563,0.0114803l0.00957087 -0.00088189 -0.00244094 0.00270079 0.00511417 0c0.000610236,0.00227953 0.000240157,0.00306693 0.00306693,0.00306693l0.0245591 0c0.00920472,0 0.0327913,-0.00542126 0.0337598,-0.0143228 0.0108622,-0.000901575 0.0145394,-0.0152756 0.0245197,-0.0163819l0.00105906 -0.00510236c0.00629528,-0.000141732 0.0133031,-0.00719291 0.0133031,-0.0112559l0 -0.00409449 -0.00511417 0c-0.00725984,0 -0.0134449,-0.00462598 -0.0204646,-0.00511417 -0.00748425,-0.000519685 -0.0117992,-0.00307087 -0.0225079,-0.00307087 -0.00225197,0.00842913 -0.0162717,0.00738189 -0.0184173,0.0133031l-0.0122756 0c-0.00335039,0 -0.00269685,-0.00307087 -0.00818898,-0.00307087l-0.00409055 0c-0.000346457,-0.00318898 -0.00920866,-0.0169173 -0.00920866,-0.0225079l0 -0.00614173c0,-0.00318504 0.00390945,-0.00464567 0.0061378,-0.0060748l0.0910591 -6.29921e-005c0.00540157,-1.5748e-005 0.00177559,-0.0039252 0.000972441,-0.00688976l0.00516535 0.000751969c-0.00258661,0.0053937 0.000625984,0.0103819 0.00511811,0.00101969l-0.00307087 0 0 -0.00511417c0.00811024,0.000181102 0.00614173,0.00517717 0.00551969,-0.0123583l-0.000625984 0.00452756 -0.00383858 -0.00240157 -0.000248031 -0.0153268 0.00109449 7.87402e-006 0.00144488 0.00300787 -0.00127953 -0.0112756 -0.00309055 -0.000968504 0 -0.00511417c0,-0.00573622 -0.00674016,-0.00902362 -0.00906299,-0.0144724 -0.00161024,-0.00377953 -0.00820079,-0.0099685 -0.0134449,-0.0100866 -0.00355906,-0.00672441 -0.0268504,-0.0153465 -0.0378543,-0.0153465l-0.0143268 0c-0.00999213,0 -0.0250866,0.00346063 -0.0320276,0.00685039 -0.00596457,0.00290945 -0.0184213,0.0145039 -0.0242402,0.0146339z"/>
   <path id="_95577456" class="fil1" d="M0.347862 0.315413c-0.00469291,-0.00273228 -0.00694094,0.00404724 -0.0085748,0.0088189 -0.00117323,0.00344488 -0.00764961,0.00769685 -0.00937008,0.0110906 -0.00357874,0.00705906 -0.00470079,0.00591732 -0.0072126,0.0122244 -0.00220866,0.00552362 -0.00697244,0.00559449 -0.00774016,0.0125433l-0.00495669 0.00341339 -0.0890079 0 0 -0.00409449c0,-0.00283071 0.000787402,-0.00246063 0.00306693,-0.00307087 0.000125984,-0.00572835 0.0233189,-0.0318661 0.0259646,-0.0330394l0.00370866 -0.00890945 0.00306693 0c0.00329134,0 0.00485039,-0.00900394 0.00788583,-0.0125787 0.00358268,-0.0042126 0.00894882,-0.00426772 0.00950787,-0.0109567l0.00306693 0c0.00107087,-0.00459055 0.0029252,-0.00737402 0.00585433,-0.0105157 0.00185039,-0.00197638 0.00308268,-0.00229134 0.00416142,-0.00402362 0.00219291,-0.00352756 -0.000358268,-0.00201181 0.00346457,-0.00472047 0.00694882,-0.00491339 0.00990157,-0.0171339 0.0144094,-0.0180827l0.00485039 -0.00562992c0.000137795,-0.00616929 0.00307087,-0.00343307 0.00307087,-0.011252l0 -0.00102362c0,-0.00984252 -0.0202756,-0.0325354 -0.0209173,-0.0472717l0.00241339 0.00554331 0.00248425 -0.00882677 -0.00751181 -0.00572047 0 -0.00511811c0.00625591,0.00289764 0.00306693,-0.00657087 0.0027874,-0.0124528l-0.00176378 0.00222047c0.000208661,-0.00937402 0.00655118,-0.0109134 0.0163819,-0.0118307 0.00269291,-0.000251969 0.0198701,-0.00483465 0.0235197,-0.00658661 0.00937795,0.00890157 0.00462598,0.0121102 0.0144213,0.0203661 0.00769685,0.00649213 0.00682283,0.0166457 0.0142244,0.020563l0 -0.00204724c0.00648819,0.00053937 0.00526772,0.00643307 0.0114331,0.00356693l0.00494094 0.00667323 0.00939764 -0.00212598 -0.00117323 -0.00312205 0.00340551 0.000586614 0.00651575 -0.00666535 0.00277953 -0.0109921 0.00602756 -0.0139252 0.00512205 -0.00305906 -0.00147638 -0.000456693 -0.000866142 -0.00908661 0.00529921 -0.00129921 -0.000208661 -0.00114567 0.00405118 0.00114567c0,-0.0134724 0.00438976,-0.00572047 0.00614173,-0.0122756l0.0061378 0 0 -0.00102362 -0.0173937 0 0.000783465 0.000779528 -0.00818898 0.00818898 -0.000779528 -0.000783465 0 0.00511417 -0.00200787 1.1811e-005 -0.00100787 0.00483071 -0.00483858 -0.000531496 -0.011563 0.0192795 -0.00309055 0.000968504 0 0.00511417 -0.00204724 0 -1.9685e-005 0.0032126 -0.00407087 -0.00116535 -0.00245669 0.00181102 -0.0200512 -0.0509252 -0.0920827 0c0.00427953,0.0183701 0.0532008,0.105449 0.0532008,0.111528 0,0.00162205 -0.046248,0.0579961 -0.0515591,0.0650787 -0.00701969,0.00935433 -0.0504252,0.0598031 -0.0517756,0.0648661l0.105382 0c0.00252756,-0.00946063 0.0308583,-0.0363543 0.0347835,-0.0532047z"/>
   <path id="_96356952" class="fil1" d="M0.635362 0.218209c0.0058189,-0.000129921 0.0182756,-0.0117244 0.0242402,-0.0146339 0.00694094,-0.00338976 0.0220354,-0.00685039 0.0320276,-0.00685039l0.0143268 0c0.0110039,0 0.0342953,0.00862205 0.0378543,0.0153465 0.00524409,0.00011811 0.0118346,0.00630709 0.0134449,0.0100866 0.00232283,0.00544882 0.00906299,0.00873622 0.00906299,0.0144724l0 0.00511417 0.00309055 0.000968504 0.00127953 0.0112756 -0.00144488 -0.00300787 -0.00109449 -7.87402e-006 0.000248031 0.0153268 0.00383858 0.00240157 0.000625984 -0.00452756c0.000622047,0.0175354 0.00259055,0.0125394 -0.00551969,0.0123583l0 0.00511417 0.00307087 0c-0.00449213,0.0093622 -0.00770472,0.00437402 -0.00511811,-0.00101969l-0.00516535 -0.000751969c0.00080315,0.00296457 0.00442913,0.00687402 -0.000972441,0.00688976l-0.0910591 6.29921e-005c-0.00222835,0.00142913 -0.0061378,0.00288976 -0.0061378,0.0060748l0 0.00614173c0,0.00559055 0.0088622,0.0193189 0.00920866,0.0225079l0.00409055 0c0.00549213,0 0.00483858,0.00307087 0.00818898,0.00307087l0.0122756 0c0.00214567,-0.00592126 0.0161654,-0.00487402 0.0184173,-0.0133031 0.0107087,0 0.0150236,0.00255118 0.0225079,0.00307087 0.00701969,0.000488189 0.0132047,0.00511417 0.0204646,0.00511417l0.00511417 0 0 0.00409449c0,0.00406299 -0.00700787,0.0111142 -0.0133031,0.0112559l-0.00105906 0.00510236c-0.00998031,0.0011063 -0.0136575,0.0154803 -0.0245197,0.0163819 -0.000968504,0.00890157 -0.0245551,0.0143228 -0.0337598,0.0143228l-0.0245591 0c-0.00282677,0 -0.00245669,-0.000787402 -0.00306693,-0.00306693l-0.00511417 0 0.00244094 -0.00270079 -0.00957087 0.00088189c-0.00695276,0.000811024 -0.0178228,-0.0101457 -0.023563,-0.0114803 -0.000129921,-0.00565748 -0.00357874,-0.0101102 -0.0092126,-0.0102323 -0.000712598,-0.00267323 -0.00797638,-0.0109646 -0.00985039,-0.0157283 -0.00208268,-0.00530709 -0.0044685,-0.0133898 -0.0044685,-0.0200866l-0.00204724 0 0 -0.0184134c0,-0.00476772 0.00250787,-0.0210472 0.00614173,-0.0225118l0.00120866 -0.0102047 0.00885827 -0.0169606c0.00309055,-0.00151575 0.00723622,-0.00694094 0.00981102,-0.010248 0.00232677,-0.00298819 0.00745669,-0.00922047 0.00876772,-0.0117008zm-0.0368346 0.063437l0 0.0173976c0,0.0233189 0.00890157,0.0401772 0.0207087,0.0519331 0.0099685,0.00992126 0.0306654,0.0227559 0.0498858,0.0227559l0.0225079 0c0.0169764,0 0.0370394,-0.0110591 0.0470709,-0.0184094 0.00742913,-0.00543701 0.0277756,-0.0264449 0.0286417,-0.0368386 -0.0101614,-0.00237008 -0.0454882,-0.0122795 -0.0542283,-0.0122795 -0.00420472,0 -0.00934646,0.0143228 -0.0235276,0.0143228l-0.00307087 0c-0.0112283,0 -0.019437,-0.0128701 -0.019437,-0.0235315l0 -0.00204724c0,-0.0053937 0.0226969,-0.00307087 0.0286457,-0.00307087 0.0109134,0 0.0218268,0 0.0327402,0 0.0105748,0 0.0211457,0 0.0317165,0 0.0169213,0 0.0184173,0.00361811 0.0184173,-0.0143228l0 -0.0122795c0,-0.0410551 -0.0381299,-0.0726457 -0.0808268,-0.0726457l-0.00818504 0c-0.024622,0 -0.048252,0.0162953 -0.0621535,0.0278819 -0.0111339,0.00927559 -0.0289055,0.041189 -0.0289055,0.0611339z"/>
   <path id="_96356880" class="fil6" d="M0.522819 0.205933l-0.0153465 -0.00614173c-0.000905512,0.0108583 -0.00488583,0.0294882 -0.00690551,0.041185 -0.00235827,0.0136457 -0.00530315,0.0268465 -0.0075315,0.040563 -0.00231102,0.0142244 -0.00504331,0.0267323 -0.00769291,0.0403937 -0.00169685,0.00873622 -0.00651969,0.0359528 -0.00651969,0.0425906l0 0.00409449 0.0746693 -3.93701e-006 0.0307126 -0.168823 -0.00199606 -0.00117717c-0.0108858,0.00741339 -0.0208543,0.0114094 -0.0389291,0.0114094 -0.0076063,0 -0.0156063,-0.00100787 -0.0204606,-0.00409055z"/>
   <path id="_96356808" class="fil1" d="M1.11418 0.209c0.00159843,-0.00598819 0.0168976,-0.0122756 0.0255787,-0.0122756l0.0132992 0c0.0030748,0 0.00660236,0.00222441 0.0102323,0.00306693 0.000622047,0.00566929 0.0107126,0.0062874 0.0133031,0.0173976 0.0110906,0.000244094 0.011252,0.0135394 0.011252,0.0245551l0 0.0153465c0,0.00953937 -0.00533858,0.0427559 -0.00776772,0.0515748 -0.00276378,0.0100394 -0.00170472,0.0161535 -0.00365354,0.0260197 -0.00107874,0.00544488 -0.0059685,0.0162126 -0.0059685,0.0226772l0 0.00614173 -0.0624134 0 -0.00614173 -0.000137795 0.0131378 -0.0858386 0.000165354 -0.0173661 -0.000858268 0.000574803 -0.00567717 -0.00849213 -0.0159724 -0.000267717c-0.00179134,0.00444094 -0.00340157,0.000165354 -0.00738583,0.00488976 -0.00309055,0.00365748 -0.00110236,0.0038189 -0.00591339,0.0063622l-0.0026811 0.0205315 -0.000389764 0.00504724 -0.00204331 0 0 0.00614173 -0.00645669 0.040878 0.000318898 0.00414173 -0.00205118 0 0 0.00511417c0,0.00366142 -0.00272835,0.0184213 -0.0061378,0.0184213l-0.0654764 0 0 -0.0102323 0.00204331 0 0.00712205 -0.0511693c0.00429134,-0.00633858 0.00427953,-0.0270906 0.00705906,-0.0359449 0.00135827,-0.00433071 0.00217717,-0.0132598 0.00326378,-0.0182244 0.00135827,-0.00619685 0.00506299,-0.00866929 0.00506299,-0.0164213l0.00609055 0.00127165 -0.00433465 -0.00398031 0.00540551 -0.0111142 0.00223622 -0.0096811 0.00390551 -2.75591e-005c0.00601969,0 0.0046063,0.00461417 0.0061378,0l0.0153465 0 0.0215394 0.000811024 -5.51181e-005 0.00123228c-0.00115748,-0.00434252 -0.00204331,-0.0017874 -0.00204331,-0.00511417 0,-0.00143701 0.0013937,-0.00204724 0.00306693,-0.00204724l0.00409449 0c0.00269685,0.0115787 -0.000393701,0.0153425 0.00716142,0.0225118l0.00812205 -0.00228346c0.000425197,-0.00416535 0.00362205,-0.00682283 0.00824803,-0.0069252 0.0012874,-0.00482283 0.00423228,-0.0070315 0.0102283,-0.00716535zm-0.0265984 0.0122795l0.00409055 -0.0235315 -0.0695709 0c-0.00490551,0 -0.0085315,0.0341693 -0.0096378,0.0404961 -0.00262992,0.0150669 -0.00561811,0.029315 -0.00775591,0.0434016 -0.00202362,0.0133268 -0.00463386,0.0298425 -0.00774409,0.0434173 -0.00205118,0.00897638 -0.00760236,0.0355276 -0.00760236,0.0435551l0.0757126 0c0.000625984,-0.00754724 0.0038189,-0.0241457 0.00571654,-0.0321417 0.00252362,-0.0106339 0.00333465,-0.0219646 0.00545276,-0.0324016 0.00349213,-0.0171693 0.00666142,-0.0500551 0.0256614,-0.0500551 0.00514567,0 0.0102323,0.00509055 0.0102323,0.0102323l0.000122047 0.00923228 -0.0154685 0.0951339 0.0726378 0c0.00533071,0 0.0112165,-0.0447874 0.0122087,-0.0512323 0.00161024,-0.0104646 0.0036811,-0.0189528 0.00500787,-0.0267087 0.000877953,-0.00512205 0.00426772,-0.0256575 0.00426772,-0.0274488l0 -0.0327402c0,-0.0165906 -0.0220866,-0.0378583 -0.0398976,-0.0378583l-0.00920866 0c-0.0284016,0 -0.0453701,0.0262874 -0.0542244,0.0286496z"/>
   <path id="_96356736" class="fil1" d="M0.372417 0.17626l0.00407087 0.00116535 1.9685e-005 -0.0032126 0.00204724 0 0 -0.00511417 0.00309055 -0.000968504 0.011563 -0.0192795 0.00483858 0.000531496 0.00100787 -0.00483071 0.00200787 -1.1811e-005 0 -0.00511417 0.000783465 0.000783465 0.00818504 -0.00818898 -0.000783465 -0.000779528 0.0173937 0 0 0.00102362 -0.0061378 0c-0.00175197,0.00655512 -0.0061378,-0.00119685 -0.0061378,0.0122756l-0.00405512 -0.00114567 0.000212598 0.00114567 -0.00530315 0.00129921 0.000870079 0.00908661 0.00147244 0.000456693 -0.00512205 0.00305906 -0.00602756 0.0139252 -0.00277953 0.0109921 -0.00651575 0.00666535 -0.00340551 -0.000586614 0.00117323 0.00312205 -0.00939764 0.00212598 -0.00494094 -0.00667323c-0.00616535,0.00286614 -0.00494488,-0.00302756 -0.0114331,-0.00356693l0 0.00204724c-0.00740157,-0.00391732 -0.00652756,-0.0140709 -0.0142244,-0.020563 -0.00979528,-0.00825591 -0.00504331,-0.0114646 -0.0144213,-0.0203661 -0.00364961,0.00175197 -0.0208268,0.00633465 -0.0235197,0.00658661 -0.00983071,0.000917323 -0.0161732,0.00245669 -0.0163819,0.0118307l0.00176378 -0.00222047c0.000283465,0.00588189 0.0034685,0.0153504 -0.0027874,0.0124528l0 0.00511811 0.00751181 0.00572047 -0.00248425 0.00882677 -0.00240945 -0.00554331c0.000637795,0.0147362 0.0209134,0.0374291 0.0209134,0.0472717l0 0.00102362c0,0.0078189 -0.00293307,0.00508268 -0.00307087,0.011252l-0.00485039 0.00562992c-0.00450787,0.000948819 -0.00746063,0.0131693 -0.0144055,0.0180827 -0.00382677,0.00270866 -0.00127559,0.00119291 -0.0034685,0.00472047 -0.00107874,0.00173228 -0.00231102,0.00204724 -0.00416142,0.00402362 -0.00292913,0.00314173 -0.00478346,0.0059252 -0.00585433,0.0105157l-0.00306693 0c-0.000559055,0.00668898 -0.0059252,0.00674409 -0.00950787,0.0109567 -0.00303543,0.0035748 -0.00459449,0.0125787 -0.00788583,0.0125787l-0.00306693 0 -0.00370866 0.00890945c-0.00264173,0.00117323 -0.0258386,0.027311 -0.0259646,0.0330394 -0.00227953,0.000610236 -0.00306693,0.000240157 -0.00306693,0.00307087l0 0.00409449 0.0890079 0 0.00496063 -0.00341339c0.00076378,-0.00694882 0.00552756,-0.00701969 0.00773622,-0.0125433 0.00251575,-0.00630709 0.00363386,-0.00516535 0.00721654,-0.0122244 0.00171654,-0.0033937 0.00819291,-0.00764567 0.00937008,-0.0110906 0.00162992,-0.00477165 0.00387795,-0.0115512 0.00857087,-0.0088189l0.00409449 -0.00102362c0.000275591,0.0122559 0.0250827,0.0647913 0.0303031,0.0801969 0.00437402,0.0129213 0.010748,0.0267953 0.0160709,0.0391811 0.00278346,0.00647638 0.0125512,0.0381929 0.0180827,0.0381929l0.0890118 0 0.00103543 -0.000456693 -0.0984724 -0.222787 0.0953898 -0.121571 -0.0982165 0c-0.00409843,0 -0.0321496,0.042 -0.0327402,0.0491142z"/>
   <path id="_96356448" class="fil7" d="M0.599547 0.433079c0,0.0043189 0.00318504,0.0102323 0.00716535,0.0102323l0.00101969 0c0.00318504,0 0.0061378,-0.00324016 0.0061378,-0.00716535l0 -0.00716142c0,-0.00330709 -0.0037126,-0.00511417 -0.00715748,-0.00511417 -0.00332677,0 -0.00716535,0.00632283 -0.00716535,0.00920866z"/>
   <path id="_73243680" class="fil1" d="M0.831795 0.433079l0 0.00102362c0,0.00332283 0.00312598,0.00920866 0.00614173,0.00920866l0.00204331 0c0.00246457,0 0.0061378,-0.00367717 0.0061378,-0.0061378l0 -0.00511811c0,-0.00374016 -0.00282283,-0.00818504 -0.0061378,-0.00818504 -0.00527953,0 -0.00818504,0.00425984 -0.00818504,0.00920866z"/>
   <path id="_96845992" class="fil5" d="M0.874768 0.460705c0.00646457,0 0.00920472,0.00454331 0.00920472,0.0112559l-0.0184134 0c0.00011811,-0.00546457 0.00417323,-0.0112559 0.00920866,-0.0112559zm0.0153425 0.0399055c-0.000295276,-0.00360236 -0.0036063,-0.0092126 -0.00715748,-0.0092126 -0.00238583,0 -0.00555512,0.00409449 -0.0112559,0.00409449 -0.00400787,0 -0.00716142,-0.00380709 -0.00716142,-0.00818504l0 -0.00511811 0.0317165 0 0 -0.0061378 0 -0.00409055c-0.000220472,-0.00998819 -0.0078189,-0.0225118 -0.0173937,-0.0225118l-0.00716142 0c-0.0124764,0 -0.0204646,0.0166535 -0.0204646,0.0306929 0,0.0145079 0.00647638,0.027626 0.0204646,0.027626 0.0102087,0 0.0125039,-0.00320079 0.0184134,-0.00715748z"/>
   <path id="_96845872" class="fil8" d="M0.829748 0.45252l-0.00511417 0.0532047 0.0102323 0c0.00548031,0 0.00920866,-0.0469528 0.00920866,-0.0552559l-0.0102323 0c-0.00166142,0 -0.00325591,0.00122835 -0.00409449,0.00205118z"/>
   <path id="_96755352" class="fil5" d="M1.01698 0.471961c0,-0.00608268 0.0034252,-0.0112559 0.00818504,-0.0112559 0.00646457,0 0.00920472,0.00454331 0.00920472,0.0112559l-0.0173898 0zm-0.0132992 -0.00511811c-0.000267717,0.00320079 -0.00102756,0.00363386 -0.00102756,0.00716142l-0.000259843 0.00821654 0.0012874 0.012248c0.00729921,0.0109016 0.00414567,0.0052126 0.0122756,0.0122795 0.00229528,0.000535433 0.00235039,0.00101969 0.00511417,0.00101969l0.00307087 0c0.0046811,0 0.0163661,-0.00467717 0.0163661,-0.00818504 0,-0.00198031 -0.00376772,-0.00818504 -0.00511417,-0.00818504 -0.00581102,0 -0.0051378,0.00409449 -0.0132992,0.00409449 -0.00325984,0 -0.00716142,-0.0052126 -0.00716142,-0.00920866l0 -0.00409449 0.0317165 0 0 -0.011252c0,-0.0104843 -0.0088937,-0.0214882 -0.019437,-0.0214882l-0.00307087 0c-0.0136299,0 -0.0154921,0.0102402 -0.0204606,0.0173937z"/>
   <path id="_96755424" class="fil9" d="M1.05586 0.463772l0 0.0061378c0,0.0124921 0.0173937,0.010248 0.0173937,0.0204685 0,0.0023937 -0.00169685,0.00409055 -0.00409449,0.00409055l-0.00101969 0c-0.00755118,0 -0.00848425,-0.00409055 -0.0122795,-0.00409055 -0.00245669,0 -0.00306693,0.00722835 -0.00306693,0.0102323 0,0.00422047 0.0107244,0.00715748 0.0153465,0.00715748l0.00204331 0c0.00672441,0 0.0163701,-0.00831102 0.0163701,-0.0153465l0 -0.00409055c0,-0.0156024 -0.0184134,-0.015622 -0.0184134,-0.0225079l0 -0.00102756c0,-0.00235827 0.000708661,-0.00306693 0.00306693,-0.00306693l0.00307087 0c0.00439764,0 0.00554331,0.00118898 0.00920472,0.00204331 0.00120079,-0.00226378 0.00307087,-0.00499213 0.00307087,-0.00818504 0,-0.0032126 -0.00710236,-0.0061378 -0.0102323,-0.0061378l-0.00409055 0c-0.0083937,0 -0.0163701,0.0063622 -0.0163701,0.0143228z"/>
   <path id="_95576184" class="fil9" d="M0.736646 0.445354l0 0.00614173c0,0.0172598 0.0214843,0.0200748 0.0214843,0.0296732 0,0.00437795 -0.00314961,0.0081811 -0.00716142,0.0081811 -0.00881102,0 -0.00937795,-0.00655512 -0.0163701,-0.0081811 -0.000807087,0.00301969 -0.0061378,0.010252 -0.0061378,0.0122756 0,0.00603543 0.0130433,0.0143228 0.0194409,0.0143228l0.00511417 0c0.00858268,0 0.0204646,-0.013622 0.0204646,-0.0235315l0 -0.00818504c0,-0.0162598 -0.0214882,-0.0208386 -0.0214882,-0.0286496l0 -0.00101969c0,-0.00246457 0.00367717,-0.00614173 0.0061378,-0.00614173l0.00102362 0c0.0061063,0 0.00494488,0.00364567 0.0112559,0.00511417 0.00122835,-0.00526772 0.00511417,-0.0068622 0.00511417,-0.0122756 0,-0.00522047 -0.0107953,-0.00920866 -0.0173937,-0.00920866l-0.00101969 0c-0.0102992,0 -0.0204646,0.0124016 -0.0204646,0.0214843z"/>
   <path id="_95579376" class="fil8" d="M1.31266 0.505724l0.0345236 -3.54331e-005 0.00230709 -0.0183819 -0.0163701 0c-0.00235827,0 -0.00307087,-0.000712598 -0.00307087,-0.00307087l-0.000405512 -0.00414961 0.00552362 -0.0408701 0 -0.0133031 -0.0112559 0c-0.00465748,0 -0.00669291,0.0331496 -0.00716142,0.0388819 -0.000622047,0.00768898 -0.00590945,0.038063 -0.00409055,0.0409291z"/>
   <path id="_95579304" class="fil7" d="M0.548394 0.504701c0.00229134,0.000531496 0.00235039,0.00102362 0.00511417,0.00102362l0.0305315 -1.5748e-005 0.00118504 -0.0132874 0 -0.00511417 -0.0194409 0 2.75591e-005 -0.00511417 0.00611417 -0.0480906 0 -0.00818898 -0.0112559 0c-0.0056378,0 -0.00649213,0.0309961 -0.00724016,0.0377835 -0.00133465,0.0121575 -0.00503543,0.028378 -0.00503543,0.0410039z"/>
   <path id="_95576304" class="fil1" d="M1.14181 0.457634c0,-0.00744094 0.00174016,-0.0106654 0.00307087,-0.0163701 0.00758268,0 0.0143228,0.00176772 0.0143228,0.00920472l0 0.00102756c0,0.00505906 -0.00414961,0.00920866 -0.00920866,0.00920866l-0.00818504 0 0 -0.00307087zm-0.00409055 0.0306969l0.00307087 -0.0111654 0.0143189 -0.00111417 -0.0153465 0c0.00893701,-0.00777165 0.0296693,0.00720079 0.0296693,-0.027626l-0.00204331 0 0 -0.0061378c0,-0.00455512 -0.00289764,-0.000448819 -0.00308661,-0.00809843l-0.00709055 -0.00109055 0.000968504 -0.00309055 -0.019437 0c-0.00276772,0 -0.00282283,0.000488189 -0.00511811,0.00102362l0.000322835 0.00312205 -0.00237008 0.0173425 0 0.00306693c0,0.00586614 0.00163386,0.0073189 0.00232283,0.0127165l-0.0035 0.00164173 0.00117717 0.0061063 -0.00226772 5.90551e-005 0.00123622 0.00402362 -0.00408661 0.00205906 0 0.0163701c0,0.00235433 0.000716535,0.00307087 0.00307087,0.00307087l0.00204724 0c0.00353937,0 0.00511417,-0.0158543 0.00511417,-0.0194409l0.00102756 0 0 0.00716142z"/>
   <path id="_95579448" class="fil1" d="M0.80978 0.45961c-0.00886614,7.08661e-005 -0.0168622,0.00346457 -0.0168622,0.0123504l0 0.011252c0,0.0137874 0.0153465,0.0101378 0.0153465,0.0153465l0 0.00409449 -0.00409449 -0.000279528 -0.0081811 0.000279528c-0.00783465,0 -0.0122795,-0.00972835 -0.0122795,-0.0184173l0 -0.00818504c0,-0.00229528 0.000811024,-0.00224803 0.00204724,-0.00409055l0 -0.0061378c0.00348031,-0.00520079 0.00988189,-0.0133031 0.0184134,-0.0133031l0.00601575 3.54331e-005 0.00127165 0.00401575 -0.00126772 -0.000110236 -0.000409449 0.00314961zm0.00257874 0.0338346l0 -0.00306693c-0.00288189,0.000669291 -0.00520079,0.00204331 -0.00818898,0.00204331 -0.00308268,0 -0.0081811,-0.00417323 -0.0081811,-0.00716142l0 -0.0102323c0,-0.00417323 0.00444094,-0.0112559 0.0081811,-0.0112559l0.00307087 0c0.00587402,0 0.00444488,0.00282283 0.00920866,0.00409449l0 -0.0143268c-0.00172441,-0.0025748 -0.00498031,-0.00511417 -0.00920866,-0.00511417l-0.00204331 0c-0.0146811,0 -0.0245591,0.0151339 -0.0245591,0.0296732l0 0.00716142c0,0.0108504 0.00888976,0.0225079 0.0214882,0.0225079l0.00204331 0c0.00703937,0 0.00818898,-0.00698031 0.00818898,-0.0143228z"/>
   <path id="_95576736" class="fil9" d="M0.666051 0.471961c0.00129921,-0.00557874 0.00343307,-0.0112559 0.0102323,-0.0112559 0.00504724,0 0.00806299,0.00587402 0.0081811,0.0112559l-0.0184134 0zm-0.0133031 0l0 0.0163701c0,0.0099252 0.00916535,0.019437 0.0184213,0.019437l0.00408661 0c0.00622441,0 0.0127087,-0.00525984 0.0153504,-0.00920866 -0.000968504,-0.00144488 -0.00435827,-0.00716142 -0.00614173,-0.00716142 -0.00310236,0 -0.0069252,0.00409449 -0.0122756,0.00409449 -0.0031811,0 -0.00818504,-0.00602362 -0.00818504,-0.0102323 0,-0.00235827 0.000712598,-0.00307087 0.00307087,-0.00307087l0.0296693 0 0 -0.0061378c0,-0.011874 -0.00648425,-0.0266024 -0.0173937,-0.0266024l-0.00716142 0c-0.00909449,0 -0.0194409,0.0128543 -0.0194409,0.0225118z"/>
   <path id="_95576136" class="fil1" d="M0.812236 0.45763l-1.1811e-005 -0.00222047 -0.00133858 -0.00424016 -0.00635039 -3.93701e-005c-0.00900787,0 -0.0157638,0.00855118 -0.019437,0.0140394l0 0.00647638c-0.00130315,0.00194882 -0.00215748,0.00189764 -0.00215748,0.00432283l0 0.0086378c0,0.00916929 0.00469291,0.019437 0.0129567,0.019437l0.0086378 -0.000291339 0.0043189 0.000291339 0.00111811 -0.00614173c0,-0.00549606 -0.0161969,-0.00164567 -0.0161969,-0.0161969l0.000232283 -0.00771654c0,-0.00937402 0.00844094,-0.0129606 0.0177953,-0.0130315l0.000433071 -0.00332677z"/>
   <path id="_95579664" class="fil1" d="M1.40065 0.475028c0,-0.00496063 0.00473622,-0.0112559 0.0102283,-0.0112559l0.00204724 0c0.00551969,0 0.00920866,0.00506299 0.00920866,0.0102323l0 0.00307087c0,0.00658661 -0.00347638,0.0143228 -0.0102323,0.0143228l-0.00409055 0c-0.00325984,0 -0.00716142,-0.0052126 -0.00716142,-0.00920866l0 -0.00716142zm-0.0143268 0.00204724c0,0.0134764 0.00333465,0.0306929 0.0153504,0.0306929 0.0081378,0 0.0113976,-0.00485827 0.0163701,-0.00818504l0 0.00511811 0.0118465 -8.66142e-005 0.0035 -0.0132165 0.00716142 -0.0705984 -0.0102323 0c-0.00597638,0 -0.00573622,0.0307008 -0.00716142,0.0368346 -0.00703543,-0.0016378 -0.0048622,-0.00818504 -0.0143268,-0.00818504 -0.0162835,0 -0.019378,0.0141929 -0.0225079,0.027626z"/>
   <path id="_95579328" class="fil10" d="M0.624102 0.451496l-0.00409055 0 0 0.0122756c0.0072874,0.000161417 0.00503937,0.0101969 0.00402362,0.019374 -0.000830709,0.00748031 -0.00300394,0.0129921 -0.00300394,0.0225787l0.0130787 -2.75591e-005 0.00533858 -0.0419252 0.00614173 0c0.00314173,0 0.00409055,-0.00299606 0.00409055,-0.0061378l0 -0.00716535 -0.00844488 -2.75591e-005 0.00128346 -0.012248c0.00211024,-0.00140945 0.00265354,-0.00307087 0.00511417,-0.00307087l0.0039685 -7.87402e-006 0.00114567 -0.014315c-0.00229528,-0.000531496 -0.00235039,-0.00102362 -0.00511417,-0.00102362l-0.00409449 0c-0.019122,0 -0.0118543,0.0317205 -0.019437,0.0317205z"/>
   <path id="_95576472" class="fil10" d="M1.36279 0.449449c-0.00470866,0.00298819 -0.00716142,0.000925197 -0.00716142,0.0102323l0 0.00409055 0.00307087 0c0.0059252,0 -0.00101969,0.0318937 -0.00101969,0.0409291l0.0128583 -4.72441e-005 0.00351181 -0.0265551 0.00204331 -0.0143268 0.00703937 -1.5748e-005 0.00114567 -0.00919291 0 -0.00102362c0,-0.00605906 -0.00662598,-2.3622e-005 -0.00721654,-0.00609843 -0.000102362,-0.0010315 0.0017126,-0.0115039 0.00210236,-0.0123189l-0.0133937 -1.1811e-005 -0.00298031 0.0143386z"/>
   <path id="_95577816" class="fil7" d="M1.25945 0.48935l-0.00101969 0.00920866c-0.00038189,0.00253937 0.00137008,0.00427165 0.00204331,0.00716535 0.00352362,0.000940945 0.0027126,0.00204331 0.00409449,0.00204331 0.00374016,0 0.00818504,-0.00282283 0.00818504,-0.0061378l0 -0.00920866c0,-0.00238189 -0.00273228,-0.00511417 -0.00511417,-0.00511417l-0.00409449 0c-0.00229528,0 -0.00224803,0.000807087 -0.00409449,0.00204331z"/>
   <polygon id="_95579544" class="fil8" points="0.598272,0.460677 0.596933,0.463823 0.59239,0.504701 0.605437,0.504669 0.61285,0.450469 0.599252,0.450441 "/>
   <path id="_95576568" class="fil9" d="M0.921827 0.457634l0 -0.00716535 -0.0124921 -2.3622e-005 -0.00592126 0.0542559 0.0122756 0c0.00236614,-0.0101417 0.00224409,-0.0409291 0.0122795,-0.0409291l0.00204724 0c0.00280315,0 0.00645669,0.00465354 0.00628346,0.0071811l-0.00321654 0.0296575 0 0.00409055 0.0125787 3.54331e-005 0.00379134 -0.0337992 0 -0.00818504c0,-0.00678346 -0.00476772,-0.0133031 -0.0112559,-0.0133031l-0.00306693 0c-0.00736614,0 -0.0072126,0.00655906 -0.0133031,0.00818504z"/>
   <path id="_95545816" class="fil1" d="M1.13669 0.505724l0.00102756 -0.0173937 0 -0.00716142 -0.00102756 0c0,0.00358661 -0.0015748,0.0194409 -0.00511417,0.0194409l-0.00204724 0c-0.00235433,0 -0.00307087,-0.000716535 -0.00307087,-0.00307087l0 -0.0163701 0.00408661 -0.00205906 -0.00123622 -0.00402362 0.00226772 -5.90551e-005 -0.00117717 -0.0061063 0.0035 -0.00164173c-0.000688976,-0.00539764 -0.00232283,-0.00685039 -0.00232283,-0.0127165l0 -0.00306693 0.00237008 -0.0173425 -0.000322835 -0.00312205c0.00229528,-0.000535433 0.00235039,-0.00102362 0.00511811,-0.00102362l0.019437 0 -0.000968504 0.00309055 0.00709055 0.00109055c0.000188976,0.00764961 0.00308661,0.00354331 0.00308661,0.00809843l0 0.0061378 0.00204331 0c0,0.0348268 -0.0207323,0.0198543 -0.0296693,0.027626l0.0153465 0 0.00511811 0c0.0138661,-0.0092874 0.00871654,-0.0184016 0.0146102,-0.0225906l0.0140354 0.0522638 0.00920866 0c0.00658268,0 0.022815,-0.0507244 0.0296693,-0.0532047l0 0.0061378c0,0.00276378 -0.000488189,0.0028189 -0.00102362,0.00511417l0.00409449 0c0.00580709,0 0.00164961,0.014937 0.00076378,0.019185 -0.00129528,0.00623622 -0.0017874,0.0147087 -0.0017874,0.0227677l0.0102323 0c0.00548031,0 0.00144094,-0.0050315 0.00409055,-0.00920866l0.00409055 -0.0327441 0.00409449 0c0.00388189,0 0.00409449,-0.00621654 0.00409449,-0.0102323l0 -0.00307087 -0.00740157 -1.9685e-005 0.00126378 -0.0153268 -0.0122795 0c0,0.0291496 -0.018752,0.00740551 -0.0272795,0.0177441 -0.00117323,0.00142126 -0.0124291,0.0300669 -0.012622,0.0323937l-0.00204724 0c-0.00206299,-0.00885827 -0.00531102,-0.0289724 -0.00920472,-0.0347913l-0.0122835 0c-0.00544882,-0.0103031 -0.00217323,-0.0245551 -0.0214843,-0.0245551l-0.019437 0c-0.00642913,0 -0.011252,0.0684213 -0.011252,0.079811l0.0143189 0z"/>
   <path id="_95545264" class="fil9" d="M1.44567 0.503677c0.0021063,0.00141339 0.00265748,0.00307087 0.00511417,0.00307087l0.00307087 0c0.00288976,0 0.00394882,-0.00234646 0.00511417,-0.00409449l0 -0.0122756c-0.0021063,-0.00141339 -0.00265748,-0.00307087 -0.00511417,-0.00307087l-0.00409055 0c-0.00330709,0 -0.00511811,0.0037126 -0.00511811,0.00716142l0 0.00409055c0,0.00276772 0.000488189,0.00282283 0.00102362,0.00511811z"/>
   <path id="_95543584" class="fil9" d="M0.985264 0.506748l0.00397638 -0.00231102 0.00125984 -0.0140512c-0.00332283,0.000255906 -0.00375591,0.00101181 -0.00728346,0.00101181l-0.00204724 0c-0.00581102,0 -0.00818504,-0.00544488 -0.00818504,-0.0112559 0,-0.0068189 0.00340551,-0.0163701 0.0092126,-0.0163701l0.00408661 0c0.00239764,0 0.00303937,0.00211024 0.00716535,0.00307087l0.00102362 -0.0133031c-0.00103543,-0.00140945 -0.00392126,-0.00409055 -0.0061378,-0.00409055l-0.0102323 0c-0.00875197,0 -0.0194409,0.0155591 -0.0194409,0.0235315l0 0.0143268c0,0.00123622 0.00490945,0.0121614 0.00592126,0.0135157 0.00238189,0.00320079 0.00833858,0.00694488 0.0135197,0.00694488 0.00352756,0 0.00396063,-0.000751969 0.00716142,-0.00101969z"/>
   <path id="_95543872" class="fil11" d="M0.418512 0.520071c-0.00614567,0.000110236 -0.0202402,0.0072126 -0.0274843,0.00937795 -0.00463386,0.00138583 -0.0248465,0.011063 -0.0267992,0.011063l-0.00511417 0c-0.00133465,0.00330709 -0.027185,0.0122756 -0.0327402,0.0122756l-0.00511417 0c-0.00198819,0.0049252 -0.0271024,0.016374 -0.0347835,0.016374l-0.00409449 0 0 0.00306693c-0.00450394,0.00105118 -0.0126811,0.0061378 -0.0132992,0.0061378l-0.00966535 0.000850394 -0.00423622 0.00285039 -0.00125984 -0.00128346 0.00799606 -0.00957874 -0.00248819 -0.000354331 0.0076063 -0.00885433c-0.00123622,-0.00184252 -0.00204724,-0.00179528 -0.00204724,-0.00409055 0,-0.00415354 0.00382677,-0.00650787 0.00668504,-0.00867717 0.00405906,-0.00309055 -0.00359843,-0.00176772 0.00848031,-0.00457874l-0.00105906 -0.00435827 0.00329921 -0.00285827 -0.00183858 -0.00372835 0.00302756 -0.00272047 0.00296063 -0.00783858 0.000728346 0.000767717 0.00348425 -0.00442913 0.00901575 -0.00352756c0.000555118,-0.00661417 0.00947638,-0.00512992 0.0163701,-0.00511811 0.00840945,1.5748e-005 0.0124921,-0.00105118 0.0204646,-0.00102362 0.0149016,5.51181e-005 0.0273268,0.00102362 0.0429724,0.00102362l0.0122756 0c0.00311811,0 0.00374409,-0.000464567 0.00635827,-0.00128346l0.00285039 0.00333071 0.00718898 0.00023622 0.013063 -0.00107874 0.00430315 0.00493307 -0.00594882 7.48031e-005 -0.00115748 0.00301969zm-0.156594 0.0675039l0.00205118 -0.00101969 -0.00102756 -0.00204724c0.00769685,-0.000641732 0.0303307,-0.0116772 0.035811,-0.0153465 0.0139961,0 0.0185709,-0.00920866 0.0286496,-0.00920866l0 -0.00307087c0.00405118,-9.05512e-005 0.0205118,-0.00448425 0.0214803,-0.00716142l0.00511811 0c0.00341339,0 0.0314843,-0.0143228 0.0327402,-0.0143228l0.00306693 0c0.00162598,-0.00402756 0.0121929,-0.00442913 0.0162008,-0.00631496 0.00525591,-0.00247244 0.0108976,-0.0038622 0.0162087,-0.00629921 0.00627165,-0.00288189 0.0293504,-0.0100984 0.0299843,-0.015874l-0.0132835 -0.00118504 -0.138118 0c-0.00725984,0 -0.0162087,0.00698031 -0.016374,0.0143228 -0.00220472,0.000590551 -0.0153425,0.0195354 -0.0153425,0.0225079l0 0.00307087c-0.00324016,0.000866142 -0.0270591,0.0368031 -0.0294173,0.0379055l-0.00127559 0.010185c0.00724016,0 0.0189882,-0.00895669 0.0235276,-0.00614173z"/>
   <path id="_95546008" class="fil2" d="M0.261921 0.587575c-0.00453937,-0.00281496 -0.0162874,0.00614173 -0.0235315,0.00614173l0.00127953 -0.010185c0.00235827,-0.00110236 0.0261772,-0.0370394 0.0294173,-0.0379055l0 -0.00307087c0,-0.00297244 0.0131378,-0.0219173 0.0153425,-0.0225079 0.000165354,-0.00734252 0.00911417,-0.0143228 0.016374,-0.0143228l0.138118 0 0.0132835 0.00118504c-0.000633858,0.00577559 -0.0237126,0.0129921 -0.0299882,0.015874 -0.00530709,0.00243701 -0.0109488,0.00382677 -0.0162047,0.00629921 -0.00400787,0.00188583 -0.0145787,0.0022874 -0.0162008,0.00631496l-0.00306693 0c-0.00125591,0 -0.0293268,0.0143228 -0.0327441,0.0143228l-0.00511417 0c-0.000968504,0.00267717 -0.0174291,0.00707087 -0.0214803,0.00716142l0 0.00307087c-0.0100787,0 -0.0146535,0.00920866 -0.0286496,0.00920866 -0.00548031,0.00366929 -0.0281142,0.0147047 -0.035811,0.0153465l0.00102362 0.00204724 0.00300787 -0.000161417 0.116362 -0.0457165 0.0954843 -0.0380236 -0.187228 0 -0.00102362 0 -0.0643583 0.0994961 0.0357087 -0.0145748z"/>
   <path id="_95545936" class="fil2" d="M0.419673 0.517051l0.00594882 -7.48031e-005 -0.00430315 -0.00493307 -0.0130669 0.00107874 -0.00718504 -0.00023622 -0.00285039 -0.00333071c-0.00261811,0.000818898 -0.00324016,0.00128346 -0.00635827,0.00128346l-0.0122795 0c-0.0156457,0 -0.0280669,-0.000968504 -0.0429685,-0.00102362 -0.00797244,-2.75591e-005 -0.0120551,0.00103937 -0.0204646,0.00102362 -0.0068937,-1.1811e-005 -0.015815,-0.00149606 -0.0163701,0.00511811l-0.00901575 0.00352756 -0.00348425 0.00442913 -0.000728346 -0.000767717 -0.00296063 0.00783858 -0.00302756 0.00272047 0.00183858 0.00372835 -0.00329921 0.00285827 0.00105906 0.00435827c-0.0120787,0.00281102 -0.00442126,0.00148819 -0.00848031,0.00457874 -0.00285827,0.00216929 -0.00668504,0.00452362 -0.00668504,0.00867717 0,0.00229528 0.000811024,0.00224803 0.00204724,0.00409055l-0.0076063 0.00885433 0.00248819 0.000354331 -0.00799606 0.00957874 0.00125591 0.00128346 0.00424016 -0.00285039 0.00966535 -0.000850394c0.00061811,0 0.00879528,-0.00508661 0.0132992,-0.0061378l0 -0.00306693 0.00409055 0c0.00768504,0 0.0327992,-0.0114488 0.0347874,-0.016374l0.00511417 0c0.00555512,0 0.0314055,-0.0089685 0.0327402,-0.0122756l0.00511417 0c0.00195276,0 0.0221654,-0.00967717 0.0267992,-0.011063 0.00724409,-0.00216535 0.0213346,-0.00926772 0.0274843,-0.00937795l0.00115748 -0.00301969z"/>
  </g>
 </g>
</svg>
