<?xml version="1.0" encoding="UTF-8"?>
<!DOCTYPE svg PUBLIC "-//W3C//DTD SVG 1.1//EN" "http://www.w3.org/Graphics/SVG/1.1/DTD/svg11.dtd">
<!-- Creator: CorelDRAW -->
<svg xmlns="http://www.w3.org/2000/svg" xml:space="preserve" width="0.666661in" height="0.666661in" style="shape-rendering:geometricPrecision; text-rendering:geometricPrecision; image-rendering:optimizeQuality; fill-rule:evenodd; clip-rule:evenodd"
viewBox="0 0 0.666661 0.666661"
 xmlns:xlink="http://www.w3.org/1999/xlink">
 <defs>
  <style type="text/css">
   <![CDATA[
    .fil0 {fill:#009C93;fill-rule:nonzero}
    .fil1 {fill:#6D3E86;fill-rule:nonzero}
   ]]>
  </style>
 </defs>
 <g id="Layer_x0020_1">
  <metadata id="CorelCorpID_0Corel-Layer"/>
  <g id="_100018400">
   <path id="_99125320" class="fil0" d="M0.357264 0.196827l0.0365669 0.00696063 0 0.140161 -0.119843 -0.021189 0 -0.144819c0,-0.0367598 0.00783071,-0.0637913 0.0235039,-0.0811024 0.0156614,-0.017315 0.0364646,-0.0259685 0.0623858,-0.0259685 0.0158622,0 0.0306181,0.00266535 0.044248,0.00797244 0.0136457,0.00533071 0.0260276,0.0134449 0.0371417,0.0243858 0.0111299,0.0109213 0.0198819,0.0256181 0.0262598,0.0440984 0.0063937,0.0184764 0.00957874,0.039811 0.00957874,0.0639882l9.44882e-005 0.147531 -0.0406181 -0.00726378 -0.000102362 -0.144039c0,-0.0172283 -0.00207874,-0.0319252 -0.00623228,-0.0441102 -0.00416929,-0.012189 -0.00987795,-0.021378 -0.0171299,-0.0275709 -0.00724409,-0.0061811 -0.0147441,-0.0105787 -0.0224803,-0.0131969 -0.00773622,-0.00261811 -0.0161575,-0.00390551 -0.025248,-0.00390551 -0.0338504,0 -0.0507835,0.0221378 -0.0507835,0.0664449l0 0.101583 0.0426575 0.00754724 0 -0.0975079z"/>
   <path id="_99125248" class="fil1" d="M0.310512 0.469835l-0.0365709 -0.00696063 0 -0.140161 0.119854 0.0211811 0 0.144819c0,0.0367677 -0.00784252,0.0637992 -0.0235079,0.0811102 -0.0156693,0.017311 -0.0364724,0.0259685 -0.0623937,0.0259685 -0.0158622,0 -0.0306063,-0.00266142 -0.044252,-0.00798031 -0.0136417,-0.0053189 -0.0260157,-0.013437 -0.0371339,-0.024378 -0.011126,-0.0109213 -0.0198858,-0.0256181 -0.0262677,-0.0440984 -0.00638976,-0.0184803 -0.00956693,-0.039811 -0.00956693,-0.0639882l-0.000102362 -0.147531 0.0406181 0.00726378 0.000102362 0.144039c0,0.0172205 0.00207874,0.0319252 0.00623228,0.0441063 0.00416929,0.012185 0.00987795,0.0213819 0.0171339,0.027563 0.00725197,0.00619291 0.0147402,0.0105906 0.0224803,0.0132087 0.00773622,0.00261811 0.0161535,0.00390551 0.025248,0.00390551 0.0338465,0 0.0507795,-0.0221378 0.0507795,-0.0664449l0 -0.101583 -0.0426535 -0.00754724 0 0.0975079z"/>
   <path id="_99575088" class="fil0" d="M0.231815 0.264146c0,0.011689 -0.00948031,0.0211693 -0.0211811,0.0211693 -0.0116811,0 -0.0211732,-0.00948031 -0.0211732,-0.0211693 0,-0.011689 0.00949213,-0.0211811 0.0211732,-0.0211811 0.0117008,0 0.0211811,0.00949213 0.0211811,0.0211811z"/>
   <path id="_99575160" class="fil1" d="M0.477201 0.401661c0,0.011689 -0.00947244,0.0211811 -0.0211732,0.0211811 -0.011689,0 -0.0211693,-0.00949213 -0.0211693,-0.0211811 0,-0.011689 0.00948031,-0.0211811 0.0211693,-0.0211811 0.0117008,0 0.0211732,0.00949213 0.0211732,0.0211811z"/>
  </g>
 </g>
</svg>
