<?xml version="1.0" encoding="UTF-8"?>
<!DOCTYPE svg PUBLIC "-//W3C//DTD SVG 1.1//EN" "http://www.w3.org/Graphics/SVG/1.1/DTD/svg11.dtd">
<!-- Creator: CorelDRAW -->
<svg xmlns="http://www.w3.org/2000/svg" xml:space="preserve" width="1.43578in" height="0.597874in" style="shape-rendering:geometricPrecision; text-rendering:geometricPrecision; image-rendering:optimizeQuality; fill-rule:evenodd; clip-rule:evenodd"
viewBox="0 0 1.43578 0.597876"
 xmlns:xlink="http://www.w3.org/1999/xlink">
 <defs>
  <style type="text/css">
   <![CDATA[
    .str0 {stroke:#ED1E26;stroke-width:0.00300001}
    .fil1 {fill:#0D0E10}
    .fil5 {fill:#0E0F0F}
    .fil6 {fill:#0E0F11}
    .fil9 {fill:#0F1010}
    .fil10 {fill:#101011}
    .fil7 {fill:#111212}
    .fil8 {fill:#131414}
    .fil11 {fill:#DC232D}
    .fil3 {fill:#EA2129}
    .fil2 {fill:#EC1F26}
    .fil0 {fill:#ED1E26}
    .fil4 {fill:white}
   ]]>
  </style>
 </defs>
 <g id="Layer_x0020_1">
  <metadata id="CorelCorpID_0Corel-Layer"/>
  <g id="_95255144">
   <polygon id="_96357096" class="fil0" points="0.923955,0.000846459 0.811223,0 0.783026,0.198071 "/>
   <ellipse id="_97540120" class="fil1" transform="matrix(0.968653 0 -0.0980747 0.924593 0.775566 0.231166)" rx="0.103008" ry="0.109815"/>
   <ellipse id="_96845896" class="fil0 str0" transform="matrix(0.967976 0 0.0474399 -0.967976 0.396805 0.0813917)" rx="0.0459844" ry="0.0462954"/>
   <path id="_96356520" class="fil1" d="M0.0575277 0.0528309l0.105658 0 0.0231103 0.0638388c0,0 0.00915357,-0.0289213 0.0402836,-0.0638388l0.112701 0 -0.109457 0.139496 0.112992 0.255638 -0.103323 0.000523623 -0.0739608 -0.180804 -0.00469686 0.00117323 -0.0399135 0.0610513 -0.120922 0 0.118571 -0.149107 -0.0610435 -0.127973z"/>
   <path id="_96359160" class="fil1" d="M0.641096 0.27341l-0.0622246 -0.0140906c0,0 -0.0184922,0.0291024 -0.040256,0.013437 -0.0217638,-0.0156654 -0.0125709,-0.0263505 -0.0125709,-0.0263505 0,0 -0.00483466,-0.011874 0.0313898,-0.00715356 0.0362245,0.00472049 0.0928034,0.00336221 0.0928034,0.00336221 0,0 0.00375592,-0.000692915 0.00376379,-0.0138111 7.87404e-006,-0.0131181 0.00927168,-0.0949255 -0.100933,-0.0998034 0,0 -0.0903231,0.0114607 -0.105528,0.0985829 -0.0152048,0.0871223 0.0742404,0.116662 0.124307,0.10639 0.0500671,-0.0102717 0.0692482,-0.0605632 0.0692482,-0.0605632z"/>
   <path id="_96358776" class="fil1" d="M0.824136 0.142059l-0.0411103 0.056012 -0.00115355 -0.000830711c0,-0.013063 0.00443702,-0.0254371 0.00469686,-0.0352206 0.000169292,-0.0063701 0.0106969,-0.0303347 0.00450395,-0.0328347 -0.00339765,-0.000614175 -0.00717719,-0.000830711 -0.0150709,-3.93702e-005 -0.000389765,0 -0.000783467,0 -0.00117323,0l0.010567 0.00117323 0 0.0023504c-0.0140433,0 -0.0257678,0.00246457 -0.0340316,0.00799215l0.0117677 0.000791341 0.000358269 0.00144095 -0.0101103 0.00436615 0.00383859 0.00184646 0 0.00234646 -0.00234646 0 0 0.00352363c0.000562994,-0.000271654 0.0103189,-0.00352363 0.010567,-0.00352363 0.00500789,0 0.00170867,0.0105985 0.00938979,0.00704333l0 0.00587009 -0.00234646 0 -0.000287402 0.0100197 -0.00900396 0.00409844 -0.00244883 0.008189 0.00465356 -1.96851e-005 -0.00230709 0.00588978 0.00469686 0c-0.000177166,0.00789372 -0.000259843,0.00403938 -0.00411812,0.00561419l-0.0038071 -0.00678742 -0.000291339 0.00587009 8.26774e-005 0.00374017 0.00309843 -0.00114567 0.00268898 0.00444883c0.00375198,-0.00179922 0.0096457,-0.00351969 0.0152599,-0.00351969l0.00705514 7.87404e-006 0.0129016 -0.0164449 -8.26774e-005 -0.0060512 0.00521261 -0.00266536 0.0183504 -0.026504 0 -0.00704726z"/>
   <path id="_97538056" class="fil2" d="M0.311107 0.48371c-0.0308229,0 -0.216012,0 -0.216012,0l-0.0738506 0.114166 0.289863 -0.114166z"/>
   <path id="_95544784" class="fil3" d="M0.825309 0.00352363l0.00745671 0.00237009 -0.000413387 0.00114961 0.064571 0c0.00301182,0 0.00283859,0.000283465 0.0048386,0.00134646l0.00337796 -0.00251969 0 0.00587009 0.0023504 0c-0.00399607,0.00754726 -0.00216536,0.000814963 -0.00600002,0.00457088 -0.0011378,0.00111024 -0.00114567,0.00351576 -0.00381497,0.00674805 -0.00363781,0.00440552 -0.00722049,0.00757482 -0.0077953,0.0145119l-0.00352363 0c-0.00074016,0.00890947 -0.00603939,0.0102048 -0.00793703,0.0143701 -0.00305513,0.00671262 -0.00197245,0.011752 -0.00967325,0.0138071 -0.000181103,0.00824018 -0.00600789,0.0102087 -0.00938979,0.0152599l0 0.00352363 0.0305119 -0.0402245 -0.00116142 -0.000866144 0.00234646 0 0 0.00234646 0.00117323 -0.00117323 0 -0.00352363c0.00260631,-0.00389371 0.00175591,-0.00590159 0.00432285,-0.00859057 0.00392127,-0.00412206 0.00272048,-0.000374017 0.00705907,-0.00702758 0.00220473,-0.00337402 0.0109252,-0.0136221 0.0109252,-0.017252l-3.93702e-006 -0.00625199 -0.0892207 0.00155512z"/>
   <ellipse id="_95544064" class="fil4" cx="0.781612" cy="0.234587" rx="0.0291536" ry="0.0309883"/>
   <path id="_97537624" class="fil0" d="M0.432025 0.0587049c-0.00263387,-0.00549214 -0.00759451,-0.0111772 -0.0138898,-0.0132008 -0.00149607,-0.000484253 -0.0211654,-0.00130709 -0.0236772,0.000283465l0.010567 0 0 0.00352363 0.00469686 0 -8.26774e-005 0.00148032 -0.0175276 -0.00148032c-0.00475198,0.00251182 -0.00655514,0.00116142 -0.00709057,0.00690159l-0.00460237 0.00146063 0.000889766 0.00111811 -0.00446064 0.00225985 9.05514e-005 0.00320867 0.00695671 0.00266142 -0.00553151 0.000102362 -0.00268898 0.00929136c-0.00402757,-0.00186221 -0.00538584,-0.000507875 -0.00401576,0.00314961l-0.00394883 0.00583466 0.00437009 0.00275985 0.000133859 0.00845278 0.00581104 -0.00141339c0.00437009,0.00231103 0.00953546,0.00821656 0.0117363,0.00821656l0.0023504 0c0.00356694,0 0.00398426,-0.00203544 0.00469686,-0.00469293l-0.00352363 0c-0.00444883,0 -0.00748034,-0.00209056 -0.00938979,-0.00469686l0.00938979 0c0.00211812,0.00141733 0.002063,0.00234646 0.00469686,0.00234646l0.00587009 0c0.00290946,0 0.00469686,-0.00323229 0.00469686,-0.00469686 0,-0.00298426 -0.00294095,-0.00587009 0.00234646,-0.00587009l0.00704333 0c0.00263387,0 0.00257875,0.000929136 0.00469686,0.0023504l0 -0.00352363 0.00351969 0 0 -0.00352363 -0.00234646 0 0.000137796 -0.00904727 0.0104292 -0.00386615 0 -0.00351969 -0.0023504 0 0 -0.00587009z"/>
   <path id="_97537408" class="fil3" d="M0.859357 0.0845317l0 -0.00352363c0.0033819,-0.00505119 0.00920869,-0.0070197 0.00938979,-0.0152599 0.00770081,-0.00205512 0.00661813,-0.00709451 0.00967325,-0.0138071 0.00189764,-0.00416537 0.00719687,-0.00546064 0.00793703,-0.0143701l0.00352363 0c0.000574805,-0.00693703 0.00415749,-0.0101063 0.0077953,-0.0145119 0.0026693,-0.00323229 0.00267717,-0.00563781 0.00381497,-0.00674805 0.00383466,-0.00375592 0.00200394,0.00297639 0.00600002,-0.00457088l-0.0023504 0 0 -0.00587009 -0.00337796 0.00251969c-0.00200001,-0.001063 -0.00182678,-0.00134646 -0.0048386,-0.00134646l-0.064571 0 0.000413387 -0.00114961 -0.00745671 -0.00237009 -0.00532679 0.000519686 -0.0057323 0.00669687 -0.00188977 -0.0037008 -0.00801183 0.0658939 -0.00251969 0.0033819c0,0.0092205 -0.0053071,0.0498387 -0.00938979,0.0528309l0.00123229 0.000165355 -0.00909451 0.0578427 0.00903546 -0.00869687c0.0014252,-0.00393702 0.0125355,-0.0177441 0.0159528,-0.0227914 0.00363781,-0.00537403 0.0122756,-0.0204686 0.0180945,-0.0218229 -0.00137796,-0.00333072 0.00228347,-0.00906302 0.00534253,-0.0122638 0.00625592,-0.00654726 0.00430316,-0.00710632 0.0083701,-0.0127638 0.00313387,-0.00436615 0.00703939,-0.0077638 0.00983861,-0.0112953 0.00438978,-0.00553545 7.87404e-005,-0.0108347 0.00814569,-0.0129882z"/>
   <path id="_97540816" class="fil0" d="M0.394458 0.0457875c0.00251182,-0.00159056 0.0221812,-0.000767719 0.0236772,-0.000283465 0.00629529,0.00202363 0.0112559,0.00770868 0.0138898,0.0132008l0.00358662 0.00362206 0.00228347 -0.00127559c0.000157481,0.00703545 0.0023504,0.005126 0.0023504,0.010567l0 0.0117402c0,0.00397245 -0.00453938,0.00653939 -0.00683073,0.00824805l-0.00138977 0.0117087c-0.00505513,0.000421261 -0.00838979,0.0050945 -0.00938979,0.00939373 -0.0062638,0.000523623 -0.00675986,0.00469686 -0.010567,0.00469686l-0.0328702 0c-0.00475986,0 -0.00608269,-0.00108662 -0.00704333,-0.00469686l-0.00469686 0c-0.00140945,-0.00527954 -0.00555513,-0.00614175 -0.00727167,-0.0115118 -0.00074016,-0.00230709 -0.000688978,-0.00511812 -0.00185827,-0.00753545 -0.00116142,-0.00240946 -0.00378347,-0.00389371 -0.00378347,-0.00677955l0 -0.0023504c0,-0.00262993 0.000929136,-0.00257875 0.00234646,-0.00469686l0 -0.00704333c0.00162205,-0.00241733 0.00352363,-0.00304725 0.00352363,-0.00587009l0 -0.00352363 0.00469293 0c0.00487403,-0.00920869 0.0236772,-0.0122796 0.0258308,-0.0176103l0.00351969 0zm-0.0305237 0.00352363l-0.00469293 0.00469686 0.00117323 0.00469686c-0.00296851,0.00119685 -0.00822049,0.0162835 -0.00822049,0.02113l0 0.0140906c0,0.0110237 0.0227087,0.0293505 0.0328741,0.0293505l0.0164331 0c0.0174252,0 0.0410907,-0.0213505 0.0410907,-0.0410907l0 -0.010567c0,-0.00455513 -0.00250394,-0.00804727 -0.00469686,-0.010567 -0.00398426,-0.0110079 -0.0168426,-0.0211339 -0.0316969,-0.0211339l-0.0176103 0c-0.00600395,0 -0.0173229,0.00792916 -0.0223662,0.0106693l-0.00228741 -0.00127559z"/>
   <path id="_96846904" class="fil4" d="M0.583502 0.21041c0,0 0.0043071,-0.038256 -0.0240158,-0.031441 -0.0283229,0.00681498 -0.0403977,0.0241103 -0.0337166,0.0306694 0.00668112,0.00655907 0.0569608,0.00733073 0.0577324,0.000771656z"/>
   <path id="_95577120" class="fil0" d="M0.363934 0.0493112l0.00228741 0.00127559c0.00504332,-0.00274016 0.0163622,-0.0106693 0.0223662,-0.0106693l0.0176103 0c0.0148544,0 0.0277127,0.010126 0.0316969,0.0211339 0.00219292,0.00251969 0.00469686,0.00601183 0.00469686,0.010567l0 0.010567c0,0.0197402 -0.0236654,0.0410907 -0.0410907,0.0410907l-0.0164331 0c-0.0101654,0 -0.0328741,-0.0183268 -0.0328741,-0.0293505l0 -0.0140906c0,-0.00484647 0.00525198,-0.0199331 0.00822049,-0.02113l-0.00117323 -0.00469686c-0.00401182,0.00461025 -0.010567,0.0139134 -0.010567,0.0223071l0 0.00938979c0,0.0123819 0.00334253,0.0173741 0.00821656,0.0246575 0.0124252,0.00910239 0.0138307,0.0164371 0.037567,0.0164371 0.0127678,0 0.0233386,-0.00527561 0.0312324,-0.0110315 0.00762207,-0.00555907 0.00488584,-0.00324017 0.0106929,-0.010441 0.00349214,-0.00432285 0.00580317,-0.0115788 0.00838979,-0.0125985l0.00134252 -0.0128937 0 -0.00587009c0,-0.0048386 -0.00476773,-0.0134804 -0.00587009,-0.0176103 -0.00636222,-0.00950003 -0.0199764,-0.0211339 -0.0352206,-0.0211339l-0.0164371 0c-0.00480316,0 -0.0215316,0.01113 -0.0246536,0.0140906z"/>
   <path id="_97528024" class="fil3" d="M0.786569 0.16202c-0.000259843,0.00978349 -0.00469686,0.0221575 -0.00469686,0.0352206l0.00115355 0.000830711 0.0411103 -0.056012 0.0669175 -0.0962719 0 -0.00234646 -0.00234646 0 0.00116142 0.000866144 -0.0305119 0.0402245c-0.00806695,0.00215355 -0.00375592,0.00745278 -0.00814569,0.0129882 -0.00279922,0.00353151 -0.00670474,0.00692915 -0.00983861,0.0112953 -0.00406694,0.0056575 -0.00211418,0.00621655 -0.0083701,0.0127638 -0.00305906,0.0032008 -0.00672049,0.0089331 -0.00534253,0.0122638 -0.00581891,0.00135433 -0.016126,0.00937404 -0.0197638,0.0147481 -0.00341733,0.00504726 -0.0105433,0.0162874 -0.0119685,0.0202245l-0.00818506 0.00964176 0.00592915 -0.0491458 -0.00123229 -0.000165355c0.00408269,-0.00299213 0.00938979,-0.0436104 0.00938979,-0.0528309l0.00251969 -0.0033819 0.00801183 -0.0658939 0.00188977 0.0037008 0.0057323 -0.00669687 0.00532679 -0.000519686 0.0892207 -0.00155512 3.93702e-006 0.00625199c0,0.00362993 -0.0087205,0.013878 -0.0109252,0.017252 -0.00433859,0.00665356 -0.0031378,0.00290552 -0.00705907,0.00702758 -0.00256694,0.00268898 -0.00171654,0.00469686 -0.00432285,0.00859057l0 0.00352363 0.00352363 -0.00352363 0.0282048 -0.0402442 -0.00120473 -0.000846459 -0.111528 0c-0.00261418,0.0112205 -0.00308269,0.0214528 -0.00494883,0.0337954 -0.0014567,0.00966144 -0.00437796,0.0230749 -0.00557876,0.0319883 -0.00106693,0.00790947 0.000169292,0.0100512 -0.0017126,0.0182481 -0.00110237,0.00479923 -0.00219686,0.012067 -0.00276379,0.0160197 -0.00324804,0.0225552 -0.00902758,0.0385749 -0.00964963,0.0619687z"/>
   <path id="_95545864" class="fil5" d="M1.16577 0.0622246l0.0187835 0c0.00428741,0 0.00938979,0.00324017 0.00938979,0.00704333l0 0.00117717c0,0.00428741 -0.00324017,0.00938979 -0.00704333,0.00938979l-0.0176103 0c-0.00270473,0 -0.00351969,-0.000814963 -0.00351969,-0.00351969l0 -0.0140906zm-0.010567 0.0516576l0.010567 0 0 -0.0223071c0,-0.00270473 0.000814963,-0.00351969 0.00351969,-0.00351969l0.00352363 0c0.012252,0 0.0181063,0.0258268 0.0258268,0.0258268l0.00938979 0 0.000968507 -0.000685041 -0.0185749 -0.0274922c0.00712994,-0.000157481 0.0140867,-0.00597246 0.0140867,-0.0129134l0 -0.00587009c0,-0.0112599 -0.0128307,-0.0140906 -0.0246536,-0.0140906l-0.0246536 0 0 0.0610513z"/>
   <path id="_95544688" class="fil2" d="M0.437895 0.0610513l-0.00228347 0.00127559 -0.00358662 -0.00362206 0 0.00587009 0.0023504 0 0 0.00351969 -0.0104292 0.00386615 -0.000137796 0.00904727 0.00234646 0 0 0.00352363 -0.00351969 0 0 0.00352363c-0.00211812,-0.00142126 -0.002063,-0.0023504 -0.00469686,-0.0023504l-0.00704333 0c-0.00528742,0 -0.00234646,0.00288583 -0.00234646,0.00587009 0,0.00146457 -0.00178741,0.00469686 -0.00469686,0.00469686l-0.00587009 0c-0.00263387,0 -0.00257875,-0.000929136 -0.00469686,-0.00234646l-0.00938979 0c0.00190945,0.00260631 0.00494096,0.00469686 0.00938979,0.00469686l0.00352363 0c-0.0007126,0.00265749 -0.00112992,0.00469293 -0.00469686,0.00469293l-0.0023504 0c-0.00220079,0 -0.00736616,-0.00590553 -0.0117363,-0.00821656l-0.00581104 0.00141339 -0.000133859 -0.00845278 -0.00437009 -0.00275985 0.00394883 -0.00583466c-0.00137008,-0.00365749 -1.18111e-005,-0.00501182 0.00401576,-0.00314961l0.00268898 -0.00929136 0.00553151 -0.000102362 -0.00695671 -0.00266142 -9.05514e-005 -0.00320867 0.00446064 -0.00225985 -0.000889766 -0.00111811 0.00460237 -0.00146063c0.000535435,-0.00574017 0.00233859,-0.00438978 0.00709057,-0.00690159l0.0175276 0.00148032 8.26774e-005 -0.00148032 -0.00469686 0 0 -0.00352363 -0.010567 0 -0.00351969 0c-0.00215355,0.00533072 -0.0209568,0.0084016 -0.0258308,0.0176103l-0.00469293 0 0 0.00352363c0,0.00282284 -0.00190158,0.00345277 -0.00352363,0.00587009l0 0.00704333c-0.00141733,0.00211812 -0.00234646,0.00206693 -0.00234646,0.00469686l0 0.0023504c0,0.00288583 0.00262205,0.00437009 0.00378347,0.00677955 0.00116929,0.00241733 0.00111811,0.00522836 0.00185827,0.00753545 0.00171654,0.00537009 0.00586222,0.0062323 0.00727167,0.0115118l0.00469686 0c0.000960633,0.00361025 0.00228347,0.00469686 0.00704333,0.00469686l0.0328702 0c0.0038071,0 0.00430316,-0.00417324 0.010567,-0.00469686 0.001,-0.00429922 0.00433466,-0.00897247 0.00938979,-0.00939373l0.00138977 -0.0117087c0.00229134,-0.00170867 0.00683073,-0.0042756 0.00683073,-0.00824805l0 -0.0117402c0,-0.00544096 -0.00219292,-0.00353151 -0.0023504,-0.010567z"/>
   <path id="_96358392" class="fil1" d="M1.12937 0.0798349c0,-0.0234961 0.0248072,-0.048134 0.0469568,-0.048134l0.00352363 0c0.0268898,0 0.0504805,0.0228308 0.0504805,0.0493072l0 0.00587403c0,0.0222284 -0.0237993,0.0469608 -0.0457836,0.0469608l-0.00587009 0c-0.0250158,0 -0.0493072,-0.0232678 -0.0493072,-0.0469608l0 -0.00704726zm-0.00352363 -0.010567l0 0.027004c0,0.0162914 0.0268387,0.0422678 0.0434371,0.0422678l0.0152638 0c0.0274568,0 0.0516537,-0.0274568 0.0516537,-0.054008l0 -0.00704333c0,-0.0127087 -0.0115197,-0.0284686 -0.0184882,-0.0355158 -0.00933467,-0.00944884 -0.0207363,-0.0149685 -0.0390355,-0.0149685 -0.0147914,0 -0.0267245,0.00502364 -0.0343584,0.0126024 -0.00552364,0.00548033 -0.0184725,0.0201615 -0.0184725,0.0296615z"/>
   <path id="_95577192" class="fil1" d="M0.756045 0.228942c0,-0.0115906 0.0131733,-0.0234804 0.0258268,-0.0234804l0.00469686 0c0.0100473,0 0.0164371,0.011563 0.0164371,0.0223071l0 0.00469293c0,0.0122166 -0.0126615,0.0281772 -0.0258308,0.0281772l-0.00351969 0c-0.00902758,0 -0.0176103,-0.0101024 -0.0176103,-0.0199567l0 -0.0117402zm0.00352363 -0.0974491c-0.0132441,0.00635435 -0.0210788,0.0060512 -0.034067,0.0152441 -0.00984255,0.00696852 -0.0187953,0.0145158 -0.0266851,0.0237993 -0.0142284,0.016756 -0.0249489,0.0440041 -0.0249489,0.0748427l0 0.00704333c0,0.0421733 0.0410592,0.0833585 0.0821774,0.0833585l0.0246536 0c0.027752,0 0.0562364,-0.0204489 0.0707325,-0.0349292 0.0154607,-0.0154489 0.0314056,-0.0438505 0.0314056,-0.07426l0 -0.00704333c0,-0.0158701 -0.002063,-0.0278229 -0.00703545,-0.038756 -0.00643703,-0.0141575 -0.0113819,-0.0170945 -0.0187953,-0.0281654l-0.0280316 -0.0175315 -0.0048386 0.00696459 0 0.00704726 -0.0183504 0.026504 -0.00521261 0.00266536 8.26774e-005 0.0060512 -0.0129016 0.0164449 -0.00705514 -7.87404e-006c-0.00561419,0 -0.0115079,0.00172048 -0.0152599,0.00351969l-0.00268898 -0.00444883 -0.00309843 0.00114567 -8.26774e-005 -0.00374017 0.000291339 -0.00587009 0.0038071 0.00678742c0.00385828,-0.00157481 0.00394096,0.00227953 0.00411812,-0.00561419l-0.00469686 0 0.00230709 -0.00588978 -0.00465356 1.96851e-005 0.00244883 -0.008189 0.00900396 -0.00409844 0.000287402 -0.0100197 0.00234646 0 0 -0.00587009c-0.00768112,0.00355513 -0.0043819,-0.00704333 -0.00938979,-0.00704333 -0.000248032,0 -0.010004,0.00325198 -0.010567,0.00352363l0 -0.00352363 0.00234646 0 0 -0.00234646 -0.00383859 -0.00184646 0.0101103 -0.00436615 -0.000358269 -0.00144095 -0.0117677 -0.000791341c0.0082638,-0.00552757 0.0199882,-0.00799215 0.0340316,-0.00799215l0 -0.0023504 -0.010567 -0.00117323 -0.0152599 0.00234646z"/>
   <path id="_95576856" class="fil1" d="M1.0407 0.145056c-0.00702364,0.000157481 -0.0104725,0.00274016 -0.0119843,0.00838979 -0.00541734,0.000122048 -0.00916144,0.00323623 -0.00965751,0.00811813l-0.00951971 0.0026693c-0.00885042,-0.00839372 -0.00175985,-0.0137717 -0.00491734,-0.0273347l-0.0082638 0.00096457c-0.00196064,0 -0.0035945,0.000716537 -0.0035945,0.00239764 0,0.0104646 -0.0136378,0.00170867 -0.0282914,0.00115748l-0.0124567 0.00244095c-0.00179528,0.00540553 -0.000137796,0 -0.00719293,0l-0.00457482 3.14961e-005 -0.00261812 0.0113426 -0.00633073 0.0130158 0.00507482 0.00466143 -0.00713388 -0.00148426c0,0.00907877 -0.00433859,0.0119764 -0.00592915,0.0192363 -0.00127166,0.00581498 -0.00223229,0.0162717 -0.00382285,0.0213426 -0.00325591,0.010374 -0.0032441,0.0346812 -0.00826774,0.0421104l-0.0134252 0.0666655 0.00268505 0.00525592 0.076701 0c0.00399214,0 0.00693703,-0.00519686 0.00693703,-0.00948821l0.00256694 -0.0139646 0.0038504 -0.010315 -0.000543309 -0.0111221 0.00628348 -0.0333544 0.00179528 -0.00590947 0.00280709 -0.0082953 0.00305513 -0.0116378 0.00231497 -0.0154292c0.00563781,-0.00298426 0.00420474,-0.00200788 0.00782286,-0.00629529 0.00548427,-0.00649608 0.00618112,-0.00176772 0.018504,-0.00155906l0.00767719 0.00891735 -0.0015 0.0228898 -0.0147481 0.0966892 0.0095079 -0.00112599 0.0731065 0 0 -0.00719293c0,-0.00757089 0.0057323,-0.0201851 0.00699608,-0.0265631 0.00227953,-0.0115551 0.00103937,-0.0187166 0.00427954,-0.0304765 0.00284646,-0.0103347 0.00909845,-0.0492442 0.00909845,-0.0604175l0 -0.0179764c0,-0.0129016 -0.000192914,-0.0284765 -0.0131811,-0.0287639 -0.00303544,-0.0130158 -0.0148583,-0.0137402 -0.0155827,-0.020378 -0.00425198,-0.000988192 -0.00838585,-0.0035945 -0.0119882,-0.0035945l-0.0155748 0c-0.0101693,0 -0.0280906,0.00736222 -0.0299646,0.0143819z"/>
   <path id="_95577000" class="fil1" d="M0.53299 0.204284c0,-0.00779923 0.0141339,-0.02113 0.0234804,-0.02113l0.00938979 0c0.00711419,0 0.0140867,0.0122638 0.0140867,0.02113 0,0.00142914 -0.0024252,0.00352363 -0.00469293,0.00352363l-0.0387442 0c-0.00270473,0 -0.00351969,-0.000814963 -0.00351969,-0.00352363zm-0.0422639 -0.0469608c-0.00150394,0.00284253 -0.00738978,0.00999609 -0.0100591,0.0134252 -0.00295276,0.00379529 -0.00771262,0.0100197 -0.0112559,0.0117599l-0.0101654 0.0194607 -0.00138977 0.0117087c-0.00416537,0.00168111 -0.00704726,0.0203623 -0.00704726,0.0258308l0 0.02113 0.0023504 0c0,0.00768506 0.00274016,0.0169607 0.00512994,0.0230473 0.00214961,0.00546852 0.0104843,0.0149804 0.0113032,0.0180473 0.00646065,0.000141733 0.0104213,0.00525198 0.010567,0.0117402 0.00659057,0.00153544 0.019063,0.0141063 0.0270394,0.0131733l0.0109843 -0.00100788 -0.00280316 0.00309843 0.00587009 0c0.000696852,0.00261418 0.000275591,0.00351969 0.00351969,0.00351969l0.0281772 0c0.010563,0 0.0376261,-0.00622443 0.0387403,-0.0164371 0.0124646,-0.00103544 0.0166811,-0.0175276 0.0281339,-0.0187953l0.00121654 -0.00585828c0.00722443,-0.000161418 0.0152638,-0.00825199 0.0152638,-0.0129134l0 -0.00469686 -0.00587009 0c-0.00833073,0 -0.0154252,-0.00531104 -0.0234804,-0.00587009 -0.00858664,-0.000598427 -0.0135394,-0.00352363 -0.0258268,-0.00352363 -0.00258268,0.00967325 -0.0186733,0.00846853 -0.0211339,0.0152638l-0.0140867 0c-0.00384253,0 -0.00309056,-0.00352363 -0.00939373,-0.00352363l-0.00469293 0c-0.000401576,-0.00365749 -0.010567,-0.0194095 -0.010567,-0.0258268l0 -0.00704726c0,-0.00365355 0.00448426,-0.00533072 0.00704333,-0.00696852l0.104485 -7.48034e-005c0.00619687,-1.57481e-005 0.00203938,-0.00450395 0.00111418,-0.00790553l0.00592915 0.000862207c-0.00296851,0.00618899 0.000716537,0.0119134 0.00587009,0.00117323l-0.00351969 0 0 -0.00587009c0.00930318,0.000208662 0.00704333,0.00594096 0.00633073,-0.0141811l-0.000716537 0.00519686 -0.00440552 -0.00275591 -0.000283465 -0.0175867 0.00125591 7.87404e-006 0.00165748 0.00345277 -0.00146851 -0.012941 -0.00354725 -0.00111024 0 -0.00587009c0,-0.00657876 -0.0077323,-0.0103504 -0.0103977,-0.0166024 -0.0018504,-0.00433859 -0.00940947,-0.011441 -0.0154292,-0.0115748 -0.00408269,-0.00771656 -0.0308072,-0.0176103 -0.0434371,-0.0176103l-0.0164371 0c-0.0114646,0 -0.0287875,0.00397245 -0.0367521,0.00785829 -0.00684254,0.00333859 -0.0211379,0.0166457 -0.027815,0.0167953z"/>
   <path id="_95577456" class="fil1" d="M0.160835 0.268859c-0.00538584,-0.00313387 -0.00796459,0.00464568 -0.00983861,0.0101181 -0.0013504,0.0039567 -0.00877955,0.00883467 -0.010752,0.0127284 -0.00411025,0.00809845 -0.00539372,0.00679136 -0.00827955,0.0140276 -0.0025315,0.0063386 -0.00800002,0.00641734 -0.00887798,0.0143937l-0.00568899 0.0039134 -0.102134 0 0 -0.00469686c0,-0.00324804 0.000905514,-0.00282284 0.00351969,-0.00352363 0.00014567,-0.00657088 0.0267599,-0.0365631 0.0297914,-0.0379096l0.00425592 -0.0102244 0.00351969 0c0.00377954,0 0.00556694,-0.0103307 0.00905121,-0.0144331 0.00411025,-0.00483466 0.0102677,-0.00489765 0.0109095,-0.0125709l0.00351969 0c0.00122835,-0.00526773 0.00335434,-0.00846459 0.00671655,-0.012067 0.00212205,-0.00227166 0.00353544,-0.00262993 0.0047756,-0.00461812 0.00251575,-0.00404726 -0.000413387,-0.00231103 0.00397639,-0.00541734 0.00797246,-0.00563781 0.0113583,-0.0196615 0.0165315,-0.0207481l0.00556694 -0.00646065c0.000157481,-0.00707876 0.00352363,-0.00394096 0.00352363,-0.0129134l0 -0.00117323c0,-0.0112914 -0.0232678,-0.0373308 -0.0240001,-0.0542403l0.00276772 0.00635829 0.0028504 -0.010126 -0.00862207 -0.00656695 0 -0.00587009c0.00718112,0.00332284 0.00352363,-0.00753939 0.0032008,-0.0142874l-0.00202363 0.00254725c0.000240158,-0.0107599 0.00751577,-0.0125237 0.0187953,-0.0135748 0.00309056,-0.000291339 0.0228032,-0.0055512 0.0269883,-0.00755908 0.0107638,0.0102126 0.00531104,0.0138937 0.0165473,0.0233701 0.00883467,0.00744884 0.00783073,0.0190985 0.0163229,0.0235946l0 -0.0023504c0.0074449,0.000618112 0.00604332,0.00738191 0.0131181,0.0040945l0.00566931 0.0076575 0.0107835 -0.00244095 -0.00134646 -0.00358269 0.00390946 0.00067323 0.0074764 -0.00764963 0.00318899 -0.0126103 0.00691734 -0.0159804 0.00587797 -0.00351182 -0.00169292 -0.000519686 -0.000996066 -0.0104292 0.00608269 -0.00148819 -0.000240158 -0.0013189 0.00464962 0.0013189c0,-0.0154607 0.00503545,-0.00656695 0.00704333,-0.0140867l0.00704333 0 0 -0.00117717 -0.0199567 0 0.00089764 0.00089764 -0.00939373 0.00939373 -0.00089764 -0.00089764 0 0.00587009 -0.00230316 1.18111e-005 -0.00115748 0.00554332 -0.0055512 -0.000610238 -0.0132678 0.0221221 -0.00354725 0.00111024 0 0.00587009 -0.00234646 0 -2.36221e-005 0.00368505 -0.00467324 -0.00133465 -0.00281891 0.00207481 -0.0230079 -0.0584332 -0.105658 0c0.00490946,0.0210788 0.0610435,0.120996 0.0610435,0.127973 0,0.00186221 -0.0530671,0.0665474 -0.0591616,0.0746734 -0.00805514,0.0107362 -0.0578584,0.0686222 -0.0594096,0.0744333l0.120922 0c0.00289765,-0.0108544 0.0354095,-0.0417166 0.0399135,-0.0610513z"/>
   <path id="_96356952" class="fil1" d="M0.490726 0.157323c0.00667718,-0.000149607 0.0209725,-0.0134567 0.027815,-0.0167953 0.00796459,-0.00388584 0.0252875,-0.00785829 0.0367521,-0.00785829l0.0164371 0c0.01263,0 0.0393544,0.00989373 0.0434371,0.0176103 0.0060197,0.000133859 0.0135788,0.00723624 0.0154292,0.0115748 0.00266536,0.00625199 0.0103977,0.0100236 0.0103977,0.0166024l0 0.00587009 0.00354725 0.00111024 0.00146851 0.012941 -0.00165748 -0.00345277 -0.00125591 -7.87404e-006 0.000283465 0.0175867 0.00440552 0.00275591 0.000716537 -0.00519686c0.0007126,0.0201221 0.00297245,0.0143898 -0.00633073,0.0141811l0 0.00587009 0.00351969 0c-0.00515356,0.0107402 -0.00883861,0.00501576 -0.00587009,-0.00117323l-0.00592915 -0.000862207c0.000925199,0.00340158 0.00508269,0.00788979 -0.00111418,0.00790553l-0.104485 7.48034e-005c-0.00255906,0.0016378 -0.00704333,0.00331497 -0.00704333,0.00696852l0 0.00704726c0,0.00641734 0.0101654,0.0221694 0.010567,0.0258268l0.00469293 0c0.00630317,0 0.0055512,0.00352363 0.00939373,0.00352363l0.0140867 0c0.00246064,-0.00679529 0.0185512,-0.00559057 0.0211339,-0.0152638 0.0122874,0 0.0172402,0.0029252 0.0258268,0.00352363 0.00805514,0.000559057 0.0151496,0.00587009 0.0234804,0.00587009l0.00587009 0 0 0.00469686c0,0.00466143 -0.00803939,0.012752 -0.0152638,0.0129134l-0.00121654 0.00585828c-0.0114528,0.00126772 -0.0156693,0.0177599 -0.0281339,0.0187953 -0.00111418,0.0102126 -0.0281772,0.0164371 -0.0387403,0.0164371l-0.0281772 0c-0.0032441,0 -0.00282284,-0.000905514 -0.00351969,-0.00351969l-0.00587009 0 0.00280316 -0.00309843 -0.0109843 0.00100788c-0.0079764,0.000933073 -0.0204489,-0.0116378 -0.0270394,-0.0131733 -0.00014567,-0.00648821 -0.00410631,-0.0115985 -0.010567,-0.0117402 -0.0008189,-0.00306694 -0.00915357,-0.0125788 -0.0113032,-0.0180473 -0.00238977,-0.00608663 -0.00512994,-0.0153622 -0.00512994,-0.0230473l-0.0023504 0 0 -0.02113c0,-0.00546852 0.0028819,-0.0241497 0.00704726,-0.0258308l0.00138977 -0.0117087 0.0101654 -0.0194607c0.00354332,-0.00174016 0.00830317,-0.00796459 0.0112559,-0.0117599 0.0026693,-0.00342914 0.00855514,-0.0105827 0.0100591,-0.0134252zm-0.0422639 0.0727915l0 0.0199607c0,0.0267599 0.0102126,0.0461025 0.0237638,0.0595907 0.011437,0.0113859 0.0351851,0.0261142 0.0572403,0.0261142l0.0258268 0c0.0194804,0 0.0425001,-0.0126929 0.054012,-0.021126 0.00852365,-0.00624017 0.0318702,-0.0303426 0.0328662,-0.0422718 -0.0116614,-0.00272048 -0.052197,-0.0140906 -0.0622246,-0.0140906 -0.00482678,0 -0.0107244,0.0164371 -0.0270001,0.0164371l-0.00352363 0c-0.0128819,0 -0.0223032,-0.0147678 -0.0223032,-0.027004l0 -0.00234646c0,-0.00618899 0.0260434,-0.00352363 0.0328702,-0.00352363 0.0125237,0 0.0250473,0 0.037567,0 0.0121339,0 0.0242638,0 0.0363938,0 0.0194174,0 0.0211339,0.00414962 0.0211339,-0.0164371l0 -0.0140867c0,-0.0471104 -0.0437521,-0.0833585 -0.0927443,-0.0833585l-0.00939373 0c-0.028252,0 -0.0553663,0.0186969 -0.0713191,0.0319922 -0.0127756,0.0106418 -0.0331654,0.0472639 -0.0331654,0.0701498z"/>
   <path id="_96356880" class="fil6" d="M0.361588 0.143237l-0.0176103 -0.00704726c-0.00103544,0.0124607 -0.00560631,0.0338347 -0.00792128,0.047256 -0.00270473,0.0156575 -0.00608663,0.0308072 -0.00864176,0.0465434 -0.00265355,0.0163229 -0.00578742,0.0306772 -0.0088268,0.0463505 -0.00194882,0.0100276 -0.00748034,0.041256 -0.00748034,0.0488741l0 0.00469686 0.0856774 -3.93702e-006 0.0352403 -0.193717 -0.00228741 -0.0013504c-0.0124922,0.00850396 -0.0239292,0.0130906 -0.0446694,0.0130906 -0.00872837,0 -0.0179095,-0.00115748 -0.0234804,-0.00469293z"/>
   <path id="_96356808" class="fil1" d="M1.04015 0.146756c0.00183465,-0.00687403 0.0193898,-0.0140867 0.0293505,-0.0140867l0.0152599 0c0.00352757,0 0.00757482,0.00255119 0.0117402,0.00351969 0.0007126,0.00650395 0.0122914,0.00721262 0.0152638,0.0199607 0.0127244,0.000283465 0.0129134,0.0155394 0.0129134,0.0281772l0 0.0176103c0,0.0109449 -0.006126,0.0490592 -0.00891341,0.0591813 -0.00317324,0.0115197 -0.0019567,0.0185355 -0.00419292,0.0298544 -0.00123622,0.00624805 -0.00685041,0.0186024 -0.00685041,0.0260198l0 0.00704726 -0.0716144 0 -0.00704726 -0.000157481 0.0150748 -0.0984963 0.000188977 -0.0199253 -0.000984255 0.000657482 -0.00651577 -0.00974412 -0.0183268 -0.000307087c-0.00205512,0.00509844 -0.00390159,0.000188977 -0.0084764,0.00561025 -0.00354725,0.0042008 -0.00126378,0.0043819 -0.00678348,0.00730317l-0.00307875 0.0235591 -0.000444883 0.00579135 -0.00234646 0 0 0.00704726 -0.00740947 0.0469056 0.000366143 0.00475198 -0.0023504 0 0 0.00587009c0,0.0042008 -0.00313387,0.0211339 -0.00704333,0.0211339l-0.0751341 0 0 -0.0117402 0.00234646 0 0.00817325 -0.0587128c0.00492127,-0.00727561 0.00490946,-0.0310867 0.00809845,-0.0412481 0.00155906,-0.00496852 0.00250001,-0.0152126 0.0037441,-0.0209095 0.00155906,-0.00711026 0.00581104,-0.00994885 0.00581104,-0.0188426l0.00698821 0.0014567 -0.00497245 -0.00456694 0.0062008 -0.012752 0.00256694 -0.0111103 0.00448033 -3.14961e-005c0.00690947,0 0.00528742,0.00529529 0.00704333,0l0.0176103 0 0.0247127 0.000933073 -5.90553e-005 0.00141339c-0.00133071,-0.00498427 -0.00234646,-0.00205119 -0.00234646,-0.00587009 0,-0.00164567 0.00159843,-0.00234646 0.00351969,-0.00234646l0.00469686 0c0.0030945,0.0132835 -0.000452757,0.0176063 0.00821656,0.0258308l0.00932286 -0.00261812c0.00048819,-0.00477954 0.00415355,-0.00783073 0.00946066,-0.00794884 0.00148032,-0.00553545 0.00485828,-0.00806695 0.0117402,-0.00822049zm-0.0305237 0.0140906l0.00469686 -0.027004 -0.0798309 0c-0.00562994,0 -0.00979137,0.0392088 -0.0110591,0.0464686 -0.00301576,0.0172874 -0.0064449,0.0336379 -0.00889766,0.0498033 -0.00232284,0.0152914 -0.00531891,0.0342403 -0.00888585,0.049819 -0.00235434,0.0102992 -0.00872443,0.0407639 -0.00872443,0.0499765l0.0868743 0c0.000720474,-0.00866144 0.0043819,-0.0277048 0.00655907,-0.036882 0.00289765,-0.0122008 0.00382678,-0.0252009 0.00625986,-0.0371773 0.00400789,-0.0197048 0.00764175,-0.0574372 0.029445,-0.0574372 0.00590159,0 0.0117402,0.0058386 0.0117402,0.0117402l0.000141733 0.0105945 -0.017752 0.109162 0.0833506 0c0.00611813,0 0.0128701,-0.0513938 0.0140079,-0.0587876 0.00184646,-0.0120079 0.00422442,-0.0217481 0.00574805,-0.0306458 0.00100394,-0.00587797 0.00489765,-0.029441 0.00489765,-0.0314961l0 -0.037567c0,-0.0190394 -0.0253465,-0.0434411 -0.0457836,-0.0434411l-0.010567 0c-0.0325906,0 -0.0520592,0.0301615 -0.0622206,0.0328741z"/>
   <path id="_96356736" class="fil1" d="M0.189012 0.109189l0.00467324 0.00133465 2.36221e-005 -0.00368505 0.00234646 0 0 -0.00587009 0.00354725 -0.00111024 0.0132678 -0.0221221 0.0055512 0.000610238 0.00115748 -0.00554332 0.00230316 -1.18111e-005 0 -0.00587009 0.00089764 0.00089764 0.00939373 -0.00939373 -0.00089764 -0.00089764 0.0199567 0 0 0.00117717 -0.00704333 0c-0.00200788,0.00751971 -0.00704333,-0.00137402 -0.00704333,0.0140867l-0.00464962 -0.0013189 0.000240158 0.0013189 -0.00608269 0.00148819 0.000996066 0.0104292 0.00169292 0.000519686 -0.00587797 0.00351182 -0.00691734 0.0159804 -0.00318899 0.0126103 -0.0074764 0.00764963 -0.00390946 -0.00067323 0.00134646 0.00358269 -0.0107835 0.00244095 -0.00566931 -0.0076575c-0.00707482,0.00328741 -0.00567324,-0.00347639 -0.0131181,-0.0040945l0 0.0023504c-0.00849215,-0.00449608 -0.00748821,-0.0161457 -0.0163229,-0.0235946 -0.0112363,-0.0094764 -0.00578348,-0.0131575 -0.0165473,-0.0233701 -0.00418505,0.00200788 -0.0238977,0.00726774 -0.0269883,0.00755908 -0.0112796,0.00105118 -0.0185552,0.00281497 -0.0187953,0.0135748l0.00202363 -0.00254725c0.000322836,0.00674805 0.00398033,0.0176103 -0.0032008,0.0142874l0 0.00587009 0.00862207 0.00656695 -0.0028504 0.010126 -0.00276772 -0.00635829c0.000732285,0.0169095 0.0240001,0.0429489 0.0240001,0.0542403l0 0.00117323c0,0.00897247 -0.00336615,0.00583466 -0.00352363,0.0129134l-0.00556694 0.00646065c-0.00517324,0.00108662 -0.00855908,0.0151103 -0.0165315,0.0207481 -0.00438978,0.00310631 -0.00146063,0.00137008 -0.00397639,0.00541734 -0.00124016,0.00198819 -0.00265355,0.00234646 -0.0047756,0.00461812 -0.00336221,0.00360237 -0.0054882,0.00679923 -0.00671655,0.012067l-0.00351969 0c-0.000641734,0.00767325 -0.00679923,0.00773624 -0.0109095,0.0125709 -0.00348426,0.00410237 -0.00527167,0.0144331 -0.00905121,0.0144331l-0.00351969 0 -0.00425592 0.0102244c-0.0030315,0.00134646 -0.0296458,0.0313387 -0.0297914,0.0379096 -0.00261418,0.000700789 -0.00351969,0.000275591 -0.00351969,0.00352363l0 0.00469686 0.102134 0 0.00568899 -0.0039134c0.000877955,-0.0079764 0.00634647,-0.00805514 0.00887798,-0.0143937 0.00288583,-0.00723624 0.0041693,-0.00592915 0.00827955,-0.0140276 0.00197245,-0.00389371 0.0094016,-0.00877168 0.010752,-0.0127284 0.00187402,-0.00547246 0.00445277,-0.013252 0.00983861,-0.0101181l0.00469686 -0.00117323c0.000314961,0.014063 0.0287796,0.0743467 0.0347717,0.0920239 0.0050197,0.0148268 0.0123307,0.0307442 0.018441,0.0449568 0.00319292,0.00743309 0.0144016,0.043823 0.0207481,0.043823l0.102138 0 0.00118504 -0.000523623 -0.112992 -0.255638 0.109457 -0.139496 -0.112701 0c-0.0047008,0 -0.0368899,0.048193 -0.037567,0.0563584z"/>
   <path id="_96356448" class="fil7" d="M0.449635 0.403875c0,0.00495671 0.00365355,0.0117402 0.00822049,0.0117402l0.00117323 0c0.00365355,0 0.00704333,-0.00371655 0.00704333,-0.00822049l0 -0.00821656c0,-0.00379529 -0.00426379,-0.00587009 -0.00821656,-0.00587009 -0.00381497,0 -0.00822049,0.00725593 -0.00822049,0.010567z"/>
   <path id="_73243680" class="fil1" d="M0.716132 0.403875l0 0.00117323c0,0.00381497 0.00358662,0.010567 0.00704333,0.010567l0.00234646 0c0.00282678,0 0.00704333,-0.00421655 0.00704333,-0.00704333l0 -0.00587009c0,-0.00429135 -0.00324017,-0.00939373 -0.00704333,-0.00939373 -0.00605907,0 -0.00938979,0.00488978 -0.00938979,0.010567z"/>
   <path id="_96845992" class="fil5" d="M0.765439 0.435576c0.00741734,0 0.010563,0.00521261 0.010563,0.0129134l-0.02113 0c0.000137796,-0.00626773 0.00478741,-0.0129134 0.010567,-0.0129134zm0.0176063 0.0457875c-0.000342521,-0.00412993 -0.00414174,-0.010567 -0.00821656,-0.010567 -0.00273623,0 -0.0063701,0.00469686 -0.0129134,0.00469686 -0.00459844,0 -0.00821656,-0.00437009 -0.00821656,-0.00939373l0 -0.00587009 0.0363938 0 0 -0.00704333 0 -0.00469686c-0.000255906,-0.0114607 -0.00897247,-0.0258308 -0.0199607,-0.0258308l-0.00821656 0c-0.014315,0 -0.0234804,0.0191103 -0.0234804,0.0352206 0,0.0166457 0.00742915,0.0317009 0.0234804,0.0317009 0.0117126,0 0.0143465,-0.00367324 0.02113,-0.00821656z"/>
   <path id="_96845872" class="fil8" d="M0.713781 0.426182l-0.00587009 0.0610513 0.0117402 0c0.00629136,0 0.010567,-0.0538781 0.010567,-0.0634017l-0.0117402 0c-0.00190552,0 -0.00373623,0.00140945 -0.00469686,0.0023504z"/>
   <path id="_96755352" class="fil5" d="M0.928621 0.448489c0,-0.0069764 0.00393308,-0.0129134 0.00939373,-0.0129134 0.00741734,0 0.010563,0.00521261 0.010563,0.0129134l-0.0199567 0zm-0.0152599 -0.00587009c-0.000307087,0.00367324 -0.00117717,0.0041693 -0.00117717,0.00821656l-0.000299213 0.00942916 0.00147638 0.0140512c0.00837404,0.0125118 0.00475986,0.00598427 0.0140867,0.0140906 0.00263387,0.000614175 0.00269686,0.00117323 0.00587009,0.00117323l0.00351969 0c0.00537403,0 0.0187835,-0.00537009 0.0187835,-0.00939373 0,-0.00227166 -0.00432678,-0.00938979 -0.00587009,-0.00938979 -0.00666931,0 -0.00589765,0.00469686 -0.0152599,0.00469686 -0.00374017,0 -0.00821656,-0.00598427 -0.00821656,-0.010567l0 -0.00469686 0.0363938 0 0 -0.0129134c0,-0.0120276 -0.0102087,-0.0246575 -0.0223071,-0.0246575l-0.00352363 0c-0.0156378,0 -0.0177756,0.011752 -0.0234764,0.0199607z"/>
   <path id="_96755424" class="fil9" d="M0.973231 0.439096l0 0.00704333c0,0.0143347 0.0199607,0.0117559 0.0199607,0.0234843 0,0.00274804 -0.00194882,0.00469293 -0.00469686,0.00469293l-0.00117323 0c-0.00866538,0 -0.00973625,-0.00469293 -0.0140906,-0.00469293 -0.00281891,0 -0.00351969,0.0082953 -0.00351969,0.0117402 0,0.00484647 0.0123071,0.00821656 0.0176103,0.00821656l0.00234646 0c0.00771656,0 0.0187835,-0.0095394 0.0187835,-0.0176103l0 -0.00469686c0,-0.0179016 -0.02113,-0.0179252 -0.02113,-0.0258268l0 -0.00117717c0,-0.00270473 0.000814963,-0.00351969 0.00351969,-0.00351969l0.00352363 0c0.00504726,0 0.00636222,0.00136615 0.010563,0.00234646 0.00137796,-0.00259843 0.00352363,-0.00572836 0.00352363,-0.00939373 0,-0.00368505 -0.00814963,-0.00704333 -0.0117402,-0.00704333l-0.00469686 0c-0.00962995,0 -0.0187835,0.00730317 -0.0187835,0.0164371z"/>
   <path id="_95576184" class="fil9" d="M0.60695 0.417962l0 0.00704726c0,0.0198032 0.0246536,0.0230355 0.0246536,0.0340473 0,0.00502364 -0.00361812,0.00938979 -0.00822049,0.00938979 -0.0101103,0 -0.0107599,-0.00752364 -0.0187835,-0.00938979 -0.000925199,0.00346851 -0.00704333,0.0117638 -0.00704333,0.0140867 0,0.00692522 0.0149685,0.0164371 0.0223071,0.0164371l0.00587009 0c0.00984648,0 0.0234804,-0.0156339 0.0234804,-0.027004l0 -0.00938979c0,-0.0186575 -0.0246536,-0.0239135 -0.0246536,-0.0328741l0 -0.00117323c0,-0.00282678 0.00421655,-0.00704726 0.00704333,-0.00704726l0.00117323 0c0.00700789,0 0.00567324,0.00418505 0.0129134,0.00587009 0.00140945,-0.00604332 0.00587009,-0.00787404 0.00587009,-0.0140867 0,-0.00598821 -0.0123859,-0.010567 -0.0199567,-0.010567l-0.00117323 0c-0.0118189,0 -0.0234804,0.0142323 -0.0234804,0.0246536z"/>
   <path id="_95579376" class="fil8" d="M1.2679 0.487234l0.0396143 -3.93702e-005 0.00264961 -0.0210945 -0.0187835 0c-0.00270473,0 -0.00352363,-0.0008189 -0.00352363,-0.00352363l-0.000464568 -0.00475986 0.00633466 -0.0468978 0 -0.0152638 -0.0129134 0c-0.00534253,0 -0.00768112,0.0380355 -0.00821656,0.0446143 -0.000716537,0.00882286 -0.00678348,0.0436773 -0.00469686,0.0469647z"/>
   <path id="_95579304" class="fil7" d="M0.390938 0.48606c0.00262993,0.000610238 0.00269686,0.00117323 0.00587009,0.00117323l0.0350316 -1.96851e-005 0.00136221 -0.0152441 0 -0.00587009 -0.0223071 0 2.75591e-005 -0.00586616 0.00701577 -0.0551852 0 -0.00939373 -0.0129134 0c-0.00646852,0 -0.00744884,0.035567 -0.00830711,0.0433544 -0.0015315,0.0139489 -0.00577954,0.0325631 -0.00577954,0.0470513z"/>
   <path id="_95576304" class="fil1" d="M1.07185 0.432052c0,-0.00853939 0.00200001,-0.0122402 0.00352363,-0.0187835 0.00870081,0 0.0164371,0.00202756 0.0164371,0.010563l0 0.00117717c0,0.00580317 -0.00476379,0.010567 -0.010567,0.010567l-0.00939373 0 0 -0.00352363zm-0.00469293 0.0352206l0.00352363 -0.0128111 0.0164331 -0.00127559 -0.0176103 0c0.0102559,-0.00891735 0.0340434,0.00825987 0.0340434,-0.0317009l-0.00234646 0 0 -0.00704333c0,-0.00522442 -0.00332284,-0.000515749 -0.00353938,-0.00929136l-0.00813782 -0.00125197 0.00111024 -0.00354725 -0.0223032 0c-0.00317324,0 -0.00323623,0.000562994 -0.00587009,0.00117323l0.00037008 0.00358269 -0.00272048 0.0199016 0 0.00351969c0,0.00672836 0.00187402,0.00839766 0.00266536,0.0145906l-0.00401576 0.00188583 0.0013504 0.00700396 -0.00260237 6.69293e-005 0.00142126 0.00461812 -0.00468899 0.00236221 0 0.0187835c0,0.00270473 0.0008189,0.00352363 0.00352363,0.00352363l0.00234646 0c0.004063,0 0.00587009,-0.018189 0.00587009,-0.0223071l0.00117717 0 0 0.00821656z"/>
   <path id="_95579448" class="fil1" d="M0.690868 0.43432c-0.0101733,7.87404e-005 -0.0193504,0.00397639 -0.0193504,0.0141693l0 0.0129134c0,0.0158189 0.0176103,0.0116339 0.0176103,0.0176103l0 0.00469686 -0.00469686 -0.000318899 -0.00938979 0.000318899c-0.00898821,0 -0.0140867,-0.0111614 -0.0140867,-0.0211339l0 -0.00938979c0,-0.00263387 0.000929136,-0.00257875 0.00234646,-0.00469686l0 -0.00704333c0.00399214,-0.00596458 0.0113386,-0.0152638 0.02113,-0.0152638l0.00690159 4.33072e-005 0.00146063 0.00460631 -0.0014567 -0.000125985 -0.000468505 0.00361418zm0.0029567 0.0388229l0 -0.00351969c-0.00330316,0.000767719 -0.00596458,0.00234646 -0.00939373,0.00234646 -0.00353938,0 -0.00938979,-0.00478741 -0.00938979,-0.00821656l0 -0.0117441c0,-0.00478741 0.00509844,-0.0129134 0.00938979,-0.0129134l0.00352363 0c0.00674018,0 0.00509844,0.00323623 0.010567,0.00469686l0 -0.0164371c-0.00198032,-0.0029567 -0.00571655,-0.00587009 -0.010567,-0.00587009l-0.00234646 0c-0.0168426,0 -0.0281772,0.0173662 -0.0281772,0.0340473l0 0.00822049c0,0.0124489 0.0101969,0.0258268 0.0246536,0.0258268l0.00234646 0c0.00807876,0 0.00939373,-0.00801183 0.00939373,-0.0164371z"/>
   <path id="_95576736" class="fil9" d="M0.525946 0.448489c0.00148819,-0.00640159 0.00393702,-0.0129134 0.0117402,-0.0129134 0.00579135,0 0.00925199,0.00674018 0.00938979,0.0129134l-0.02113 0zm-0.0152638 0l0 0.0187835c0,0.0113898 0.0105158,0.0223071 0.0211339,0.0223071l0.00469293 0c0.00714175,0 0.0145788,-0.00603939 0.0176103,-0.010567 -0.00111024,-0.00166142 -0.00500001,-0.00821656 -0.00704333,-0.00821656 -0.003563,0 -0.00794884,0.00469686 -0.0140867,0.00469686 -0.00364962,0 -0.00939373,-0.0069134 -0.00939373,-0.0117402 0,-0.00270867 0.0008189,-0.00352363 0.00352363,-0.00352363l0.0340434 0 0 -0.00704333c0,-0.013626 -0.00744097,-0.0305276 -0.0199567,-0.0305276l-0.00821656 0c-0.010437,0 -0.0223071,0.014752 -0.0223071,0.0258308z"/>
   <path id="_95576136" class="fil1" d="M0.693687 0.432048l-1.18111e-005 -0.00255119 -0.00153937 -0.00486222 -0.00728742 -4.72442e-005c-0.0103347,0 -0.0180867,0.00981499 -0.0222993,0.0161103l0 0.00743309c-0.00149607,0.00223623 -0.00247638,0.00217717 -0.00247638,0.00496064l0 0.00990948c0,0.0105237 0.0053819,0.0223032 0.0148662,0.0223032l0.00990948 -0.000334647 0.00495671 0.000334647 0.00128347 -0.00704726c0,-0.0063071 -0.0185827,-0.00188977 -0.0185827,-0.0185867l0.00026378 -0.00885435c0,-0.0107559 0.00968507,-0.0148701 0.0204213,-0.0149528l0.000496064 -0.00381497z"/>
   <path id="_95579664" class="fil1" d="M1.36887 0.452009c0,-0.00568899 0.00543309,-0.0129134 0.0117363,-0.0129134l0.0023504 0c0.00633073,0 0.010567,0.0058071 0.010567,0.0117402l0 0.00352363c0,0.00755908 -0.0039882,0.0164371 -0.0117402,0.0164371l-0.00469686 0c-0.00374017,0 -0.00821656,-0.00598427 -0.00821656,-0.010567l0 -0.00822049zm-0.0164371 0.0023504c0,0.0154646 0.00382285,0.0352206 0.0176103,0.0352206 0.00933861,0 0.0130788,-0.00557482 0.0187835,-0.00939373l0 0.00587403 0.0135945 -0.000102362 0.00401576 -0.0151615 0.00821656 -0.081012 -0.0117402 0c-0.00685829,0 -0.00657876,0.0352284 -0.00821656,0.0422678 -0.00807089,-0.00188189 -0.00557876,-0.00939373 -0.0164371,-0.00939373 -0.0186851,0 -0.0222363,0.0162874 -0.0258268,0.0317009z"/>
   <path id="_95579328" class="fil10" d="M0.477812 0.425009l-0.00469686 0 0 0.0140867c0.00836616,0.00018504 0.00578348,0.0117008 0.00461812,0.0222284 -0.000952759,0.00858664 -0.00344489,0.0149095 -0.00344489,0.0259095l0.0150079 -3.14961e-005 0.006126 -0.0481064 0.00704333 0c0.00360631,0 0.00469686,-0.00343702 0.00469686,-0.00704333l0 -0.00822049 -0.00969294 -3.14961e-005 0.00147244 -0.0140552c0.00242127,-0.00161811 0.00304725,-0.00352363 0.00587009,-0.00352363l0.00455513 -1.18111e-005 0.00131496 -0.0164252c-0.00263387,-0.000610238 -0.00269686,-0.00117323 -0.00587009,-0.00117323l-0.00469686 0c-0.0219449,0 -0.0136024,0.0363977 -0.0223032,0.0363977z"/>
   <path id="_95576472" class="fil10" d="M1.32542 0.422659c-0.00540159,0.00342914 -0.00821656,0.001063 -0.00821656,0.0117402l0 0.00469686 0.00352363 0c0.00679923,0 -0.00117323,0.0365946 -0.00117323,0.0469647l0.0147559 -5.51183e-005 0.00402757 -0.0304725 0.00234646 -0.0164371 0.00807876 -1.96851e-005 0.00131496 -0.0105473 0 -0.00117323c0,-0.00695277 -0.00760632,-2.75591e-005 -0.00828349,-0.00700002 -0.000114174,-0.00118504 0.00196457,-0.0132008 0.00241339,-0.0141339l-0.0153662 -1.57481e-005 -0.00342127 0.0164528z"/>
   <path id="_95577816" class="fil7" d="M1.20685 0.468446l-0.00117323 0.010567c-0.000437009,0.00291339 0.00157481,0.00490159 0.00234646,0.00822049 0.00404332,0.00107874 0.00311024,0.00234646 0.00469686,0.00234646 0.00429135,0 0.00939373,-0.00324017 0.00939373,-0.00704333l0 -0.010567c0,-0.00273623 -0.00313387,-0.00587009 -0.00587009,-0.00587009l-0.00469686 0c-0.00263387,0 -0.00257875,0.000929136 -0.00469686,0.00234646z"/>
   <polygon id="_95579544" class="fil8" points="0.448167,0.435545 0.446635,0.439155 0.441419,0.48606 0.456395,0.486021 0.464899,0.423832 0.449293,0.4238 "/>
   <path id="_95576568" class="fil9" d="M0.819439 0.432052l0 -0.00822049 -0.0143347 -2.75591e-005 -0.00679529 0.0622561 0.0140867 0c0.00271261,-0.0116378 0.00257481,-0.0469647 0.0140867,-0.0469647l0.0023504 0c0.00321654,0 0.00740947,0.0053386 0.00721262,0.00824018l-0.00369292 0.0340277 0 0.00469686 0.0144331 3.93702e-005 0.00435041 -0.0387836 0 -0.00939373c0,-0.00778349 -0.00546852,-0.0152638 -0.0129134,-0.0152638l-0.00351969 0c-0.00845278,0 -0.00827955,0.00752758 -0.0152638,0.00939373z"/>
   <path id="_95545816" class="fil1" d="M1.06598 0.487234l0.00117717 -0.0199607 0 -0.00821656 -0.00117717 0c0,0.00411812 -0.00180709,0.0223071 -0.00587009,0.0223071l-0.00234646 0c-0.00270473,0 -0.00352363,-0.0008189 -0.00352363,-0.00352363l0 -0.0187835 0.00468899 -0.00236221 -0.00142126 -0.00461812 0.00260237 -6.69293e-005 -0.0013504 -0.00700396 0.00401576 -0.00188583c-0.000791341,-0.00619293 -0.00266536,-0.00786223 -0.00266536,-0.0145906l0 -0.00351969 0.00272048 -0.0199016 -0.00037008 -0.00358269c0.00263387,-0.000610238 0.00269686,-0.00117323 0.00587009,-0.00117323l0.0223032 0 -0.00111024 0.00354725 0.00813782 0.00125197c0.000216536,0.00877561 0.00353938,0.00406694 0.00353938,0.00929136l0 0.00704333 0.00234646 0c0,0.0399607 -0.0237875,0.0227835 -0.0340434,0.0317009l0.0176103 0 0.00587009 0c0.0159134,-0.0106575 0.010004,-0.0211182 0.0167638,-0.0259213l0.0161063 0.0599687 0.010567 0c0.00755514,0 0.0261772,-0.0582049 0.0340434,-0.0610513l0 0.00704333c0,0.00317324 -0.000559057,0.00323623 -0.00117323,0.00587009l0.00469686 0c0.00666537,0 0.00189371,0.0171378 0.000877955,0.0220119 -0.00148819,0.0071575 -0.00205119,0.016878 -0.00205119,0.0261261l0.0117402 0c0.00628742,0 0.00165355,-0.00577561 0.00469293,-0.010567l0.00469686 -0.037571 0.00469686 0c0.00445277,0 0.00469686,-0.00713388 0.00469686,-0.0117402l0 -0.00352363 -0.00849215 -2.36221e-005 0.00144882 -0.0175867 -0.0140906 0c0,0.033445 -0.0215158,0.00849609 -0.0312993,0.0203583 -0.00134646,0.00162993 -0.0142638,0.0345001 -0.0144843,0.0371733l-0.0023504 0c-0.00236615,-0.0101654 -0.0060945,-0.0332481 -0.010563,-0.0399214l-0.0140906 0c-0.00625592,-0.0118229 -0.00249607,-0.0281772 -0.0246536,-0.0281772l-0.0223032 0c-0.00737797,0 -0.0129134,0.0785081 -0.0129134,0.091579l0.0164331 0z"/>
   <path id="_95545264" class="fil9" d="M1.42052 0.484883c0.00241733,0.00162205 0.00304725,0.00352363 0.00587009,0.00352363l0.00352363 0c0.00331497,0 0.00452757,-0.00269292 0.00586616,-0.00469686l0 -0.0140867c-0.00241733,-0.00162205 -0.00304725,-0.00352363 -0.00586616,-0.00352363l-0.00469686 0c-0.00379529,0 -0.00587009,0.00425985 -0.00587009,0.00821656l0 0.00469686c0,0.00317324 0.000559057,0.00323623 0.00117323,0.00587009z"/>
   <path id="_95543584" class="fil9" d="M0.892227 0.488407l0.004563 -0.00264961 0.00144882 -0.0161221c-0.00381497,0.000291339 -0.00431104,0.00116142 -0.00835829,0.00116142l-0.0023504 0c-0.00666931,0 -0.00938979,-0.00624805 -0.00938979,-0.0129174 0,-0.00782286 0.00390552,-0.0187835 0.010567,-0.0187835l0.00469293 0c0.00274804,0 0.00348426,0.00242127 0.00822049,0.00352363l0.00117323 -0.0152638c-0.00118504,-0.00161811 -0.00450001,-0.00469686 -0.00704333,-0.00469686l-0.0117402 0c-0.0100433,0 -0.0223071,0.0178544 -0.0223071,0.027004l0 0.0164371c0,0.00141733 0.00563387,0.0139567 0.00679529,0.0155119 0.00273229,0.0036693 0.00956696,0.00796853 0.0155119,0.00796853 0.00404726,0 0.00454332,-0.000866144 0.00821656,-0.00117323z"/>
   <path id="_95543872" class="fil11" d="M0.241906 0.503694c-0.00705514,0.000129922 -0.0232245,0.00827561 -0.0315395,0.0107638 -0.00531498,0.00158662 -0.028508,0.0126929 -0.0307481,0.0126929l-0.00587009 0c-0.0015315,0.00379529 -0.031193,0.0140867 -0.037567,0.0140867l-0.00587009 0c-0.00227953,0.00564962 -0.0310985,0.0187875 -0.0399135,0.0187875l-0.00469686 0 0 0.00351969c-0.00516537,0.00120473 -0.0145512,0.00704333 -0.0152599,0.00704333l-0.0110906 0.000972444 -0.00486222 0.00327166 -0.00144489 -0.00147244 0.00917719 -0.0109882 -0.00285434 -0.00040945 0.00872443 -0.0101575c-0.00141733,-0.00211812 -0.00234646,-0.002063 -0.00234646,-0.00469686 0,-0.00476379 0.00438978,-0.00746459 0.00766931,-0.00995672 0.00465749,-0.00354332 -0.00412993,-0.00202756 0.00973231,-0.00525198l-0.00121654 -0.00500001 0.00378741 -0.00327954 -0.00211024 -0.00427954 0.00347245 -0.00312206 0.00339765 -0.00899609 0.000834648 0.000881892 0.00400001 -0.00508269 0.0103465 -0.00404726c0.00063386,-0.00759057 0.0108701,-0.00588584 0.0187835,-0.00587009 0.00964963,1.57481e-005 0.0143347,-0.00120866 0.0234804,-0.00117717 0.0170985,6.29923e-005 0.0313544,0.00117717 0.0493072,0.00117717l0.0140867 0c0.00357875,0 0.00429529,-0.000535435 0.00729923,-0.00147244l0.00326773 0.00381891 0.00824805 0.000271654 0.0149922 -0.00123622 0.00493702 0.00566143 -0.00682679 8.26774e-005 -0.00132678 0.00346458zm-0.179686 0.0774608l0.0023504 -0.00117323 -0.00117717 -0.00234646c0.00883073,-0.000736222 0.0348032,-0.0134016 0.0410907,-0.0176103 0.016063,0 0.0213111,-0.010567 0.0328741,-0.010567l0 -0.00352363c0.00464962,-0.000102362 0.0235394,-0.00514568 0.0246497,-0.00821656l0.00587009 0c0.00391733,0 0.03613,-0.0164371 0.037571,-0.0164371l0.00351969 0c0.00186221,-0.00461812 0.0139882,-0.00508269 0.0185867,-0.00724411 0.00603151,-0.00283859 0.0125079,-0.00443308 0.0185985,-0.00722837 0.00719687,-0.0033071 0.0336812,-0.0115866 0.0344095,-0.0182166l-0.0152441 -0.00135827 -0.158485 0c-0.00833073,0 -0.0185985,0.0080079 -0.0187875,0.0164371 -0.0025315,0.00067323 -0.0176063,0.0224134 -0.0176063,0.0258268l0 0.00352363c-0.00371655,0.000992129 -0.0310473,0.0422285 -0.033756,0.0434922l-0.00146457 0.011689c0.00831105,0 0.0217914,-0.0102796 0.0270001,-0.00704726z"/>
   <path id="_95546008" class="fil2" d="M0.0622206 0.581155c-0.00520868,-0.00323229 -0.018689,0.00704726 -0.0270001,0.00704726l0.00146457 -0.011689c0.00270867,-0.00126378 0.0300395,-0.0425001 0.033756,-0.0434922l0 -0.00352363c0,-0.0034134 0.0150748,-0.0251536 0.0176063,-0.0258268 0.000188977,-0.00842916 0.0104567,-0.0164371 0.0187875,-0.0164371l0.158485 0 0.0152441 0.00135827c-0.000728348,0.00662994 -0.0272127,0.0149095 -0.0344095,0.0182166 -0.00609057,0.00279528 -0.012567,0.00438978 -0.0185985,0.00722837 -0.00459844,0.00216142 -0.0167245,0.00262599 -0.0185867,0.00724411l-0.00351969 0c-0.00144095,0 -0.0336536,0.0164371 -0.037571,0.0164371l-0.00587009 0c-0.00111024,0.00307087 -0.0200001,0.0081142 -0.0246497,0.00821656l0 0.00352363c-0.011563,0 -0.0168111,0.010567 -0.0328741,0.010567 -0.00628742,0.00420867 -0.0322599,0.0168741 -0.0410907,0.0176103l0.00117717 0.00234646 0.00344883 -0.00018504 0.13352 -0.0524568 0.109567 -0.04363 -0.214839 0 -0.00117323 0 -0.0738506 0.114166 0.0409765 -0.0167205z"/>
   <path id="_95545936" class="fil2" d="M0.243233 0.50023l0.00682679 -8.26774e-005 -0.00493702 -0.00566143 -0.0149922 0.00123622 -0.00824805 -0.000271654 -0.00326773 -0.00381891c-0.00300395,0.00093701 -0.00372048,0.00147244 -0.00729923,0.00147244l-0.0140867 0c-0.0179528,0 -0.0322087,-0.00111418 -0.0493072,-0.00117717 -0.00914569,-3.14961e-005 -0.0138307,0.00119292 -0.0234804,0.00117717 -0.00791341,-1.57481e-005 -0.0181497,-0.00172048 -0.0187835,0.00587009l-0.0103465 0.00404726 -0.00400001 0.00508269 -0.000834648 -0.000881892 -0.00339765 0.00899609 -0.00347245 0.00312206 0.00211024 0.00427954 -0.00378741 0.00327954 0.00121654 0.00500001c-0.0138622,0.00322442 -0.00507482,0.00170867 -0.00973231,0.00525198 -0.00327954,0.00249213 -0.00766931,0.00519293 -0.00766931,0.00995672 0,0.00263387 0.000929136,0.00257875 0.00234646,0.00469686l-0.00872443 0.0101575 0.00285434 0.00040945 -0.00917719 0.0109882 0.00144489 0.00147244 0.00486222 -0.00327166 0.0110906 -0.000972444c0.000708663,0 0.0100945,-0.0058386 0.0152599,-0.00704333l0 -0.00351969 0.00469686 0c0.00881498,0 0.037634,-0.0131378 0.0399135,-0.0187875l0.00587009 0c0.00637403,0 0.0360355,-0.0102914 0.037567,-0.0140867l0.00587009 0c0.00224016,0 0.0254331,-0.0111063 0.0307481,-0.0126929 0.00831498,-0.0024882 0.0244843,-0.0106339 0.0315395,-0.0107638l0.00132678 -0.00346458z"/>
  </g>
 </g>
</svg>
