<?xml version="1.0" encoding="UTF-8"?>
<!DOCTYPE svg PUBLIC "-//W3C//DTD SVG 1.1//EN" "http://www.w3.org/Graphics/SVG/1.1/DTD/svg11.dtd">
<!-- Creator: CorelDRAW -->
<svg xmlns="http://www.w3.org/2000/svg" xml:space="preserve" width="1.46666in" height="0.733331in" style="shape-rendering:geometricPrecision; text-rendering:geometricPrecision; image-rendering:optimizeQuality; fill-rule:evenodd; clip-rule:evenodd"
viewBox="0 0 1.46666 0.733331"
 xmlns:xlink="http://www.w3.org/1999/xlink">
 <defs>
  <style type="text/css">
   <![CDATA[
    .str0 {stroke:white;stroke-width:0.003}
    .fil3 {fill:none}
    .fil0 {fill:#009C93;fill-rule:nonzero}
    .fil2 {fill:#212023;fill-rule:nonzero}
    .fil1 {fill:#6D3E86;fill-rule:nonzero}
   ]]>
  </style>
 </defs>
 <g id="Layer_x0020_1">
  <metadata id="CorelCorpID_0Corel-Layer"/>
  <g id="_93423640">
   <path id="_93423688" class="fil0" d="M0.206862 0.172504l0.0374685 0.00712992 0 0.143602 -0.122787 -0.0217126 0 -0.14837c0,-0.0376654 0.00802362,-0.0653583 0.0240827,-0.0830945 0.0160472,-0.0177402 0.0373583,-0.0266102 0.0639173,-0.0266102 0.016252,0 0.0313661,0.00273228 0.0453346,0.00817323 0.0139803,0.00545669 0.0266654,0.0137717 0.0380512,0.0249843 0.0114055,0.011189 0.0203701,0.026248 0.0269094,0.0451772 0.00654724,0.0189331 0.00981102,0.0407913 0.00981102,0.065563l9.84252e-005 0.15115 -0.0416181 -0.00744094 -0.000106299 -0.147575c0,-0.0176535 -0.00212598,-0.0327087 -0.00638189,-0.0451929 -0.00427559,-0.0124921 -0.010122,-0.0219055 -0.0175512,-0.028248 -0.0074252,-0.00633465 -0.0151063,-0.0108386 -0.0230354,-0.0135197 -0.0079252,-0.0026811 -0.0165512,-0.00400394 -0.0258661,-0.00400394 -0.0346811,0 -0.0520315,0.0226811 -0.0520315,0.0680787l0 0.104075 0.0437047 0.00773228 0 -0.0998976z"/>
   <path id="_93423616" class="fil1" d="M0.158961 0.452213l-0.0374685 -0.00712992 0 -0.143606 0.122799 0.0217008 0 0.148374c0,0.0376732 -0.00803543,0.0653661 -0.0240827,0.0831063 -0.0160591,0.0177362 -0.0373701,0.0266063 -0.0639291,0.0266063 -0.016252,0 -0.0313583,-0.00272835 -0.0453346,-0.00817717 -0.0139803,-0.00545276 -0.0266575,-0.0137677 -0.0380512,-0.0249764 -0.0113937,-0.0111929 -0.0203701,-0.026248 -0.0269094,-0.0451811 -0.00654724,-0.0189331 -0.00979921,-0.0407913 -0.00979921,-0.065563l-0.000106299 -0.15115 0.0416142 0.00744094 0.000106299 0.147575c0,0.0176417 0.00212992,0.0327087 0.00638189,0.0451929 0.00427559,0.0124803 0.010122,0.0219055 0.0175551,0.0282402 0.00742913,0.00634252 0.0151063,0.0108504 0.0230315,0.0135276 0.00792913,0.00268504 0.0165551,0.00400394 0.0258701,0.00400394 0.0346772,0 0.0520276,-0.0226811 0.0520276,-0.0680748l0 -0.104079 -0.0437047 -0.00773228 0 0.0999016z"/>
   <path id="_93853728" class="fil1" d="M0.416835 0.256976l0 -0.0890866c0,-0.0187087 0.00524409,-0.0328937 0.0157559,-0.0425591 0.0105,-0.00961811 0.0243622,-0.0144567 0.0415472,-0.0144567 0.0163976,0 0.029685,0.00468504 0.0398189,0.0140472 0.0101299,0.00934646 0.0151811,0.0231969 0.0151811,0.0415394l0 0.00600394 -0.0352441 0 0 -0.00600394c0,-0.00765354 -0.00190157,-0.0135118 -0.00572835,-0.0176299 -0.00382677,-0.00411024 -0.00878346,-0.00614961 -0.0149016,-0.00614961 -0.00743307,0 -0.0128346,0.00256299 -0.016185,0.00772047 -0.00333071,0.00516142 -0.005,0.0129016 -0.005,0.0232087l0 0.0793622c0,0.0192835 0.00705118,0.0289094 0.021185,0.0289094 0.00687795,0 0.0120551,-0.00231102 0.0154724,-0.00699213 0.00342913,-0.0046811 0.00515748,-0.0114055 0.00515748,-0.0202047l0 -0.0209173 -0.0209134 0 0 -0.0277913 0.0561575 0 0 0.051c0,0.0183386 -0.00530315,0.0323661 -0.0159094,0.042122 -0.0106102,0.00972047 -0.0242874,0.0146102 -0.0411024,0.0146102 -0.017,0 -0.0304528,-0.00483858 -0.0403819,-0.0144843 -0.00993701,-0.00962598 -0.0149094,-0.0237126 -0.0149094,-0.042248z"/>
   <path id="_93853800" class="fil1" d="M0.550965 0.256976l0 -0.0890866c0,-0.0187205 0.00525591,-0.0329016 0.0157559,-0.0425512 0.0105039,-0.00962598 0.0243661,-0.0144646 0.0415512,-0.0144646 0.0166102,0 0.029937,0.00483858 0.0399724,0.0144646 0.00999606,0.00964961 0.0150276,0.0238307 0.0150276,0.0425512l0 0.0890866c0,0.0183307 -0.00530315,0.0323661 -0.0159094,0.042122 -0.0106024,0.00973228 -0.0242874,0.0146102 -0.0410945,0.0146102 -0.017,0 -0.0304606,-0.00483071 -0.0403898,-0.0144961 -0.00993701,-0.00961417 -0.0149134,-0.0237008 -0.0149134,-0.0422362zm0.077063 -0.00400394l0 0 0 -0.0793622c0,-0.0101339 -0.00172047,-0.017815 -0.00514961,-0.023063 -0.00341732,-0.00524409 -0.0086063,-0.00787795 -0.0154803,-0.00787795 -0.0074252,0 -0.0128268,0.0025748 -0.016185,0.00772441 -0.00333465,0.00515748 -0.00500394,0.0129173 -0.00500394,0.0232165l0 0.0793622c0,0.0192953 0.00705118,0.0289213 0.021189,0.0289213 0.00670079,0 0.0118031,-0.00252756 0.0153268,-0.00758661 0.00352756,-0.00507087 0.00530315,-0.0121811 0.00530315,-0.0213346z"/>
   <path id="_93853872" class="fil1" d="M0.68511 0.256976l0 -0.0890866c0,-0.0187205 0.00524409,-0.0329016 0.0157559,-0.0425512 0.0105,-0.00962598 0.0243622,-0.0144646 0.0415472,-0.0144646 0.0166024,0 0.0299291,0.00483858 0.0399724,0.0144646 0.00998819,0.00964961 0.0150276,0.0238307 0.0150276,0.0425512l0 0.0890866c0,0.0183307 -0.00530315,0.0323661 -0.0159016,0.042122 -0.0106063,0.00973228 -0.0242953,0.0146102 -0.0411102,0.0146102 -0.017,0 -0.0304606,-0.00483071 -0.0403819,-0.0144961 -0.00993701,-0.00961417 -0.0149094,-0.0237008 -0.0149094,-0.0422362zm0.0770512 -0.00400394l0 0 0 -0.0793622c0,-0.0101339 -0.00170866,-0.017815 -0.00514961,-0.023063 -0.00341732,-0.00524409 -0.0086063,-0.00787795 -0.0154724,-0.00787795 -0.00743307,0 -0.0128307,0.0025748 -0.016185,0.00772441 -0.00333071,0.00515748 -0.00500394,0.0129173 -0.00500394,0.0232165l0 0.0793622c0,0.0192953 0.00705512,0.0289213 0.021189,0.0289213 0.00669291,0 0.0118031,-0.00252756 0.0153268,-0.00758661 0.00352756,-0.00507087 0.00529528,-0.0121811 0.00529528,-0.0213346z"/>
   <path id="_93853944" class="fil1" d="M0.875138 0.113732c0.0166024,0 0.0299173,0.00477953 0.0399449,0.0143386 0.0100236,0.00955906 0.0150551,0.0236811 0.0150551,0.0423898l0 0.0842126c0,0.0185433 -0.00525591,0.0326102 -0.0157559,0.0422756 -0.0105118,0.00962598 -0.0241693,0.0144449 -0.0409724,0.0144449l-0.0530118 0 0 -0.197661 0.0547402 0zm0.0144528 0.158429l0 0c0.00353543,-0.00516142 0.00530709,-0.0123386 0.00530709,-0.0214882l0 -0.074189c0,-0.010122 -0.00173228,-0.0178071 -0.00514961,-0.0230591 -0.00346063,-0.00524803 -0.0086063,-0.00787008 -0.0154843,-0.00787008l-0.0189055 0 0 0.134327 0.0189055 0c0.00667323,0 0.0117913,-0.00256299 0.0153268,-0.00772047z"/>
   <polygon id="_93854016" class="fil1" points="1.06082,0.311406 1.02561,0.311406 1.02561,0.22661 0.988366,0.22661 0.988366,0.311406 0.953122,0.311406 0.953122,0.113732 0.988366,0.113732 0.988366,0.195098 1.02561,0.195098 1.02561,0.113732 1.06082,0.113732 "/>
   <path id="_93854088" class="fil1" d="M1.08381 0.256976l0 -0.0890866c0,-0.0187205 0.00524803,-0.0329016 0.0157559,-0.0425512 0.0104921,-0.00962598 0.0243543,-0.0144646 0.0415394,-0.0144646 0.0166102,0 0.029937,0.00483858 0.0399724,0.0144646 0.00999606,0.00964961 0.0150276,0.0238307 0.0150276,0.0425512l0 0.0890866c0,0.0183307 -0.00530315,0.0323661 -0.0159016,0.042122 -0.0105984,0.00973228 -0.0242953,0.0146102 -0.0410984,0.0146102 -0.017,0 -0.0304646,-0.00483071 -0.0403937,-0.0144961 -0.0099252,-0.00961417 -0.0149016,-0.0237008 -0.0149016,-0.0422362zm0.0770551 -0.00400394l0 0 0 -0.0793622c0,-0.0101339 -0.00172047,-0.017815 -0.00514961,-0.023063 -0.00342126,-0.00524409 -0.0086063,-0.00787795 -0.0154843,-0.00787795 -0.00742126,0 -0.0128228,0.0025748 -0.016185,0.00772441 -0.00332283,0.00515748 -0.00499213,0.0129173 -0.00499213,0.0232165l0 0.0793622c0,0.0192953 0.00705118,0.0289213 0.0211772,0.0289213 0.00670079,0 0.0118031,-0.00252756 0.0153268,-0.00758661 0.00352756,-0.00507087 0.00530709,-0.0121811 0.00530709,-0.0213346z"/>
   <path id="_93854160" class="fil1" d="M1.32652 0.175906c0,0.0210118 -0.00425591,0.0366732 -0.0127559,0.0469685 -0.00848031,0.0103189 -0.0222835,0.0154646 -0.0414016,0.0154646l-0.0183189 3.93701e-006 0 0.073063 -0.0349528 0 0 -0.197673 0.0532717 -3.93701e-006c0.0194882,0 0.0333976,0.00514567 0.0417047,0.0154843 0.00829528,0.0102953 0.0124528,0.0258583 0.0124528,0.0466929zm-0.0352441 0l0 0c0,-0.0105 -0.00146457,-0.0182598 -0.00441732,-0.0232047 -0.00297244,-0.00498425 -0.0081811,-0.00746063 -0.0156102,-0.00746063l-0.0172047 3.93701e-006 0 0.0613071 0.0172047 -3.93701e-006c0.00742913,0 0.0126378,-0.00248031 0.0156102,-0.00745276 0.00295276,-0.00495276 0.00441732,-0.012685 0.00441732,-0.023189z"/>
   <polygon id="_93854232" class="fil1" points="1.37843,0.195094 1.42428,0.195094 1.42428,0.226606 1.37843,0.226606 1.37843,0.279878 1.43172,0.279878 1.43172,0.311398 1.34348,0.311398 1.34348,0.113728 1.43172,0.113728 1.43172,0.145551 1.37843,0.145551 "/>
   <path id="_93854304" class="fil1" d="M0.525409 0.450327c0,0.0210197 -0.00425591,0.0366732 -0.0127638,0.0469764 -0.00847244,0.0103071 -0.0222874,0.0154567 -0.0413937,0.0154567l-0.0183307 0 0 0.0730591 -0.0349409 0 0 -0.197661 0.0532717 0c0.0194882,0 0.0333976,0.00517717 0.0417008,0.0154843 0.00829921,0.0102953 0.0124567,0.0258583 0.0124567,0.046685zm-0.0352441 0l0 0c0,-0.0105 -0.00147638,-0.0182638 -0.00442913,-0.0231969 -0.00297244,-0.00499213 -0.0081811,-0.00746063 -0.0156378,-0.00746063l-0.0171772 0 0 0.0612953 0.0171772 0c0.00745669,0 0.0126654,-0.0024685 0.0156378,-0.00744094 0.00295276,-0.00495276 0.00442913,-0.012685 0.00442913,-0.0231969z"/>
   <polygon id="_93854376" class="fil1" points="0.650059,0.585819 0.614854,0.585819 0.614854,0.501035 0.577614,0.501035 0.577614,0.585819 0.54237,0.585819 0.54237,0.388146 0.577614,0.388146 0.577614,0.469524 0.614854,0.469524 0.614854,0.388146 0.650059,0.388146 "/>
   <path id="_93854448" class="fil1" d="M0.708598 0.547429l-0.00800394 0.0383898 -0.0366732 0 0.0507008 -0.197673 0.0343661 0 0.0504291 0.197673 -0.0366732 0 -0.00803543 -0.0383898 -0.0461102 0zm0.0232047 -0.111701l0 0 -0.0166102 0.080189 0.0332244 0 -0.0166142 -0.080189z"/>
   <path id="_93854520" class="fil1" d="M0.848472 0.506465l0 0.0793543 -0.035252 0 0 -0.197673 0.0538622 0c0.0194803,0 0.0332913,0.00469291 0.0413937,0.0140551 0.00812205,0.00936614 0.0121811,0.0243465 0.0121811,0.0449803 0,0.013189 -0.00182677,0.0241575 -0.00546063,0.032937 -0.00361417,0.00879528 -0.00952756,0.0153622 -0.0177559,0.0197598l0.0295118 0.0859409 -0.0366614 0 -0.024937 -0.0793543 -0.0168819 0zm0.0183307 -0.0314921l0 0c0.00705118,0 0.0119291,-0.00235039 0.0146102,-0.00703543 0.00266929,-0.00467323 0.004,-0.0115984 0.004,-0.0207559 0,-0.00917323 -0.00127165,-0.0160591 -0.00384646,-0.0206339 -0.0025748,-0.0045748 -0.00750787,-0.00687795 -0.0147638,-0.00687795l-0.0183307 0 0 0.0553031 0.0183307 0z"/>
   <polygon id="_93854592" class="fil1" points="1.08461,0.585819 1.04937,0.585819 1.04937,0.470094 1.02416,0.547429 1.00525,0.547429 0.980331,0.470941 0.980331,0.585819 0.945091,0.585819 0.945091,0.388146 0.980331,0.388146 1.0147,0.492429 1.04937,0.388146 1.08461,0.388146 "/>
   <path id="_93854664" class="fil1" d="M1.14311 0.547429l-0.00800394 0.0383898 -0.0366614 0 0.0506969 -0.197673 0.0343622 0 0.0504331 0.197673 -0.0366811 0 -0.00802362 -0.0383898 -0.046122 0zm0.0232165 -0.111701l0 0 -0.0166102 0.080189 0.0332244 0 -0.0166142 -0.080189z"/>
   <polygon id="_93873288" class="fil2" points="1.3908,0.0434173 1.3908,0.0482717 1.37943,0.0482717 1.37943,0.0819252 1.37435,0.0819252 1.37435,0.0482717 1.36304,0.0482717 1.36304,0.0434173 "/>
   <polygon id="_93873384" class="fil2" points="1.43078,0.0434173 1.43078,0.0819252 1.42572,0.0819252 1.42572,0.0518465 1.41311,0.0727913 1.41248,0.072752 1.39985,0.0517992 1.39985,0.0819252 1.39476,0.0819252 1.39476,0.0434173 1.40054,0.0434173 1.41283,0.0638543 1.42504,0.0434173 "/>
   <path id="_93873456" class="fil0" d="M0.0783346 0.241472c0,0.0119764 -0.00971654,0.0216929 -0.0217008,0.0216929 -0.0119685,0 -0.0216929,-0.00971654 -0.0216929,-0.0216929 0,-0.0119764 0.00972441,-0.0217008 0.0216929,-0.0217008 0.0119843,0 0.0217008,0.00972441 0.0217008,0.0217008z"/>
   <path id="_93873528" class="fil1" d="M0.329748 0.382366c0,0.0119764 -0.00970472,0.0217047 -0.0216929,0.0217047 -0.0119803,0 -0.0216929,-0.00972835 -0.0216929,-0.0217047 0,-0.0119764 0.0097126,-0.0217008 0.0216929,-0.0217008 0.0119882,0 0.0216929,0.00972441 0.0216929,0.0217008z"/>
  </g>
  <line class="fil3 str0" x1="0.533252" y1="0.725248" x2="0.947701" y2= "0.725248" />
 </g>
</svg>
